<svg width="18" height="19" viewBox="0 0 18 19" fill="none" xmlns="http://www.w3.org/2000/svg">
<path fill-rule="evenodd" clip-rule="evenodd" d="M3.56234 2.50222C3.40694 2.50189 3.25714 2.51948 3.11479 2.55292C2.91965 2.12282 2.66189 1.73695 2.36872 1.44378C1.87113 0.946193 1.08636 0.75 0 0.75V2.5C0.663642 2.5 1.04554 2.59547 1.13128 2.68122C1.46201 3.01194 1.75 3.68393 1.75 4.25L1.75879 4.37374L2.61618 10.3754C1.18156 10.4499 0.0701729 11.564 0.00107501 12.9566L0 13.875C0.0847186 15.3134 1.19241 16.42 2.57533 16.4986L2.77398 16.4989C3.13402 17.519 4.10664 18.25 5.25 18.25C6.39294 18.25 7.36528 17.5195 7.72563 16.5H9.77437C10.1347 17.5195 11.1071 18.25 12.25 18.25C13.6997 18.25 14.875 17.0747 14.875 15.625C14.875 14.1753 13.6997 13 12.25 13C11.1071 13 10.1347 13.7305 9.77437 14.75H7.72563C7.36528 13.7305 6.39294 13 5.25 13C4.10706 13 3.13472 13.7305 2.77437 14.75H2.625C2.17876 14.7232 1.77847 14.3233 1.74843 13.8226L1.75 13C1.77359 12.5461 2.17115 12.1486 2.66836 12.1239L4.39573 12.1244L4.40825 12.125H13.2272L13.3564 12.084C14.0198 11.8735 14.5509 11.3739 14.8024 10.7272L14.8946 10.5448L15.1941 9.95139C15.5039 9.33718 15.8138 8.72191 16.1157 8.12083C16.8553 6.64844 17.3204 5.7127 17.4234 5.48292C17.9524 4.30289 16.8809 3.39466 15.7856 3.37531L3.56234 2.50222ZM12.9233 10.375H4.47382C4.41764 10.3594 4.37482 10.3118 4.36644 10.2525L3.50903 4.25064L15.6568 5.12056C15.4442 5.55403 15.0578 6.32826 14.552 7.33533L14.5393 7.36056C14.2506 7.93538 13.9411 8.5498 13.6317 9.16319L13.3326 9.75581L13.2192 9.98023L13.1765 10.0794C13.1308 10.2068 13.04 10.3114 12.9233 10.375ZM12.25 16.5C12.7332 16.5 13.125 16.1082 13.125 15.625C13.125 15.1418 12.7332 14.75 12.25 14.75C11.7668 14.75 11.375 15.1418 11.375 15.625C11.375 16.1082 11.7668 16.5 12.25 16.5ZM6.125 15.625C6.125 16.1082 5.73325 16.5 5.25 16.5C4.76675 16.5 4.375 16.1082 4.375 15.625C4.375 15.1418 4.76675 14.75 5.25 14.75C5.73325 14.75 6.125 15.1418 6.125 15.625Z" fill="#546A90"/>
</svg>
