<svg width="17" height="17" viewBox="0 0 17 17" fill="none" xmlns="http://www.w3.org/2000/svg">
<path fill-rule="evenodd" clip-rule="evenodd" d="M8.45542 5.91879C8.45542 4.24921 9.14916 2.69286 10.3493 1.57918L11.5986 0.41979L9.91963 0.12646C9.43915 0.0425182 8.94979 0 8.45542 0C3.78562 0 0 3.78562 0 8.45542C0 13.1252 3.78562 16.9108 8.45542 16.9108C11.3179 16.9108 13.9381 15.4767 15.4959 13.1393L16.44 11.7228L14.7409 11.8264C14.6192 11.8339 14.497 11.8376 14.3742 11.8376C11.1054 11.8376 8.45542 9.18765 8.45542 5.91879ZM8.45611 15.2197C4.72027 15.2197 1.69177 12.1912 1.69177 8.4554C1.69177 4.86008 4.49673 1.91989 8.03768 1.7038C7.21881 2.93273 6.76502 4.3899 6.76502 5.91877C6.76502 9.67214 9.48234 12.7908 13.057 13.415C11.828 14.5563 10.1987 15.2197 8.45611 15.2197Z" fill="#546A90"/>
</svg>
