<svg width="22" height="22" viewBox="0 0 22 22" fill="none" xmlns="http://www.w3.org/2000/svg">
<path fill-rule="evenodd" clip-rule="evenodd" d="M11.0009 21.6384C16.8756 21.6384 21.638 16.876 21.638 11.0011H19.2742C19.2742 15.5704 15.5701 19.2746 11.0009 19.2746C6.43166 19.2746 2.72757 15.5704 2.72757 11.0011C2.72757 6.43179 6.43166 2.72762 11.0009 2.72762C12.3149 2.72762 13.5574 3.03399 14.6609 3.57919L16.2374 1.73989C14.6915 0.86388 12.9046 0.36377 11.0009 0.36377C5.12617 0.36377 0.36377 5.12627 0.36377 11.0011C0.36377 16.876 5.12617 21.6384 11.0009 21.6384Z" fill="#01F0E3"/>
<path fill-rule="evenodd" clip-rule="evenodd" d="M18.9709 7.0639C19.4077 6.57871 19.3683 5.83139 18.8831 5.39472C18.398 4.95805 17.6506 4.99739 17.2139 5.48258L10.6041 12.827L8.29378 10.5017C7.83371 10.0386 7.08538 10.0362 6.62232 10.4962C6.15927 10.9563 6.15684 11.7047 6.6169 12.1677L9.80809 15.3797C10.0371 15.6102 10.3509 15.7363 10.6757 15.7283C11.0005 15.7203 11.3077 15.5789 11.525 15.3374L18.9709 7.0639Z" fill="#01F0E3"/>
</svg>
