<svg width="28" height="26" viewBox="0 0 28 26" fill="none" xmlns="http://www.w3.org/2000/svg">
<path fill-rule="evenodd" clip-rule="evenodd" d="M5.51929 24.8455C2.07109 22.2548 0 18.2 0 13.8034C0 6.17999 6.17999 0 13.8034 0C21.4268 0 27.6068 6.17999 27.6068 13.8034C27.6068 18.2 25.5357 22.2548 22.0875 24.8455L21.7526 25.0971H5.85418L5.51929 24.8455ZM20.9027 22.5874C23.5323 20.4604 25.0971 17.263 25.0971 13.8034C25.0971 7.56608 20.0407 2.50972 13.8034 2.50972C7.56607 2.50972 2.50971 7.56608 2.50971 13.8034C2.50971 17.263 4.07449 20.4604 6.7041 22.5874H20.9027ZM20.4783 6.99387L18.4222 5.55464L15.1181 10.2748C14.7088 10.1222 14.2659 10.0388 13.8034 10.0388C11.7243 10.0388 10.0388 11.7243 10.0388 13.8034C10.0388 15.8825 11.7243 17.568 13.8034 17.568C15.8825 17.568 17.568 15.8825 17.568 13.8034C17.568 13.1064 17.3785 12.4536 17.0483 11.8938L20.4783 6.99387ZM15.0582 13.8034C15.0582 14.4965 14.4964 15.0583 13.8034 15.0583C13.1103 15.0583 12.5485 14.4965 12.5485 13.8034C12.5485 13.1104 13.1103 12.5486 13.8034 12.5486C14.4964 12.5486 15.0582 13.1104 15.0582 13.8034Z" fill="white"/>
</svg>
