<svg width="21" height="28" viewBox="0 0 21 28" fill="none" xmlns="http://www.w3.org/2000/svg">
<path fill-rule="evenodd" clip-rule="evenodd" d="M20.0777 0V10.0388H20.0778L20.0777 11.2937L20.0777 15.051C20.0887 16.9612 19.0229 17.5658 16.0513 18.4563C14.3096 18.9782 13.8034 19.2649 13.8034 19.4502C13.8034 20.4135 13.8916 21.0603 14.0797 21.8125C14.0433 21.667 14.2576 22.4958 14.305 22.7166C14.3882 23.105 14.4309 23.4585 14.4309 23.8422C14.4309 25.9264 12.4704 27.6068 10.0389 27.6068C7.60737 27.6068 5.64688 25.9264 5.64688 23.8422C5.64688 23.4585 5.68955 23.105 5.77277 22.7166C5.82009 22.4958 6.03443 21.667 5.99806 21.8125C6.18611 21.0603 6.27431 20.4135 6.27431 19.4502C6.27431 19.2637 5.7695 18.9776 4.03145 18.4562C1.06379 17.5659 3.67396e-05 16.9631 3.67396e-05 15.0583V12.5485H0V0H20.0777ZM4.75264 16.0523C3.01459 15.5309 2.50978 15.2449 2.50978 15.0583V12.5486H11.2014H17.568L17.568 15.0583C17.5691 15.2471 17.0667 15.5321 15.331 16.0522L15.3256 16.0538C12.3595 16.9426 11.2938 17.5463 11.2938 19.4503C11.2938 20.6307 11.4095 21.4793 11.6449 22.4212C11.6225 22.3314 11.8166 23.0821 11.851 23.2425C11.8994 23.4681 11.9212 23.649 11.9212 23.8423C11.9212 24.4471 11.1628 25.0971 10.0389 25.0971C8.91499 25.0971 8.15663 24.4471 8.15663 23.8423C8.15663 23.649 8.17846 23.4681 8.22681 23.2425C8.26118 23.0821 8.45533 22.3314 8.43287 22.4212C8.66834 21.4793 8.78405 20.6307 8.78405 19.4503C8.78405 17.5454 7.7203 16.9426 4.75264 16.0523ZM2.50975 10.0388V2.50971H5.01947V7.52915H7.52918V2.50971H10.0389V6.2743H12.5486V2.50971H17.568V10.0388H2.50975Z" fill="white"/>
</svg>
