<svg width="26" height="26" viewBox="0 0 26 26" fill="none" xmlns="http://www.w3.org/2000/svg">
<path fill-rule="evenodd" clip-rule="evenodd" d="M10.0389 6.27427H5.26171C6.96891 3.86332 9.54492 2.50971 12.5486 2.50971C18.0929 2.50971 22.5874 7.00425 22.5874 12.5485H25.0971C25.0971 5.61817 19.4789 0 12.5486 0C9.02967 0 5.92935 1.48388 3.76459 4.10381V0H1.25488V8.78398H10.0389V6.27427ZM15.0583 18.8229H19.8354C18.1282 21.2338 15.5522 22.5874 12.5485 22.5874C7.00425 22.5874 2.50971 18.0929 2.50971 12.5486H0C0 19.479 5.61817 25.0971 12.5485 25.0971C16.0674 25.0971 19.1678 23.6132 21.3325 20.9933V25.0971H23.8422V16.3131H15.0583V18.8229Z" fill="white"/>
</svg>
