<svg width="28" height="28" viewBox="0 0 28 28" fill="none" xmlns="http://www.w3.org/2000/svg">
<path fill-rule="evenodd" clip-rule="evenodd" d="M13.8503 0.000319613C13.8347 0.000106653 13.8191 0 13.8034 0C13.7878 0 13.7722 0.000106544 13.7566 0.000319287C6.15474 0.0255277 0 6.19583 0 13.8036C0 21.427 6.17999 27.607 13.8034 27.607C21.4268 27.607 27.6068 21.427 27.6068 13.8036C27.6068 6.19586 21.4521 0.0255808 13.8503 0.000319613ZM2.59212 12.4325C2.95805 12.9007 3.97523 13.4997 5.53164 13.9885C6.14457 14.181 6.81586 14.3502 7.53613 14.4938C7.5315 14.265 7.52916 14.0348 7.52916 13.8034C7.52916 9.62776 8.28903 5.85691 9.60532 3.31583C5.85279 4.8193 3.09484 8.2784 2.59212 12.4325ZM7.69121 17.0796C5.67617 16.7294 3.94836 16.1993 2.63894 15.5173C3.24804 19.5183 5.95655 22.8293 9.60544 24.2912C8.64434 22.4359 7.97987 19.925 7.69121 17.0796ZM10.2634 17.414C11.3891 17.5154 12.5747 17.5679 13.8033 17.5679C15.0122 17.5679 16.2032 17.4994 17.3488 17.3724C16.7827 21.8868 15.2177 25.0971 13.8034 25.0971C12.3936 25.0971 10.8338 21.9065 10.2634 17.414ZM17.5508 14.8129C16.3592 14.9672 15.0934 15.0582 13.8033 15.0582C12.493 15.0582 11.2352 14.9934 10.0581 14.8703C10.0454 14.5194 10.0389 14.1635 10.0389 13.8034C10.0389 7.50904 12.0386 2.50971 13.8034 2.50971C15.5683 2.50971 17.568 7.50904 17.568 13.8034C17.568 14.1439 17.5621 14.4806 17.5508 14.8129ZM19.9262 16.9742C19.6433 19.863 18.9744 22.413 18.0014 24.2912C21.7148 22.8035 24.4542 19.4008 24.9982 15.3047C23.6679 15.9966 21.9157 16.5753 19.9262 16.9742ZM25.0074 12.3729C24.417 13.0357 22.5545 13.8231 20.073 14.3732C20.0761 14.1842 20.0777 13.9942 20.0777 13.8034C20.0777 9.62776 19.3178 5.85691 18.0016 3.31583C21.7361 4.81211 24.4856 8.24536 25.0074 12.3729Z" fill="white"/>
</svg>
