<svg width="28" height="28" viewBox="0 0 28 28" fill="none" xmlns="http://www.w3.org/2000/svg">
<path fill-rule="evenodd" clip-rule="evenodd" d="M13.8034 27.6068C6.17999 27.6068 0 21.4268 0 13.8034C0 6.17999 6.17999 0 13.8034 0H14.3232L27.6068 13.2836V13.8034C27.6068 21.4268 21.4268 27.6068 13.8034 27.6068ZM2.50972 13.8035C2.50972 20.0408 7.56608 25.0972 13.8034 25.0972C19.2074 25.0972 23.7248 21.3017 24.8355 16.2311C23.9303 16.4689 22.9889 16.592 22.0297 16.592C15.9464 16.592 11.0149 11.6605 11.0149 5.57716C11.0149 4.61795 11.138 3.67657 11.3757 2.77134C6.30516 3.88205 2.50972 8.39953 2.50972 13.8035ZM13.8867 3.11284C13.6485 3.90157 13.5246 4.72971 13.5246 5.57716C13.5246 10.2744 17.3325 14.0823 22.0297 14.0823C22.8772 14.0823 23.7053 13.9584 24.494 13.7202L13.8867 3.11284Z" fill="white"/>
</svg>
