<svg width="17" height="17" viewBox="0 0 17 17" fill="none" xmlns="http://www.w3.org/2000/svg">
<path fill-rule="evenodd" clip-rule="evenodd" d="M15.174 8.50001C17.0052 11.4945 17.4651 14.3839 15.9243 15.9246C14.3836 17.4654 11.4942 17.0055 8.4997 15.1743C5.50522 17.0055 2.61582 17.4654 1.07508 15.9246C-0.465646 14.3839 -0.00575148 11.4945 1.82538 8.50001C-0.00575149 5.50553 -0.465646 2.61612 1.07508 1.07539C2.61582 -0.46534 5.50523 -0.00544632 8.49971 1.82569C11.4942 -0.0054463 14.3836 -0.46534 15.9243 1.07539C17.4651 2.61612 17.0052 5.50553 15.174 8.50001ZM6.02483 6.02514C6.83542 5.21455 7.67436 4.51215 8.4997 3.92766C9.32504 4.51215 10.164 5.21455 10.9746 6.02514C11.7852 6.83572 12.4876 7.67467 13.0721 8.50001C12.4876 9.32535 11.7852 10.1643 10.9746 10.9749C10.164 11.7855 9.32505 12.4879 8.49971 13.0724C7.67437 12.4879 6.83542 11.7855 6.02483 10.9749C5.21425 10.1643 4.51184 9.32535 3.92736 8.50001C4.51184 7.67467 5.21425 6.83572 6.02483 6.02514ZM12.212 4.7877C12.8979 5.47356 13.5202 6.18312 14.0705 6.89933C15.1777 4.84296 15.4407 3.06662 14.6869 2.31283C13.9331 1.55903 12.1568 1.82203 10.1004 2.92927C10.8166 3.47949 11.5262 4.10184 12.212 4.7877ZM12.212 12.2123C12.8979 11.5265 13.5202 10.8169 14.0705 10.1007C15.1777 12.1571 15.4407 13.9334 14.6869 14.6872C13.9331 15.441 12.1568 15.178 10.1004 14.0708C10.8166 13.5205 11.5262 12.8982 12.212 12.2123ZM2.92896 10.1007C3.47918 10.8169 4.10154 11.5265 4.7874 12.2123C5.47326 12.8982 6.18282 13.5205 6.89903 14.0708C4.84265 15.178 3.06632 15.441 2.31252 14.6872C1.55873 13.9334 1.82173 12.1571 2.92896 10.1007ZM6.89902 2.92927C4.84265 1.82203 3.06632 1.55903 2.31252 2.31283C1.55873 3.06662 1.82173 4.84296 2.92896 6.89933C3.47918 6.18312 4.10154 5.47356 4.7874 4.7877C5.47325 4.10184 6.18282 3.47949 6.89902 2.92927ZM9.37471 8.50001C9.37471 8.01676 8.98295 7.62501 8.49971 7.62501C8.01646 7.62501 7.62471 8.01676 7.62471 8.50001C7.62471 8.98326 8.01646 9.37501 8.49971 9.37501C8.98295 9.37501 9.37471 8.98326 9.37471 8.50001Z" fill="#546A90"/>
</svg>
