<svg width="17" height="17" viewBox="0 0 17 17" fill="none" xmlns="http://www.w3.org/2000/svg">
<path fill-rule="evenodd" clip-rule="evenodd" d="M15.174 8.3542C17.0052 11.3487 17.4651 14.2381 15.9243 15.7788C14.3836 17.3195 11.4942 16.8597 8.4997 15.0285C5.50522 16.8597 2.61582 17.3195 1.07508 15.7788C-0.465646 14.2381 -0.00575148 11.3487 1.82538 8.3542C-0.00575149 5.35972 -0.465646 2.47031 1.07508 0.929577C2.61582 -0.611153 5.50523 -0.151259 8.49971 1.67987C11.4942 -0.151259 14.3836 -0.611153 15.9243 0.929577C17.4651 2.47031 17.0052 5.35972 15.174 8.3542ZM6.02483 5.87932C6.83542 5.06874 7.67436 4.36633 8.4997 3.78185C9.32504 4.36633 10.164 5.06874 10.9746 5.87932C11.7852 6.68991 12.4876 7.52886 13.0721 8.3542C12.4876 9.17954 11.7852 10.0185 10.9746 10.8291C10.164 11.6397 9.32505 12.3421 8.49971 12.9265C7.67437 12.3421 6.83542 11.6397 6.02483 10.8291C5.21425 10.0185 4.51184 9.17954 3.92736 8.3542C4.51184 7.52886 5.21425 6.68991 6.02483 5.87932ZM12.212 4.64189C12.8979 5.32775 13.5202 6.03731 14.0705 6.75352C15.1777 4.69715 15.4407 2.92081 14.6869 2.16701C13.9331 1.41322 12.1568 1.67622 10.1004 2.78345C10.8166 3.33367 11.5262 3.95603 12.212 4.64189ZM12.212 12.0665C12.8979 11.3806 13.5202 10.6711 14.0705 9.95488C15.1777 12.0112 15.4407 13.7876 14.6869 14.5414C13.9331 15.2952 12.1568 15.0322 10.1004 13.9249C10.8166 13.3747 11.5262 12.7524 12.212 12.0665ZM2.92896 9.95488C3.47918 10.6711 4.10154 11.3806 4.7874 12.0665C5.47326 12.7524 6.18282 13.3747 6.89903 13.9249C4.84265 15.0322 3.06632 15.2952 2.31252 14.5414C1.55873 13.7876 1.82173 12.0113 2.92896 9.95488ZM6.89902 2.78345C4.84265 1.67622 3.06632 1.41322 2.31252 2.16701C1.55873 2.92081 1.82173 4.69715 2.92896 6.75352C3.47918 6.03731 4.10154 5.32775 4.7874 4.64189C5.47325 3.95603 6.18282 3.33367 6.89902 2.78345ZM9.37471 8.3542C9.37471 7.87095 8.98295 7.4792 8.49971 7.4792C8.01646 7.4792 7.62471 7.87095 7.62471 8.3542C7.62471 8.83745 8.01646 9.2292 8.49971 9.2292C8.98295 9.2292 9.37471 8.83745 9.37471 8.3542Z" fill="#01F0E3"/>
</svg>
