<svg width="20" height="21" viewBox="0 0 20 21" fill="none" xmlns="http://www.w3.org/2000/svg">
<path fill-rule="evenodd" clip-rule="evenodd" d="M10.5 4.43703C10.2142 4.39615 9.92208 4.375 9.625 4.375C9.32792 4.375 9.03578 4.39615 8.75 4.43703V0.914238C9.03819 0.888267 9.33005 0.875 9.625 0.875C9.91995 0.875 10.2118 0.888267 10.5 0.914238V4.43703ZM5.25 10.5C5.25 12.9162 7.20875 14.875 9.625 14.875C12.0412 14.875 14 12.9162 14 10.5C14 8.08375 12.0412 6.125 9.625 6.125C7.20875 6.125 5.25 8.08375 5.25 10.5ZM12.25 10.5C12.25 11.9497 11.0747 13.125 9.625 13.125C8.17525 13.125 7 11.9497 7 10.5C7 9.05025 8.17525 7.875 9.625 7.875C11.0747 7.875 12.25 9.05025 12.25 10.5ZM10.5 20.0858V16.563C10.2142 16.6039 9.92208 16.625 9.625 16.625C9.32792 16.625 9.03578 16.6039 8.75 16.563V20.0858C9.03819 20.1117 9.33005 20.125 9.625 20.125C9.91995 20.125 10.2118 20.1117 10.5 20.0858ZM15.688 9.625H19.2108C19.2367 9.91319 19.25 10.205 19.25 10.5C19.25 10.795 19.2367 11.0868 19.2108 11.375H15.688C15.7289 11.0892 15.75 10.7971 15.75 10.5C15.75 10.2029 15.7289 9.91078 15.688 9.625ZM3.5 10.5C3.5 10.2029 3.52115 9.91078 3.56203 9.625H0.0392376C0.0132673 9.91319 0 10.205 0 10.5C0 10.795 0.0132673 11.0868 0.0392376 11.375H3.56203C3.52115 11.0892 3.5 10.7971 3.5 10.5ZM13.2931 5.59441L15.7841 3.10339C16.233 3.4776 16.6473 3.89192 17.0216 4.34083L14.5305 6.83185C14.1792 6.36277 13.7622 5.94574 13.2931 5.59441ZM2.22839 4.34083L4.71942 6.83185C5.07074 6.36277 5.48777 5.94574 5.95685 5.59441L3.46583 3.10339C3.01692 3.4776 2.60261 3.89192 2.22839 4.34083ZM14.5305 14.1681L17.0216 16.6592C16.6473 17.1081 16.233 17.5224 15.7841 17.8966L13.2931 15.4056C13.7622 15.0543 14.1792 14.6372 14.5305 14.1681ZM3.46583 17.8966L5.95685 15.4056C5.48777 15.0543 5.07074 14.6372 4.71942 14.1681L2.22839 16.6592C2.60261 17.1081 3.01692 17.5224 3.46583 17.8966Z" fill="#546A90"/>
</svg>
