<svg width="20" height="21" viewBox="0 0 20 21" fill="none" xmlns="http://www.w3.org/2000/svg">
<path fill-rule="evenodd" clip-rule="evenodd" d="M9.625 5.25C7.50671 5.25 6.125 6.78629 6.125 8.75C6.125 11.749 7.66576 13.125 9.62501 13.125C11.5658 13.125 13.125 11.7947 13.125 8.925C13.125 6.93138 11.7374 5.25 9.625 5.25ZM7.875 8.75C7.875 10.7356 8.59093 11.375 9.625 11.375C10.6555 11.375 11.375 10.7611 11.375 8.925C11.375 7.83162 10.6887 7 9.625 7C8.51702 7 7.875 7.71385 7.875 8.75Z" fill="#546A90"/>
<path fill-rule="evenodd" clip-rule="evenodd" d="M9.625 20.125C4.30926 20.125 0 15.8157 0 10.5C0 5.18426 4.30926 0.875 9.625 0.875C14.9407 0.875 19.25 5.18426 19.25 10.5C19.25 15.8157 14.9407 20.125 9.625 20.125ZM16.0996 14.9841C16.9825 13.7115 17.5 12.1662 17.5 10.5C17.5 6.15076 13.9742 2.625 9.625 2.625C5.27576 2.625 1.75 6.15076 1.75 10.5C1.75 12.1662 2.26746 13.7115 3.15045 14.9841C4.13521 13.6833 6.44928 13.125 9.62501 13.125C12.8007 13.125 15.1148 13.6833 16.0996 14.9841ZM14.8441 16.3973C14.588 15.4764 12.7482 14.875 9.62501 14.875C6.50179 14.875 4.662 15.4764 4.40591 16.3973C5.79539 17.6279 7.62295 18.375 9.625 18.375C11.6271 18.375 13.4546 17.6279 14.8441 16.3973Z" fill="#546A90"/>
</svg>
