<svg width="21" height="17" viewBox="0 0 21 17" fill="none" xmlns="http://www.w3.org/2000/svg">
<path fill-rule="evenodd" clip-rule="evenodd" d="M18.375 2.375C19.3415 2.375 20.125 3.1585 20.125 4.125V14.625C20.125 15.5915 19.3415 16.375 18.375 16.375H2.625C1.6585 16.375 0.875 15.5915 0.875 14.625V2.375C0.875 1.4085 1.6585 0.625 2.625 0.625H7.875C8.855 0.625 9.47882 1.04102 10.1054 1.8315C10.1227 1.85334 10.1648 1.90769 10.2116 1.9679L10.2117 1.96809C10.2778 2.0532 10.3528 2.14996 10.3797 2.18322C10.4068 2.21685 10.4297 2.24466 10.4486 2.26765C10.5255 2.36125 10.5367 2.37481 10.5016 2.375H18.375ZM18.375 5.875V4.125L10.4953 4.12499C9.86693 4.12162 9.45761 3.82742 9.0176 3.28197C8.97774 3.23256 8.88088 3.1077 8.81055 3.01705C8.77375 2.9696 8.7442 2.93151 8.7339 2.91851C8.40614 2.505 8.21121 2.375 7.875 2.375H2.625V5.875H18.375ZM18.375 7.625H2.625V14.625H18.375V7.625Z" fill="#546A90"/>
</svg>
