<svg width="21" height="16" viewBox="0 0 21 16" fill="none" xmlns="http://www.w3.org/2000/svg">
<path fill-rule="evenodd" clip-rule="evenodd" d="M18.375 1.75C19.3415 1.75 20.125 2.5335 20.125 3.5V14C20.125 14.9665 19.3415 15.75 18.375 15.75H2.625C1.6585 15.75 0.875 14.9665 0.875 14V1.75C0.875 0.783502 1.6585 0 2.625 0H7.875C8.855 0 9.47882 0.41602 10.1054 1.2065C10.1227 1.22834 10.1648 1.28269 10.2116 1.3429L10.2117 1.34309C10.2778 1.4282 10.3528 1.52496 10.3797 1.55822C10.4068 1.59185 10.4297 1.61966 10.4486 1.64265C10.5255 1.73625 10.5367 1.74981 10.5016 1.75H18.375ZM18.375 5.25V3.5L10.4953 3.49999C9.86693 3.49662 9.45761 3.20242 9.0176 2.65697C8.97774 2.60756 8.88088 2.4827 8.81055 2.39205C8.77375 2.3446 8.7442 2.30651 8.7339 2.29351C8.40614 1.88 8.21121 1.75 7.875 1.75H2.625V5.25H18.375ZM18.375 7H2.625V14H18.375V7Z" fill="#01F0E3"/>
</svg>
