<svg width="14" height="14" viewBox="0 0 14 14" fill="none" xmlns="http://www.w3.org/2000/svg">
<path fill-rule="evenodd" clip-rule="evenodd" d="M5.66634 11C2.72082 11 0.333008 8.6122 0.333008 5.66668C0.333008 2.72116 2.72082 0.333344 5.66634 0.333344C8.61186 0.333344 10.9997 2.72116 10.9997 5.66668C10.9997 6.89915 10.5816 8.03398 9.87958 8.93711L13.4711 12.5286L12.5283 13.4714L8.93677 9.87992C8.03365 10.582 6.89882 11 5.66634 11ZM9.66634 5.66668C9.66634 7.87582 7.87548 9.66668 5.66634 9.66668C3.4572 9.66668 1.66634 7.87582 1.66634 5.66668C1.66634 3.45754 3.4572 1.66668 5.66634 1.66668C7.87548 1.66668 9.66634 3.45754 9.66634 5.66668Z" fill="#546A90"/>
</svg>
