<svg width="19" height="16" viewBox="0 0 19 16" fill="none" xmlns="http://www.w3.org/2000/svg">
<path fill-rule="evenodd" clip-rule="evenodd" d="M2.70677 5.23577L4.64152 4.26839L6.06992 7.12519L4.30575 12.4177C4.48381 12.5489 4.67186 12.676 4.8684 12.7978C6.05955 10.6535 7.07683 9.81733 9.06271 9.81733C11.2691 9.81733 13.1531 11.1721 13.709 13.0447C14 12.885 14.2764 12.7134 14.534 12.533C14.2 12.1145 13.9269 11.6616 13.697 11.1646C13.449 10.6282 13.3859 10.4408 13.0271 9.28025C12.499 7.57195 12.1135 7.19233 10.3752 7.19233H9.50021C8.14196 7.19233 6.87521 5.92558 6.87521 4.56733C6.87521 3.51063 6.06329 2.70599 4.23716 2.17498L2.70677 5.23577ZM4.1805 7.25947L2.92388 11.0293C2.65263 10.6186 2.50021 10.2059 2.50021 9.81733H0.750212C0.750212 12.8577 5.28494 15.9423 9.50021 15.9423C13.7155 15.9423 18.2502 12.8577 18.2502 9.81733H16.5002C16.5002 10.3092 16.2559 10.8398 15.8356 11.3561C15.6215 11.0741 15.442 10.7686 15.2854 10.43C15.0842 9.99499 15.03 9.83391 14.699 8.7634C14.5528 8.29023 14.3971 7.87358 14.2207 7.50974C15.4087 6.97765 16.5561 7.11453 17.7649 7.92037L18.7356 6.46428C16.8883 5.23277 14.9684 5.11429 13.1071 6.10883C12.4601 5.64889 11.5973 5.44233 10.3752 5.44233H9.50021C9.10846 5.44233 8.62521 4.95908 8.62521 4.56733C8.62521 2.30581 6.82385 0.864729 3.54681 0.20932L2.50021 0V1.73577L0.560547 5.6151L2.32744 7.38199L3.8589 6.61626L4.1805 7.25947ZM6.43606 13.579C7.40801 13.9583 8.46736 14.1923 9.50021 14.1923C10.3645 14.1923 11.2473 14.0285 12.0819 13.7528C11.8383 12.5288 10.596 11.5673 9.06271 11.5673C7.92393 11.5673 7.29543 12.0508 6.43606 13.579Z" fill="#01F0E3"/>
</svg>
