<svg width="19" height="17" viewBox="0 0 19 17" fill="none" xmlns="http://www.w3.org/2000/svg">
<path fill-rule="evenodd" clip-rule="evenodd" d="M2.70677 5.54345L4.64152 4.57607L6.06992 7.43287L4.30575 12.7254C4.48381 12.8566 4.67186 12.9837 4.8684 13.1055C6.05955 10.9611 7.07683 10.125 9.06271 10.125C11.2691 10.125 13.1531 11.4798 13.709 13.3524C14 13.1927 14.2764 13.021 14.534 12.8407C14.2 12.4221 13.9269 11.9692 13.697 11.4723C13.449 10.9359 13.3859 10.7485 13.0271 9.58793C12.499 7.87963 12.1135 7.50001 10.3752 7.50001H9.50021C8.14196 7.50001 6.87521 6.23326 6.87521 4.87501C6.87521 3.81831 6.06329 3.01367 4.23716 2.48266L2.70677 5.54345ZM4.1805 7.56714L2.92388 11.337C2.65263 10.9263 2.50021 10.5136 2.50021 10.125H0.750212C0.750212 13.1654 5.28494 16.25 9.50021 16.25C13.7155 16.25 18.2502 13.1654 18.2502 10.125H16.5002C16.5002 10.6169 16.2559 11.1475 15.8356 11.6638C15.6215 11.3818 15.442 11.0763 15.2854 10.7377C15.0842 10.3027 15.03 10.1416 14.699 9.07108C14.5528 8.59791 14.3971 8.18126 14.2207 7.81742C15.4087 7.28533 16.5561 7.42221 17.7649 8.22805L18.7356 6.77196C16.8883 5.54045 14.9684 5.42197 13.1071 6.41651C12.4601 5.95657 11.5973 5.75001 10.3752 5.75001H9.50021C9.10846 5.75001 8.62521 5.26676 8.62521 4.87501C8.62521 2.61349 6.82385 1.17241 3.54681 0.516999L2.50021 0.307678V2.04345L0.560547 5.92278L2.32744 7.68967L3.8589 6.92394L4.1805 7.56714ZM6.43606 13.8867C7.40801 14.266 8.46736 14.5 9.50021 14.5C10.3645 14.5 11.2473 14.3362 12.0819 14.0605C11.8383 12.8364 10.596 11.875 9.06271 11.875C7.92393 11.875 7.29543 12.3585 6.43606 13.8867Z" fill="#546A90"/>
</svg>
