<svg width="48" height="48" viewBox="0 0 48 48" fill="none" xmlns="http://www.w3.org/2000/svg">
<path d="M47.5 24C47.5 36.9787 36.9787 47.5 24 47.5C11.0213 47.5 0.5 36.9787 0.5 24C0.5 11.0213 11.0213 0.5 24 0.5C36.9787 0.5 47.5 11.0213 47.5 24Z" stroke="#DBDEE7"/>
<path fill-rule="evenodd" clip-rule="evenodd" d="M25.2929 30.7071C25.6834 31.0976 26.3166 31.0976 26.7071 30.7071C27.0976 30.3166 27.0976 29.6834 26.7071 29.2929L21.4142 24L26.7071 18.7071C27.0976 18.3166 27.0976 17.6834 26.7071 17.2929C26.3166 16.9024 25.6834 16.9024 25.2929 17.2929L19.2929 23.2929C18.9024 23.6834 18.9024 24.3166 19.2929 24.7071L25.2929 30.7071Z" fill="white"/>
</svg>
