<svg width="21" height="19" viewBox="0 0 21 19" fill="none" xmlns="http://www.w3.org/2000/svg">
<path fill-rule="evenodd" clip-rule="evenodd" d="M2.36872 0.131287L1.13128 1.36872L4.88756 5.12501H2.625C1.6585 5.12501 0.875 5.90851 0.875 6.87501V12.125C0.875 13.0915 1.6585 13.875 2.625 13.875H5.91844L12.25 17.0408V12.4874L18.6313 18.8687L19.8687 17.6313L2.36872 0.131287ZM10.5 10.7374L7 7.23744V12.4592L10.5 14.2092V10.7374ZM10.5 4.79078V5.81257L12.25 7.56257V1.95923L8.51444 3.82701L9.81881 5.13138L10.5 4.79078ZM14.8414 10.154L16.3322 11.6448C16.5225 10.9677 16.625 10.2466 16.625 9.5C16.625 7.39067 15.8068 5.48584 14.5029 4.19768L13.1226 5.30192C14.1813 6.25525 14.875 7.77247 14.875 9.5C14.875 9.72171 14.8636 9.93996 14.8414 10.154ZM17.7224 13.035L19.0503 14.3628C19.7347 12.932 20.125 11.2683 20.125 9.5C20.125 6.4971 18.9994 3.79566 17.2192 2.02464L15.8403 3.1278C17.3677 4.55307 18.375 6.86435 18.375 9.5C18.375 10.7755 18.1391 11.9751 17.7224 13.035ZM5.25 6.87501H2.625V12.125H5.25V6.87501Z" fill="#546A90"/>
</svg>
