<svg width="21" height="17" viewBox="0 0 21 17" fill="none" xmlns="http://www.w3.org/2000/svg">
<path fill-rule="evenodd" clip-rule="evenodd" d="M7 5.54077L10.5 3.79077V13.2092L7 11.4592V5.54077ZM5.91844 4.12499L12.25 0.959213V16.0408L5.91844 12.875H2.625C1.6585 12.875 0.875 12.0915 0.875 11.125V5.87499C0.875 4.90849 1.6585 4.12499 2.625 4.12499H5.91844ZM5.25 5.87499H2.625V11.125H5.25V5.87499ZM17.2192 1.02462C18.9994 2.79564 20.125 5.49708 20.125 8.49999C20.125 11.5029 18.9994 14.2043 17.2192 15.9754L15.8403 14.8722C17.3677 13.4469 18.375 11.1356 18.375 8.49999C18.375 5.86434 17.3677 3.55306 15.8403 2.12779L17.2192 1.02462ZM16.625 8.49999C16.625 6.39066 15.8068 4.48583 14.5029 3.19767L13.1226 4.3019C14.1813 5.25524 14.875 6.77245 14.875 8.49999C14.875 10.2275 14.1813 11.7447 13.1226 12.6981L14.5029 13.8023C15.8068 12.5142 16.625 10.6093 16.625 8.49999Z" fill="#01F0E3"/>
</svg>
