<svg width="1440" height="302" viewBox="0 0 1440 302" fill="none" xmlns="http://www.w3.org/2000/svg">
<path fill-rule="evenodd" clip-rule="evenodd" d="M1440 144L1423.2 162C1405.2 180 1371.6 216 1336.8 240C1303.2 264 1268.4 276 1234.8 246C1200 216 1165.2 144 1131.6 108C1096.8 71.9999 1063.2 71.9999 1028.4 102C994.8 132 960 192 925.2 210C891.6 228 856.8 204 823.2 198C788.4 192 754.8 204 720 216C685.2 228 651.6 240 616.8 228C583.2 216 548.4 180 514.8 198C480 216 445.2 288 411.6 300C376.8 312 343.2 264 308.4 234C274.8 204 240 192 205.2 192C171.6 192 136.8 204 103.2 222C68.3999 240 34.7999 264 16.7999 276L1.21402e-06 288L2.63918e-05 -0.000186924L16.8 -0.000185455C34.8 -0.000183882 68.3999 -0.000180944 103.2 -0.000177902C136.8 -0.000174965 171.6 -0.000171922 205.2 -0.000168985C240 -0.000165942 274.8 -0.0001629 308.4 -0.000159963C343.2 -0.00015692 376.8 -0.000153983 411.6 -0.000150941C445.2 -0.000148003 480 -0.000144961 514.8 -0.000141919C548.4 -0.000138981 583.2 -0.000135939 616.8 -0.000133002C651.6 -0.000129959 685.2 -0.000127022 720 -0.00012398C754.8 -0.000120937 788.4 -0.000118 823.2 -0.000114958C856.8 -0.00011202 891.6 -0.000108978 925.2 -0.00010604C960 -0.000102998 994.8 -9.99558e-05 1028.4 -9.70184e-05C1063.2 -9.39761e-05 1096.8 -9.10387e-05 1131.6 -8.79963e-05C1165.2 -8.50589e-05 1200 -8.20166e-05 1234.8 -7.89743e-05C1268.4 -7.60369e-05 1303.2 -7.29946e-05 1336.8 -7.00572e-05C1371.6 -6.70149e-05 1405.2 -6.40775e-05 1423.2 -6.25039e-05L1440 -6.10352e-05L1440 144Z" fill="#4028FB"/>
</svg>
