<svg width="512" height="512" viewBox="0 0 512 512" fill="none" xmlns="http://www.w3.org/2000/svg">
<g clip-path="url(#clip0_540_816)">
<path d="M171.333 512C218.437 512 256.667 473.77 256.667 426.666V341.333H171.333C124.229 341.333 86 379.562 86 426.666C86 473.77 124.229 512 171.333 512Z" fill="#0ACF83"/>
<path d="M86 256C86 208.896 124.229 170.667 171.333 170.667H256.667V341.334H171.333C124.229 341.334 86 303.104 86 256Z" fill="#A259FF"/>
<path d="M86 85.3333C86 38.2293 124.229 0 171.333 0H256.667V170.667H171.333C124.229 170.667 86 132.437 86 85.3333Z" fill="#F24E1E"/>
<path d="M256.668 0H342.001C389.105 0 427.335 38.2293 427.335 85.3333C427.335 132.437 389.105 170.667 342.001 170.667H256.668V0Z" fill="#FF7262"/>
<path d="M427.335 256C427.335 303.104 389.105 341.334 342.001 341.334C294.897 341.334 256.668 303.104 256.668 256C256.668 208.896 294.897 170.667 342.001 170.667C389.105 170.667 427.335 208.896 427.335 256Z" fill="#1ABCFE"/>
</g>
<defs>
<clipPath id="clip0_540_816">
<rect width="512" height="512" fill="white"/>
</clipPath>
</defs>
</svg>
