<svg width="512" height="512" viewBox="0 0 512 512" fill="none" xmlns="http://www.w3.org/2000/svg">
<g clip-path="url(#clip0_540_1508)">
<path fill-rule="evenodd" clip-rule="evenodd" d="M494.67 233.836L277.212 16.3939C264.698 3.86871 244.386 3.86871 231.855 16.3939L186.7 61.549L243.981 118.83C257.293 114.333 272.556 117.349 283.169 127.962C293.83 138.64 296.825 154.034 292.218 167.39L347.423 222.595C360.779 217.993 376.189 220.972 386.857 231.655C401.764 246.558 401.764 270.712 386.857 285.625C371.943 300.538 347.789 300.538 332.871 285.625C321.657 274.4 318.886 257.93 324.564 244.115L273.081 192.632L273.075 328.113C276.709 329.917 280.141 332.316 283.169 335.332C298.077 350.234 298.077 374.389 283.169 389.313C268.255 404.221 244.09 404.221 229.199 389.313C214.291 374.389 214.291 350.234 229.199 335.332C232.882 331.654 237.145 328.873 241.691 327.004V190.26C237.145 188.402 232.888 185.637 229.199 181.932C217.903 170.652 215.187 154.078 220.975 140.208L164.513 83.7358L15.4077 232.83C2.87711 245.366 2.87711 265.679 15.4077 278.204L232.866 495.651C245.386 508.176 265.693 508.176 278.229 495.651L494.67 279.215C507.196 266.684 507.196 246.361 494.67 233.836Z" fill="#DE4C36"/>
</g>
<defs>
<clipPath id="clip0_540_1508">
<rect width="500" height="498.054" fill="white" transform="translate(6.00781 7)"/>
</clipPath>
</defs>
</svg>
