<svg width="512" height="512" viewBox="0 0 512 512" fill="none" xmlns="http://www.w3.org/2000/svg">
<g clip-path="url(#clip0_539_651)">
<path d="M511.283 255.366C511.283 396.393 396.952 510.727 255.917 510.727C114.878 510.727 0.548828 396.393 0.548828 255.366C0.548828 114.331 114.879 0 255.917 0C396.954 0 511.283 114.331 511.283 255.366Z" fill="#DD4814"/>
<path d="M82.2751 221.265C63.4362 221.265 48.1738 236.529 48.1738 255.367C48.1738 274.195 63.4362 289.457 82.2751 289.457C101.104 289.457 116.366 274.195 116.366 255.367C116.366 236.529 101.104 221.265 82.2751 221.265ZM325.705 376.223C309.397 385.641 303.806 406.482 313.226 422.78C322.634 439.087 343.475 444.677 359.782 435.259C376.088 425.851 381.68 405.01 372.261 388.701C362.853 372.404 342 366.814 325.705 376.223ZM156.332 255.367C156.332 221.674 173.067 191.907 198.675 173.882L173.749 132.134C143.919 152.073 121.725 182.542 112.501 218.228C123.264 227.01 130.152 240.379 130.152 255.365C130.152 270.342 123.264 283.711 112.501 292.493C121.713 328.189 143.907 358.66 173.749 378.599L198.675 336.841C173.067 318.826 156.332 289.061 156.332 255.367ZM255.917 155.771C307.943 155.771 350.626 195.661 355.107 246.532L403.688 245.816C401.298 208.26 384.891 174.544 359.682 149.752C346.718 154.65 331.744 153.9 318.801 146.44C305.836 138.958 297.707 126.337 295.485 112.636C282.885 109.158 269.624 107.254 255.914 107.254C232.345 107.254 210.062 112.79 190.277 122.583L213.967 165.035C226.712 159.105 240.929 155.771 255.917 155.771ZM255.917 354.951C240.929 354.951 226.712 351.617 213.969 345.687L190.279 388.138C210.063 397.943 232.347 403.48 255.917 403.48C269.627 403.48 282.888 401.575 295.486 398.087C297.709 384.386 305.84 371.777 318.803 364.281C331.754 356.809 346.719 356.073 359.683 360.971C384.893 336.178 401.299 302.463 403.69 264.907L355.096 264.191C350.626 315.075 307.944 354.951 255.917 354.951ZM325.693 134.49C342 143.907 362.842 138.329 372.25 122.021C381.669 105.714 376.091 84.8721 359.782 75.4519C343.475 66.0437 322.634 71.6336 313.213 87.9411C303.806 104.239 309.396 125.081 325.693 134.49Z" fill="white"/>
</g>
<defs>
<clipPath id="clip0_539_651">
<rect width="512" height="512" fill="white" transform="translate(0.0078125)"/>
</clipPath>
</defs>
</svg>
