<svg width="513" height="512" viewBox="0 0 513 512" fill="none" xmlns="http://www.w3.org/2000/svg">
<path fill-rule="evenodd" clip-rule="evenodd" d="M459.612 329.426C452.712 329.426 446.027 330.934 440.12 333.618C437.531 332.043 436.216 330.516 432.31 329.028V154.957L256.114 52.418L108.141 139.764C105.629 138.293 103.102 136.758 100.51 135.188C100.297 109.47 79.3326 88.6106 53.5655 88.6106C27.6656 88.6106 6.60156 109.682 6.60156 135.582C6.60156 161.482 27.6773 182.554 53.5772 182.554C60.4775 182.554 67.3094 181.046 73.2155 178.363C75.6627 179.851 78.8013 181.296 80.7544 182.706V358.351L256.7 460.193L406.107 372.798C408.303 374.091 410.463 375.425 412.719 376.794C412.933 402.513 433.88 423.372 459.647 423.372C485.547 423.372 506.602 402.298 506.602 376.398C506.602 350.498 485.512 329.426 459.612 329.426Z" fill="#B8C6C9"/>
<g clip-path="url(#clip0_540_1061)">
<path fill-rule="evenodd" clip-rule="evenodd" d="M256.36 431.04L407.04 342.875V169.733L256.352 82L105.754 170.961V343.897L256.36 431.04Z" fill="#759BC5"/>
<path fill-rule="evenodd" clip-rule="evenodd" d="M481.08 376.786C481.08 388.598 471.515 398.173 459.719 398.173C447.92 398.173 438.357 388.598 438.357 376.786C438.357 364.975 447.92 355.398 459.719 355.398C471.515 355.398 481.08 364.975 481.08 376.786Z" fill="#759BC5"/>
<path fill-rule="evenodd" clip-rule="evenodd" d="M32.1328 135.562C32.1328 123.751 41.6958 114.175 53.4942 114.175C65.2906 114.175 74.8555 123.751 74.8555 135.562C74.8555 147.373 65.2906 156.949 53.4942 156.949C41.6958 156.949 32.1328 147.373 32.1328 135.562Z" fill="#759BC5"/>
</g>
<path fill-rule="evenodd" clip-rule="evenodd" d="M459.914 389.401C452.843 389.401 447.093 383.648 447.093 376.578C447.093 369.507 452.843 363.757 459.914 363.757C466.984 363.757 472.735 369.507 472.735 376.578C472.735 383.648 466.984 389.401 459.914 389.401ZM285.774 403.766C299.729 383.664 316.268 354.855 326.443 320.25C348.056 324.685 368.229 331.873 390.112 342.792L285.774 403.766ZM180.459 204.422C177.087 218.491 174.777 233.474 174.255 249.237C154.61 249.242 135.469 249.242 113.967 249.242V180.068C135.469 191.66 158.103 199.475 180.459 204.422ZM53.5422 148.38C46.4719 148.38 40.7192 142.629 40.7192 135.559C40.7192 128.489 46.4719 122.738 53.5422 122.738C60.6125 122.738 66.3633 128.489 66.3633 135.559C66.3633 142.629 60.6125 148.38 53.5422 148.38ZM224.294 110.953C210.275 130.531 194.228 157.99 184.206 191.294C164 186.898 144.942 180.027 124.423 169.878L224.294 110.953ZM262.157 300.564C262.169 295.308 262.185 289.969 262.2 284.57C273.28 282.35 282.074 273.804 284.707 262.879C298.246 262.89 311.182 262.898 323.872 262.9C323.356 277.51 321.241 291.566 318.031 304.886C300.869 302.095 282.651 300.777 262.157 300.564ZM262.134 314.237C281.404 314.435 298.445 315.606 314.439 318.094C300.91 362.674 276.296 397.53 262.417 414.763C262.181 382.88 262.087 350.075 262.134 314.237ZM184.24 322.154C194.279 355.592 210.345 382.938 224.378 402.361L121.87 343.118C134.417 337.223 155.933 328.485 184.24 322.154ZM228.256 262.885C230.848 273.632 239.406 282.066 250.235 284.449C250.218 289.901 250.202 295.292 250.19 300.599C229.077 300.955 209.731 303.179 192.485 306.401C189.164 292.757 186.992 278.212 186.505 262.908C200.108 262.904 213.881 262.896 228.256 262.885ZM250.181 211.565C250.194 216.96 250.21 222.341 250.227 227.715C239.426 230.094 230.885 238.495 228.274 249.207C213.899 249.219 200.128 249.227 186.527 249.233C187.049 234.287 189.166 220.08 192.383 206.737C210.126 209.827 228.929 211.301 250.181 211.565ZM250.046 106.609C250.063 136.601 250.083 167.321 250.147 197.888C230.141 197.641 212.529 196.336 195.98 193.562C209.89 148.046 235.579 114.116 250.04 97.5786L250.046 106.609ZM326.155 190.888C316.01 157.004 299.762 128.841 285.982 109.088L391.011 170.166C378.042 176.055 355.646 184.787 326.155 190.888ZM262.013 106.602L262.007 97.4241C275.707 114.172 300.468 148.63 314.188 193.138C298.445 195.808 280.991 197.614 262.114 197.878C262.05 167.314 262.03 136.593 262.013 106.602ZM256.481 271.466C247.997 271.466 241.095 264.564 241.095 256.08C241.095 247.597 247.997 240.694 256.481 240.694C264.964 240.694 271.866 247.597 271.866 256.08C271.866 264.564 264.964 271.466 256.481 271.466ZM250.458 415.696C236.177 399.399 210.259 365.377 196.16 319.713C212.394 316.706 230.522 314.63 250.167 314.276C250.12 350.445 250.216 383.529 250.458 415.696ZM284.686 249.201C282.027 238.314 273.248 229.803 262.192 227.59C262.177 222.255 262.161 216.911 262.147 211.555C282.457 211.287 301.127 209.346 317.869 206.471C321.178 219.998 323.36 234.31 323.876 249.225C311.18 249.221 298.232 249.213 284.686 249.201ZM397.403 249.182C377.856 249.209 355.982 249.225 335.219 249.225C334.717 233.47 332.18 218.41 328.79 204.219C360.668 197.606 385.675 188.022 397.403 181.781V249.182ZM113.967 262.918C135.469 262.918 154.694 262.918 174.329 262.912C174.804 279.117 176.929 294.461 180.35 308.821C149.842 315.647 127.65 325.184 113.967 331.457V262.918ZM329.291 307.089C332.569 293.122 334.4 278.337 334.901 262.902C355.66 262.9 377.856 262.886 397.403 262.857V331.855C375.901 319.886 352.583 311.966 329.291 307.089ZM459.914 346.662C451.88 346.662 444.205 349.862 438.826 355.035C430.702 349.939 422.815 345.288 414.996 341.027V164.784L256.058 72.1357L106.476 160.503C98.4933 156.035 90.3088 151.095 81.5829 145.622C82.7146 142.471 83.4105 139.093 83.4105 135.559C83.4105 119.063 70.0128 105.644 53.5168 105.644C37.0208 105.644 23.6133 119.063 23.6133 135.559C23.6133 152.055 37.0403 165.476 53.5363 165.476C61.5703 165.476 68.4119 162.276 73.7932 157.104C81.7666 162.104 90.5101 166.674 96.3743 170.871V348.65L256.055 440.671L407.627 352.226C415.279 356.536 423.327 361.286 431.664 366.515C430.532 369.666 429.94 373.044 429.94 376.578C429.94 393.074 443.388 406.495 459.884 406.495C476.38 406.495 489.815 393.074 489.815 376.578C489.815 360.082 476.41 346.662 459.914 346.662Z" fill="#343532"/>
<defs>
<clipPath id="clip0_540_1061">
<rect width="449.219" height="351.562" fill="white" transform="translate(31.9922 81.2969)"/>
</clipPath>
</defs>
</svg>
