<svg width="512" height="512" viewBox="0 0 512 512" fill="none" xmlns="http://www.w3.org/2000/svg">
<path fill-rule="evenodd" clip-rule="evenodd" d="M71.0852 460.819L30 0H481.456L440.327 460.746L255.451 512L71.0852 460.819Z" fill="#E44D26"/>
<path fill-rule="evenodd" clip-rule="evenodd" d="M255.727 472.824L405.115 431.408L440.262 37.6787H255.727V472.824Z" fill="#F16529"/>
<path d="M180.939 208.59H255.727V265.107H129.252L114.008 94.1973H255.727V150.715H175.774L180.939 208.59Z" fill="#EBEBEB"/>
<path d="M255.479 355.438L255.727 355.372V414.174L255.467 414.246L139.695 382.107L131.777 293.367H188.512L192.535 338.442L255.479 355.438Z" fill="#EBEBEB"/>
<path d="M255.531 94.1973H397.108L392.048 150.715H255.531V94.1973Z" fill="white"/>
<path d="M255.531 265.107V208.59H386.905L385.526 223.767L371.395 382.107L255.531 414.219V355.42L318.566 338.406L325.126 265.107H255.531Z" fill="white"/>
</svg>
