<svg width="512" height="512" viewBox="0 0 512 512" fill="none" xmlns="http://www.w3.org/2000/svg">
<path fill-rule="evenodd" clip-rule="evenodd" d="M71.0864 460.816L30 0H481.474L440.344 460.741L255.464 512L71.0864 460.816Z" fill="#0071BC"/>
<path fill-rule="evenodd" clip-rule="evenodd" d="M256.117 472.795L405.324 431.748L440.283 38.376H256.117V472.795Z" fill="#29ABE2"/>
<path fill-rule="evenodd" clip-rule="evenodd" d="M124.047 207.678L128.996 264.112L256.117 207.678V151.152L124.047 207.678Z" fill="#B3B3B3"/>
<path fill-rule="evenodd" clip-rule="evenodd" d="M396.907 90.8145L256.117 151.153V207.679L392.053 147.249L396.907 90.8145Z" fill="#E6E6E6"/>
<path fill-rule="evenodd" clip-rule="evenodd" d="M256.117 355.337L255.68 355.403L192.638 338.472L188.519 293.458H131.781L139.699 382.139L255.668 414.249L256.117 414.143V355.337Z" fill="#E6E6E6"/>
<path fill-rule="evenodd" clip-rule="evenodd" d="M256.117 207.678V264.112H325.139L318.865 337.895L256.117 355.385V414.187L371.701 382.077L386.922 207.678H256.117Z" fill="white"/>
<path fill-rule="evenodd" clip-rule="evenodd" d="M256.117 207.678H124.047L128.996 264.112H256.117V207.678Z" fill="#E6E6E6"/>
<path fill-rule="evenodd" clip-rule="evenodd" d="M256.115 147.249V90.8145H255.542H114.012L119.02 147.249H256.115Z" fill="#E6E6E6"/>
<path fill-rule="evenodd" clip-rule="evenodd" d="M256.117 90.8145V146.541V147.249H392.053L396.907 90.8145H256.117Z" fill="white"/>
</svg>
