<svg width="512" height="512" viewBox="0 0 512 512" fill="none" xmlns="http://www.w3.org/2000/svg">
<path fill-rule="evenodd" clip-rule="evenodd" d="M172.249 311.509C164.314 316.472 152.358 324.511 143.109 333.255C127.925 347.595 124.747 367.486 132.758 372.132C140.167 376.427 157.466 371.317 169.846 357.813C182.84 343.636 188.198 325.663 182.664 305.26C182.014 305.648 181.375 306.037 180.749 306.398L180.763 306.426L179.923 306.902C176.693 308.83 174.053 310.421 172.249 311.509ZM395.237 305.073C390.742 314.84 390.517 317.984 391.882 318.962C398.404 316.619 409.195 310.972 409.28 295.84C409.294 293.574 408.794 291.142 407.991 288.602C401.019 294.776 397 301.24 395.237 305.073ZM465.22 275.538C447.797 273.508 434.201 275.951 423.65 280.347C425.604 285.433 427.106 290.73 427.317 296.066C427.807 307.777 419.746 316.445 411.345 322.632C406.439 326.24 401.218 328.644 396.836 330.096C393.333 331.574 388.676 333.102 385.37 332.427C378.084 330.946 374.205 324.474 379.162 310.195C381.84 302.468 389.563 290.706 402.031 280.574C399.189 274.724 396.022 268.764 394.408 263.288C391.227 252.492 390.266 245.967 390.266 245.967C390.266 245.967 379.99 267.272 366.732 286.648C365.968 287.774 365.205 288.878 364.44 289.979C367.044 296.03 369.096 302.429 369.374 308.881C369.862 320.591 364.792 329.446 356.379 335.62C351.824 338.979 346.966 341.298 342.797 342.774C340.131 343.938 334.71 345.852 327 346.368C322.783 346.656 318.727 346.395 316.462 344.678C313.345 342.323 312.969 339.417 314.584 335.446C315.949 332.076 326.162 320.417 334.725 310.209C337.09 307.39 339.343 304.509 341.358 301.842L341.309 301.728C341.309 301.728 342.86 299.726 345.377 296.231C342.247 289.492 338.28 282.477 336.415 276.115C333.234 265.32 332.271 258.793 332.271 258.793C332.271 258.793 321.855 285.497 311.003 306.815C302.606 323.325 296.997 333.33 294.469 337.714L294.444 337.89C294.444 337.89 294.067 338.53 293.416 339.532L292.93 340.344L292.916 340.269C290.099 344.429 283.778 352.581 277.495 352.581C260.246 352.581 266.578 317.549 266.578 317.549C266.578 317.549 261.536 330.525 255.852 341.66C251.222 350.74 247.003 358.433 237.778 358.433C235.125 358.433 230.918 358.356 227.425 355.035C219.502 347.508 213.444 328.393 214.631 313.59C215.645 301.003 217.585 292.284 220.239 285.009C215.507 287.588 210.038 290.646 204.468 293.916L195.904 298.962L196.181 299.463C203.265 313.166 205.155 343.189 189.708 366.235C174.263 389.293 145.51 403.322 117.497 395.532C108.457 393.013 94.8021 374.313 106.58 348.248C116.969 325.264 158.49 303.533 169.432 298.11L172.435 296.456C150.619 277.368 96.1416 251.617 88.5068 212.062C86.3532 200.927 91.5734 174.299 124.268 143.689C151.768 117.95 190.022 98.2346 225.36 85.6715C284.729 64.5674 347.456 77.0162 357.106 114.868C366.594 152.093 334.3 196.62 292.942 212.627C256.015 226.917 225.485 224.651 212.942 220.532C198.684 215.847 190.323 206.439 188.283 201.129C187.481 199.05 186.102 195.557 188.283 194.354C189.621 193.615 190.159 193.791 193.739 197.748C197.145 201.506 210.838 211.59 236.85 208.67C305.109 201.018 346.227 147.948 333.234 119.39C324.135 99.4002 271.524 90.3814 205.794 123.16C125.556 163.165 121.201 196.144 120.514 208.67C118.635 243.125 163.009 261.25 187.019 286.875L187.944 287.89C192.437 285.41 197.183 282.793 201.838 280.238C213.944 273.586 225.36 267.347 230.679 264.441C239.13 252.158 256.276 238.603 268.657 238.603C288.447 238.603 281.65 267.049 281.65 267.049C281.65 267.049 282.051 265.747 282.589 265.735C283.152 265.719 285.331 261.987 291.44 264.216C297.724 266.521 296.295 270.931 296.334 271.381C296.41 272.257 288.911 297.545 285.795 313.765C284.304 321.506 285.167 327.144 285.608 327.144C286.22 327.144 287.473 325.177 288.637 323.061L288.611 322.997C288.611 322.997 289.486 321.395 290.952 318.514L291.241 317.912L291.253 317.939C292.981 314.557 295.408 309.584 298.212 303.422C303.706 291.311 324.672 244.554 326.451 239.381C328.227 234.209 329.154 228.861 330.031 226.567C330.894 224.276 338.305 222.547 346.966 222.61C355.628 222.673 356.507 226.368 356.567 227.132C356.63 227.895 352.449 238.154 351.485 245.405C350.534 252.658 351.449 256.276 352.237 262.364C352.751 266.346 355.241 271.395 358.184 277.119C367.147 262.463 382.916 234.433 384.432 226.579C385.469 221.207 387.135 216.059 388.012 213.765C388.887 211.474 396.287 209.747 404.947 209.808C413.609 209.871 414.485 213.566 414.548 214.33C414.611 215.095 410.416 225.352 409.466 232.605C408.514 239.844 409.43 243.477 410.217 249.564C410.894 254.774 414.923 261.776 418.918 269.74C429.819 264.366 442.65 260.76 457.672 260.685C463.892 260.649 471.116 261.274 474.846 262.438V142.61C474.846 134.156 470.514 126.366 463.193 122.146L267.72 9.16638C260.411 4.94454 251.461 4.94454 244.15 9.16638L49.2167 122.091C41.9061 126.313 38 134.117 38 142.557V368.613C38 377.054 41.93 384.858 49.2287 389.078L244.476 502.091C251.785 506.327 260.648 506.327 267.957 502.091L463.294 389.078C470.602 384.844 474.86 377.052 474.86 368.613V277.255C472.381 276.525 468.751 275.95 465.22 275.538ZM254.927 263.701C250.734 268.397 243.587 280.508 240.244 290.644C233.597 310.77 236.476 331.224 241.183 332.453C246.677 333.892 255.691 306.989 260.007 296.467C262.712 289.878 273.227 260.634 270.923 256.726C269.125 253.67 261.674 256.137 254.927 263.701ZM330.973 331.537C330.973 331.537 329.647 332.791 330.22 333.141C330.997 333.605 332.674 333.003 334.502 332.05C339.672 328.796 351.275 320.678 351.3 308.666C351.3 308.317 351.287 307.979 351.263 307.615C348.572 311.148 346.092 314.291 343.952 316.958C340.297 321.504 330.973 331.537 330.973 331.537Z" fill="#E535AB"/>
</svg>
