<svg width="512" height="512" viewBox="0 0 512 512" fill="none" xmlns="http://www.w3.org/2000/svg">
<path d="M198.592 101.682C198.123 101.98 197.655 102.278 197.145 102.619C197.023 102.739 196.903 102.773 196.905 102.783C196.906 102.787 196.926 102.787 196.975 102.787C197.071 103.264 197.112 103.687 197.161 104.178C197.198 104.556 197.239 104.974 197.312 105.488C197.779 104.822 198.193 104.209 198.585 103.627C199.187 102.735 199.738 101.918 200.352 101.1L200.014 100.762C199.512 101.096 199.052 101.389 198.592 101.682Z" fill="#DD3735"/>
<path d="M251.494 185.832C249.637 186.676 248.117 187.352 246.598 188.025C246.598 188.097 246.447 188.379 246.286 188.681C246.066 189.094 245.826 189.545 245.924 189.545C246.317 189.467 246.93 189.131 247.576 188.779C248.315 188.374 249.096 187.947 249.637 187.857C250.143 187.857 250.818 188.025 251.324 188.195C251.324 187.52 251.324 186.844 251.494 185.832Z" fill="#DD3735"/>
<path d="M374.152 332.64C373.742 332.199 373.303 331.726 373.189 331.158C373.153 331.593 373.117 332.004 373.083 332.396C372.956 333.835 372.852 335.029 372.852 336.223C372.852 336.559 373.189 337.234 373.357 337.234C373.695 337.404 374.371 337.066 374.709 336.896C374.877 336.729 375.047 336.391 375.047 336.223C374.794 336.054 374.541 335.927 374.289 335.801C374.035 335.674 373.781 335.546 373.527 335.377C375.655 334.258 374.96 333.509 374.152 332.64Z" fill="#DD3735"/>
<path fill-rule="evenodd" clip-rule="evenodd" d="M505.808 242.518C505.64 236.104 505.302 229.522 504.964 223.108C504.879 221.459 504.805 219.809 504.731 218.16L504.731 218.158C504.51 213.225 504.289 208.292 503.782 203.36L503.697 202.713L503.697 202.712C502.543 193.973 501.37 185.088 499.394 176.522C497.874 169.264 495.343 162.344 492.812 155.424C492.622 154.945 492.432 154.465 492.242 153.985C489.222 146.344 486.158 138.592 482.347 131.288C477.457 122.011 471.45 113.479 465.433 104.931C463.349 101.97 461.263 99.0066 459.222 96.0104C456.749 92.5002 453.937 89.2918 451.125 86.0824C447.986 82.5007 444.846 78.9178 442.175 74.9128C439.306 70.5241 435.085 66.8093 430.866 63.4343C424.114 58.0339 417.025 53.1374 409.937 48.4128C404.534 44.6979 399.134 41.155 393.396 37.9479C390.067 36.0983 386.56 34.5195 383.069 32.9483L383.068 32.9478C381.779 32.3672 380.491 31.7877 379.216 31.196C378.107 30.6759 377.006 30.1346 375.902 29.5925C371.632 27.4939 367.336 25.3831 362.507 24.444C361.297 24.1751 360.196 23.7997 359.03 23.4026C358.731 23.3008 358.428 23.1976 358.118 23.0944C356.703 22.6016 355.309 22.0868 353.922 21.5741C351.505 20.6809 349.107 19.7944 346.64 19.0436C344.677 18.4262 342.732 17.7714 340.787 17.1166C336.881 15.8016 332.975 14.4864 328.917 13.4733C323.011 11.9538 316.935 10.9401 310.859 10.0964C306.392 9.42702 301.851 9.05261 297.334 8.68016C295.024 8.48967 292.72 8.29966 290.435 8.07098C286.046 7.56512 281.657 7.05926 277.437 6.88934C273.19 6.66688 268.869 6.59173 264.571 6.51701C262.379 6.47889 260.193 6.44088 258.027 6.38348C257.247 6.34263 256.457 6.29173 255.662 6.24049C253.188 6.08108 250.664 5.91848 248.237 6.04559C243.343 6.21551 238.448 6.72137 233.552 7.39716C230.223 7.75359 226.893 8.27777 223.622 8.79274C222.25 9.00862 220.889 9.22294 219.542 9.42255C216.765 9.75857 213.988 10.0111 211.21 10.2636C208.418 10.5174 205.626 10.7713 202.833 11.11C199.234 11.5749 195.555 12.1988 191.906 12.8176C190.25 13.0983 188.601 13.378 186.968 13.6413C186.041 13.8099 185.114 14.0626 184.188 14.3152C183.257 14.5689 182.327 14.8226 181.398 14.9909C180.02 15.2785 178.623 15.5073 177.22 15.7372C174.496 16.1834 171.749 16.6334 169.075 17.5241C161.818 19.7175 154.56 22.2507 147.47 24.9499C140.888 27.6511 134.474 30.5202 128.23 33.8972C122.837 36.8761 117.682 40.3342 112.565 43.7676C111.596 44.4176 110.629 45.0668 109.661 45.7116C103.923 49.5925 98.1847 53.6452 92.6144 58.0339C87.214 62.2526 82.1496 66.9792 77.2551 71.7057C75.479 73.4805 73.9225 75.4748 72.3446 77.4965C71.5227 78.5496 70.6949 79.6102 69.8273 80.6511C68.8038 81.8385 67.7803 83.016 66.759 84.1908C63.5707 87.8587 60.4051 91.5003 57.3371 95.3347C54.8616 98.4305 52.5668 101.617 50.2547 104.827C49.4146 105.993 48.5721 107.163 47.7179 108.333C41.9777 116.096 37.0832 124.366 32.5265 132.637C30.6799 135.993 29.0012 139.35 27.3236 142.705L27.3229 142.707L27.2941 142.764C26.453 144.446 25.5935 146.109 24.7341 147.772C23.0055 151.116 21.2768 154.461 19.6984 157.956C18.0109 161.501 16.6593 165.382 15.6476 169.264C13.2843 177.534 10.9211 185.973 8.72771 194.245C6.70232 201.671 6.1945 209.436 6.02654 217.032C5.85986 223.653 6.50685 230.114 7.1694 236.73L7.20818 237.118C7.25497 237.588 7.21021 238.084 7.16507 238.585C7.04816 239.881 6.92864 241.207 8.38982 242.18C8.55779 242.18 8.38982 242.856 8.21989 243.024C7.71404 244.038 8.21989 245.049 9.23357 245.387C9.23357 245.387 9.40154 245.557 9.40154 245.725H8.55779C8.31708 246.448 8.57299 247.095 8.83459 247.756C9.12277 248.484 9.41787 249.229 9.06364 250.114C8.94034 250.362 9.27174 250.791 9.5896 251.203C9.70473 251.352 9.81807 251.498 9.90739 251.633C9.90739 251.796 9.89001 251.977 9.87201 252.163C9.83409 252.557 9.79347 252.978 9.90739 253.321C9.97763 253.949 10.1343 254.577 10.2939 255.216C10.5205 256.124 10.7531 257.056 10.7531 258.048C10.7531 258.769 11.1306 259.554 11.5015 260.324C11.7377 260.815 11.9712 261.301 12.1027 261.76C12.2707 262.266 12.1027 263.11 11.7648 263.448C10.7531 264.63 10.9211 265.643 12.4406 266.317C12.7785 266.487 13.2843 267.161 13.2843 267.499C13.2843 268.173 13.1349 268.846 12.9853 269.52C12.9101 269.859 12.8347 270.198 12.7785 270.538C13.1144 270.876 13.2843 271.212 13.1144 271.549C13.1144 271.781 13.0084 272.013 12.9098 272.229C12.7929 272.485 12.6864 272.718 12.7785 272.901C14.1281 275.6 14.634 278.639 14.8039 281.676C14.8039 282.234 15.0343 282.792 15.3037 283.445C15.3606 283.583 15.4192 283.725 15.4777 283.872C15.6476 283.872 16.1535 283.872 16.4914 284.04L15.4777 287.079C16.0846 286.714 16.6046 286.524 17.1628 286.321C17.3804 286.242 17.6044 286.16 17.841 286.065C18.3468 288.26 18.8547 290.286 19.5285 292.141C19.6984 292.479 20.0363 292.817 20.5422 293.155C20.482 293.275 20.4431 293.436 20.4031 293.603C20.3301 293.907 20.2533 294.227 20.0363 294.337C20.2145 295.14 20.3692 295.931 20.5222 296.714C20.9478 298.892 21.3605 301.004 22.2297 303.114C22.3149 303.114 22.3996 303.071 22.4841 303.029C22.568 302.986 22.6518 302.944 22.7355 302.944C22.4824 301.424 22.2714 299.862 22.0603 298.3C21.8495 296.74 21.6387 295.179 21.3859 293.661V292.649C21.3859 292.649 21.7238 292.479 21.8918 292.479C21.9482 292.703 22.023 292.946 22.0979 293.189C22.2487 293.678 22.3996 294.167 22.3996 294.505C23.0744 294.505 23.9181 294.716 24.7619 294.926C25.6056 295.137 26.4494 295.348 27.1242 295.348C27.1815 295.178 27.2387 294.988 27.2957 294.798C27.4077 294.425 27.5194 294.053 27.632 293.831C27.1258 293.325 26.662 292.692 26.1983 292.06C25.7333 291.426 25.2684 290.792 24.7609 290.286C25.0016 291.247 24.8994 291.78 24.8207 292.191C24.7889 292.357 24.7609 292.503 24.7609 292.649C24.0871 292.311 23.2433 291.973 22.3996 291.635C23.0734 290.792 23.7492 289.948 24.7609 288.934C24.7609 287.417 23.9172 286.065 21.5539 286.235C21.9766 286.094 22.3994 285.924 22.8342 285.749C23.4418 285.504 24.0734 285.25 24.7609 285.053L24.7774 285.103C24.9417 285.592 25.1043 286.076 25.2687 286.403C26.1015 284.945 25.6492 283.68 25.1807 282.369C24.8899 281.556 24.5929 280.726 24.5929 279.821C24.6937 278.1 24.1268 276.379 23.5478 274.621C23.1615 273.448 22.77 272.26 22.5676 271.044C22.0697 268.255 21.9241 264.644 21.7844 261.181C21.6874 258.775 21.5933 256.44 21.3859 254.503C21.3859 254.249 21.1008 253.995 20.8157 253.742C20.7211 253.657 20.6264 253.573 20.5422 253.489C20.4568 253.574 20.2012 254.171 19.9467 254.765C19.6949 255.352 19.4441 255.938 19.3605 256.022C19.8664 260.073 20.3722 264.124 20.7101 268.174C20.5422 268.174 20.3722 268.174 20.3722 268.342C20.2231 267.558 20.0739 266.765 19.9228 265.962C19.3911 263.138 18.8359 260.188 18.1789 257.034C18.1143 257.488 18.0494 257.843 17.994 258.146C17.9053 258.63 17.841 258.981 17.841 259.397C17.5883 259.313 17.42 259.229 17.2094 259.123C16.9983 259.018 16.7447 258.89 16.3215 258.721C16.6664 259.497 17.0114 260.141 17.3337 260.743C17.6429 261.32 17.9312 261.858 18.1789 262.436C16.9972 261.928 15.6476 262.098 15.6476 262.098V266.823C14.4814 265.657 13.8786 264.652 13.339 263.752C13.0978 263.35 12.8692 262.969 12.6086 262.604C12.4396 261.929 12.3132 261.254 12.1867 260.579C12.0602 259.904 11.9338 259.228 11.7648 258.553L12.2707 258.383C12.2017 258.107 12.104 257.858 12.0128 257.626C11.8821 257.293 11.7648 256.994 11.7648 256.696C11.5968 255.514 11.4269 254.165 11.259 252.645C11.3286 252.576 11.4857 252.506 11.6697 252.423C11.9294 252.308 12.2429 252.168 12.4406 251.971L11.089 249.946C11.4908 249.996 11.8476 250.046 12.173 250.091C12.942 250.199 13.5352 250.282 14.1281 250.282C14.1281 250.154 14.1526 250.05 14.1735 249.961C14.2074 249.817 14.232 249.712 14.1281 249.608C12.6871 248.311 13.3382 247.135 13.9788 245.979C14.0883 245.782 14.1977 245.584 14.2961 245.387C14.465 245.049 14.8449 244.839 15.2248 244.628C15.6047 244.417 15.9845 244.206 16.1535 243.868C16.5367 243.149 16.9881 242.471 17.4381 241.795C18.5728 240.091 19.6984 238.401 19.6984 236.104C19.6984 235.181 19.8852 234.195 20.0695 233.223C20.1884 232.596 20.3063 231.974 20.3722 231.378C20.7101 228.508 21.048 225.639 21.2179 222.77C21.3396 221.426 21.3731 220.081 21.4065 218.745C21.4653 216.39 21.5234 214.06 22.0617 211.799C23.4113 205.891 25.0988 199.983 26.9562 194.077C28.3058 189.856 29.8254 185.805 31.5129 181.587C31.8915 180.602 32.2664 179.618 32.6408 178.635C34.7709 173.042 36.8868 167.487 39.6144 162.174C43.1015 155.203 46.9829 148.429 50.881 141.625C52.0786 139.535 53.2781 137.441 54.4679 135.339C57.675 129.768 61.0519 124.536 64.5949 119.133C64.9886 118.523 65.3823 117.911 65.7768 117.298C68.7658 112.649 71.7996 107.93 75.2297 103.606C80.6301 96.6862 86.5383 90.2722 93.1203 84.5319C94.796 83.0239 96.4509 81.5056 98.103 79.9898C103.108 75.3979 108.088 70.8292 113.544 66.6413C122.997 59.3835 132.954 52.9694 143.589 47.3991C152.196 42.8425 161.142 39.2975 170.089 35.9206C173.443 34.6385 176.97 33.7601 180.502 32.8806C183.012 32.2555 185.525 31.6298 187.98 30.8581C194.732 28.6628 201.484 27.6511 208.571 27.4811C212.903 27.3215 217.082 26.8568 221.396 26.3769L222.075 26.3015C226.126 25.9636 230.177 25.6257 234.566 25.1198C234.06 25.7936 233.89 26.1315 233.722 26.4694C232.799 27.8119 231.834 29.1538 230.87 30.4958L230.869 30.497C229.893 31.8548 228.917 33.2127 227.984 34.571C227.224 35.6686 226.422 36.8078 225.62 37.947C224.819 39.0861 224.017 40.2253 223.257 41.3229C222.544 42.259 221.819 43.195 221.091 44.1341L221.091 44.1349C219.064 46.7521 217.018 49.3935 215.155 52.1257C213.52 54.4721 211.944 56.8484 210.365 59.2294C208.196 62.5006 206.021 65.7808 203.677 69.0046C200.979 72.601 198.132 76.0485 195.284 79.4958C193.856 81.2249 192.428 82.954 191.019 84.7018C188.234 88.3307 185.533 92.0016 182.832 95.6725C180.132 99.3434 177.431 103.014 174.646 106.643C172.426 109.677 170.143 112.645 167.865 115.604L167.864 115.605C164.945 119.399 162.036 123.18 159.286 127.067C156.567 130.832 154.041 134.727 151.51 138.632C149.957 141.028 148.4 143.428 146.796 145.803C143.673 150.445 140.55 155.044 137.428 159.643C134.305 164.242 131.183 168.841 128.06 173.483C123.165 180.573 118.271 187.493 113.206 194.583C112.962 194.948 112.63 195.138 112.274 195.342C112.137 195.421 111.997 195.501 111.857 195.594C111.744 195.707 111.594 195.82 111.444 195.932C111.143 196.158 110.843 196.383 110.843 196.608C110.714 197.063 110.634 197.517 110.556 197.962C110.432 198.674 110.312 199.36 109.999 199.983C108.65 202.516 107.3 205.048 105.78 207.411C105.268 208.231 104.63 208.989 103.981 209.761C103.563 210.259 103.139 210.762 102.741 211.292C102.651 211.247 102.572 211.201 102.499 211.159C102.301 211.046 102.145 210.956 101.898 210.956C102.123 210.392 102.593 209.904 103.069 209.409C104.019 208.422 104.992 207.41 104.093 205.723C103.671 206.398 103.249 207.031 102.826 207.664C102.404 208.297 101.982 208.929 101.56 209.604L99.5343 213.655C99.6592 213.749 99.8013 213.837 99.9425 213.924C100.566 214.31 101.173 214.686 100.21 215.512C99.9557 215.937 99.7008 216.404 99.4458 216.871C99.1939 217.332 98.942 217.793 98.6906 218.214C98.7758 218.214 98.8183 218.256 98.8606 218.298C98.9028 218.34 98.9447 218.382 99.0285 218.382C99.2814 218.044 99.5348 217.748 99.7883 217.453C100.042 217.157 100.295 216.862 100.548 216.524C100.632 216.524 100.716 216.567 100.801 216.609C100.885 216.652 100.97 216.694 101.054 216.694C100.659 218.012 99.9544 219.227 99.2629 220.419C99.0687 220.754 98.8756 221.087 98.6906 221.421C98.1903 222.42 97.1354 223.234 96.1419 224C95.7934 224.269 95.4525 224.532 95.1457 224.796C95.2304 224.879 95.5663 225.047 95.9028 225.216C96.2415 225.385 96.581 225.555 96.6652 225.639C96.9184 225.301 97.0875 225.217 97.2566 225.132C97.4254 225.048 97.5942 224.964 97.8468 224.628C98.0209 224.888 98.2395 224.791 98.4339 224.704C98.6168 224.622 98.7781 224.55 98.8605 224.796C99.0072 224.6 99.1539 224.418 99.2924 224.246C99.6315 223.826 99.9215 223.467 100.042 223.108C100.716 221.421 101.73 220.069 103.417 219.395C104.089 219.059 104.593 218.555 105.096 218.052L105.105 218.044C106.228 216.883 107.36 215.73 108.491 214.579C112.457 210.54 116.412 206.513 119.958 202.178C124.691 196.431 129.123 190.533 133.555 184.636L133.557 184.634C135.763 181.699 137.969 178.763 140.212 175.846C142.293 173.156 144.638 170.466 146.927 167.839C147.797 166.841 148.659 165.852 149.495 164.876C149.644 164.951 149.793 164.993 149.928 165.03C150.099 165.078 150.246 165.12 150.341 165.214C150.003 168.758 149.665 172.471 149.495 176.016C149.234 179.247 149.017 182.479 148.798 185.734L148.798 185.736C148.595 188.771 148.39 191.826 148.146 194.921C148.062 196.186 148.062 197.452 148.062 198.718C148.062 199.984 148.062 201.25 147.978 202.516C147.978 202.853 147.851 203.148 147.724 203.443C147.597 203.738 147.47 204.034 147.47 204.372C147.47 205.216 147.597 206.102 147.724 206.988C147.851 207.874 147.978 208.76 147.978 209.604C147.724 212.729 147.428 215.811 147.133 218.893L147.132 218.894C146.837 221.972 146.542 225.05 146.288 228.171C146.162 229.186 146.512 230.2 146.837 231.142C146.945 231.455 147.05 231.759 147.134 232.053L147.122 232.042C146.956 231.878 146.784 231.708 146.288 231.378C146.288 234.866 146.524 238.333 146.759 241.785C147.183 248.024 147.604 254.218 146.626 260.411C147.302 260.241 147.64 260.073 147.64 259.735C147.696 259.34 147.771 258.944 147.846 258.549C147.996 257.763 148.146 256.976 148.146 256.19C148.257 255.527 148.222 254.863 148.185 254.152C148.166 253.778 148.146 253.39 148.146 252.983V251.296C148.201 250.298 148.312 249.281 148.422 248.259C148.649 246.169 148.878 244.052 148.652 242.012C148.316 238.635 148.316 235.428 148.989 232.221C149.12 231.701 149.125 231.131 149.13 230.529C149.138 229.571 149.147 228.534 149.665 227.497V230.028C149.626 232.254 149.614 234.479 149.602 236.705C149.561 244.1 149.521 251.496 148.484 258.891C148.442 259.101 148.452 259.353 148.463 259.61C148.494 260.386 148.528 261.212 147.134 261.085C147.045 261.085 146.957 261.314 146.845 261.606C146.743 261.873 146.62 262.193 146.458 262.436C146.095 263.163 146.232 263.983 146.371 264.816C146.555 265.919 146.743 267.044 145.782 268.005C145.563 268.224 145.771 268.943 145.991 269.698C146.109 270.104 146.229 270.521 146.288 270.876C146.288 270.995 146.31 271.114 146.329 271.225C146.366 271.43 146.398 271.61 146.288 271.719C145.923 272.36 145.756 272.653 145.84 272.814C145.912 272.95 146.163 272.992 146.626 273.069C146.713 274.977 146.845 276.796 146.975 278.594C147.098 280.296 147.22 281.979 147.302 283.702H147.808C149.089 279.959 149.162 276.158 149.236 272.334C149.288 269.605 149.341 266.865 149.833 264.124C150.003 266.823 150.171 269.524 150.003 272.393C150.003 276.582 149.848 280.618 149.688 284.793L149.688 284.794L149.665 285.391C149.665 286.225 149.499 287.06 149.333 287.894L149.327 287.923C149.164 288.687 149.035 289.451 148.908 290.21C148.641 291.797 148.379 293.359 147.808 294.842C147.299 296.117 147.366 297.874 147.429 299.531C147.45 300.067 147.47 300.593 147.47 301.089V307.501C147.47 307.557 147.527 307.652 147.602 307.777C147.752 308.027 147.978 308.402 147.978 308.852C148.049 309.495 147.939 310.139 147.826 310.795C147.673 311.688 147.516 312.606 147.808 313.579C147.951 313.864 147.733 314.268 147.559 314.591C147.527 314.651 147.497 314.708 147.47 314.76C147.302 315.266 147.134 315.772 147.302 316.278L147.808 318.811C147.808 318.915 147.872 319.019 147.961 319.163C148.017 319.252 148.081 319.356 148.146 319.485C148.316 318.811 148.316 318.303 148.316 318.135C150.058 318.341 150.182 319.354 150.313 320.422C150.397 321.112 150.485 321.825 151.015 322.356C150.828 322.449 150.654 322.53 150.5 322.601C150.099 322.786 149.833 322.909 149.833 323.03C149.895 323.277 149.98 323.502 150.062 323.72C150.205 324.099 150.341 324.459 150.341 324.887C150.341 326.254 150.203 327.487 150.053 328.829L150.052 328.84C150.036 328.984 150.019 329.129 150.003 329.276C150.003 331.238 149.96 333.2 149.917 335.14L149.917 335.141C149.875 337.039 149.833 338.917 149.833 340.753C149.833 341.006 149.876 341.259 149.918 341.512C149.961 341.766 150.003 342.019 150.003 342.272C150.003 342.424 149.969 342.576 149.931 342.743C149.885 342.948 149.833 343.175 149.833 343.454V346.999H150.509C150.171 347.505 149.833 348.01 149.327 348.516C149.159 348.516 148.652 348.516 148.652 348.348V327.081H146.12C146.017 330.167 146.024 333.16 146.031 336.097C146.046 342.795 146.061 349.204 144.771 355.774C143.965 355.842 143.373 355.936 142.814 356.025C141.968 356.159 141.197 356.282 139.876 356.282C134.644 356.282 129.411 356.282 124.179 356.45C121.056 356.45 117.975 356.492 114.895 356.535C111.814 356.577 108.734 356.62 105.611 356.62C104.092 356.62 102.531 356.704 100.97 356.788C99.4092 356.872 97.8468 356.956 96.3273 356.956C94.3019 356.956 92.2345 356.829 90.1672 356.703C88.0998 356.576 86.0324 356.45 84.007 356.45C80.266 356.45 76.5859 356.631 72.8941 356.813L72.8926 356.813L72.8903 356.814C70.4196 356.935 67.9436 357.058 65.4406 357.126C63.175 357.209 60.9098 357.251 58.6449 357.293C56.3529 357.336 54.0605 357.378 51.7687 357.464C48.7297 357.632 45.6906 357.801 42.6535 358.137C41.7078 358.256 40.8446 358.54 39.8313 358.874C39.3985 359.016 38.9384 359.168 38.4328 359.319C38.2939 359.319 38.104 359.306 37.8807 359.291C37.2907 359.252 36.4675 359.197 35.7336 359.319C34.8909 359.488 34.0902 359.825 33.2894 360.162C32.4867 360.5 31.6838 360.838 30.839 361.007C28.3058 361.514 27.632 362.188 27.9679 364.721V366.409C27.632 366.071 27.1242 365.733 26.7863 365.565C26.6183 365.565 26.4504 365.733 26.4504 365.733C26.5342 365.985 26.6603 366.196 26.7865 366.407C26.9132 366.618 27.04 366.83 27.1242 367.085C27.3596 366.967 27.6155 366.788 27.8775 366.604C28.3675 366.261 28.8792 365.903 29.3195 365.903H31.6828C31.4842 365.903 31.3437 366.252 31.1589 366.712C31.0292 367.034 30.8777 367.411 30.6691 367.758C32.0187 367.253 32.8644 366.915 33.7082 366.577C33.8761 367.085 33.8761 367.758 33.8761 367.928C34.617 367.875 35.3411 367.772 36.0486 367.672C37.5978 367.452 39.0679 367.243 40.4582 367.591C47.0422 369.278 53.7941 369.954 60.5441 370.628C64.9328 370.966 69.1535 371.135 73.5422 371.303C79.7863 371.641 86.0324 371.979 92.2765 371.979C94.8927 371.979 97.467 371.853 100.041 371.726C102.615 371.6 105.19 371.473 107.806 371.473C112.663 371.473 117.521 371.624 122.378 371.774C124.778 371.849 127.179 371.923 129.579 371.979C130.319 371.979 131.099 371.939 131.899 371.898L131.9 371.897C132.743 371.854 133.608 371.809 134.474 371.809H146.796C152.25 371.642 157.704 371.516 163.158 371.39C168.675 371.263 174.192 371.135 179.71 370.966C182.831 370.882 185.994 370.755 189.157 370.629L189.159 370.629C192.325 370.502 195.491 370.376 198.614 370.292L217.855 369.784C221.526 369.701 225.197 369.659 228.847 369.617C232.582 369.574 236.295 369.532 239.966 369.446C245.38 369.446 250.634 369.287 256.037 369.124L256.507 369.11C260.717 368.996 265.003 368.728 269.262 368.463L269.263 368.463C271.323 368.335 273.376 368.207 275.411 368.096C278.784 367.929 282.156 367.591 285.529 367.254L285.54 367.253C286.844 367.144 288.164 367.018 289.491 366.891L289.494 366.891C292.29 366.624 295.114 366.354 297.861 366.239C300.88 366.072 303.941 365.946 307.003 365.82L307.008 365.82C310.106 365.693 313.204 365.565 316.259 365.395C318.13 365.271 320.001 365.136 321.874 365.001L321.877 365C327.608 364.587 333.364 364.172 339.214 364.046C343.459 363.843 347.765 363.823 352.058 363.803H352.06C354.936 363.789 357.807 363.776 360.65 363.708C363.712 363.625 366.773 363.502 369.854 363.378C373.058 363.249 376.284 363.12 379.554 363.034L390.189 362.526C390.189 362.526 397.277 362.358 400.821 362.02C403.249 361.885 405.677 361.696 408.104 361.507L408.106 361.507C411.754 361.223 415.402 360.939 419.05 360.839C420.991 360.755 422.933 360.755 424.874 360.755C426.815 360.755 428.756 360.755 430.696 360.671C432.745 360.615 434.811 360.541 436.883 360.467L436.885 360.467L436.887 360.467C441.133 360.315 445.405 360.163 449.601 360.163C451.034 360.163 452.531 360.287 454.164 360.423C455.223 360.511 456.34 360.604 457.534 360.671C456.519 361.56 455.789 362.162 455.059 362.765C454.818 362.963 454.578 363.161 454.327 363.37C454.992 363.537 455.654 363.866 456.318 364.196L456.353 364.214C456.353 364.284 456.324 364.354 456.29 364.436C456.242 364.552 456.185 364.692 456.185 364.889C455.763 364.889 455.341 364.932 454.92 364.974C454.497 365.017 454.075 365.059 453.652 365.059C453.598 365.194 453.544 365.316 453.49 365.433C453.452 365.516 453.413 365.597 453.375 365.678C453.13 366.189 452.885 366.703 452.64 367.928H455.677C454.835 367.928 454.077 368.702 453.282 369.514C452.964 369.839 452.64 370.17 452.302 370.46C452.386 370.543 452.47 370.585 452.553 370.627C452.638 370.669 452.723 370.712 452.808 370.798C450.952 370.122 449.771 370.46 449.095 372.317C449.601 372.485 449.939 372.485 450.445 372.485C450.277 372.991 450.109 373.499 449.939 374.173L449.935 374.18C449.768 374.516 449.601 374.852 449.601 375.354L449.095 374.848C449.095 374.51 449.095 374.173 448.927 373.835C448.836 373.925 448.741 374.013 448.645 374.1C448.548 374.186 448.45 374.272 448.351 374.357C447.445 375.138 446.545 375.916 447.237 377.717C447.023 377.825 446.79 377.933 446.546 378.046L446.545 378.047C446.025 378.288 445.45 378.555 444.876 378.899C444.939 379.025 445.025 379.152 445.118 379.287C445.273 379.513 445.445 379.764 445.55 380.081C444.032 380.249 442.513 380.587 442.851 382.444C443.273 382.549 443.696 382.721 444.077 382.876C444.305 382.969 444.517 383.055 444.706 383.118C444.284 383.287 443.862 383.498 443.441 383.709C443.019 383.92 442.597 384.131 442.175 384.299C442.123 384.402 442.072 384.552 442.016 384.715C441.887 385.088 441.734 385.533 441.499 385.651C439.529 386.073 440.141 386.73 440.789 387.425C440.919 387.564 441.049 387.704 441.161 387.844C440.655 388.182 440.15 388.52 439.644 388.688C440.15 388.858 440.487 389.026 440.825 389.364C440.335 389.69 440.003 389.858 439.678 390.023L439.644 390.04C439.728 390.082 439.823 390.135 439.92 390.19C439.953 390.208 439.985 390.227 440.018 390.245C440.28 390.395 440.543 390.546 440.655 390.546C439.98 391.051 439.136 391.727 438.124 392.571C438.124 392.909 438.124 393.077 438.292 393.415L438.269 393.438C437.603 394.106 436.935 394.776 436.267 395.778C435.979 396.209 435.753 396.702 435.523 397.205C435.213 397.88 434.895 398.573 434.411 399.153C433.263 400.411 432.22 401.74 431.181 403.065C429.013 405.829 426.857 408.577 423.777 410.632C422.089 411.813 420.57 413.331 419.05 414.85C417.836 415.997 416.676 417.197 415.516 418.398L415.515 418.399C413.772 420.203 412.03 422.006 410.105 423.628C405.886 427.173 401.497 430.38 396.939 433.587L396.881 433.627C391.332 437.494 385.781 441.363 380.23 445.063C378.359 446.31 376.36 447.365 374.352 448.426C373.099 449.088 371.841 449.752 370.609 450.466C368.992 451.401 367.419 452.294 365.845 453.187C364.296 454.066 362.747 454.946 361.155 455.866C360.416 456.359 359.7 456.92 358.981 457.482C357.73 458.46 356.473 459.443 355.079 460.087C351.361 461.664 347.492 463.092 343.624 464.519L343.619 464.52C341.695 465.23 339.77 465.94 337.864 466.669C337.611 466.753 337.4 466.837 337.189 466.922C337.074 466.967 336.96 467.013 336.838 467.059C336.736 467.098 336.629 467.136 336.513 467.174C335.266 467.723 334.034 468.287 332.808 468.848C329.885 470.185 326.996 471.506 324.023 472.577C320.14 473.926 316.091 474.94 312.038 475.784C311.269 475.976 310.445 475.95 309.597 475.922C308.957 475.901 308.304 475.88 307.652 475.952C306.69 476.121 305.728 476.31 304.767 476.498L304.766 476.499C302.857 476.873 300.95 477.247 299.042 477.471C295.329 477.978 291.616 478.4 287.903 478.822C284.189 479.244 280.476 479.666 276.763 480.173C274.569 480.425 272.416 480.763 270.264 481.1C268.112 481.438 265.959 481.775 263.765 482.028C261.936 482.13 260.045 482.049 258.167 481.967C256.926 481.914 255.691 481.86 254.482 481.86C253.665 481.86 252.826 481.93 251.98 482.001C250.553 482.12 249.108 482.24 247.73 482.028C245.364 481.69 242.998 481.202 240.631 480.713C239.453 480.47 238.275 480.227 237.097 480.003C236.974 479.978 236.843 479.95 236.708 479.921C235.919 479.75 234.973 479.546 234.396 479.835C233.648 480.208 232.952 480.064 232.25 479.919C231.685 479.802 231.117 479.684 230.515 479.835C230.046 479.928 229.578 479.762 229.109 479.595C228.734 479.462 228.358 479.329 227.982 479.329C227.65 479.245 227.277 479.285 226.884 479.326C226.478 479.369 226.049 479.414 225.62 479.329C225.274 479.234 224.934 479.134 224.597 479.034L224.594 479.034C223.121 478.599 221.697 478.179 220.05 478.315C218.676 478.43 217.302 478.001 215.874 477.555C215.198 477.343 214.51 477.128 213.804 476.966C212.331 476.638 210.898 476.31 209.466 475.983C207.945 475.635 206.424 475.287 204.859 474.94C203.677 474.602 202.665 474.096 201.484 473.421C201.431 473.447 201.374 473.477 201.312 473.51C200.983 473.686 200.532 473.926 199.964 473.926C199.162 473.785 198.359 473.67 197.56 473.555C195.503 473.26 193.47 472.969 191.525 472.239C191.061 472.073 190.603 471.895 190.148 471.717L190.147 471.716C188.286 470.989 186.47 470.28 184.435 470.551C184.036 470.651 183.696 470.573 183.345 470.493C183.102 470.438 182.855 470.382 182.579 470.382C182.409 470.156 182.239 469.854 182.069 469.552C181.732 468.954 181.396 468.356 181.06 468.356C179.022 468.459 177.476 467.454 175.94 466.456C174.931 465.801 173.926 465.148 172.788 464.813C172.029 464.559 171.355 464.011 170.68 463.463C170.005 462.914 169.33 462.365 168.57 462.112C167.158 461.534 165.844 460.713 164.526 459.889C162.376 458.545 160.214 457.193 157.599 456.88C156.672 456.763 155.745 456.409 154.765 456.035L154.762 456.034C154.314 455.863 153.854 455.687 153.378 455.528C153.482 455.667 153.579 455.798 153.671 455.924C154.03 456.411 154.326 456.814 154.728 457.217L154.39 457.553L154.234 457.461C149.73 454.793 145.225 452.124 140.72 449.622C140.274 449.51 139.902 449.178 139.555 448.868C139.376 448.709 139.203 448.555 139.03 448.44L134.474 445.401C133.968 445.063 132.954 444.557 132.954 444.725C132.119 445.702 131.283 445.182 130.637 444.781C130.501 444.696 130.373 444.616 130.255 444.557C128.254 443.149 126.123 441.969 123.99 440.788C121.265 439.279 118.537 437.769 116.075 435.78C115.442 435.262 114.77 434.803 114.105 434.349C112.82 433.473 111.564 432.615 110.675 431.391C108.312 428.522 105.443 426.497 102.236 424.809C99.7043 423.46 97.341 421.94 94.9777 420.421C93.7961 419.577 92.6144 418.565 92.6144 416.708C92.6144 415.526 92.1086 414.344 90.589 415.02C90.4984 414.884 90.4079 414.745 90.317 414.606C89.7295 413.705 89.1263 412.78 88.3957 412.487C86.7725 411.811 85.5821 410.702 84.3911 409.592C84.096 409.317 83.8009 409.042 83.4992 408.774C83.0247 408.352 82.5831 407.881 82.1435 407.411C81.1767 406.379 80.2193 405.356 78.9426 404.893C76.0359 403.729 74.1303 401.44 72.3636 399.317C72.079 398.975 71.7978 398.637 71.5168 398.309C67.9684 394.128 64.7052 389.661 61.4419 385.194C60.3584 383.711 59.2748 382.227 58.1808 380.755C57.9829 380.457 57.667 380.217 57.3374 379.967C57.1075 379.792 56.8711 379.613 56.6633 379.405L56.4933 379.575C56.9199 380.428 57.3465 381.238 57.7733 382.049C58.1908 382.842 58.6084 383.635 59.0265 384.469C58.9421 384.553 58.8161 384.637 58.6901 384.721C58.5627 384.806 58.4352 384.891 58.3508 384.975C57.8468 384.388 57.3014 383.8 56.756 383.213C56.2043 382.619 55.6525 382.025 55.1437 381.43C54.9738 381.6 54.8058 381.768 54.6379 381.768L66.7902 401.01C67.2931 401.766 67.7545 402.521 68.2159 403.275C68.6828 404.039 69.1496 404.803 69.6593 405.567C69.4914 405.737 69.3215 405.905 68.9836 406.073C67.1281 405.737 65.4406 404.385 64.5949 402.866C63.0773 400.167 61.3879 398.479 58.0129 398.815C57.675 397.633 57.3371 396.284 57.1691 395.102C56.4933 395.102 55.9875 395.102 54.8058 394.934C57.1691 398.647 59.1945 401.854 61.3879 405.567C61.0662 405.374 60.7936 405.206 60.5607 405.062L60.5594 405.061C60.1822 404.828 59.9092 404.659 59.7004 404.555C60.6571 405.565 61.53 406.658 62.3982 407.745C64.2878 410.112 66.1552 412.451 68.8156 413.839C69.2505 415.839 70.6271 417.302 71.9977 418.758C73.2863 420.127 74.5695 421.491 75.0597 423.29C74.6379 423.206 74.2585 423.121 73.8791 423.037C73.4997 422.952 73.1203 422.868 72.6984 422.784C71.9778 421.884 71.2094 420.984 70.4191 420.059C69.727 419.249 69.0182 418.419 68.3097 417.551C68.6457 418.733 69.1535 419.745 69.8273 420.591C70.1898 421.043 70.5468 421.496 70.9024 421.948C72.5336 424.017 74.1331 426.046 76.0734 427.848C76.3 428.075 76.551 428.265 76.7969 428.451C77.4666 428.959 78.0988 429.438 78.0988 430.548C78.4338 430.213 78.7688 430.045 79.4311 429.712L79.4484 429.704C79.1105 430.38 78.9426 430.717 78.7746 431.223C79.1356 431.223 79.449 431.272 79.7399 431.316C79.992 431.355 80.2272 431.391 80.4621 431.391C80.5458 431.642 80.5776 431.924 80.6088 432.202C80.7038 433.044 80.7937 433.841 82.3176 433.587C82.4875 433.587 82.6554 433.755 82.8254 433.924C83.6691 436.118 85.0187 436.118 86.8761 435.274C87.214 435.106 88.0578 435.274 88.2258 435.612C89.0695 437.467 90.2511 437.637 91.7707 436.288C91.7707 436.733 91.8175 437.179 91.8617 437.599C91.9012 437.975 91.9386 438.331 91.9386 438.649H92.6144C92.6144 438.519 92.5893 438.363 92.5585 438.173C92.5096 437.87 92.4465 437.479 92.4465 436.962C92.7687 437.22 93.0417 437.429 93.2749 437.607C93.6521 437.896 93.9251 438.104 94.134 438.313L94.3536 438.621C95.9554 440.865 97.4439 442.951 99.7043 444.725C101.287 446.059 102.788 447.433 104.267 448.787C105.785 450.177 107.28 451.546 108.818 452.829C114.726 457.723 121.308 461.774 127.892 465.487C131.13 467.309 134.315 469.184 137.499 471.06L137.501 471.061C142.283 473.878 147.064 476.694 152.028 479.327C161.986 484.561 172.62 488.104 183.591 490.637C187.642 491.481 191.525 492.325 195.575 493.337C197.094 493.771 198.612 494.298 200.13 494.825C202.156 495.528 204.183 496.231 206.208 496.714C210.836 497.726 215.587 498.613 220.249 499.484C221.029 499.63 221.807 499.775 222.581 499.921L222.83 499.956L222.833 499.956C223.931 500.113 225.04 500.27 226.294 500.426V500.764C226.901 500.764 227.561 500.657 228.158 500.559C229.055 500.413 229.806 500.291 230.009 500.594C230.661 501.639 231.212 501.473 231.896 501.266C232.097 501.205 232.31 501.14 232.54 501.102C233.722 500.764 235.071 500.764 236.421 500.764C238.249 500.829 240.052 501.021 241.848 501.212C244.698 501.514 247.532 501.815 250.431 501.608C250.672 501.608 250.942 501.56 251.225 501.51C252.13 501.35 253.165 501.166 253.808 502.452C253.975 502.368 254.101 502.284 254.226 502.2C254.354 502.115 254.481 502.031 254.652 501.946C254.99 501.861 255.372 501.818 255.754 501.776C256.132 501.734 256.51 501.692 256.845 501.608V501.946C256.637 502.049 256.43 502.089 256.144 502.144C255.965 502.178 255.755 502.219 255.495 502.284C256.339 502.452 256.845 502.62 257.353 502.79C257.105 503.037 256.948 503.104 256.748 503.187C256.675 503.218 256.597 503.251 256.507 503.296C256.432 503.333 256.348 503.371 256.256 503.412C255.935 503.556 255.512 503.747 254.989 504.139C261.066 505.321 266.804 505.491 271.868 504.139V503.128H272.542C272.542 503.46 272.708 503.794 272.874 504.128L272.88 504.139C280.644 504.815 288.239 503.801 295.497 501.27C295.59 501.387 295.68 501.509 295.769 501.63C296.322 502.385 296.819 503.063 297.693 501.608C298.004 501.142 298.744 500.961 299.385 500.805L299.466 500.785L299.548 500.764C299.841 500.699 300.146 500.622 300.458 500.542C301.765 500.21 303.185 499.849 304.275 500.258C305.162 500.554 305.704 500.216 306.236 499.883C306.616 499.647 306.99 499.413 307.482 499.413C309.507 499.413 311.364 499.245 313.22 498.907C313.821 498.807 314.421 498.588 315.057 498.356C315.493 498.197 315.946 498.032 316.427 497.895C316.427 497.725 316.427 497.557 316.259 497.387C315.077 497.219 313.728 497.051 312.714 497.051C314.719 496.048 316.56 495.211 318.397 494.376L318.4 494.374L318.452 494.35C318.452 494.434 318.495 494.476 318.537 494.518C318.58 494.56 318.622 494.603 318.622 494.688C318.417 494.756 318.24 494.907 318.057 495.062C317.788 495.292 317.505 495.532 317.103 495.532H319.466C319.152 495.532 318.772 496.118 318.327 496.805C318.056 497.223 317.76 497.68 317.441 498.063C320.602 497.272 323.627 496.528 326.562 495.805L326.575 495.802C329.276 495.137 331.901 494.491 334.487 493.844V493.507C334.18 493.583 333.908 493.625 333.654 493.664C333.351 493.71 333.075 493.752 332.8 493.844C332.699 491.718 334.055 491.292 335.448 490.855C336.378 490.563 337.324 490.266 337.864 489.456L337.847 489.461L337.846 489.461C336.163 489.965 334.481 490.469 332.8 490.805V490.467C335.631 489.219 338.503 487.97 341.376 486.721L341.378 486.72C344.328 485.438 347.278 484.155 350.185 482.872C350.185 482.957 350.227 482.999 350.27 483.042C350.312 483.084 350.355 483.126 350.355 483.21C349.611 483.705 348.869 484.109 347.927 484.623L347.919 484.627C347.578 484.812 347.212 485.012 346.81 485.235C347.227 485.305 347.586 485.346 347.901 485.382C348.349 485.433 348.706 485.474 349.003 485.573C349.003 486.079 349.003 486.417 348.835 486.587C350.843 486.468 351.115 485.192 351.386 483.916C351.503 483.369 351.619 482.822 351.872 482.366C351.971 482.399 352.077 482.438 352.186 482.479C352.637 482.647 353.153 482.839 353.562 482.704C354.774 482.434 355.88 482.057 357.05 481.658L357.054 481.657C357.347 481.557 357.644 481.456 357.948 481.354L357.989 481.342C359.665 480.838 361.339 480.335 363.013 479.665C364.699 478.927 366.319 478.059 367.955 477.181L367.956 477.181C368.941 476.653 369.932 476.122 370.946 475.614C371.284 475.502 371.771 475.539 372.259 475.577C372.503 475.595 372.747 475.614 372.972 475.614C373.476 475.614 373.813 475.279 374.15 474.944L374.154 474.94C374.377 474.771 374.601 474.547 374.819 474.329C375.257 473.891 375.671 473.476 376.009 473.589C378.372 473.926 380.06 473.083 380.736 470.889C380.821 470.889 380.863 470.847 380.906 470.804C380.948 470.762 380.99 470.719 381.073 470.719L381.103 470.696C381.937 470.03 382.771 469.364 383.605 468.862C385.482 467.839 387.315 466.816 389.148 465.793L389.15 465.792C390.944 464.79 392.74 463.789 394.577 462.786C394.686 462.677 394.865 462.709 395.069 462.745C395.182 462.765 395.301 462.786 395.421 462.786C395.927 462.786 396.603 462.786 396.939 462.618C399.134 461.604 401.159 460.424 403.185 459.243C403.025 459.189 402.966 459.136 402.907 459.083C402.78 458.967 402.652 458.851 401.497 458.735V458.397C403.175 458.063 403.685 457.893 404.687 457.559L404.704 457.553L404.366 457.217C406.903 454.681 409.834 452.539 412.671 450.467C414.742 448.953 416.764 447.476 418.544 445.909C418.866 445.973 419.115 446.037 419.327 446.092C419.67 446.181 419.919 446.245 420.232 446.245C420.402 445.739 420.402 445.233 420.402 444.895C420.557 444.701 420.712 444.498 420.869 444.292C421.395 443.603 421.945 442.883 422.595 442.364C424.041 441.049 425.539 439.81 427.028 438.579L427.029 438.578C429.363 436.649 431.675 434.737 433.736 432.573C438.63 427.678 443.357 422.616 447.745 417.383C451.796 412.657 455.847 407.93 459.222 402.698C463.535 396.075 467.285 389.313 471.114 382.409C471.372 381.942 471.631 381.476 471.891 381.008C472 380.812 472.109 380.615 472.218 380.419C473.742 377.71 475.181 375.001 476.62 372.293C478.051 369.6 479.481 366.907 480.995 364.214C481.333 363.708 482.009 363.034 482.515 363.034C484.705 362.79 486.895 362.585 489.066 362.382C491.414 362.163 493.739 361.945 496.019 361.682C496.862 361.542 497.824 361.049 498.708 360.596C498.884 360.505 499.057 360.417 499.226 360.333C498.971 359.909 498.759 359.443 498.547 358.977C498.336 358.514 498.126 358.052 497.874 357.632C497.536 357.123 497.112 356.657 496.689 356.191C496.268 355.729 495.848 355.266 495.511 354.762C494.845 353.928 494.343 352.928 493.841 351.928L493.823 351.893C493.568 351.468 493.313 351.085 493.058 350.702C492.807 350.326 492.556 349.948 492.304 349.53L492.269 349.467C491.269 347.631 490.269 345.794 489.435 343.792C489.425 343.763 489.415 343.733 489.405 343.702C489.392 343.666 489.38 343.629 489.367 343.591C489.192 343.082 488.949 342.378 489.097 341.934C490.683 338.498 491.764 334.924 492.842 331.355C493.83 328.088 494.815 324.826 496.187 321.68C498.463 316.324 499.464 310.437 500.456 304.609L500.456 304.605C500.715 303.088 500.972 301.574 501.251 300.075C502.137 294.888 502.737 289.702 503.338 284.514C503.538 282.781 503.739 281.047 503.95 279.313C504.083 278.035 504.227 276.769 504.37 275.508L504.371 275.503C504.776 271.936 505.176 268.413 505.302 264.798C506.201 257.895 506.034 251.392 505.868 244.933L505.867 244.913C505.847 244.114 505.826 243.316 505.808 242.518ZM81.4738 430.885C80.8859 430.213 80.3392 429.498 79.7924 428.783C79.2421 428.064 78.6915 427.344 78.0988 426.667L78.6047 426.159L78.727 426.292C80.5436 428.275 82.3602 430.258 84.175 432.405C83.8945 432.265 83.601 432.137 83.3124 432.012C82.5599 431.686 81.8409 431.374 81.4738 430.885ZM84.175 432.405C84.4264 432.321 84.6784 432.279 84.9304 432.237C85.1852 432.195 85.4401 432.153 85.6945 432.067C85.9921 432.563 86.2316 433.119 86.4813 433.698C86.6561 434.103 86.8359 434.52 87.0441 434.936C84.6808 434.768 83.4992 433.755 84.175 432.405ZM259.714 502.114V501.608C261.236 501.448 262.719 501.287 264.201 501.127C265.843 500.95 267.482 500.773 269.167 500.596V501.102C265.96 501.608 262.921 501.946 259.714 502.114ZM295.822 498.789C295.543 498.828 295.266 498.868 294.991 498.907C294.802 498.945 294.604 499.017 294.408 499.089C293.728 499.336 293.06 499.58 292.798 498.401C292.63 498.485 292.462 498.527 292.294 498.569C292.124 498.611 291.954 498.654 291.784 498.739C292.287 500.247 293.209 500.138 294.228 500.017C294.921 499.936 295.659 499.849 296.341 500.258C294.602 500.495 292.9 500.695 291.218 500.893L291.217 500.893C289.307 501.118 287.424 501.339 285.54 501.608V501.27C286.049 501.186 286.601 501.101 287.153 501.016C287.698 500.932 288.244 500.848 288.747 500.764V500.258C287.058 500.089 285.37 499.921 283.683 499.921C283.386 499.921 283.03 500.154 282.684 500.38C282.442 500.539 282.204 500.695 281.995 500.764L281.977 500.769C281.307 500.935 280.636 501.102 279.8 501.102C278.395 501.184 276.99 501.226 275.605 501.268H275.603L275.6 501.268C274.158 501.311 272.738 501.353 271.361 501.44C271.3 501.44 271.217 501.418 271.128 501.39C271.094 501.379 271.059 501.367 271.024 501.355C270.897 501.313 270.771 501.27 270.687 501.27V500.764C276.082 500.039 281.439 499.314 286.794 498.59L286.872 498.579C292.716 497.788 298.557 496.998 304.445 496.208C304.529 496.376 304.571 496.545 304.613 496.714C304.655 496.882 304.697 497.051 304.78 497.219C304.107 497.219 303.582 497.369 303.058 497.519C302.795 497.594 302.531 497.669 302.249 497.725C300.161 498.174 297.941 498.489 295.822 498.789ZM304.78 496.038C306.586 495.803 308.318 495.604 310.027 495.407C311.995 495.181 313.935 494.959 315.921 494.688C308.157 496.882 305.626 497.219 304.78 496.038ZM163.688 147.176L163.69 147.173C167.183 142.423 170.695 137.648 174.14 132.805C174.982 131.711 175.74 130.574 176.497 129.438C177.259 128.296 178.02 127.154 178.866 126.055C179.211 125.595 179.634 125.291 180.136 124.931C180.37 124.762 180.622 124.581 180.892 124.366L180.722 124.03C180.924 123.777 181.126 123.539 181.319 123.312C181.771 122.781 182.173 122.308 182.409 121.835C183.008 120.877 183.438 119.833 183.878 118.765C184.057 118.328 184.239 117.887 184.435 117.446C184.605 117.108 185.111 116.772 185.111 116.772C186.801 117.616 187.282 116.561 187.728 115.583C187.906 115.194 188.077 114.817 188.318 114.577C189.837 112.889 191.357 111.032 192.706 109.344C192.943 109.029 193.18 108.722 193.414 108.419L193.415 108.418C194.183 107.423 194.929 106.457 195.575 105.294C195.687 104.957 195.5 104.471 195.314 103.984C195.22 103.739 195.126 103.494 195.07 103.268H194.564C194.817 103.099 195.07 102.888 195.322 102.677C195.575 102.466 195.828 102.256 196.081 102.087C196.154 102.087 196.195 102.087 196.232 102.073C196.282 102.056 196.323 102.015 196.419 101.919L196.47 101.843C197.466 100.349 198.461 98.8571 199.458 97.53C201.484 94.8288 203.677 92.1276 206.04 89.7643L206.028 89.7936C205.695 90.6276 205.361 91.4616 205.028 92.1276C205.112 92.1276 205.154 92.1701 205.196 92.2126C205.238 92.2551 205.28 92.2975 205.364 92.2975C206.377 90.947 207.432 89.6389 208.487 88.3307C209.543 87.0226 210.598 85.7145 211.611 84.364L211.599 84.3527C211.433 84.1885 211.269 84.0261 211.105 84.0261C210.683 84.4479 210.303 84.8698 209.923 85.2917C209.543 85.7136 209.163 86.1354 208.741 86.5573L208.736 86.5517C208.568 86.3856 208.402 86.2214 208.234 86.2214C209.923 84.0261 211.611 81.8327 213.298 79.2995C213.636 79.8073 213.974 80.4811 214.648 81.8327C215.049 80.8291 215.451 80.0046 215.816 79.2534C216.066 78.74 216.3 78.2608 216.505 77.7819C216.252 78.0349 215.957 78.2878 215.661 78.5407C215.366 78.7936 215.07 79.0466 214.818 79.2995L214.31 78.7936L217.349 74.237C218.952 71.9577 220.556 69.6369 222.159 67.3161C223.763 64.9953 225.366 62.6745 226.97 60.3952C227.49 59.6518 228.077 58.9739 228.656 58.3038C229.392 57.453 230.117 56.6146 230.683 55.6706C232.647 51.7425 235.307 48.3206 237.966 44.9011C239.649 42.737 241.331 40.5737 242.835 38.2839C243.472 37.3954 244.299 36.601 245.101 35.83C245.364 35.5773 245.624 35.327 245.874 35.0768C246.718 34.0651 247.394 34.403 248.07 35.2468C250.348 38.1159 252.626 41.0275 254.904 43.9391C257.183 46.8508 259.461 49.7624 261.739 52.6315C262.533 53.6238 263.327 54.6067 264.119 55.5867L264.122 55.5914L264.123 55.5926C266.697 58.7793 269.247 61.9364 271.698 65.2897C273.64 67.9909 275.539 70.6916 277.438 73.3923C279.337 76.093 281.236 78.7936 283.177 81.4948C287.566 87.739 291.954 93.985 296.173 100.399C299.38 105.125 302.503 109.851 305.625 114.577C308.748 119.303 311.87 124.029 315.077 128.755C316.452 130.768 317.827 132.767 319.198 134.761C322.54 139.618 325.856 144.44 329.087 149.348H320.478C317.85 149.292 315.204 149.18 312.552 149.068L312.551 149.068C307.197 148.842 301.816 148.615 296.511 148.841C289.255 149.182 281.923 149.826 274.617 150.468C271.046 150.782 267.481 151.095 263.935 151.372C250.263 152.553 236.421 152.723 222.751 152.723C219.483 152.723 216.217 153.023 212.95 153.324L212.949 153.324C211.321 153.473 209.693 153.623 208.066 153.735L207.147 153.788C201.561 154.108 196.112 154.42 190.511 154.581C183.591 154.917 176.839 155.087 169.919 155.255C167.35 155.367 164.705 155.331 161.986 155.293C160.599 155.274 159.192 155.255 157.767 155.255C159.724 152.564 161.703 149.874 163.688 147.176ZM351.366 232.897V234.417C351.297 234.417 351.227 234.445 351.145 234.479C351.029 234.527 350.889 234.585 350.691 234.585C350.573 234.173 350.456 233.757 350.338 233.337C349.776 231.345 349.194 229.279 348.497 227.327C346.81 222.432 344.952 217.538 341.915 213.149C339.99 210.455 338.175 207.705 336.345 204.933L336.344 204.931C334.964 202.841 333.576 200.737 332.124 198.633C331.489 197.743 330.661 196.948 329.859 196.178C329.597 195.926 329.337 195.676 329.087 195.426C328.904 195.226 328.721 195.025 328.537 194.823L328.361 194.63C325.054 190.996 321.686 187.297 317.441 184.624C310.689 180.405 303.769 176.86 296.341 173.821C294.316 172.977 292.46 171.966 290.435 170.784H294.486L323.349 170.278C325.425 170.222 327.483 170.184 329.534 170.146L329.536 170.146C333.654 170.071 337.747 169.996 341.915 169.77C343.435 169.77 344.279 170.278 345.122 171.628L345.174 171.715C346.677 174.217 348.179 176.719 349.847 179.223C349.878 179.284 349.914 179.35 349.952 179.421C350.128 179.743 350.355 180.158 350.355 180.573C350.355 184.286 350.355 188.169 350.523 191.882C350.608 193.823 350.734 195.722 350.861 197.621C350.987 199.52 351.113 201.419 351.198 203.36C351.198 204.898 351.145 206.463 351.092 208.044C351.01 210.452 350.927 212.897 351.029 215.342C351.198 221.083 351.366 226.989 351.366 232.897ZM181.685 175.75L181.687 175.75C185.472 175.543 189.237 175.337 193.044 175.173C196.099 175.003 199.196 174.875 202.292 174.748L202.294 174.748C205.357 174.622 208.42 174.496 211.441 174.329L211.577 174.32C214.059 174.153 216.383 173.997 218.868 174.329C216.167 175.678 213.468 177.028 211.105 178.717C209.406 179.848 207.761 181.191 206.11 182.538C204.806 183.602 203.498 184.669 202.157 185.637C199.12 187.831 196.419 190.532 193.888 193.401C191.882 195.829 189.744 198.059 187.598 200.297C186.313 201.637 185.025 202.981 183.761 204.372C182.972 205.273 182.146 206.156 181.32 207.038C179.67 208.8 178.02 210.562 176.671 212.473C174.094 215.81 171.79 219.418 169.39 223.174C169.118 223.6 168.845 224.028 168.57 224.458C168.649 222.938 168.731 221.42 168.812 219.902L168.813 219.897C169.59 205.409 170.363 191.019 169.751 176.354C173.795 176.182 177.75 175.966 181.685 175.75ZM279.97 338.727C279.259 338.905 278.545 339.085 277.829 339.267C273.102 340.462 268.266 341.685 263.429 342.272C259.494 342.835 255.443 342.811 251.373 342.788H251.372C250.553 342.783 249.733 342.778 248.913 342.778C244.525 342.778 240.304 342.61 235.915 342.272C231.021 341.766 226.126 341.258 221.4 339.065C219.894 338.375 218.365 337.708 216.831 337.039C214.236 335.907 211.624 334.767 209.079 333.495C205.028 331.469 200.976 329.106 197.939 325.393C196.338 323.424 194.291 321.725 192.253 320.034L192.252 320.033C191.494 319.404 190.737 318.776 190.005 318.135C189.668 317.461 189.288 316.743 188.908 316.026C188.528 315.309 188.149 314.591 187.812 313.917C186.46 311.721 185.111 309.358 183.929 307.165C183.76 306.911 183.676 306.658 183.591 306.405C183.507 306.152 183.422 305.898 183.253 305.645L183.229 305.617C182.394 304.613 181.559 303.61 180.892 302.606C180.472 301.978 180.069 301.333 179.663 300.682C178.758 299.236 177.835 297.759 176.671 296.362C176.671 296.597 176.707 296.831 176.746 297.083C176.791 297.374 176.839 297.687 176.839 298.049C176.671 298.049 176.503 298.217 176.503 298.217L172.958 289.61C172.886 289.61 172.844 289.61 172.807 289.623C172.758 289.641 172.717 289.682 172.62 289.78L175.659 300.919C175.574 300.919 175.49 300.961 175.405 301.004C175.321 301.046 175.236 301.089 175.152 301.089C174.646 300.413 174.14 299.737 173.802 298.893C173.464 297.544 172.452 297.544 171.607 298.049C171.101 298.387 170.763 299.569 170.933 300.075C172.108 302.928 173.449 305.781 174.791 308.636L174.792 308.637L174.814 308.684C175.152 309.696 175.489 310.54 175.995 311.553C176.053 311.669 176.151 311.784 176.253 311.906C176.452 312.141 176.671 312.401 176.671 312.735C176.867 313.127 177.049 313.518 177.229 313.905C177.669 314.853 178.098 315.777 178.696 316.616C179.456 317.629 180.258 318.641 181.06 319.654C181.861 320.667 182.663 321.679 183.423 322.692C184.513 324.145 185.515 325.685 186.493 327.187L186.495 327.189C186.879 327.781 187.261 328.366 187.642 328.938C187.746 329.146 187.977 329.226 188.179 329.296C188.306 329.339 188.421 329.379 188.486 329.444C189.331 331.975 192.2 333.833 194.226 332.821C194.509 334.993 195.956 336.373 197.471 337.819C198.662 338.955 199.896 340.132 200.64 341.766C198.614 340.923 197.095 340.247 195.743 339.571C195.64 339.676 195.6 339.78 195.545 339.924C195.511 340.013 195.472 340.118 195.407 340.247C197.433 341.258 199.458 342.272 201.314 343.454C203.001 344.466 204.691 345.479 206.208 346.661C208.236 348.516 210.597 349.53 213.468 350.206C213.298 349.698 213.13 349.53 213.13 349.53C217.855 351.725 222.751 354.087 226.464 355.944C208.909 356.282 190.175 356.62 170.763 356.956C170.763 355.352 170.721 353.791 170.679 352.23C170.637 350.669 170.595 349.108 170.595 347.505C170.595 346.96 170.65 346.443 170.704 345.931C170.785 345.174 170.864 344.428 170.763 343.622C170.595 341.047 170.483 338.471 170.371 335.902L170.371 335.901C170.146 330.725 169.921 325.575 169.245 320.499C168.232 312.397 168.232 304.464 168.402 296.362C168.528 293.051 168.367 289.644 168.208 286.286C168.156 285.193 168.105 284.105 168.064 283.028C168.064 277.12 168.064 271.382 168.232 265.473C168.232 264.752 168.478 264.154 168.761 263.468L168.762 263.466C168.81 263.351 168.859 263.232 168.907 263.11H169.413C169.48 263.244 169.494 263.404 169.507 263.559C169.528 263.796 169.547 264.021 169.751 264.124C170.257 264.63 171.101 265.473 171.439 265.305C171.666 265.154 171.919 265.002 172.179 264.846C173.074 264.309 174.046 263.727 174.308 262.942C175.152 260.917 175.489 258.721 175.489 256.696C175.489 255.181 176.163 254.169 176.835 253.157L176.839 253.151C177.058 252.823 177.206 252.495 177.376 252.121C177.468 251.918 177.566 251.701 177.685 251.464C177.398 251.249 177.111 251.065 176.812 250.872C176.405 250.611 175.975 250.334 175.489 249.946C175.649 249.506 175.762 249.048 175.874 248.59C176.236 247.115 176.595 245.654 178.528 244.882C178.754 244.768 178.829 244.355 178.904 243.942C178.941 243.736 178.978 243.53 179.034 243.362C179.118 242.687 179.203 241.97 179.287 241.253C179.372 240.535 179.456 239.818 179.54 239.143C179.878 239.649 180.046 239.817 180.384 240.155C180.554 239.817 180.722 239.649 180.722 239.649C180.722 239.424 180.703 239.124 180.685 238.824C180.647 238.224 180.61 237.624 180.722 237.624C181.952 237.418 182.124 236.528 182.296 235.634C182.408 235.056 182.519 234.477 182.917 234.079C183.015 233.981 182.941 233.768 182.863 233.541C182.806 233.378 182.747 233.207 182.747 233.067C182.747 232.729 182.747 232.221 182.917 232.221C184.321 231.921 184.772 230.904 185.225 229.881C185.534 229.183 185.845 228.482 186.46 228.003C186.774 227.794 186.958 227.521 187.212 227.144C187.37 226.91 187.554 226.637 187.812 226.315C188.675 227.826 188.019 228.854 187.391 229.841C187.036 230.397 186.691 230.939 186.63 231.548C189.499 229.86 190.343 225.809 188.655 224.628C189.331 224.12 190.005 223.446 190.511 222.77C191.251 221.963 192.017 221.183 192.779 220.408C193.928 219.238 195.066 218.08 196.081 216.862C196.672 216.102 197.136 215.258 197.601 214.415C198.065 213.571 198.529 212.727 199.12 211.967C199.796 211.124 201.146 210.448 202.157 209.942C205.196 208.255 208.066 206.397 209.923 203.528C210.261 203.19 210.767 202.852 211.273 202.516C211.471 202.384 211.747 202.303 212.02 202.224C212.443 202.1 212.858 201.979 212.96 201.671C213.13 201.335 212.622 200.491 212.284 199.983C212.565 199.843 212.845 199.645 213.173 199.413C213.637 199.086 214.196 198.691 214.986 198.296C214.708 198.853 214.532 199.307 214.373 199.715C214.244 200.05 214.126 200.354 213.974 200.659L214.818 201.503C215.808 200.733 217.156 199.892 218.395 199.118L218.397 199.117C219.059 198.704 219.69 198.311 220.218 197.958C220.218 197.79 219.374 197.114 219.374 197.114C219.077 197.263 218.736 197.441 218.364 197.635C217.47 198.103 216.397 198.663 215.323 199.139C215.507 198.864 215.591 198.639 215.656 198.464C215.711 198.316 215.753 198.204 215.829 198.128C218.193 196.608 220.556 195.089 223.087 193.907C228.995 191.206 234.903 188.507 240.81 185.973C241.535 185.611 242.433 185.681 243.318 185.751C243.669 185.778 244.019 185.805 244.355 185.805C244.861 185.805 245.198 185.805 245.706 185.637C248.405 184.794 251.107 183.95 253.808 183.274C254.989 182.936 256.339 182.768 257.521 182.768C259.202 182.824 260.883 182.861 262.564 182.899H262.565C265.947 182.973 269.329 183.048 272.712 183.274C274.905 183.442 276.931 183.95 278.956 184.624C281.489 185.467 284.189 186.649 286.552 187.831C289.421 189.35 292.122 191.038 294.823 192.895C296.715 194.135 298.557 195.425 300.387 196.707C303.291 198.741 306.167 200.755 309.169 202.516C313.896 205.385 317.609 209.266 320.648 213.655C321.35 214.645 322.07 215.616 322.789 216.585C325.867 220.736 328.9 224.827 330.269 230.028L332.8 241.169C332.938 241.721 333.126 242.273 333.316 242.832C333.825 244.323 334.35 245.864 333.982 247.583C333.233 251.326 332.616 255.204 332.016 258.979L331.788 260.411C331.45 262.098 331.112 263.786 331.28 265.473C331.609 270.566 329.7 275.018 327.73 279.61L327.568 279.989C327.189 280.841 326.705 281.692 326.203 282.573C325.81 283.264 325.407 283.974 325.036 284.716C325.204 284.883 326.218 285.391 326.386 285.391L327.905 282.352C327.976 282.352 328.017 282.352 328.054 282.365C328.104 282.383 328.145 282.424 328.243 282.522C327.821 283.704 327.441 284.93 327.06 286.155C326.681 287.377 326.301 288.6 325.88 289.78C325.693 290.264 325.505 290.75 325.317 291.237C323.475 296.009 321.595 300.882 319.298 305.477C318.487 307.198 317.312 308.738 316.138 310.277C315.354 311.303 314.571 312.329 313.896 313.409C313.143 314.462 312.458 315.549 311.78 316.625C310.937 317.962 310.105 319.282 309.169 320.499C307.652 322.356 306.132 324.212 304.107 325.563C299.548 328.938 294.823 332.313 289.929 335.014C286.89 336.872 283.345 337.883 279.97 338.727ZM190.005 318.135C190.511 320.161 191.693 321.848 193.55 323.03C192.706 324.044 191.525 323.536 189.837 320.837C189.483 321.072 189.129 321.225 188.832 321.354C188.704 321.409 188.587 321.46 188.486 321.51L188.509 321.456C189.009 320.293 189.507 319.134 190.005 318.135ZM190.005 329.782L189.837 329.95C189.758 329.911 189.671 329.872 189.578 329.83C189.273 329.694 188.915 329.534 188.655 329.276L184.605 323.2C184.267 322.692 184.099 322.186 184.267 321.51C186.122 324.38 187.98 327.081 190.005 329.782ZM294.991 352.905C302.587 349.698 308.833 345.141 314.571 339.909C315.415 339.065 316.259 338.221 317.273 337.546C324.361 333.157 329.593 327.081 334.32 320.329C338.007 315.028 340.829 309.254 343.646 303.492C344.954 300.816 346.262 298.141 347.654 295.518C347.991 294.842 348.329 294.167 348.667 293.661C348.329 312.903 350.523 331.807 353.054 350.88C333.982 351.555 314.571 352.231 294.991 352.905ZM466.144 347.842C466.059 348.01 465.933 348.178 465.807 348.345C465.68 348.515 465.552 348.684 465.468 348.854C465.369 348.657 465.328 348.403 465.277 348.091C465.241 347.869 465.2 347.617 465.13 347.337C464.362 349.383 462.915 349.102 461.598 348.847C461.178 348.765 460.771 348.686 460.404 348.686C451.29 348.854 442.007 348.854 432.892 348.854C424.114 348.854 415.169 348.854 406.392 349.024C404.742 349.024 403.036 349.247 401.339 349.469C400.084 349.632 398.834 349.796 397.614 349.868C390.695 350.206 383.775 350.374 376.855 350.542C376.54 350.542 376.226 350.218 375.832 349.811C375.59 349.561 375.318 349.28 374.997 349.024C374.829 349.362 374.491 349.868 373.984 350.542C373.889 350.353 373.741 350.164 373.57 349.944C373.436 349.773 373.288 349.584 373.14 349.362C372.972 349.868 372.802 350.374 372.634 350.712H372.128C372.012 349.9 371.856 349.108 371.701 348.323L371.701 348.322C371.406 346.821 371.114 345.343 371.114 343.792C371.114 340.749 371.297 337.706 371.48 334.664C371.601 332.643 371.722 330.621 371.79 328.6C371.903 327.018 371.865 325.512 371.827 324.031L371.827 324.028C371.809 323.297 371.79 322.573 371.79 321.848C372.128 322.102 372.424 322.313 372.719 322.524C373.014 322.735 373.31 322.946 373.648 323.2C373.98 322.532 374.314 322.03 374.648 321.527L374.659 321.51C374.659 321.51 374.321 321.342 373.984 321.005C374.321 320.837 374.659 320.499 374.659 320.331C374.726 320.131 374.818 319.932 374.906 319.743C375.041 319.451 375.165 319.184 375.165 318.979C375.165 318.162 375.005 317.426 374.849 316.715C374.78 316.397 374.712 316.085 374.659 315.772C374.829 315.772 374.997 315.772 375.165 315.604L376.179 320.667H376.685C376.407 320.18 376.616 319.722 376.828 319.258C377.13 318.594 377.439 317.917 376.347 317.122C376.248 317.023 376.324 316.632 376.404 316.224C376.459 315.937 376.517 315.643 376.517 315.434C376.119 314.639 375.825 313.843 375.471 312.883C375.375 312.622 375.274 312.348 375.165 312.059C375.335 311.891 375.841 311.721 376.347 311.553C376.109 311.434 375.891 311.315 375.688 311.203C375.314 310.998 374.986 310.818 374.659 310.708C376.347 309.19 376.347 308.346 374.829 306.657C374.958 306.593 375.087 306.553 375.197 306.519C375.374 306.464 375.503 306.425 375.503 306.321C375.503 304.801 375.503 303.282 375.165 301.762C375.078 301.326 375.07 300.866 375.062 300.408C375.04 299.095 375.017 297.788 373.14 297.038C373.176 297.145 373.212 297.245 373.25 297.341C373.232 297.357 373.212 297.377 373.189 297.4C373.208 297.4 373.226 297.402 373.244 297.406C373.256 297.408 373.268 297.411 373.279 297.415C373.412 297.737 373.568 298.017 373.816 298.387C373.816 298.387 373.31 298.555 372.802 298.893C371.371 297.572 371.448 295.963 371.534 294.162C371.58 293.201 371.628 292.186 371.452 291.13C372.616 291.462 373.452 291.795 374.284 292.126L374.285 292.127L374.321 292.141C374.151 291.545 373.851 290.906 373.531 290.222C373.217 289.553 372.884 288.842 372.634 288.091H371.958V276.952C371.958 277.048 372.342 277.089 372.798 277.138C373.141 277.174 373.525 277.216 373.816 277.288C373.816 277.204 373.857 277.12 373.899 277.036C373.941 276.952 373.984 276.867 373.984 276.782C373.715 276.424 373.399 276.066 373.061 275.683C372.762 275.344 372.445 274.985 372.128 274.589L372.466 274.251C371.352 272.859 371.615 271.008 371.742 270.118C371.769 269.929 371.79 269.783 371.79 269.694V257.878C372.563 258.651 372.451 259.531 372.346 260.355C372.221 261.329 372.106 262.224 373.478 262.772V261.085H373.31C373.224 259.811 373.182 258.538 373.139 257.265C373.097 256.007 373.055 254.748 372.972 253.489H372.634C372.551 253.656 372.509 253.782 372.467 253.907C372.424 254.035 372.382 254.163 372.296 254.333H371.958C372.296 240.999 372.634 227.665 372.972 213.993C373.435 214.595 373.911 215.185 374.382 215.769L374.383 215.77C375.628 217.313 376.841 218.816 377.698 220.407C380.674 225.842 384.345 230.682 388.026 235.535C389.146 237.012 390.268 238.49 391.37 239.987C394.424 244.186 397.286 248.673 400.1 253.086L400.102 253.088C401.02 254.528 401.933 255.96 402.847 257.372C405.119 260.822 407.349 264.272 409.579 267.722L409.584 267.731C411.825 271.198 414.067 274.665 416.351 278.133C419.726 283.366 423.271 288.598 426.816 293.661C430.023 298.217 433.398 302.606 436.775 306.995C438.216 308.945 439.699 310.895 441.182 312.845C442.652 314.777 444.122 316.71 445.55 318.641L445.708 318.862C449.032 323.515 452.355 328.165 455.679 332.651C457.366 335.014 459.222 337.378 461.079 339.741C461.853 340.773 462.925 341.609 463.839 342.323C464.12 342.542 464.386 342.75 464.624 342.948C464.454 342.948 464.286 342.948 463.948 342.778C464.081 342.955 464.202 343.121 464.315 343.274C464.631 343.707 464.881 344.048 465.13 344.298C466.987 345.309 467.155 346.323 466.144 347.842ZM474.751 305.645V304.464C474.751 304.521 474.756 304.583 474.763 304.648C474.769 304.705 474.777 304.764 474.786 304.824C474.824 305.105 474.866 305.414 474.751 305.645ZM480.489 231.21C480.321 231.21 479.308 230.196 479.14 230.028C479.071 230.233 479.058 230.439 479.044 230.656C479.024 230.973 479.003 231.314 478.802 231.716C478.72 231.468 478.396 231.382 478.086 231.299C477.762 231.213 477.452 231.131 477.452 230.872C477.367 232.054 477.621 233.237 477.874 234.419C478.127 235.6 478.38 236.781 478.296 237.962C478.514 237.816 479.012 237.702 479.55 237.579C480.263 237.415 481.045 237.236 481.333 236.948C481.503 237.118 481.839 237.286 482.009 237.286C478.634 239.817 479.478 242.35 480.995 245.219C481.017 245.263 481.041 245.309 481.068 245.357C481.094 245.406 481.123 245.457 481.153 245.51C481.56 246.239 482.217 247.418 481.333 248.594C481.1 248.827 481.269 249.382 481.452 249.98C481.534 250.249 481.619 250.528 481.671 250.79H482.177V251.126L480.659 251.633C480.539 251.452 480.202 251.206 479.82 250.927C479.133 250.424 478.296 249.812 478.296 249.27V257.878C479.453 258.224 479.817 259.444 480.149 260.558C480.301 261.068 480.447 261.557 480.659 261.928C480.995 261.423 481.165 261.085 481.333 260.579L481.503 260.747L481.498 260.776C481.33 261.78 481.162 262.782 480.827 263.786C480.775 264.023 480.722 264.255 480.67 264.485C480.388 265.73 480.125 266.892 479.984 268.174C479.984 268.258 480.068 268.385 480.153 268.511C480.237 268.638 480.321 268.764 480.321 268.848C479.152 271.505 479.121 274.363 479.089 277.21C479.071 278.886 479.052 280.558 478.802 282.184C478.526 283.931 478.551 285.728 478.576 287.547C478.597 289.068 478.618 290.605 478.464 292.141C478.126 295.012 477.452 298.049 476.777 300.919C476.609 301.424 476.271 301.594 475.427 301.932C475.763 299.907 475.595 298.555 475.257 296.7C475.173 296.7 474.582 296.404 473.991 296.109C473.401 295.814 472.81 295.518 472.726 295.518C472.726 296.969 473.235 298.739 473.745 300.513C474.066 301.629 474.387 302.746 474.583 303.788C474.32 303.701 473.65 303.342 473.042 303.016C472.476 302.713 471.963 302.438 471.882 302.438C471.66 303.771 471.584 305.398 471.51 306.979C471.471 307.8 471.434 308.609 471.376 309.358C471.294 310.176 470.894 310.955 470.485 311.752C470.05 312.599 469.605 313.466 469.519 314.423C469.519 314.844 469.724 315.207 469.95 315.609C470.268 316.172 470.63 316.813 470.53 317.798H471.882C471.882 316.131 472.253 314.546 472.628 312.942C473.012 311.297 473.402 309.633 473.402 307.839H473.907C473.973 307.971 474.091 308.103 474.2 308.225C474.369 308.415 474.517 308.581 474.413 308.684C474.322 309.185 474.206 309.699 474.089 310.218C473.773 311.621 473.447 313.067 473.57 314.423C473.57 314.832 473.708 315.242 473.85 315.664C474.059 316.283 474.276 316.927 474.075 317.63C473.737 318.641 473.57 319.655 473.402 321.173C473.337 320.852 473.273 320.605 473.218 320.394C473.128 320.049 473.064 319.8 473.064 319.485C472.979 319.485 472.557 319.443 472.135 319.401C471.713 319.359 471.291 319.317 471.206 319.317C471.119 319.841 471.439 320.365 471.744 320.865C472.029 321.332 472.301 321.779 472.22 322.186C472.114 322.292 472.01 322.332 471.864 322.387C471.776 322.421 471.672 322.46 471.544 322.524L465.974 314.423C461.585 308.008 457.196 301.594 452.808 295.012C451.626 293.323 450.614 291.635 449.771 289.948C444.538 281.003 438.8 272.393 432.386 264.124C429.299 260.187 426.617 256.048 423.913 251.879C422.328 249.433 420.735 246.977 419.05 244.544C416.941 241.422 414.831 238.341 412.721 235.26C410.611 232.18 408.501 229.099 406.392 225.977C405.818 225.213 405.196 224.472 404.572 223.728L404.571 223.727C403.542 222.501 402.506 221.266 401.665 219.901C399.471 216.441 397.404 212.939 395.336 209.436C393.269 205.934 391.201 202.431 389.007 198.971C386.308 194.799 383.43 190.717 380.569 186.66C379.493 185.135 378.421 183.614 377.361 182.092C376.011 180.235 374.659 178.21 373.31 176.184C373.14 175.846 372.972 175.508 372.972 175.003C372.634 171.29 372.296 167.577 372.128 164.032C372.128 162.364 372.211 160.696 372.294 159.009C372.379 157.279 372.466 155.529 372.466 153.735V150.698C372.466 150.276 372.508 149.896 372.55 149.516C372.592 149.136 372.634 148.757 372.634 148.335C372.718 148.25 372.802 148.123 372.887 147.997C372.971 147.87 373.056 147.744 373.14 147.659C371.515 147.659 369.873 147.64 368.223 147.622L368.221 147.622C364.902 147.584 361.557 147.547 358.286 147.659C355.081 147.829 353.392 146.477 351.198 144.116C346.923 139.277 343.398 133.99 339.872 128.702C338.109 126.057 336.345 123.412 334.487 120.823C329.255 113.395 323.855 106.137 318.452 98.8796C316.243 95.9034 314.032 92.9703 311.822 90.0369L311.821 90.0361C309.644 87.1465 307.466 84.2566 305.288 81.3249C303.654 79.0711 302.039 76.8172 300.423 74.563C297.2 70.0661 293.976 65.5685 290.603 61.071C284.527 52.9694 278.282 44.8679 272.036 36.7663C270.242 34.4428 268.315 32.1865 266.339 29.8722L266.338 29.8712C265.155 28.4858 263.954 27.0795 262.753 25.6257C263.045 25.6707 263.334 25.7156 263.621 25.7602C265.486 26.0505 267.242 26.3238 268.999 26.4694L277.101 26.9753C278.637 27.1037 280.174 27.2211 281.71 27.3385C286.25 27.6855 290.79 28.0324 295.329 28.6628C298.513 29.0877 301.697 29.6461 304.922 30.2119C306.827 30.546 308.746 30.8827 310.689 31.196C321.829 33.0515 332.8 36.0905 343.435 39.6354C348.521 41.2853 353.496 43.3837 358.451 45.4733C359.578 45.9489 360.705 46.424 361.831 46.8932C375.503 52.4636 388.501 59.2136 401.327 66.3034C404.354 67.9416 406.438 70.3339 408.565 72.7761L408.566 72.7773C409.286 73.6045 410.012 74.4374 410.78 75.2487L410.854 75.3254C415.218 79.8584 419.581 84.3904 423.777 89.0905C427.399 93.2132 430.838 97.4279 434.296 101.667L434.297 101.668L434.304 101.677C435.515 103.162 436.729 104.649 437.954 106.137C440.053 108.655 442.192 111.172 444.332 113.69C446.497 116.236 448.661 118.782 450.782 121.329C451.683 122.342 452.433 123.504 453.183 124.666C453.558 125.248 453.933 125.829 454.327 126.391C455.154 127.631 456.012 128.855 456.873 130.083C458.825 132.867 460.789 135.668 462.429 138.714C463.763 141.246 464.674 144.094 465.581 146.925C465.822 147.68 466.063 148.433 466.312 149.178C467.171 151.842 468.03 154.462 468.889 157.082L468.89 157.085C469.718 159.612 470.547 162.14 471.376 164.708C472.556 168.589 473.57 172.639 474.413 176.69C474.721 177.921 474.854 179.187 474.986 180.455C475.145 181.971 475.304 183.491 475.763 184.962C476.27 186.734 476.27 188.591 476.27 190.447C476.27 192.303 476.27 194.16 476.777 195.932C476.827 196.033 476.877 196.148 476.927 196.27C476.961 196.353 476.995 196.438 477.029 196.523C477.114 196.734 477.198 196.945 477.282 197.114C477.958 197.79 478.464 198.464 477.452 199.477C477.282 199.645 477.282 200.321 477.452 200.827C477.699 200.58 477.857 200.332 478.057 200.016C478.129 199.902 478.207 199.78 478.296 199.645C478.296 199.843 478.354 199.984 478.402 200.1C478.435 200.182 478.464 200.252 478.464 200.321C478.464 200.546 478.445 200.771 478.427 200.996C478.389 201.446 478.352 201.896 478.464 202.346C478.464 202.603 478.659 202.957 478.827 203.261C478.88 203.357 478.93 203.447 478.97 203.528C479.179 203.319 479.388 203.175 479.676 202.976C479.855 202.853 480.063 202.71 480.321 202.516C481.839 208.255 482.009 213.993 482.009 219.901C482.009 221.188 482.063 222.476 482.117 223.761C482.296 228.036 482.475 232.288 480.659 236.442C480.915 235.504 480.74 234.61 480.569 233.737C480.402 232.881 480.239 232.045 480.489 231.21Z" fill="#DD3735"/>
<path d="M399.857 464.164C398.002 465.514 396.145 466.695 393.781 467.201C393.698 467.118 393.656 467.034 393.614 466.95C393.571 466.865 393.529 466.78 393.443 466.695C394.372 466.104 395.343 465.514 396.313 464.923C397.284 464.332 398.255 463.741 399.184 463.15C399.268 463.319 399.394 463.488 399.521 463.657C399.647 463.826 399.773 463.995 399.857 464.164Z" fill="#DD3735"/>
<path d="M83.3809 235.455C85.2363 233.092 87.0938 230.729 89.1191 228.367C89.2031 228.451 89.583 228.578 89.9629 228.704C90.3428 228.831 90.7227 228.957 90.8066 229.041L90.2807 229.711C88.4927 231.986 86.248 234.843 84.5625 237.143C84.4154 236.996 84.2365 236.69 84.0535 236.376C83.8161 235.97 83.5717 235.551 83.3809 235.455Z" fill="#DD3735"/>
<path d="M35.4453 318.162C34.7611 316.71 34.0775 315.214 33.394 313.718C32.7274 312.26 32.061 310.802 31.3945 309.385C31.5625 309.217 32.7441 308.709 32.9121 308.709C34.1287 310.478 34.9104 312.464 35.6842 314.431C36.0918 315.466 36.4973 316.496 36.9629 317.486C36.9629 317.486 35.6133 318.162 35.4453 318.162Z" fill="#DD3735"/>
<path d="M78.4863 237.143C77.9795 237.902 77.4731 238.704 76.9668 239.506C76.4604 240.308 75.9541 241.109 75.4473 241.869C75.3635 241.785 74.8591 241.953 74.3539 242.122C73.8464 242.291 73.3381 242.46 73.2539 242.375C73.7599 241.616 74.646 240.561 75.5322 239.506C76.4179 238.451 77.3039 237.396 77.8105 236.637C77.9785 236.807 78.1484 236.975 78.4863 237.143Z" fill="#DD3735"/>
<path d="M381.91 471.049C381.931 471.034 381.949 471.017 381.967 470.999C382.009 470.956 382.051 470.914 382.135 470.914C383.316 471.084 384.668 471.252 386.018 471.252C383.822 472.771 382.473 472.604 381.797 471.084C381.846 471.084 381.881 471.07 381.91 471.049Z" fill="#DD3735"/>
<path d="M78.8223 244.232C78.9915 243.729 79.3274 243.223 79.6621 242.719L79.666 242.713C80.0039 242.713 80.5117 242.545 80.5117 242.545C80.8314 241.984 80.9994 241.5 81.1598 241.037C81.3376 240.525 81.5061 240.039 81.8613 239.506C81.7778 239.422 81.6938 239.38 81.6099 239.338C81.5249 239.296 81.4399 239.253 81.3555 239.168C80.8486 239.506 80.3423 239.886 79.8359 240.266C79.3296 240.646 78.8232 241.025 78.3164 241.363C78.6543 241.701 78.6543 241.869 78.6543 242.207C77.3047 242.039 76.7969 242.713 76.123 244.57C76.0241 244.865 75.6966 245.045 75.2736 245.277C74.9703 245.444 74.618 245.638 74.2656 245.92C74.1873 246.078 74.1085 246.345 74.0124 246.672C73.9025 247.045 73.7701 247.495 73.5898 247.945L73.7598 248.115C73.4219 248.451 72.916 248.621 72.916 248.621C72.4105 249.126 71.8633 249.589 71.3162 250.052C70.7661 250.518 70.2162 250.983 69.709 251.49C69.5391 251.996 69.3711 252.504 69.3711 253.01C69.7289 252.652 70.164 252.201 70.639 251.709C71.7328 250.576 73.0382 249.224 74.0977 248.283L74.2656 248.451C74.6035 247.945 74.8989 247.439 75.1943 246.933C75.4897 246.426 75.7852 245.92 76.123 245.414C76.2066 245.498 76.2485 245.582 76.2905 245.666C76.333 245.75 76.3755 245.835 76.4609 245.92C76.2015 246.609 75.9426 247.343 75.6839 248.076C75.4363 248.778 75.1888 249.48 74.9414 250.141C74.8556 250.183 74.759 250.237 74.6625 250.29C74.3793 250.448 74.0977 250.604 74.0977 250.479C73.7588 250.732 73.4626 251.028 73.1664 251.324C72.8718 251.618 72.5771 251.913 72.2402 252.166L69.2031 254.191C67.7895 255.463 66.3773 256.615 64.8669 257.848C64.5722 258.088 64.2737 258.332 63.9707 258.58C63.4966 259.325 63.0225 260.042 62.5375 260.776C61.8135 261.871 61.0652 263.004 60.2559 264.318C62.2812 263.812 62.7891 264.656 62.6191 266.344C64.5385 266.618 65.0098 265.445 65.4812 264.271C65.5902 264 65.6992 263.728 65.8262 263.475C65.8717 263.384 65.917 263.269 65.9655 263.147C66.0982 262.811 66.2545 262.416 66.502 262.293C67.4677 261.435 68.5013 260.645 69.5596 259.836C70.1665 259.373 70.7815 258.903 71.3965 258.41C71.7344 258.072 71.7344 257.398 71.7344 256.891C71.7344 256.794 71.457 256.753 71.125 256.704C70.8779 256.667 70.6006 256.626 70.3848 256.555C71.3959 255.429 72.7079 253.78 73.9204 252.255C74.5277 251.492 75.1101 250.76 75.6172 250.141C76.4609 249.633 77.3047 248.959 77.3047 248.451C77.1604 246.876 77.9902 246.273 79.0699 245.714C78.2946 249.396 76.0272 252.531 73.7598 253.178L73.7644 253.18C74.4386 253.517 75.1105 253.853 75.6172 253.684C75.9935 253.559 76.2769 253.06 76.5356 252.604C76.6247 252.447 76.7109 252.296 76.7969 252.166L81.3555 245.582L82.875 243.051L82.1992 242.375C81.8613 242.966 81.5239 243.515 81.1865 244.063C80.8491 244.612 80.5117 245.161 80.1738 245.752L79.5825 245.456L79.666 245.414C78.9922 244.908 78.8223 244.4 78.8223 244.232Z" fill="#DD3735"/>
<path d="M27.2183 316.552C26.7973 316.511 26.3947 316.473 25.9922 316.473C25.8242 316.643 26.4981 317.654 26.668 317.824H30.2129C30.2129 317.402 30.1704 317.022 30.1279 316.643C30.0855 316.263 30.043 315.883 30.043 315.461H29.5371C29.5371 315.799 29.3262 315.925 29.1152 316.052C28.9043 316.178 28.6934 316.305 28.6934 316.643C28.1633 316.643 27.6797 316.596 27.2183 316.552Z" fill="#DD3735"/>
<path d="M24.1527 308.275C24.3253 308.42 24.4979 308.564 24.6426 308.709C24.6426 308.541 24.8106 308.371 24.9805 308.203C24.8105 307.609 24.6831 307.057 24.5556 306.505C24.4297 305.96 24.3037 305.415 24.1367 304.828C23.6289 305.672 23.1231 306.516 23.291 307.189C23.291 307.552 23.722 307.914 24.1527 308.275Z" fill="#DD3735"/>
<path d="M29.8845 300.549C29.5436 299.654 29.2025 298.759 28.8613 297.906C28.5234 297.906 27.5117 298.414 27.3438 298.582C27.6841 299.434 28.0678 300.33 28.4513 301.225C28.8271 302.102 29.2027 302.979 29.5371 303.814C29.7051 303.646 30.7188 303.139 30.8867 303.139C30.5531 302.303 30.2189 301.426 29.8845 300.549Z" fill="#DD3735"/>
<path d="M406.646 458.695C405.839 458.881 405.171 459.035 404.584 459.27V459.268C404.417 459.602 404.249 459.895 404.082 460.187C403.912 460.486 403.742 460.784 403.572 461.125C403.74 461.125 403.908 461.293 404.078 461.463C404.88 460.66 405.788 459.964 406.886 459.121C407.174 458.9 407.475 458.669 407.791 458.424C407.38 458.527 407 458.614 406.646 458.695Z" fill="#DD3735"/>
</svg>
