<svg width="512" height="512" viewBox="0 0 512 512" fill="none" xmlns="http://www.w3.org/2000/svg">
<g clip-path="url(#clip0_540_820)">
<path d="M0 185.295C0 120.436 0 88.0061 12.6225 63.2331C23.7255 41.4421 41.4421 23.7255 63.2331 12.6225C88.0061 0 120.436 0 185.295 0H326.705C391.564 0 423.994 0 448.767 12.6225C470.558 23.7255 488.275 41.4421 499.378 63.2331C512 88.0061 512 120.436 512 185.295V326.705C512 391.564 512 423.994 499.378 448.767C488.275 470.558 470.558 488.275 448.767 499.378C423.994 512 391.564 512 326.705 512H185.295C120.436 512 88.0061 512 63.2331 499.378C41.4421 488.275 23.7255 470.558 12.6225 448.767C0 423.994 0 391.564 0 326.705V185.295Z" fill="#001E36"/>
<path d="M109.715 375.155V150.006C109.715 148.474 110.355 147.599 111.848 147.599C133.894 147.599 155.93 146.286 177.982 146.286C213.763 146.286 252.508 158.521 266.088 195.955C269.288 205.144 270.995 214.553 270.995 224.399C270.995 243.216 266.728 258.751 258.195 271.004C234.358 305.232 193.043 304.7 156.008 304.7V374.936C156.298 377.015 154.526 377.999 152.808 377.999H112.275C110.568 377.999 109.715 377.124 109.715 375.155ZM156.222 189.828V263.346C170.906 264.422 186.272 264.538 200.382 259.845C215.958 255.352 224.488 241.868 224.488 225.712C224.921 211.944 217.419 198.735 204.648 193.766C190.709 187.971 171.268 187.623 156.222 189.828Z" fill="#31A8FF"/>
<path d="M404.054 248.821C397.599 245.419 390.724 242.931 383.617 241.423C374.485 239.274 338.465 231.748 338.452 250.582C338.771 261.097 355.462 266.249 362.837 269.253C388.727 278.141 418.025 294.029 417.449 325.969C418.24 365.73 379.717 381.624 346.694 381.628C329.503 381.806 311.594 379.143 295.861 371.764C294.359 370.969 293.393 369.269 293.457 367.537V329.491C293.288 327.966 294.925 326.633 296.205 327.73C311.62 337.053 329.892 341.579 347.725 341.821C355.597 341.821 371.199 341.058 371.081 329.491C371.081 318.392 352.417 313.288 344.977 310.468C334.192 306.619 323.967 301.286 314.58 294.616C301.462 285.259 293.233 270.257 293.457 253.753C293.38 216.315 328.841 199.51 360.777 199.503C375.706 199.379 391.738 200.485 405.636 206.548C407.635 207.136 408.049 209.241 408.04 211.128V246.707C408.167 248.916 405.714 249.668 404.054 248.821Z" fill="#31A8FF"/>
</g>
<defs>
<clipPath id="clip0_540_820">
<rect width="512" height="512" fill="white"/>
</clipPath>
</defs>
</svg>
