<svg width="512" height="512" viewBox="0 0 512 512" fill="none" xmlns="http://www.w3.org/2000/svg">
<path fill-rule="evenodd" clip-rule="evenodd" d="M255.577 378.186C366.195 528.984 474.451 336.097 474.292 220.102C474.103 82.9585 335.101 6.30957 255.486 6.30957C127.697 6.30957 6 111.922 6 256.422C6 417.034 145.501 506 255.486 506C230.597 502.416 147.654 484.644 146.54 293.604C145.79 164.395 188.688 112.774 255.306 135.482C256.798 136.035 328.787 164.433 328.787 257.202C328.787 349.577 255.577 378.186 255.577 378.186Z" fill="url(#paint0_linear_540_1320)"/>
<path fill-rule="evenodd" clip-rule="evenodd" d="M255.447 135.378C182.353 110.184 92.8125 170.427 92.8125 291.093C92.8125 488.117 238.814 506 256.513 506C384.302 506 505.999 400.387 505.999 255.888C505.999 95.2753 366.498 6.30978 256.513 6.30978C286.976 2.09103 420.703 39.2782 420.703 222.05C420.703 341.241 320.851 406.128 255.905 378.404C254.413 377.851 182.424 349.453 182.424 256.684C182.424 164.309 255.447 135.378 255.447 135.378Z" fill="url(#paint1_linear_540_1320)"/>
<defs>
<linearGradient id="paint0_linear_540_1320" x1="-65.0119" y1="289.325" x2="305.436" y2="575.077" gradientUnits="userSpaceOnUse">
<stop/>
<stop offset="1" stop-color="white"/>
</linearGradient>
<linearGradient id="paint1_linear_540_1320" x1="531.574" y1="163.195" x2="150.12" y2="-14.6935" gradientUnits="userSpaceOnUse">
<stop/>
<stop offset="1" stop-color="white"/>
</linearGradient>
</defs>
</svg>
