<svg width="512" height="512" viewBox="0 0 512 512" fill="none" xmlns="http://www.w3.org/2000/svg">
<path d="M144.289 214.197C144.289 220.497 144.97 225.606 146.162 229.352C147.524 233.098 149.227 237.185 151.611 241.613C152.462 242.975 152.803 244.337 152.803 245.529C152.803 247.232 151.781 248.935 149.567 250.638L138.839 257.79C137.307 258.812 135.774 259.322 134.412 259.322C132.709 259.322 131.006 258.471 129.303 256.938C126.919 254.384 124.876 251.66 123.173 248.935C121.47 246.04 119.767 242.805 117.894 238.888C104.612 254.554 87.9239 262.388 67.8302 262.388C53.5262 262.388 42.117 258.301 33.773 250.127C25.429 241.953 21.1719 231.055 21.1719 217.432C21.1719 202.958 26.2804 191.208 36.6679 182.353C47.0553 173.498 60.8485 169.071 78.3879 169.071C84.1776 169.071 90.1376 169.582 96.4382 170.433C102.739 171.285 109.21 172.647 116.021 174.179V161.749C116.021 148.807 113.297 139.782 108.018 134.503C102.568 129.224 93.3731 126.67 80.2611 126.67C74.3011 126.67 68.1708 127.351 61.8702 128.883C55.5696 130.416 49.4393 132.289 43.4793 134.673C40.7547 135.865 38.7113 136.546 37.5193 136.887C36.3273 137.227 35.4759 137.398 34.7947 137.398C32.4107 137.398 31.2187 135.695 31.2187 132.119V123.775C31.2187 121.05 31.5593 119.007 32.4107 117.815C33.2622 116.623 34.7947 115.431 37.1787 114.239C43.1387 111.174 50.2908 108.619 58.6348 106.576C66.9788 104.362 75.8336 103.341 85.1993 103.341C105.463 103.341 120.278 107.938 129.814 117.134C139.18 126.329 143.948 140.293 143.948 159.024V214.197H144.289ZM75.1525 240.08C80.7719 240.08 86.5616 239.058 92.6919 237.015C98.8222 234.971 104.271 231.225 108.869 226.117C111.594 222.881 113.637 219.305 114.659 215.218C115.681 211.132 116.362 206.193 116.362 200.403V193.251C111.423 192.059 106.145 191.038 100.695 190.357C95.2462 189.675 89.9673 189.335 84.6885 189.335C73.2793 189.335 64.9353 191.549 59.3159 196.146C53.6965 200.744 50.9719 207.215 50.9719 215.729C50.9719 223.733 53.0153 229.693 57.2725 233.779C61.3593 238.037 67.3193 240.08 75.1525 240.08ZM211.892 258.471C208.827 258.471 206.783 257.96 205.421 256.768C204.059 255.746 202.867 253.362 201.845 250.127L161.828 118.496C160.806 115.09 160.295 112.877 160.295 111.685C160.295 108.96 161.658 107.427 164.382 107.427H181.07C184.306 107.427 186.519 107.938 187.711 109.13C189.074 110.152 190.095 112.536 191.117 115.771L219.725 228.501L246.29 115.771C247.141 112.366 248.163 110.152 249.525 109.13C250.887 108.109 253.271 107.427 256.337 107.427H269.959C273.195 107.427 275.409 107.938 276.771 109.13C278.133 110.152 279.325 112.536 280.006 115.771L306.911 229.863L336.371 115.771C337.393 112.366 338.585 110.152 339.777 109.13C341.139 108.109 343.353 107.427 346.418 107.427H362.254C364.979 107.427 366.512 108.79 366.512 111.685C366.512 112.536 366.341 113.387 366.171 114.409C366.001 115.431 365.66 116.793 364.979 118.666L323.94 250.297C322.918 253.703 321.726 255.917 320.364 256.938C319.002 257.96 316.788 258.641 313.893 258.641H299.249C296.013 258.641 293.799 258.13 292.437 256.938C291.075 255.746 289.883 253.533 289.202 250.127L262.807 140.293L236.583 249.957C235.732 253.362 234.71 255.576 233.348 256.768C231.986 257.96 229.602 258.471 226.537 258.471H211.892ZM430.709 263.069C421.854 263.069 413 262.047 404.485 260.004C395.971 257.96 389.33 255.746 384.902 253.192C382.178 251.66 380.305 249.957 379.624 248.424C378.942 246.892 378.602 245.189 378.602 243.656V234.972C378.602 231.396 379.964 229.693 382.518 229.693C383.54 229.693 384.562 229.863 385.584 230.204C386.605 230.544 388.138 231.225 389.841 231.906C395.63 234.461 401.931 236.504 408.572 237.866C415.384 239.229 422.025 239.91 428.836 239.91C439.564 239.91 447.908 238.037 453.698 234.29C459.488 230.544 462.553 225.095 462.553 218.113C462.553 213.345 461.02 209.429 457.955 206.193C454.89 202.958 449.1 200.063 440.756 197.338L416.065 189.675C403.634 185.759 394.438 179.969 388.819 172.306C383.2 164.814 380.305 156.47 380.305 147.615C380.305 140.463 381.837 134.162 384.902 128.713C387.968 123.264 392.054 118.496 397.163 114.75C402.272 110.833 408.061 107.938 414.873 105.895C421.684 103.851 428.836 103 436.329 103C440.075 103 443.992 103.17 447.738 103.681C451.654 104.192 455.23 104.873 458.806 105.554C462.212 106.406 465.448 107.257 468.513 108.279C471.578 109.301 473.962 110.322 475.665 111.344C478.049 112.706 479.752 114.069 480.773 115.601C481.795 116.963 482.306 118.837 482.306 121.221V129.224C482.306 132.8 480.944 134.673 478.389 134.673C477.027 134.673 474.813 133.992 471.918 132.63C462.212 128.202 451.314 125.989 439.224 125.989C429.517 125.989 421.854 127.521 416.576 130.757C411.297 133.992 408.572 138.93 408.572 145.912C408.572 150.68 410.275 154.767 413.681 158.002C417.086 161.238 423.387 164.473 432.412 167.368L456.593 175.031C468.853 178.947 477.708 184.397 482.987 191.378C488.266 198.36 490.82 206.364 490.82 215.218C490.82 222.541 489.288 229.182 486.393 234.972C483.328 240.761 479.241 245.87 473.962 249.957C468.683 254.214 462.382 257.279 455.06 259.493C447.397 261.877 439.394 263.069 430.709 263.069Z" fill="#EEEEEE"/>
<path d="M462.891 345.827C406.867 387.207 325.471 409.174 255.483 409.174C157.399 409.174 69.0203 372.903 2.26824 312.622C-3.01062 307.854 1.75738 301.383 8.05795 305.129C80.2591 347.019 169.319 372.392 261.443 372.392C323.598 372.392 391.882 359.45 454.718 332.886C464.083 328.628 472.087 339.016 462.891 345.827ZM486.221 319.263C479.069 310.067 438.881 314.835 420.66 317.049C415.211 317.73 414.36 312.962 419.298 309.386C451.312 286.908 503.93 293.379 510.061 300.872C516.191 308.535 508.358 361.153 478.387 386.355C473.79 390.272 469.362 388.228 471.406 383.12C478.217 366.262 493.373 328.288 486.221 319.263Z" fill="#FF9900"/>
</svg>
