<svg width="512" height="512" viewBox="0 0 512 512" fill="none" xmlns="http://www.w3.org/2000/svg">
<path d="M255.999 270.705V320.191C339.874 320.191 405.18 239.162 377.742 151.271C365.752 112.862 335.233 82.342 296.824 70.352C208.933 42.9148 127.902 108.222 127.902 192.097H177.501C177.508 192.097 177.514 192.084 177.514 192.084C177.521 139.446 229.614 98.7509 284.954 118.832C305.457 126.272 321.811 142.623 329.255 163.124C349.339 218.432 308.705 270.504 256.113 270.579V221.254C256.113 221.254 256.108 221.251 256.104 221.251H206.658C206.654 221.251 206.649 221.258 206.649 221.258V270.705H255.999ZM206.641 308.711H168.649L168.64 308.702V270.705H206.649V308.702C206.649 308.702 206.645 308.711 206.641 308.711ZM168.666 270.705H136.817C136.804 270.705 136.794 270.697 136.794 270.697V238.862C136.794 238.862 136.804 238.839 136.817 238.839H168.643C168.656 238.839 168.666 238.849 168.666 238.849V270.705Z" fill="#0080FF"/>
<path d="M44.2601 370.387C37.8119 365.913 29.7876 363.646 20.4109 363.646H0V428.402H20.4109C29.7643 428.402 37.7915 426.008 44.2673 421.292C47.7914 418.79 50.5601 415.295 52.4979 410.907C54.4256 406.542 55.4032 401.392 55.4032 395.603C55.4032 389.881 54.4256 384.799 52.4965 380.495C50.5601 376.17 47.7885 372.77 44.2601 370.387ZM11.9217 374.591H18.3278C25.4558 374.591 31.323 375.993 35.7724 378.763C40.7113 381.741 43.2171 387.406 43.2171 395.603C43.2171 404.046 40.7055 409.967 35.755 413.208H35.7506C31.49 416.026 25.6577 417.455 18.4164 417.455H11.9217V374.591ZM63.763 428.402H75.2402V382.793H63.763V428.402ZM69.6113 362.848C67.6503 362.848 65.9594 363.544 64.5983 364.906C63.2212 366.218 62.5225 367.881 62.5225 369.85C62.5225 371.811 63.2169 373.5 64.5896 374.871C65.9594 376.244 67.6503 376.94 69.6113 376.94C71.5724 376.94 73.2618 376.244 74.6345 374.871C76.0087 373.499 76.703 371.809 76.703 369.85C76.703 367.884 76.0043 366.221 74.6345 364.915C73.2618 363.544 71.5724 362.848 69.6113 362.848ZM116.919 386.603C113.459 383.525 109.595 381.729 105.416 381.729C99.0807 381.729 93.815 383.921 89.7665 388.239C85.6672 392.522 83.587 398.035 83.587 404.623C83.587 411.061 85.6338 416.555 89.6794 420.96C93.7569 425.222 99.0517 427.382 105.416 427.382C109.84 427.382 113.643 426.151 116.743 423.718V424.768C116.743 428.552 115.729 431.496 113.732 433.518C111.736 435.538 108.967 436.56 105.506 436.56C100.208 436.56 96.8873 434.479 92.8446 429.015L85.0295 436.524L85.2401 436.82C86.9281 439.189 89.5137 441.508 92.926 443.711C96.3396 445.905 100.631 447.021 105.681 447.021C112.496 447.021 118.007 444.92 122.066 440.779C126.148 436.615 128.218 431.04 128.218 424.214V382.793H116.919V386.603ZM113.909 413.54C111.903 415.818 109.328 416.922 106.036 416.922C102.746 416.922 100.185 415.818 98.2077 413.543C96.2409 411.279 95.2415 408.278 95.2415 404.623C95.2415 400.908 96.2409 397.869 98.2092 395.589C100.159 393.333 102.792 392.188 106.036 392.188C109.325 392.188 111.902 393.301 113.908 395.595C115.907 397.874 116.919 400.911 116.919 404.623C116.919 408.276 115.907 411.277 113.909 413.54ZM138.04 428.402H149.517V382.793H138.04V428.402ZM143.89 362.848C141.927 362.848 140.237 363.544 138.875 364.906C137.498 366.218 136.8 367.881 136.8 369.85C136.8 371.811 137.494 373.5 138.867 374.871C140.237 376.244 141.927 376.94 143.89 376.94C145.85 376.94 147.539 376.244 148.913 374.871C150.286 373.499 150.98 371.809 150.98 369.85C150.98 367.884 150.281 366.221 148.913 364.915C147.539 363.544 145.85 362.848 143.89 362.848ZM174.673 370.47H163.374V382.793H156.812V393.253H163.374V412.198C163.374 418.126 164.558 422.368 166.895 424.804C169.238 427.252 173.399 428.492 179.261 428.492C181.127 428.492 183.003 428.43 184.838 428.311L185.355 428.276V417.824L181.42 418.03C178.688 418.03 176.863 417.55 175.996 416.605C175.117 415.645 174.673 413.615 174.673 410.571V393.253H185.355V382.793H174.673V370.47ZM224.745 386.205H224.743C221.266 383.236 216.457 381.729 210.455 381.729C206.636 381.729 203.066 382.568 199.835 384.206C196.847 385.721 193.913 388.231 192.047 391.516L192.164 391.655L199.512 398.69C202.54 393.865 205.905 392.188 210.368 392.188C212.766 392.188 214.756 392.832 216.286 394.1C217.807 395.359 218.548 396.962 218.548 398.992V401.208C215.702 400.342 212.864 399.903 210.102 399.903C204.39 399.903 199.743 401.247 196.291 403.896C192.794 406.579 191.022 410.417 191.022 415.305C191.022 419.591 192.517 423.071 195.474 425.66C198.458 428.155 202.185 429.423 206.556 429.423C210.926 429.423 215.013 427.661 218.725 424.647V428.402H230.025V399.082C230.025 393.53 228.248 389.199 224.745 386.205ZM204.367 410.974C205.669 410.066 207.508 409.608 209.835 409.608C212.598 409.608 215.528 410.163 218.548 411.258V415.732C216.053 418.051 212.721 419.227 208.641 419.227C206.654 419.227 205.109 418.786 204.048 417.913C203.006 417.059 202.499 415.972 202.499 414.595C202.499 413.031 203.111 411.845 204.367 410.974ZM239.169 428.402H250.646V363.646H239.169V428.402ZM292.287 429.378C273.88 429.378 258.905 414.403 258.905 395.994C258.905 377.586 273.88 362.611 292.287 362.611C310.695 362.611 325.67 377.586 325.67 395.994C325.67 414.403 310.695 429.378 292.287 429.378ZM292.287 374.376C280.367 374.376 270.669 384.074 270.669 395.994C270.669 407.916 280.367 417.612 292.287 417.612C304.208 417.612 313.905 407.916 313.905 395.994C313.905 384.074 304.208 374.376 292.287 374.376ZM366.594 412.094C364.541 414.395 362.44 416.389 360.822 417.426V417.428C359.236 418.446 357.233 418.963 354.871 418.963C351.489 418.963 348.77 417.731 346.555 415.195C344.352 412.672 343.235 409.429 343.235 405.552C343.235 401.677 344.338 398.439 346.512 395.935C348.699 393.413 351.403 392.188 354.782 392.188C358.479 392.188 362.377 394.486 365.716 398.436L373.302 391.161C368.356 384.725 362.047 381.729 354.518 381.729C348.215 381.729 342.753 384.024 338.283 388.549C333.835 393.041 331.581 398.763 331.581 405.552C331.581 412.343 333.834 418.078 338.276 422.6C342.723 427.127 348.187 429.423 354.518 429.423C362.827 429.423 369.534 425.835 374.056 419.264L366.594 412.094ZM413.698 389.165C412.071 386.896 409.854 385.072 407.109 383.737C404.371 382.405 401.179 381.729 397.625 381.729C391.218 381.729 385.976 384.093 382.039 388.759C378.219 393.388 376.284 399.142 376.284 405.863C376.284 412.775 378.408 418.497 382.599 422.868C386.765 427.217 392.343 429.423 399.176 429.423C406.916 429.423 413.266 426.293 418.051 420.119L418.31 419.787L410.823 412.592C410.129 413.429 409.145 414.379 408.248 415.224C407.115 416.293 406.05 417.121 404.911 417.688C403.195 418.542 401.272 418.963 399.119 418.963C395.94 418.963 393.306 418.028 391.293 416.183C389.41 414.457 388.309 412.13 388.017 409.255H418.423L418.526 405.066C418.526 402.101 418.123 399.245 417.327 396.575C416.53 393.901 415.309 391.407 413.698 389.165ZM388.614 399.903C389.166 397.721 390.171 395.904 391.611 394.494C393.166 392.963 395.19 392.188 397.627 392.188C400.409 392.188 402.563 392.978 404.028 394.544C405.386 395.991 406.151 397.793 406.311 399.903H388.614ZM457.773 386.205H457.772C454.294 383.236 449.486 381.729 443.484 381.729C439.665 381.729 436.094 382.568 432.864 384.206C429.874 385.721 426.94 388.231 425.076 391.516L425.192 391.655L432.541 398.69C435.569 393.865 438.934 392.188 443.397 392.188C445.795 392.188 447.785 392.832 449.315 394.1C450.836 395.359 451.577 396.962 451.577 398.992V401.208C448.729 400.342 445.892 399.903 443.13 399.903C437.419 399.903 432.771 401.247 429.319 403.896C425.823 406.579 424.051 410.417 424.051 415.305C424.051 419.591 425.546 423.071 428.503 425.66C431.485 428.155 435.214 429.423 439.585 429.423C443.955 429.423 448.042 427.661 451.752 424.647V428.402H463.054V399.082C463.054 393.53 461.277 389.199 457.773 386.205ZM437.396 410.974C438.698 410.066 440.537 409.608 442.864 409.608C445.627 409.608 448.557 410.163 451.577 411.258V415.732C449.081 418.051 445.75 419.227 441.668 419.227C439.682 419.227 438.138 418.786 437.076 417.913C436.035 417.059 435.528 415.972 435.528 414.595C435.528 413.031 436.139 411.845 437.396 410.974ZM507.205 387.1C504.008 383.538 499.516 381.729 493.851 381.729C489.298 381.729 485.6 383.037 482.834 385.617V382.793H471.579V428.402H483.056V403.249C483.056 399.793 483.879 397.049 485.5 395.091C487.118 393.138 489.342 392.188 492.299 392.188C494.9 392.188 496.869 393.037 498.324 394.781C499.783 396.535 500.523 398.949 500.523 401.964V428.402H512V401.964C512 395.647 510.388 390.647 507.205 387.1Z" fill="#0080FF"/>
</svg>
