<svg width="512" height="512" viewBox="0 0 512 512" fill="none" xmlns="http://www.w3.org/2000/svg">
<path d="M254.114 228.182V288.347L247.557 293.629V243.579H235.214L254.114 228.182ZM481.537 219C487.029 219 492.127 219.828 496.834 221.484C501.362 223.048 505.267 224.807 508.551 226.759L509.124 227.106L502.325 240.049C501.705 239.542 500.829 238.961 499.698 238.308L499.055 237.944L498.362 237.566L497.618 237.173C495.527 236.04 493.043 235.081 490.166 234.297C487.29 233.425 484.327 232.989 481.276 232.989C473.083 232.989 468.986 235.299 468.986 239.919C468.986 242.62 470.468 244.538 473.431 245.671L474.107 245.916L474.824 246.165L475.585 246.418L476.388 246.674L477.234 246.935L478.122 247.2C478.274 247.245 478.427 247.289 478.582 247.334L479.535 247.605L480.53 247.88L481.568 248.158L482.649 248.441L483.772 248.728L485.537 249.166L486.767 249.463C491.909 250.77 496.355 252.252 500.103 253.908C503.778 255.495 506.613 257.602 508.607 260.23L508.862 260.576C510.954 263.278 512 266.851 512 271.296C512 276.7 510.605 281.058 507.816 284.371C505.114 287.595 501.541 289.949 497.096 291.431C492.65 292.825 487.857 293.522 482.714 293.522C476.787 293.522 470.904 292.694 465.064 291.038C459.502 289.461 454.534 287.331 450.158 284.647L449.506 284.24L456.566 270.512C457.699 271.645 459.573 272.909 462.188 274.303C464.89 275.698 468.028 276.875 471.601 277.833C475.175 278.792 478.966 279.272 482.976 279.272C490.994 279.272 495.004 277.136 495.004 272.865C495.004 269.989 493.13 267.941 489.382 266.721L488.481 266.404L487.534 266.083L486.543 265.757L485.506 265.425L484.424 265.089L483.297 264.747C483.105 264.69 482.912 264.633 482.717 264.575L481.522 264.226L480.282 263.872L478.996 263.513L477.666 263.149L475.586 262.594L474.87 262.406C467.374 260.489 461.796 258.048 458.135 255.085C454.561 252.034 452.774 247.676 452.774 242.01C452.774 236.955 454.038 232.728 456.566 229.329C459.181 225.929 462.667 223.358 467.025 221.615C471.47 219.872 476.308 219 481.537 219ZM360.292 219.131C365.823 219.131 370.873 220.138 375.438 222.153L375.983 222.399C380.69 224.491 384.699 227.324 388.011 230.897C391.411 234.384 394.023 238.35 395.853 242.795C397.684 247.24 398.601 251.772 398.601 256.392C398.601 261.186 397.643 265.805 395.725 270.251C393.808 274.609 391.103 278.531 387.616 282.017C384.217 285.416 380.167 288.118 375.46 290.123C370.754 292.128 365.611 293.13 360.033 293.13C354.28 293.13 349.051 292.128 344.344 290.123C339.637 288.031 335.582 285.242 332.182 281.756C328.783 278.182 326.168 274.173 324.338 269.728C322.51 265.282 321.592 260.706 321.592 256C321.592 251.206 322.551 246.586 324.469 242.141C326.299 237.898 328.847 234.131 332.107 230.841L332.577 230.374C336.064 226.888 340.158 224.142 344.864 222.138C349.571 220.133 354.713 219.131 360.292 219.131ZM44.8441 219.523L76.6141 292.607H59.8793L52.5578 275.48H24.187L16.8656 292.607H0L31.9008 219.523H44.8441ZM138.425 219.523L158.559 245.41L178.693 219.523H195.82L166.926 256.523L194.905 292.607H177.778L158.559 267.766L139.471 292.607H122.082L150.191 256.523L121.167 219.523H138.425ZM266.105 219.188V268.093H278.794L259.561 283.877V223.744L266.105 219.188ZM360.033 233.251C355.239 233.251 351.14 234.384 347.741 236.65C344.428 238.916 341.901 241.792 340.158 245.279C338.414 248.765 337.543 252.383 337.543 256.131C337.543 260.053 338.461 263.801 340.291 267.374C342.119 270.861 344.69 273.693 348.002 275.872C351.401 278.051 355.454 279.141 360.161 279.141C364.955 279.141 369.008 278.008 372.32 275.742C375.635 273.388 378.16 270.468 379.903 266.982C381.646 263.408 382.52 259.748 382.52 256C382.52 252.078 381.605 248.373 379.775 244.887C377.944 241.4 375.33 238.611 371.928 236.519C368.615 234.34 364.652 233.251 360.033 233.251ZM38.4378 238.742L27.717 261.752H48.7663L38.4378 238.742Z" fill="#F2F3F7" fill-opacity="0.9"/>
</svg>
