<svg width="512" height="512" viewBox="0 0 512 512" fill="none" xmlns="http://www.w3.org/2000/svg">
<path d="M19.4769 152.782H492.52C501.741 152.782 509.216 160.257 509.216 169.478V342C509.216 351.22 501.741 358.695 492.52 358.695H19.4769C10.2561 358.695 2.78125 351.22 2.78125 342V169.478C2.78125 160.257 10.2561 152.782 19.4769 152.782Z" fill="white"/>
<path d="M19.4783 150H492.522C503.279 150 512 158.721 512 169.478V342C512 352.758 503.279 361.478 492.522 361.478H19.4783C8.72071 361.478 0 352.758 0 342V169.478C0 158.721 8.72071 150 19.4783 150ZM19.4783 155.565C11.7943 155.565 5.56522 161.794 5.56522 169.478V342C5.56522 349.684 11.7943 355.913 19.4783 355.913H492.522C500.206 355.913 506.435 349.684 506.435 342V169.478C506.435 161.794 500.206 155.565 492.522 155.565H19.4783Z" fill="#EAEAEA"/>
<path d="M272.697 190.203L272.696 275.099L303.88 243.921L319.62 259.662L261.978 317.3L203.609 258.931L219.35 243.19L250.435 274.275L250.436 190.203H272.697Z" fill="black"/>
<path d="M72.1632 312.979V247.232L112.418 287.489L152.978 246.932V312.315H175.238V193.192L112.419 256.007L49.9023 193.486V312.979H72.1632Z" fill="black"/>
<path d="M447.848 186.651L463.588 202.392L416.439 249.54L462.137 295.24L446.397 310.981L400.696 265.282L354.996 310.981L339.255 295.24L384.951 249.54L337.805 202.392L353.545 186.651L400.696 233.798L447.848 186.651Z" fill="#F9AC00"/>
</svg>
