<svg width="512" height="512" viewBox="0 0 512 512" fill="none" xmlns="http://www.w3.org/2000/svg">
<g clip-path="url(#clip0_540_818)">
<path d="M0 185.295C0 120.436 0 88.0061 12.6225 63.2331C23.7255 41.4421 41.4421 23.7255 63.2331 12.6225C88.0061 0 120.436 0 185.295 0H326.705C391.564 0 423.994 0 448.767 12.6225C470.558 23.7255 488.275 41.4421 499.378 63.2331C512 88.0061 512 120.436 512 185.295V326.705C512 391.564 512 423.994 499.378 448.767C488.275 470.558 470.558 488.275 448.767 499.378C423.994 512 391.564 512 326.705 512H185.295C120.436 512 88.0061 512 63.2331 499.378C41.4421 488.275 23.7255 470.558 12.6225 448.767C0 423.994 0 391.564 0 326.705V185.295Z" fill="#001E36"/>
<path d="M268.885 377.053H133.559C131.268 377.053 130.124 375.762 130.125 373.178V149.484C129.871 147.665 131.442 146.054 133.216 146.314H175.119C176.499 146.114 177.715 147.387 177.524 148.78V332.667H276.098C278.159 332.667 278.96 333.724 278.503 335.838L272.32 373.883C272.267 375.799 270.695 377.034 268.885 377.053Z" fill="#31A8FF"/>
<path d="M303.265 201.727H340.703C342.768 201.745 344.621 203.208 345.168 205.25C347.912 211.498 348.25 219.033 348.26 225.778C354.68 218.111 362.422 211.722 371.099 206.932C380.406 201.531 390.957 198.793 401.648 199.006C403.423 198.746 404.994 200.356 404.74 202.176V244.801C404.74 246.447 403.591 247.267 401.306 247.267C385.459 246.146 360.788 249.986 349.274 262.767V373.599C349.274 375.713 348.358 376.77 346.526 376.77H306.357C304.383 377.06 302.643 375.239 302.921 373.247V252.904C302.921 236.778 303.262 220.167 300.861 204.193C300.491 202.723 301.863 201.357 303.265 201.727Z" fill="#31A8FF"/>
</g>
<defs>
<clipPath id="clip0_540_818">
<rect width="512" height="512" fill="white"/>
</clipPath>
</defs>
</svg>
