<svg width="512" height="512" viewBox="0 0 512 512" fill="none" xmlns="http://www.w3.org/2000/svg">
<g clip-path="url(#clip0_540_1385)">
<path d="M404.477 97.5234H375.715C370.192 97.5234 365.715 102.001 365.715 107.523V111.904C365.715 117.427 370.192 121.904 375.715 121.904H404.477C410 121.904 414.477 117.427 414.477 111.904V107.523C414.477 102.001 410 97.5234 404.477 97.5234Z" fill="#56B3B4"/>
<path d="M136.286 487.619H10C4.47715 487.619 0 492.096 0 497.619V502C0 507.523 4.47715 512 10 512H136.286C141.809 512 146.286 507.523 146.286 502V497.619C146.286 492.096 141.809 487.619 136.286 487.619Z" fill="#EA5E5E"/>
<path d="M380.094 292.571H302.57C297.047 292.571 292.57 297.048 292.57 302.571V306.952C292.57 312.475 297.047 316.952 302.57 316.952H380.094C385.617 316.952 390.094 312.475 390.094 306.952V302.571C390.094 297.048 385.617 292.571 380.094 292.571Z" fill="#BF85BF"/>
<path d="M258.19 292.571H156.285C150.762 292.571 146.285 297.048 146.285 302.571V306.952C146.285 312.475 150.762 316.952 156.285 316.952H258.19C263.713 316.952 268.19 312.475 268.19 306.952V302.571C268.19 297.048 263.713 292.571 258.19 292.571Z" fill="#EA5E5E"/>
<path d="M111.905 292.571H10C4.47715 292.571 0 297.048 0 302.571V306.952C0 312.475 4.47715 316.952 10 316.952H111.905C117.428 316.952 121.905 312.475 121.905 306.952V302.571C121.905 297.048 117.428 292.571 111.905 292.571Z" fill="#56B3B4"/>
<path d="M136.286 390.096H10C4.47715 390.096 0 394.573 0 400.096V404.477C0 410 4.47715 414.477 10 414.477H136.286C141.809 414.477 146.286 410 146.286 404.477V400.096C146.286 394.573 141.809 390.096 136.286 390.096Z" fill="#BF85BF"/>
<path d="M136.286 195.048H10C4.47715 195.048 0 199.525 0 205.048V209.429C0 214.952 4.47715 219.429 10 219.429H136.286C141.809 219.429 146.286 214.952 146.286 209.429V205.048C146.286 199.525 141.809 195.048 136.286 195.048Z" fill="#BF85BF"/>
<path d="M380.097 48.7617H131.906C126.383 48.7617 121.906 53.2389 121.906 58.7617V63.1427C121.906 68.6655 126.383 73.1427 131.906 73.1427H380.097C385.62 73.1427 390.097 68.6655 390.097 63.1427V58.7617C390.097 53.2389 385.62 48.7617 380.097 48.7617Z" fill="#F7BA3E"/>
<path d="M87.5238 48.7617H10C4.47715 48.7617 0 53.2389 0 58.7617V63.1427C0 68.6655 4.47715 73.1427 10 73.1427H87.5238C93.0467 73.1427 97.5238 68.6655 97.5238 63.1427V58.7617C97.5238 53.2389 93.0467 48.7617 87.5238 48.7617Z" fill="#EA5E5E"/>
<path d="M136.285 438.857H107.523C102.001 438.857 97.5234 443.335 97.5234 448.857V453.238C97.5234 458.761 102.001 463.238 107.523 463.238H136.285C141.808 463.238 146.285 458.761 146.285 453.238V448.857C146.285 443.335 141.808 438.857 136.285 438.857Z" fill="#F7BA3E"/>
<path d="M136.285 146.286H107.523C102.001 146.286 97.5234 150.763 97.5234 156.286V160.667C97.5234 166.19 102.001 170.667 107.523 170.667H136.285C141.808 170.667 146.285 166.19 146.285 160.667V156.286C146.285 150.763 141.808 146.286 136.285 146.286Z" fill="#56B3B4"/>
<path d="M63.1429 438.857H10C4.47715 438.857 0 443.335 0 448.857V453.238C0 458.761 4.47715 463.238 10 463.238H63.1429C68.6657 463.238 73.1429 458.761 73.1429 453.238V448.857C73.1429 443.335 68.6657 438.857 63.1429 438.857Z" fill="#56B3B4"/>
<path d="M63.1429 146.286H10C4.47715 146.286 0 150.763 0 156.286V160.667C0 166.19 4.47715 170.667 10 170.667H63.1429C68.6657 170.667 73.1429 166.19 73.1429 160.667V156.286C73.1429 150.763 68.6657 146.286 63.1429 146.286Z" fill="#F7BA3E"/>
<path opacity="0.5" d="M355.715 438.857H326.953C321.43 438.857 316.953 443.335 316.953 448.857V453.238C316.953 458.761 321.43 463.238 326.953 463.238H355.715C361.238 463.238 365.715 458.761 365.715 453.238V448.857C365.715 443.335 361.238 438.857 355.715 438.857Z" fill="#D0D4D8"/>
<path opacity="0.5" d="M282.573 438.857H180.668C175.145 438.857 170.668 443.335 170.668 448.857V453.238C170.668 458.761 175.145 463.238 180.668 463.238H282.573C288.096 463.238 292.573 458.761 292.573 453.238V448.857C292.573 443.335 288.096 438.857 282.573 438.857Z" fill="#D0D4D8"/>
<path opacity="0.5" d="M501.999 438.857H400.094C394.571 438.857 390.094 443.335 390.094 448.857V453.238C390.094 458.761 394.571 463.238 400.094 463.238H501.999C507.521 463.238 511.999 458.761 511.999 453.238V448.857C511.999 443.335 507.521 438.857 501.999 438.857Z" fill="#D0D4D8"/>
<path d="M404.475 243.81H205.047C199.524 243.81 195.047 248.287 195.047 253.81V258.191C195.047 263.713 199.524 268.191 205.047 268.191H404.475C409.998 268.191 414.475 263.713 414.475 258.191V253.81C414.475 248.287 409.998 243.81 404.475 243.81Z" fill="#56B3B4"/>
<path d="M160.668 243.81H83.1445C77.6217 243.81 73.1445 248.287 73.1445 253.81V258.191C73.1445 263.713 77.6217 268.191 83.1445 268.191H160.668C166.191 268.191 170.668 263.713 170.668 258.191V253.81C170.668 248.287 166.191 243.81 160.668 243.81Z" fill="#F7BA3E"/>
<path d="M38.7619 243.81H10C4.47715 243.81 0 248.287 0 253.81V258.191C0 263.713 4.47715 268.191 10 268.191H38.7619C44.2848 268.191 48.7619 263.713 48.7619 258.191V253.81C48.7619 248.287 44.2848 243.81 38.7619 243.81Z" fill="#EA5E5E"/>
<path d="M331.334 97.5234H229.43C223.907 97.5234 219.43 102.001 219.43 107.523V111.904C219.43 117.427 223.907 121.904 229.43 121.904H331.334C336.857 121.904 341.334 117.427 341.334 111.904V107.523C341.334 102.001 336.857 97.5234 331.334 97.5234Z" fill="#BF85BF"/>
<path d="M185.048 97.5234H10C4.47715 97.5234 0 102.001 0 107.523V111.904C0 117.427 4.47715 121.904 10 121.904H185.048C190.57 121.904 195.048 117.427 195.048 111.904V107.523C195.048 102.001 190.57 97.5234 185.048 97.5234Z" fill="#56B3B4"/>
<path d="M306.954 341.333H83.1445C77.6217 341.333 73.1445 345.81 73.1445 351.333V355.714C73.1445 361.237 77.6217 365.714 83.1445 365.714H306.954C312.477 365.714 316.954 361.237 316.954 355.714V351.333C316.954 345.81 312.477 341.333 306.954 341.333Z" fill="#F7BA3E"/>
<path d="M38.7619 341.333H10C4.47715 341.333 0 345.81 0 351.333V355.714C0 361.237 4.47715 365.714 10 365.714H38.7619C44.2848 365.714 48.7619 361.237 48.7619 355.714V351.333C48.7619 345.81 44.2848 341.333 38.7619 341.333Z" fill="#BF85BF"/>
<path d="M428.856 146.286H302.57C297.047 146.286 292.57 150.763 292.57 156.286V160.667C292.57 166.19 297.047 170.667 302.57 170.667H428.856C434.379 170.667 438.856 166.19 438.856 160.667V156.286C438.856 150.763 434.379 146.286 428.856 146.286Z" fill="#EA5E5E"/>
<path d="M428.856 195.048H302.57C297.047 195.048 292.57 199.525 292.57 205.048V209.429C292.57 214.952 297.047 219.429 302.57 219.429H428.856C434.379 219.429 438.856 214.952 438.856 209.429V205.048C438.856 199.525 434.379 195.048 428.856 195.048Z" fill="#F7BA3E"/>
<path d="M306.952 0H10C4.47715 0 0 4.47715 0 10V14.381C0 19.9038 4.47715 24.381 10 24.381H306.952C312.475 24.381 316.952 19.9038 316.952 14.381V10C316.952 4.47715 312.475 0 306.952 0Z" fill="#56B3B4"/>
<path opacity="0.5" d="M501.999 0H351.332C345.809 0 341.332 4.47715 341.332 10V14.381C341.332 19.9038 345.809 24.381 351.332 24.381H501.999C507.522 24.381 511.999 19.9038 511.999 14.381V10C511.999 4.47715 507.522 0 501.999 0Z" fill="#D0D4D8"/>
<path opacity="0.5" d="M404.475 341.333H351.332C345.809 341.333 341.332 345.81 341.332 351.333V355.714C341.332 361.237 345.809 365.714 351.332 365.714H404.475C409.998 365.714 414.475 361.237 414.475 355.714V351.333C414.475 345.81 409.998 341.333 404.475 341.333Z" fill="#D0D4D8"/>
<path opacity="0.5" d="M501.998 341.333H448.855C443.333 341.333 438.855 345.81 438.855 351.333V355.714C438.855 361.237 443.333 365.714 448.855 365.714H501.998C507.521 365.714 511.998 361.237 511.998 355.714V351.333C511.998 345.81 507.521 341.333 501.998 341.333Z" fill="#D0D4D8"/>
<path opacity="0.5" d="M502 292.571H424.477C418.954 292.571 414.477 297.048 414.477 302.571V306.952C414.477 312.475 418.954 316.952 424.477 316.952H502C507.523 316.952 512 312.475 512 306.952V302.571C512 297.048 507.523 292.571 502 292.571Z" fill="#D0D4D8"/>
<path opacity="0.5" d="M502 48.7617H424.477C418.954 48.7617 414.477 53.2389 414.477 58.7617V63.1427C414.477 68.6655 418.954 73.1427 424.477 73.1427H502C507.523 73.1427 512 68.6655 512 63.1427V58.7617C512 53.2389 507.523 48.7617 502 48.7617Z" fill="#D0D4D8"/>
<path opacity="0.5" d="M501.998 243.81H448.855C443.333 243.81 438.855 248.287 438.855 253.81V258.191C438.855 263.713 443.333 268.191 448.855 268.191H501.998C507.521 268.191 511.998 263.713 511.998 258.191V253.81C511.998 248.287 507.521 243.81 501.998 243.81Z" fill="#D0D4D8"/>
<path opacity="0.5" d="M501.998 97.5234H448.855C443.333 97.5234 438.855 102.001 438.855 107.523V111.904C438.855 117.427 443.333 121.904 448.855 121.904H501.998C507.521 121.904 511.998 117.427 511.998 111.904V107.523C511.998 102.001 507.521 97.5234 501.998 97.5234Z" fill="#D0D4D8"/>
<path opacity="0.5" d="M502 146.286H473.238C467.715 146.286 463.238 150.763 463.238 156.286V160.667C463.238 166.19 467.715 170.667 473.238 170.667H502C507.523 170.667 512 166.19 512 160.667V156.286C512 150.763 507.523 146.286 502 146.286Z" fill="#D0D4D8"/>
<path opacity="0.5" d="M502 195.048H473.238C467.715 195.048 463.238 199.525 463.238 205.048V209.429C463.238 214.952 467.715 219.429 473.238 219.429H502C507.523 219.429 512 214.952 512 209.429V205.048C512 199.525 507.523 195.048 502 195.048Z" fill="#D0D4D8"/>
<path opacity="0.5" d="M502.001 390.096H278.191C272.669 390.096 268.191 394.573 268.191 400.096V404.477C268.191 410 272.669 414.477 278.191 414.477H502.001C507.524 414.477 512.001 410 512.001 404.477V400.096C512.001 394.573 507.524 390.096 502.001 390.096Z" fill="#D0D4D8"/>
<path opacity="0.5" d="M233.811 390.096H180.668C175.145 390.096 170.668 394.573 170.668 400.096V404.477C170.668 410 175.145 414.477 180.668 414.477H233.811C239.334 414.477 243.811 410 243.811 404.477V400.096C243.811 394.573 239.334 390.096 233.811 390.096Z" fill="#D0D4D8"/>
<path opacity="0.5" d="M502.001 487.619H375.715C370.192 487.619 365.715 492.096 365.715 497.619V502C365.715 507.523 370.192 512 375.715 512H502.001C507.523 512 512.001 507.523 512.001 502V497.619C512.001 492.096 507.523 487.619 502.001 487.619Z" fill="#D0D4D8"/>
<path opacity="0.5" d="M331.335 487.619H180.668C175.145 487.619 170.668 492.096 170.668 497.619V502C170.668 507.523 175.145 512 180.668 512H331.335C336.857 512 341.335 507.523 341.335 502V497.619C341.335 492.096 336.857 487.619 331.335 487.619Z" fill="#D0D4D8"/>
<path opacity="0.5" d="M258.192 146.286H180.668C175.145 146.286 170.668 150.763 170.668 156.286V160.667C170.668 166.19 175.145 170.667 180.668 170.667H258.192C263.715 170.667 268.192 166.19 268.192 160.667V156.286C268.192 150.763 263.715 146.286 258.192 146.286Z" fill="#D0D4D8"/>
<path opacity="0.5" d="M258.192 195.048H180.668C175.145 195.048 170.668 199.525 170.668 205.048V209.429C170.668 214.952 175.145 219.429 180.668 219.429H258.192C263.715 219.429 268.192 214.952 268.192 209.429V205.048C268.192 199.525 263.715 195.048 258.192 195.048Z" fill="#D0D4D8"/>
</g>
<defs>
<clipPath id="clip0_540_1385">
<rect width="512" height="512" fill="white"/>
</clipPath>
</defs>
</svg>
