<svg width="512" height="512" viewBox="0 0 512 512" fill="none" xmlns="http://www.w3.org/2000/svg">
<g clip-path="url(#clip0_544_2087)">
<g clip-path="url(#clip1_544_2087)">
<path fill-rule="evenodd" clip-rule="evenodd" d="M496.969 305.405C494.062 296.602 486.447 290.469 476.597 288.996C471.954 288.303 466.635 288.599 460.342 289.896C449.373 292.159 441.235 293.021 435.296 293.189C457.713 255.338 475.942 212.174 486.437 171.543C503.405 105.846 494.337 75.9159 483.741 62.3771C455.699 26.5454 414.784 7.29474 365.423 6.70464C339.093 6.38327 315.976 11.5822 303.919 15.3199C292.691 13.3402 280.618 12.2339 267.95 12.029C244.208 11.6505 223.229 16.826 205.303 27.4635C195.376 24.1088 179.45 19.3779 161.056 16.3579C117.794 9.25541 82.9273 14.7903 57.424 32.807C26.5416 54.6218 12.2245 92.5228 14.8727 145.459C15.7125 162.266 25.115 213.401 39.918 261.898C48.4258 289.772 57.498 312.921 66.8825 330.704C80.1907 355.922 94.4304 370.773 110.417 376.105C119.378 379.092 135.658 381.181 152.782 366.922C154.952 369.549 157.847 372.162 161.691 374.587C166.571 377.665 172.539 380.18 178.498 381.671C199.978 387.041 220.098 385.697 237.263 378.171C237.368 381.224 237.45 384.141 237.519 386.659C237.633 390.745 237.745 394.75 237.895 398.496C238.912 423.827 240.635 443.522 245.741 457.301C246.021 458.061 246.398 459.215 246.797 460.439C249.343 468.239 253.604 481.295 264.44 491.522C275.663 502.113 289.237 505.363 301.668 505.362C307.903 505.362 313.852 504.544 319.069 503.426C337.669 499.441 358.792 493.367 374.072 471.611C388.517 451.042 395.54 420.063 396.811 371.249C396.976 369.87 397.128 368.552 397.275 367.295C397.373 366.448 397.474 365.581 397.576 364.717L400.98 365.016L401.857 365.075C420.801 365.938 443.964 361.921 458.189 355.313C469.43 350.096 505.45 331.081 496.969 305.405Z" fill="black"/>
<path fill-rule="evenodd" clip-rule="evenodd" d="M464.579 310.399C408.254 322.017 404.382 302.947 404.382 302.947C463.853 214.702 488.713 102.689 467.259 75.2742C408.73 0.492218 307.413 35.8593 305.723 36.7775L305.178 36.8749C294.05 34.5649 281.597 33.1887 267.6 32.9603C242.113 32.5426 222.781 39.6418 208.111 50.7664C208.111 50.7664 27.3726 -23.6909 35.7785 144.41C37.5667 180.173 87.0359 415.004 146.041 344.074C167.607 318.137 188.444 296.207 188.444 296.207C198.794 303.082 211.184 306.589 224.173 305.33L225.182 304.473C224.868 307.694 225.012 310.843 225.586 314.572C210.386 331.555 214.852 334.537 184.466 340.792C153.719 347.129 171.781 358.41 183.574 361.358C197.871 364.934 230.947 369.998 253.296 338.713L252.405 342.282C258.361 347.053 262.543 373.312 261.842 397.115C261.141 420.92 260.673 437.262 265.366 450.027C270.059 462.792 274.736 491.514 314.682 482.955C348.06 475.802 365.357 457.265 367.763 426.346C369.471 404.364 373.335 407.614 373.579 387.961L376.678 378.657C380.253 348.86 377.246 339.247 397.81 343.718L402.808 344.157C417.943 344.845 437.753 341.723 449.379 336.319C474.414 324.7 489.262 305.302 464.577 310.399H464.579Z" fill="#336791"/>
<path fill-rule="evenodd" clip-rule="evenodd" d="M218.69 160.404C213.615 159.697 209.017 160.351 206.692 162.111C205.383 163.102 204.979 164.25 204.87 165.041C204.578 167.134 206.045 169.447 206.945 170.641C209.493 174.019 213.218 176.341 216.904 176.853C217.438 176.927 217.969 176.963 218.497 176.963C224.645 176.963 230.232 172.177 230.725 168.644C231.341 164.22 224.918 161.271 218.69 160.404Z" fill="white"/>
<path fill-rule="evenodd" clip-rule="evenodd" d="M386.842 160.544H386.841C386.357 157.076 380.185 156.087 374.329 156.901C368.481 157.716 362.81 160.356 363.284 163.831C363.664 166.534 368.543 171.149 374.321 171.148C374.808 171.148 375.301 171.115 375.797 171.046C379.653 170.512 382.483 168.063 383.826 166.651C385.874 164.501 387.058 162.102 386.842 160.544Z" fill="white"/>
<path fill-rule="evenodd" clip-rule="evenodd" d="M483.323 309.079C481.175 302.584 474.263 300.493 462.778 302.866C428.677 309.904 416.466 305.028 412.455 302.076C438.961 261.695 460.766 212.887 472.529 167.346C478.102 145.774 481.18 125.741 481.431 109.413C481.708 91.4879 478.657 78.3186 472.361 70.2733C446.977 37.8388 409.725 20.4414 364.629 19.9633C333.628 19.615 307.435 27.5495 302.357 29.78C291.663 27.1207 280.006 25.4881 267.316 25.2798C244.042 24.9036 223.926 30.4754 207.27 41.8318C200.035 39.14 181.338 32.7216 158.473 29.0388C118.942 22.673 87.53 27.4958 65.1127 43.3771C38.3643 62.3276 26.0158 96.202 28.4087 144.058C29.2138 160.16 38.3867 209.689 52.865 257.124C71.9219 319.555 92.636 354.898 114.433 362.168C116.984 363.019 119.926 363.614 123.169 363.614C131.12 363.614 140.868 360.03 151.01 347.837C167.857 327.57 183.586 310.587 189.384 304.416C197.952 309.016 207.364 311.583 216.992 311.841C217.009 312.093 217.035 312.345 217.057 312.596C215.126 314.887 213.541 316.894 212.191 318.609C205.521 327.076 204.132 328.839 182.66 333.26C176.553 334.52 160.329 337.864 160.093 349.235C159.834 361.658 179.267 366.876 181.482 367.429C189.198 369.361 196.631 370.314 203.72 370.314C220.962 370.313 236.133 364.647 248.259 353.683C247.885 397.975 249.732 441.619 255.05 454.917C259.405 465.802 270.046 492.407 303.657 492.405C308.587 492.405 314.017 491.832 319.988 490.552C355.066 483.031 370.297 467.528 376.191 433.349C379.344 415.082 384.756 371.462 387.3 348.065C392.671 349.74 399.587 350.507 407.062 350.506C422.653 350.506 440.643 347.193 451.926 341.956C464.599 336.071 487.471 321.626 483.323 309.079ZM399.789 150.971C399.673 157.879 398.722 164.149 397.714 170.695C396.63 177.735 395.508 185.013 395.226 193.849C394.947 202.448 396.021 211.388 397.06 220.032C399.159 237.493 401.312 255.471 392.976 273.21C391.68 270.909 390.429 268.398 389.283 265.618C388.247 263.106 385.997 259.072 382.883 253.488C370.763 231.754 342.382 180.857 356.911 160.088C361.238 153.905 372.22 147.55 399.789 150.971ZM366.373 33.9511C406.777 34.8435 438.738 49.9589 461.368 78.8752C478.724 101.055 459.613 201.977 404.285 289.043C403.739 288.349 403.182 287.648 402.606 286.929C402.377 286.641 402.143 286.349 401.907 286.053C416.203 262.441 413.408 239.08 410.919 218.367C409.897 209.867 408.932 201.839 409.177 194.298C409.431 186.303 410.488 179.449 411.51 172.82C412.767 164.651 414.045 156.199 413.692 146.234C413.955 145.19 414.061 143.955 413.924 142.489C413.023 132.933 402.115 104.338 379.879 78.453C367.718 64.2972 349.98 48.454 325.762 37.7683C336.179 35.6094 350.424 33.5961 366.373 33.9511ZM140.278 338.913C129.104 352.348 121.387 349.773 118.849 348.928C102.314 343.412 83.1294 308.466 66.2146 253.049C51.5784 205.098 43.0247 156.881 42.3484 143.36C40.2108 100.599 50.5762 70.7973 73.1581 54.7828C109.908 28.7208 170.329 44.3199 194.608 52.232C194.258 52.5758 193.895 52.8982 193.549 53.2476C153.71 93.4833 154.655 162.227 154.753 166.428C154.749 168.049 154.885 170.345 155.072 173.502C155.757 185.064 157.032 206.583 153.625 230.953C150.457 253.599 157.438 275.764 172.774 291.765C174.362 293.421 176.019 294.976 177.731 296.44C170.904 303.751 156.068 319.917 140.278 338.913ZM182.851 282.107C170.491 269.211 164.877 251.272 167.448 232.886C171.047 207.142 169.718 184.721 169.005 172.676C168.905 170.991 168.817 169.514 168.764 168.348C174.584 163.188 201.556 148.736 220.789 153.143C229.568 155.154 234.915 161.13 237.139 171.412C248.647 224.637 238.663 246.821 230.64 264.647C228.986 268.32 227.424 271.791 226.089 275.383L225.056 278.159C222.438 285.179 220.002 291.705 218.493 297.902C205.354 297.862 192.571 292.25 182.851 282.107ZM184.868 353.888C181.032 352.93 177.581 351.265 175.556 349.884C177.247 349.088 180.257 348.006 185.476 346.931C210.736 341.73 214.636 338.061 223.155 327.244C225.109 324.765 227.323 321.953 230.389 318.529C230.39 318.527 230.391 318.526 230.392 318.525C234.96 313.412 237.048 314.279 240.836 315.85C243.906 317.121 246.896 320.968 248.109 325.203C248.682 327.203 249.327 331 247.219 333.952C229.423 358.869 203.492 358.549 184.868 353.888ZM317.063 476.904C286.161 483.525 275.22 467.758 268.01 449.734C263.356 438.096 261.07 385.622 262.692 327.674C262.714 326.903 262.604 326.158 262.391 325.458C262.206 324.107 261.922 322.739 261.528 321.363C259.114 312.932 253.234 305.878 246.18 302.955C243.377 301.793 238.232 299.663 232.05 301.244C233.369 295.812 235.655 289.679 238.133 283.037L239.173 280.242C240.345 277.092 241.813 273.829 243.367 270.376C251.763 251.723 263.261 226.176 250.782 168.461C246.107 146.845 230.498 136.289 206.834 138.74C192.647 140.208 179.669 145.932 173.196 149.214C171.804 149.919 170.531 150.6 169.342 151.264C171.148 129.483 177.975 88.7793 203.51 63.0263C219.586 46.8124 240.997 38.8052 267.085 39.2363C318.487 40.0783 351.449 66.4572 370.051 88.4389C386.08 107.382 394.76 126.462 398.225 136.752C372.174 134.104 354.456 139.247 345.474 152.087C325.934 180.018 356.164 234.232 370.693 260.286C373.357 265.061 375.657 269.188 376.38 270.941C381.111 282.407 387.236 290.062 391.708 295.651C393.079 297.363 394.409 299.023 395.42 300.473C387.53 302.749 373.358 308.004 374.649 334.274C373.607 347.457 366.199 409.172 362.437 430.977C357.47 459.784 346.869 470.514 317.063 476.904ZM446.048 329.297C437.98 333.042 424.478 335.852 411.652 336.454C397.485 337.118 390.274 334.867 388.577 333.483C387.78 317.113 393.875 315.402 400.323 313.591C401.337 313.306 402.325 313.029 403.279 312.695C403.873 313.178 404.522 313.657 405.233 314.126C416.62 321.642 436.93 322.453 465.601 316.535C465.706 316.512 465.811 316.492 465.916 316.471C462.049 320.087 455.431 324.94 446.048 329.297Z" fill="white"/>
</g>
</g>
<defs>
<clipPath id="clip0_544_2087">
<rect width="485" height="500" fill="white" transform="translate(14 6)"/>
</clipPath>
<clipPath id="clip1_544_2087">
<rect width="484.848" height="500" fill="white" transform="translate(14 6)"/>
</clipPath>
</defs>
</svg>
