<svg width="230" height="512" viewBox="0 0 230 512" fill="none" xmlns="http://www.w3.org/2000/svg">
<path d="M113.39 1.40039L127.053 27.0625C130.125 31.7982 133.453 35.9899 137.372 39.8936C148.864 51.242 159.576 63.354 169.434 76.147C192.584 106.545 208.199 140.302 219.351 176.812C226.038 199.114 229.67 221.992 229.942 245.127C231.062 314.29 207.351 373.677 159.547 423.034C151.771 430.861 143.37 438.041 134.429 444.504C129.693 444.504 127.453 440.873 125.501 437.529C121.947 431.328 119.581 424.519 118.526 417.45C116.846 409.083 115.742 400.715 116.286 392.076V388.172C115.902 387.34 111.726 3.36825 113.39 1.40039V1.40039Z" fill="#599636"/>
<path d="M113.385 0.550409C112.825 -0.569511 112.265 0.278428 111.705 0.822389C111.977 6.42199 110.025 11.4136 106.97 16.1813C103.61 20.9169 99.1623 24.5487 94.6986 28.4524C69.9003 49.9229 50.3817 75.857 34.7508 104.863C13.9522 143.9 3.233 185.737 0.193214 229.782C-1.19869 245.669 5.21686 301.729 10.2245 317.904C23.8875 360.845 48.4298 396.826 80.2196 428.056C88.027 435.575 96.3784 442.551 105.018 449.254C107.53 449.254 107.802 447.014 108.378 445.351C109.479 441.79 110.318 438.154 110.889 434.471L116.489 392.65L113.385 0.550409Z" fill="#6CAC48"/>
<path d="M127.05 461.492C127.61 455.093 130.682 449.781 134.026 444.486C130.666 443.094 128.17 440.326 126.218 437.238C124.535 434.315 123.142 431.234 122.058 428.039C118.155 416.328 117.323 404.041 116.203 392.074V384.826C114.811 385.946 114.523 395.417 114.523 396.825C113.709 409.473 112.03 422.051 109.499 434.47C108.667 439.494 108.107 444.502 105.02 448.965C105.02 449.525 105.02 450.085 105.292 450.917C110.315 465.7 111.691 480.755 112.539 496.098V501.697C112.539 508.385 112.267 506.977 117.819 509.217C120.058 510.049 122.554 510.337 124.794 512C126.474 512 126.746 510.609 126.746 509.489L125.914 500.289V474.627C125.642 470.148 126.474 465.7 127.034 461.508L127.05 461.492Z" fill="#C2BFBF"/>
</svg>
