<svg width="512" height="512" viewBox="0 0 512 512" fill="none" xmlns="http://www.w3.org/2000/svg">
<g clip-path="url(#clip0_544_2103)">
<g clip-path="url(#clip1_544_2103)">
<g clip-path="url(#clip2_544_2103)">
<path fill-rule="evenodd" clip-rule="evenodd" d="M476.713 243.463C476.252 243.555 475.79 244.571 475.79 245.124C475.698 248.815 475.606 258.597 475.606 265.241C475.606 265.426 475.882 265.795 476.159 265.795C477.543 265.887 480.866 265.98 483.726 265.98C487.694 265.98 490.001 265.426 491.294 264.873C494.615 263.211 496.184 259.612 496.184 255.644C496.184 246.693 489.909 243.278 480.588 243.278C479.943 243.187 478.097 243.187 476.713 243.463ZM500.522 284.713C500.522 275.577 493.785 270.501 481.604 270.501C481.05 270.501 477.174 270.409 476.252 270.594C475.974 270.686 475.606 270.871 475.606 271.148C475.606 277.699 475.513 288.128 475.79 292.187C475.974 293.941 477.267 296.433 478.836 297.171C480.496 298.094 484.28 298.278 486.864 298.278C494.154 298.278 500.522 294.218 500.522 284.713ZM457.888 238.388C458.81 238.388 461.579 238.664 468.685 238.664C475.421 238.664 480.773 238.48 487.326 238.48C495.354 238.48 506.428 241.341 506.428 253.337C506.428 259.243 502.275 263.95 496.83 266.257C496.554 266.349 496.554 266.533 496.83 266.625C504.582 268.564 511.411 273.363 511.411 282.406C511.411 291.265 505.874 296.894 497.845 300.401C492.954 302.523 486.864 303.261 480.681 303.261C475.974 303.261 463.332 302.708 456.319 302.893C455.581 302.616 456.965 299.293 457.611 298.74C459.272 298.647 460.563 298.555 462.317 298.002C464.809 297.356 465.085 296.618 465.455 292.834C465.639 289.604 465.639 278.161 465.639 270.04C465.639 258.874 465.732 251.307 465.639 247.616C465.547 244.755 464.532 243.832 462.502 243.278C460.933 243.002 458.349 242.632 456.227 242.356C455.765 241.894 457.333 238.756 457.888 238.388ZM404.641 295.787C406.856 297.54 411.193 298.278 415.069 298.278C420.052 298.278 425.035 297.356 429.834 293.018C434.725 288.589 438.139 281.76 438.139 270.871C438.139 260.443 434.171 251.953 426.05 246.97C421.436 244.109 415.53 242.909 408.701 242.909C406.671 242.909 404.733 243.002 403.534 243.555C403.257 243.74 402.611 244.571 402.611 245.032C402.426 246.878 402.426 261.088 402.426 269.394C402.426 277.977 402.426 289.973 402.611 291.357C402.611 292.742 403.257 294.864 404.641 295.787ZM383.693 238.388C385.446 238.388 392.182 238.664 395.412 238.664C401.227 238.664 405.379 238.388 416.36 238.388C425.589 238.388 433.34 240.879 438.877 245.585C445.614 251.399 449.121 259.428 449.121 269.21C449.121 283.144 442.753 291.173 436.385 295.787C430.019 300.493 421.713 303.261 409.901 303.261C403.626 303.261 392.829 303.077 383.877 302.984H383.785C383.324 302.155 384.523 298.925 385.261 298.832C387.661 298.555 388.307 298.463 389.507 298.002C391.444 297.263 391.814 296.248 392.091 292.834C392.367 286.466 392.275 278.807 392.275 270.133C392.275 263.95 392.367 251.86 392.182 247.984C391.906 244.755 390.522 243.925 387.753 243.37C386.369 243.094 384.523 242.725 381.94 242.448C381.57 241.802 383.232 238.941 383.693 238.388Z" fill="#8E714E"/>
<path fill-rule="evenodd" clip-rule="evenodd" d="M272.033 299.386C269.725 299.109 268.064 298.74 266.034 297.817C265.757 297.632 265.295 296.71 265.295 296.341C265.111 293.111 265.111 283.882 265.111 277.7C265.111 272.716 264.281 268.379 262.158 265.334C259.666 261.827 256.067 259.797 251.453 259.797C247.393 259.797 241.948 262.566 237.426 266.442C237.334 266.533 236.596 267.18 236.688 266.164C236.688 265.149 236.873 263.119 236.965 261.735C237.058 260.443 236.319 259.797 236.319 259.797C233.366 261.273 225.061 263.212 222.015 263.488C219.801 263.95 219.247 266.072 221.554 266.81H221.647C224.138 267.549 225.799 268.379 227.09 269.21C228.013 269.948 227.921 270.963 227.921 271.794C228.013 278.715 228.013 289.327 227.737 295.141C227.645 297.448 226.999 298.278 225.338 298.648L225.522 298.555C224.23 298.832 223.215 299.109 221.646 299.293C221.092 299.847 221.092 302.801 221.646 303.446C222.661 303.446 228.013 303.169 232.444 303.169C238.534 303.169 241.672 303.446 243.24 303.446C243.886 302.708 244.071 299.939 243.702 299.293C241.948 299.201 240.656 299.017 239.457 298.648C237.796 298.278 237.334 297.448 237.242 295.51C237.058 290.619 237.058 280.284 237.058 273.27C237.058 271.332 237.611 270.409 238.165 269.856C240.287 268.01 243.702 266.718 246.747 266.718C249.7 266.718 251.638 267.641 253.114 268.841C255.144 270.501 255.79 272.901 256.067 274.654C256.528 278.623 256.344 286.467 256.344 293.295C256.344 296.986 256.067 297.909 254.683 298.37C254.037 298.648 252.376 299.017 250.438 299.201C249.792 299.847 249.977 302.708 250.438 303.354C253.114 303.354 256.252 303.077 260.866 303.077C266.587 303.077 270.279 303.354 271.755 303.354C272.216 302.801 272.401 300.124 272.032 299.386H272.033ZM297.595 264.135C292.703 264.135 289.658 267.918 289.658 273.824C289.658 279.822 292.334 286.743 299.902 286.743C301.193 286.743 303.593 286.189 304.699 284.898C306.453 283.237 307.653 279.914 307.653 276.408C307.653 268.749 303.869 264.135 297.595 264.135ZM296.948 304.923C295.103 304.923 293.81 305.476 292.98 305.938C289.104 308.429 287.351 310.829 287.351 313.69C287.351 316.366 288.366 318.488 290.581 320.334C293.257 322.641 296.948 323.749 301.654 323.749C311.067 323.749 315.22 318.673 315.22 313.69C315.22 310.183 313.467 307.876 309.868 306.584C307.284 305.476 302.577 304.923 296.948 304.923ZM297.594 328.916C291.965 328.916 287.904 327.716 284.398 325.04C280.983 322.456 279.507 318.58 279.507 315.904C279.507 315.166 279.692 313.136 281.353 311.29C282.367 310.183 284.582 308.06 289.843 304.462C290.027 304.369 290.119 304.277 290.119 304.092C290.119 303.907 289.934 303.723 289.75 303.631C285.413 301.97 284.121 299.293 283.752 297.817V297.632C283.66 297.079 283.475 296.525 284.306 295.971C284.952 295.51 285.875 294.957 286.889 294.311C288.458 293.388 290.119 292.372 291.134 291.542C291.319 291.357 291.319 291.173 291.319 290.988C291.319 290.804 291.134 290.619 290.95 290.527C284.491 288.404 281.261 283.605 281.261 276.408C281.261 271.702 283.383 267.456 287.166 264.78C289.75 262.75 296.21 260.259 300.455 260.259H300.732C305.069 260.35 307.468 261.273 310.882 262.473C312.728 263.119 314.482 263.396 316.881 263.396C320.48 263.396 322.049 262.289 323.34 260.997C323.433 261.181 323.618 261.643 323.71 262.842C323.802 264.042 323.433 265.795 322.51 267.087C321.772 268.102 320.111 268.841 318.45 268.841H317.988C316.327 268.656 315.589 268.472 315.589 268.472L315.22 268.656C315.128 268.841 315.22 269.025 315.312 269.302L315.405 269.487C315.589 270.317 315.958 272.808 315.958 273.455C315.958 281.022 312.913 284.344 309.683 286.835C306.545 289.142 302.947 290.619 298.886 290.988C298.794 290.988 298.425 290.988 297.594 291.081C297.133 291.081 296.487 291.173 296.394 291.173H296.302C295.564 291.357 293.719 292.28 293.719 293.849C293.719 295.233 294.549 296.894 298.517 297.171C299.347 297.264 300.178 297.264 301.101 297.356C306.361 297.725 312.913 298.187 315.958 299.201C320.203 300.77 322.879 304.553 322.879 309.076C322.879 315.904 317.988 322.272 309.868 326.239C305.9 327.993 301.931 328.916 297.594 328.916ZM350.195 264.596C348.257 264.596 346.503 265.057 345.211 265.98C341.613 268.194 339.767 272.625 339.767 279.084C339.767 291.173 345.857 299.663 354.532 299.663C357.116 299.663 359.146 298.925 360.899 297.448C363.575 295.233 364.96 290.804 364.96 284.621C364.96 272.625 358.961 264.596 350.195 264.596ZM351.856 304.092C336.168 304.092 330.539 292.557 330.539 281.76C330.539 274.193 333.584 268.379 339.674 264.226C344.012 261.55 349.18 260.074 353.794 260.074C365.79 260.074 374.188 268.656 374.188 281.022C374.188 289.419 370.866 296.063 364.498 300.124C361.453 302.154 356.193 304.092 351.855 304.092H351.856ZM187.41 264.596C185.472 264.596 183.719 265.057 182.426 265.98C178.828 268.194 176.982 272.625 176.982 279.084C176.982 291.173 183.072 299.663 191.747 299.663C194.331 299.663 196.361 298.925 198.115 297.448C200.79 295.233 202.175 290.804 202.175 284.621C202.175 272.625 196.269 264.596 187.41 264.596ZM189.071 304.092C173.383 304.092 167.754 292.557 167.754 281.76C167.754 274.193 170.799 268.379 176.889 264.226C181.227 261.55 186.395 260.074 191.009 260.074C203.006 260.074 211.403 268.656 211.403 281.022C211.403 289.419 208.081 296.063 201.713 300.124C198.76 302.154 193.501 304.092 189.071 304.092ZM83.5932 303.169C83.4084 302.893 83.2237 302.062 83.316 301.047C83.316 300.309 83.5008 299.847 83.5932 299.663C85.5307 299.386 86.546 299.109 87.6529 298.832C89.4989 298.37 90.2371 297.356 90.3295 295.049C90.6066 289.512 90.6066 278.991 90.5143 271.702V271.517C90.5143 270.686 90.5143 269.671 89.4989 268.933C88.0225 268.01 86.2689 267.18 83.9619 266.533C83.1313 266.257 82.5778 265.795 82.6702 265.242C82.6702 264.688 83.2237 264.042 84.4238 263.857C87.469 263.58 95.4046 261.643 98.5422 260.259C98.727 260.443 99.0041 260.997 99.0041 261.735L98.9117 262.75C98.8194 263.765 98.727 264.965 98.727 266.164C98.727 266.533 99.0965 266.81 99.4652 266.81C99.65 266.81 99.8347 266.718 100.019 266.626C105.925 262.012 111.277 260.35 114.046 260.35C118.568 260.35 122.074 262.473 124.751 266.903C124.935 267.18 125.12 267.271 125.397 267.271C125.582 267.271 125.858 267.18 125.95 266.995C131.395 262.842 136.839 260.35 140.438 260.35C149.02 260.35 154.096 266.718 154.096 277.515C154.096 280.56 154.096 284.528 154.004 288.128C154.004 291.357 153.912 294.311 153.912 296.433C153.912 296.894 154.557 298.37 155.573 298.648C156.864 299.293 158.618 299.571 160.925 299.939H161.017C161.202 300.585 160.833 302.984 160.464 303.446C159.91 303.446 159.079 303.446 158.157 303.354C156.403 303.262 153.912 303.169 151.144 303.169C145.422 303.169 142.469 303.262 139.608 303.446C139.424 302.708 139.331 300.494 139.608 299.939C141.269 299.663 142.099 299.386 143.115 299.109C144.961 298.555 145.422 297.725 145.514 295.325C145.514 293.572 145.883 278.623 145.329 275.023C144.776 271.332 142.007 266.995 135.916 266.995C133.609 266.995 130.011 267.918 126.504 270.594C126.32 270.779 126.135 271.24 126.135 271.517V271.609C126.504 273.547 126.504 275.762 126.504 279.176V285.174C126.504 289.327 126.411 293.203 126.504 296.156C126.504 298.187 127.704 298.648 128.719 299.017C129.273 299.109 129.641 299.201 130.103 299.293C130.934 299.478 131.764 299.663 133.056 299.939C133.241 300.309 133.241 301.508 132.964 302.523C132.871 303.077 132.686 303.354 132.595 303.446C129.457 303.354 126.227 303.262 121.521 303.262C120.137 303.262 117.737 303.354 115.707 303.354C114.046 303.354 112.477 303.446 111.555 303.446C111.462 303.262 111.277 302.616 111.277 301.6C111.277 300.77 111.462 300.124 111.647 299.939C112.108 299.847 112.477 299.755 112.939 299.755C114.046 299.571 114.969 299.386 115.891 299.201C117.46 298.74 118.014 297.909 118.106 295.879C118.383 291.265 118.66 278.069 118.014 274.747C116.907 269.395 113.862 266.718 108.97 266.718C106.11 266.718 102.51 268.102 99.5576 270.317C99.0965 270.686 98.727 271.609 98.727 272.44V277.884C98.727 284.528 98.727 292.834 98.8194 296.433C98.9117 297.54 99.2804 298.832 101.404 299.293C101.865 299.386 102.603 299.571 103.526 299.663L105.187 299.939C105.372 300.494 105.279 302.708 104.91 303.446C103.987 303.446 102.88 303.354 101.587 303.354C99.65 303.262 97.1582 303.169 94.3901 303.169C91.1601 303.169 88.8531 303.262 87.0071 303.354C85.7154 303.169 84.7001 303.169 83.5932 303.169Z" fill="#EFFFFF" fill-opacity="0.88"/>
<g clip-path="url(#clip3_544_2103)">
<path fill-rule="evenodd" clip-rule="evenodd" d="M35.0536 325.317L31.2702 324.025C31.2702 324.025 31.7321 304.738 24.811 303.354C20.197 298.001 25.5493 76.3409 42.1595 302.615C42.1595 302.615 36.4385 305.476 35.4232 310.367C34.3154 315.166 35.0536 325.317 35.0536 325.317Z" fill="white"/>
<path fill-rule="evenodd" clip-rule="evenodd" d="M35.0536 325.317L31.2702 324.025C31.2702 324.025 31.7321 304.738 24.811 303.354C20.197 298.001 25.5493 76.3409 42.1595 302.615C42.1595 302.615 36.4385 305.476 35.4232 310.367C34.3154 315.166 35.0536 325.317 35.0536 325.317Z" fill="#A6A385"/>
<path fill-rule="evenodd" clip-rule="evenodd" d="M37.0837 306.676C37.0837 306.676 70.2126 284.897 62.461 239.587C54.9864 206.642 37.36 195.846 35.4225 191.693C33.3003 188.74 31.2695 183.572 31.2695 183.572L32.6544 275.207C32.6544 275.3 29.7931 303.261 37.0837 306.676Z" fill="white"/>
<path fill-rule="evenodd" clip-rule="evenodd" d="M37.0837 306.676C37.0837 306.676 70.2126 284.897 62.461 239.587C54.9864 206.642 37.36 195.846 35.4225 191.693C33.3003 188.74 31.2695 183.572 31.2695 183.572L32.6544 275.207C32.6544 275.3 29.7931 303.261 37.0837 306.676Z" fill="#499D4A"/>
<path fill-rule="evenodd" clip-rule="evenodd" d="M29.3321 307.876C29.3321 307.876 -1.76692 286.65 0.0790434 249.277C1.83176 211.903 23.7951 193.539 28.0396 190.217C30.8085 187.264 30.9009 186.156 31.0857 183.203C33.0232 187.356 32.6545 245.309 32.9308 252.137C33.7614 278.438 31.4544 302.893 29.3321 307.876Z" fill="white"/>
<path fill-rule="evenodd" clip-rule="evenodd" d="M29.3321 307.876C29.3321 307.876 -1.76692 286.65 0.0790434 249.277C1.83176 211.903 23.7951 193.539 28.0396 190.217C30.8085 187.264 30.9009 186.156 31.0857 183.203C33.0232 187.356 32.6545 245.309 32.9308 252.137C33.7614 278.438 31.4544 302.893 29.3321 307.876Z" fill="#58AA50"/>
</g>
</g>
</g>
</g>
<defs>
<clipPath id="clip0_544_2103">
<rect width="512" height="146" fill="white" transform="translate(0 183)"/>
</clipPath>
<clipPath id="clip1_544_2103">
<rect width="512" height="146" fill="white" transform="translate(0 183)"/>
</clipPath>
<clipPath id="clip2_544_2103">
<rect width="512" height="146" fill="white" transform="translate(0 183)"/>
</clipPath>
<clipPath id="clip3_544_2103">
<rect width="64" height="143" fill="white" transform="translate(0 183)"/>
</clipPath>
</defs>
</svg>
