<svg width="512" height="512" viewBox="0 0 512 512" fill="none" xmlns="http://www.w3.org/2000/svg">
<path fill-rule="evenodd" clip-rule="evenodd" d="M486.41 370.967C459.727 384.876 321.5 441.709 292.071 457.05C262.645 472.394 246.297 472.246 223.05 461.132C199.803 450.018 52.7046 390.6 26.2077 377.936C12.9631 371.606 6 366.264 6 361.217V310.678C6 310.678 197.502 268.987 228.419 257.897C259.334 246.805 270.061 246.405 296.37 256.042C322.682 265.681 479.997 294.064 506 303.588C506 303.588 505.988 348.726 505.988 353.412C505.992 358.408 499.992 363.889 486.41 370.967Z" fill="#912626"/>
<path fill-rule="evenodd" clip-rule="evenodd" d="M486.4 320.727C459.719 334.629 321.496 391.465 292.068 406.805C262.643 422.151 246.295 422 223.049 410.887C199.801 399.781 52.7092 340.354 26.2132 327.696C-0.282892 315.03 -0.839531 306.313 25.1897 296.121C51.2171 285.926 197.502 228.534 228.422 217.442C259.336 206.354 270.061 205.95 296.369 215.59C322.68 225.227 460.078 279.916 486.078 289.438C512.084 298.971 513.082 306.819 486.4 320.727Z" fill="#C6302B"/>
<path fill-rule="evenodd" clip-rule="evenodd" d="M486.41 289.192C459.727 303.101 321.5 359.934 292.071 375.281C262.645 390.619 246.297 390.47 223.05 379.357C199.801 368.249 52.7046 308.825 26.2077 296.161C12.9631 289.831 6 284.495 6 279.447V228.903C6 228.903 197.502 187.214 228.419 176.122C259.334 165.032 270.061 164.629 296.37 174.266C322.682 183.905 479.997 212.283 506 221.809C506 221.809 505.988 266.947 505.988 271.639C505.992 276.633 499.992 282.114 486.41 289.192Z" fill="#912626"/>
<path fill-rule="evenodd" clip-rule="evenodd" d="M486.4 238.951C459.719 252.858 321.496 309.69 292.068 325.035C262.643 340.375 246.295 340.225 223.049 329.111C199.801 318.006 52.7092 258.58 26.2132 245.92C-0.282892 233.258 -0.839531 224.539 25.1897 214.344C51.2171 204.155 197.502 146.758 228.422 135.668C259.336 124.578 270.061 124.176 296.369 133.815C322.68 143.451 460.078 198.137 486.078 207.662C512.084 217.192 513.082 225.043 486.4 238.949V238.951Z" fill="#C6302B"/>
<path fill-rule="evenodd" clip-rule="evenodd" d="M486.41 204.384C459.727 218.293 321.5 275.128 292.071 290.475C262.645 305.815 246.297 305.665 223.05 294.551C199.801 283.443 52.7046 224.017 26.2077 211.357C12.9631 205.025 6 199.687 6 194.643V144.097C6 144.097 197.502 102.41 228.419 91.3199C259.334 80.2278 270.061 79.8274 296.37 89.4644C322.682 99.1034 479.997 127.481 506 137.007C506 137.007 505.988 182.145 505.988 186.835C505.992 191.825 499.992 197.306 486.41 204.384Z" fill="#912626"/>
<path fill-rule="evenodd" clip-rule="evenodd" d="M486.4 154.143C459.719 168.05 321.496 224.886 292.068 240.227C262.643 255.567 246.295 255.417 223.049 244.307C199.803 233.198 52.7092 173.776 26.2132 161.114C-0.282892 148.452 -0.839531 139.731 25.1897 129.538C51.2171 119.347 197.502 61.956 228.422 50.8623C259.336 39.7705 270.061 39.372 296.369 49.0107C322.68 58.6494 460.078 113.335 486.078 122.86C512.084 132.384 513.082 140.237 486.4 154.143Z" fill="#C6302B"/>
<path fill-rule="evenodd" clip-rule="evenodd" d="M317.099 104.978L274.113 109.441L264.489 132.596L248.944 106.757L199.307 102.296L236.345 88.9394L225.233 68.4355L259.909 81.9976L292.601 71.2941L283.766 92.4956L317.099 104.978Z" fill="white"/>
<path fill-rule="evenodd" clip-rule="evenodd" d="M261.92 217.318L181.691 184.043L296.655 166.397L261.92 217.318Z" fill="white"/>
<path fill-rule="evenodd" clip-rule="evenodd" d="M150.692 117.849C184.628 117.849 212.138 128.513 212.138 141.666C212.138 154.822 184.628 165.484 150.692 165.484C116.758 165.484 89.2461 154.822 89.2461 141.666C89.2461 128.513 116.758 117.849 150.692 117.849Z" fill="white"/>
<path fill-rule="evenodd" clip-rule="evenodd" d="M367.904 111.309L435.943 138.196L367.962 165.057L367.904 111.309Z" fill="#621B1C"/>
<path fill-rule="evenodd" clip-rule="evenodd" d="M292.631 141.084L367.904 111.309L367.962 165.057L360.582 167.944L292.631 141.084Z" fill="#9A2928"/>
</svg>
