<svg width="512" height="528" viewBox="0 0 512 528" fill="none" xmlns="http://www.w3.org/2000/svg">
<g clip-path="url(#clip0_544_2059)">
<path d="M509.906 296.506C527.823 156.243 428.769 28.0105 288.762 10.0938C148.755 -7.82301 20.0105 91.2312 2.09376 231.238C-15.823 371.245 83.2312 499.734 223.238 517.906C363.501 535.823 491.734 436.769 509.906 296.506Z" fill="#FF6C37"/>
<path d="M348.401 172.368L240.388 280.381L209.93 249.922C316.151 143.701 326.645 152.916 348.401 172.368Z" fill="white"/>
<path d="M240.387 282.94C239.619 282.94 239.108 282.684 238.596 282.172L207.881 251.714C206.857 250.69 206.857 249.154 207.881 248.13C315.894 140.118 327.156 150.356 349.936 170.832C350.447 171.344 350.703 171.856 350.703 172.624C350.703 173.392 350.447 173.904 349.936 174.416L241.923 282.172C241.667 282.684 240.899 282.94 240.387 282.94ZM213.512 249.922L240.387 276.797L344.561 172.624C325.62 155.731 312.822 150.612 213.512 249.922Z" fill="#FF6C37"/>
<path d="M271.359 311.352L241.924 281.917L349.936 173.904C378.859 203.083 335.603 250.435 271.359 311.352Z" fill="white"/>
<path d="M271.357 313.911C270.59 313.911 270.078 313.655 269.566 313.143L240.131 283.708C239.619 283.197 239.619 282.685 239.619 281.917C239.619 281.149 239.875 280.637 240.387 280.125L348.4 172.113C349.423 171.089 350.959 171.089 351.983 172.113C358.638 178.255 362.221 186.958 361.965 195.916C361.453 224.327 329.203 260.417 273.405 313.143C272.637 313.655 271.869 313.911 271.357 313.911ZM245.506 281.917C261.887 298.554 268.798 305.209 271.357 307.768C314.358 266.816 356.078 224.839 356.334 195.916C356.59 189.262 354.031 182.607 349.679 177.488L245.506 281.917Z" fill="#FF6C37"/>
<path d="M210.44 250.69L232.197 272.446C232.708 272.958 232.708 273.47 232.197 273.982C231.941 274.238 231.941 274.238 231.685 274.238L186.637 283.964C184.333 284.22 182.286 282.684 181.774 280.381C181.518 279.101 182.03 277.821 182.797 277.053L208.905 250.946C209.417 250.434 210.184 250.178 210.44 250.69Z" fill="white"/>
<path d="M185.87 286.524C182.03 286.524 179.215 283.452 179.215 279.613C179.215 277.821 179.983 276.03 181.262 274.75L207.37 248.642C208.906 247.363 210.953 247.363 212.489 248.642L234.245 270.399C235.781 271.678 235.781 273.982 234.245 275.518C233.733 276.03 233.221 276.285 232.453 276.541L187.405 286.268C186.893 286.268 186.382 286.524 185.87 286.524ZM209.673 253.506L184.59 278.589C184.078 279.101 183.822 279.869 184.334 280.637C184.59 281.405 185.358 281.661 186.126 281.405L228.358 272.19L209.673 253.506Z" fill="#FF6C37"/>
<path d="M405.477 112.475C389.096 96.6061 362.733 97.118 346.864 113.755C330.995 130.392 331.507 156.499 348.144 172.368C361.709 185.422 382.186 187.726 398.311 177.999L369.132 148.821L405.477 112.475Z" fill="white"/>
<path d="M376.811 186.446C352.496 186.446 332.787 166.737 332.787 142.422C332.787 118.106 352.496 98.3975 376.811 98.3975C388.073 98.3975 399.079 102.749 407.27 110.683C407.782 111.195 408.038 111.707 408.038 112.475C408.038 113.243 407.782 113.755 407.27 114.267L372.716 148.82L399.847 175.951C400.871 176.975 400.871 178.511 399.847 179.535C399.591 179.791 399.591 179.791 399.335 180.047C392.68 184.142 384.746 186.446 376.811 186.446ZM376.811 103.772C355.311 103.772 337.906 121.177 338.162 142.677C338.162 164.178 355.567 181.582 377.067 181.327C382.954 181.327 388.841 180.047 394.216 177.231L367.341 150.612C366.829 150.1 366.573 149.588 366.573 148.82C366.573 148.053 366.829 147.541 367.341 147.029L401.639 112.731C394.728 106.844 386.026 103.772 376.811 103.772Z" fill="#FF6C37"/>
<path d="M406.246 113.242L405.734 112.73L369.133 148.82L398.056 177.743C400.871 175.951 403.687 173.903 405.99 171.6C422.371 155.475 422.371 129.367 406.246 113.242Z" fill="white"/>
<path d="M398.311 180.558C397.543 180.558 397.031 180.302 396.519 179.79L367.34 150.612C366.828 150.1 366.572 149.588 366.572 148.82C366.572 148.052 366.828 147.54 367.34 147.028L403.686 110.683C404.709 109.659 406.245 109.659 407.269 110.683L408.037 111.195C425.186 128.344 425.186 155.987 408.293 173.392C405.733 175.951 402.918 178.255 399.846 180.046C399.078 180.302 398.567 180.558 398.311 180.558ZM372.715 148.82L398.567 174.671C400.614 173.392 402.662 171.6 404.197 170.064C418.787 155.475 419.555 131.671 405.477 116.314L372.715 148.82Z" fill="#FF6C37"/>
<path d="M352.751 176.975C346.608 170.832 336.626 170.832 330.483 176.975L233.988 273.47L250.113 289.595L352.239 200.011C358.894 194.38 359.406 184.398 353.775 177.743C353.263 177.487 353.007 177.231 352.751 176.975Z" fill="white"/>
<path d="M249.858 292.155C249.091 292.155 248.579 291.899 248.067 291.387L231.942 275.262C230.918 274.238 230.918 272.702 231.942 271.678L328.436 175.184C335.603 168.017 347.121 168.017 354.288 175.184C361.454 182.35 361.454 193.868 354.288 201.035C354.032 201.291 353.776 201.547 353.52 201.803L251.394 291.387C251.138 291.899 250.626 292.155 249.858 292.155ZM237.573 273.47L250.114 286.012L350.448 197.964C356.079 193.356 356.591 184.91 351.984 179.279C347.377 173.648 338.93 173.136 333.299 177.743C333.044 177.999 332.788 178.255 332.276 178.511L237.573 273.47Z" fill="#FF6C37"/>
<path d="M160.018 383.274C158.995 383.786 158.483 384.81 158.739 385.833L163.09 404.262C164.114 406.822 162.578 409.893 159.762 410.661C157.715 411.429 155.411 410.661 154.131 409.125L125.977 381.226L217.864 289.339L249.602 289.851L271.102 311.351C265.983 315.702 235.013 345.649 160.018 383.274Z" fill="white"/>
<path d="M157.972 413.221C155.924 413.221 153.876 412.453 152.597 410.917L124.698 383.018C124.186 382.506 123.93 381.994 123.93 381.226C123.93 380.458 124.186 379.947 124.698 379.435L216.585 287.547C217.097 287.035 217.865 286.779 218.377 286.779L250.115 287.291C250.883 287.291 251.395 287.547 251.907 288.059L273.407 309.559C273.919 310.071 274.175 310.839 274.175 311.607C274.175 312.375 273.919 312.887 273.151 313.399L271.359 314.934C244.228 338.738 207.371 362.542 161.555 385.322L165.906 403.494C166.674 406.822 165.138 410.405 162.067 412.197C160.531 412.965 159.251 413.221 157.972 413.221ZM129.817 381.226L156.18 407.334C156.948 408.613 158.483 409.125 159.763 408.357C161.043 407.59 161.555 406.054 160.787 404.774L156.436 386.345C155.924 384.042 156.948 381.994 158.995 380.97C204.299 358.19 240.901 334.643 267.776 311.351L248.835 292.41L219.401 291.898L129.817 381.226Z" fill="#FF6C37"/>
<path d="M104.22 403.239L126.232 381.227L158.994 413.989L106.779 410.405C104.476 410.149 102.94 408.102 103.196 405.798C103.196 404.774 103.452 403.751 104.22 403.239Z" fill="white"/>
<path d="M158.994 416.292L106.524 412.709C102.684 412.453 100.125 409.126 100.381 405.286C100.637 403.751 101.149 402.215 102.429 401.191L124.441 379.179C125.464 378.155 127 378.155 128.024 379.179L160.786 411.941C161.554 412.709 161.81 413.733 161.298 414.757C160.786 415.78 160.018 416.292 158.994 416.292ZM126.232 384.81L106.012 405.03C105.244 405.542 105.244 406.822 106.012 407.334C106.268 407.59 106.524 407.846 107.036 407.846L152.34 410.917L126.232 384.81Z" fill="#FF6C37"/>
<path d="M208.905 301.113C207.37 301.113 206.346 299.833 206.346 298.553C206.346 297.785 206.602 297.273 207.114 296.761L231.941 271.934C232.965 270.91 234.501 270.91 235.524 271.934L251.65 288.059C252.417 288.827 252.673 289.595 252.417 290.619C252.161 291.386 251.394 292.154 250.37 292.41L209.417 301.113C209.161 301.113 208.905 301.113 208.905 301.113ZM233.733 277.309L216.84 294.202L244.483 288.315L233.733 277.309Z" fill="#FF6C37"/>
<path d="M249.602 289.851L221.448 295.993C219.4 296.505 217.352 295.226 216.84 293.178C216.584 291.898 216.84 290.618 217.864 289.595L233.477 273.981L249.602 289.851Z" fill="white"/>
<path d="M220.936 298.553C217.353 298.553 214.537 295.738 214.537 292.154C214.537 290.363 215.305 288.827 216.329 287.547L231.942 271.934C232.966 270.91 234.502 270.91 235.525 271.934L251.65 288.059C252.418 288.827 252.674 289.595 252.418 290.619C252.162 291.386 251.394 292.154 250.371 292.41L222.216 298.553C221.704 298.553 221.192 298.553 220.936 298.553ZM233.734 277.309L219.912 291.13C219.4 291.642 219.4 292.154 219.656 292.666C219.912 293.178 220.424 293.434 221.192 293.434L244.74 288.315L233.734 277.309Z" fill="#FF6C37"/>
<path d="M406.502 137.815C405.99 136.279 404.198 135.511 402.662 136.023C401.127 136.535 400.359 138.327 400.871 139.862C400.871 140.118 401.127 140.374 401.127 140.63C402.662 143.702 402.151 147.541 400.103 150.357C399.079 151.636 399.335 153.428 400.359 154.452C401.639 155.476 403.43 155.22 404.454 153.94C408.293 149.077 409.061 142.934 406.502 137.815Z" fill="#FF6C37"/>
</g>
<defs>
<clipPath id="clip0_544_2059">
<rect width="512" height="528" fill="white"/>
</clipPath>
</defs>
</svg>
