<svg width="512" height="512" viewBox="0 0 512 512" fill="none" xmlns="http://www.w3.org/2000/svg">
<g clip-path="url(#clip0_540_819)">
<path d="M0 185.295C0 120.436 0 88.0061 12.6225 63.2331C23.7255 41.4421 41.4421 23.7255 63.2331 12.6225C88.0061 0 120.436 0 185.295 0H326.705C391.564 0 423.994 0 448.767 12.6225C470.558 23.7255 488.275 41.4421 499.378 63.2331C512 88.0061 512 120.436 512 185.295V326.705C512 391.564 512 423.994 499.378 448.767C488.275 470.558 470.558 488.275 448.767 499.378C423.994 512 391.564 512 326.705 512H185.295C120.436 512 88.0061 512 63.2331 499.378C41.4421 488.275 23.7255 470.558 12.6225 448.767C0 423.994 0 391.564 0 326.705V185.295Z" fill="#330000"/>
<path d="M248.11 321.76H168.769L152.626 373.192C152.178 375.103 150.418 376.457 148.504 376.363H108.319C106.027 376.363 105.226 375.071 105.915 372.488L174.607 169.578C175.295 167.465 175.982 165.058 176.669 162.356C177.567 157.656 178.027 152.879 178.043 148.09C177.846 146.675 179.09 145.425 180.447 145.623H235.057C236.657 145.623 237.573 146.211 237.805 147.385L315.773 372.84C316.46 375.19 315.772 376.365 313.712 376.363H269.061C267.495 376.541 265.999 375.467 265.626 373.897L248.11 321.76ZM181.134 277.374H235.401C226.485 246.907 216.423 216.84 208.268 186.135C199.469 216.892 189.869 247.524 181.134 277.374Z" fill="#FF9A00"/>
<path d="M362.137 182.964C358.633 183.108 355.14 182.492 351.885 181.157C348.629 179.821 345.686 177.796 343.246 175.214C340.813 172.519 338.923 169.358 337.685 165.912C336.447 162.466 335.885 158.803 336.032 155.134C335.908 151.501 336.531 147.882 337.863 144.513C339.195 141.144 341.204 138.101 343.76 135.583C346.292 133.091 349.28 131.138 352.552 129.838C355.824 128.538 359.315 127.916 362.823 128.009C371.067 128.009 377.535 130.534 382.229 135.583C384.599 138.207 386.44 141.284 387.648 144.639C388.856 147.994 389.407 151.56 389.27 155.134C389.413 158.818 388.834 162.493 387.565 165.943C386.297 169.392 384.365 172.545 381.885 175.214C379.294 177.834 376.201 179.875 372.802 181.209C369.403 182.543 365.772 183.14 362.137 182.964ZM338.437 372.839V204.452C338.437 202.339 339.349 201.281 341.184 201.281H383.431C385.262 201.281 386.177 202.338 386.179 204.452V372.839C386.179 375.189 385.263 376.363 383.431 376.362H341.528C339.468 376.362 338.437 375.187 338.437 372.839Z" fill="#FF9A00"/>
</g>
<defs>
<clipPath id="clip0_540_819">
<rect width="512" height="512" fill="white"/>
</clipPath>
</defs>
</svg>
