<svg width="512" height="512" viewBox="0 0 512 512" fill="none" xmlns="http://www.w3.org/2000/svg">
<g clip-path="url(#clip0_540_821)">
<path d="M0 185.295C0 120.436 0 88.0061 12.6225 63.2331C23.7255 41.4421 41.4421 23.7255 63.2331 12.6225C88.0061 0 120.436 0 185.295 0H326.705C391.564 0 423.994 0 448.767 12.6225C470.558 23.7255 488.275 41.4421 499.378 63.2331C512 88.0061 512 120.436 512 185.295V326.705C512 391.564 512 423.994 499.378 448.767C488.275 470.558 470.558 488.275 448.767 499.378C423.994 512 391.564 512 326.705 512H185.295C120.436 512 88.0061 512 63.2331 499.378C41.4421 488.275 23.7255 470.558 12.6225 448.767C0 423.994 0 391.564 0 326.705V185.295Z" fill="#49021F"/>
<path d="M175.398 149.861V374.258C175.398 376.609 174.368 377.783 172.307 377.781H130.747C128.912 377.781 127.997 376.607 128 374.258V149.861C128 147.983 129.03 147.044 131.091 147.042H172.65C174.227 146.812 175.622 148.243 175.398 149.861Z" fill="#FF3366"/>
<path d="M298.36 381.303C282.551 381.55 266.887 378.18 252.507 371.439C221.977 356.947 208.712 324.874 208.715 291.826C208.451 258.859 225.912 227.448 254.396 211.859C274.059 200.688 297.188 197.851 319.311 199.882V130.484C319.311 128.844 319.998 128.018 321.372 128.018H364.648C365.831 127.845 366.878 128.919 366.71 130.132V338.326C366.71 346.916 367.561 355.475 368.084 364.041C368.168 365.505 367.321 366.952 366.022 367.564C354.858 372.34 343.229 375.883 331.333 378.132C320.455 380.191 309.421 381.253 298.36 381.303ZM319.311 337.621V241.451C288.082 232.774 257.483 256.616 257.487 289.712C256.732 324.372 287.636 347.123 319.311 337.621Z" fill="#FF3366"/>
</g>
<defs>
<clipPath id="clip0_540_821">
<rect width="512" height="512" fill="white"/>
</clipPath>
</defs>
</svg>
