<svg width="512" height="512" viewBox="0 0 512 512" fill="none" xmlns="http://www.w3.org/2000/svg">
<path d="M65.8791 471.791L50.0184 49.1749C49.4946 35.2175 60.1966 23.3888 74.1366 22.5175L433.601 0.0510042C447.791 -0.835823 460.012 9.94791 460.899 24.1371C460.932 24.6717 460.949 25.2073 460.949 25.7429V486.258C460.949 500.475 449.424 512 435.207 512C434.822 512 434.437 511.991 434.052 511.974L90.4481 496.542C77.066 495.941 66.3815 485.177 65.8791 471.791Z" fill="#FF4785"/>
<path d="M353.456 62.933L355.911 3.8787L405.277 0L407.403 60.9006C407.477 63.0201 405.819 64.7983 403.7 64.8723C402.792 64.904 401.903 64.613 401.19 64.0511L382.153 49.0545L359.614 66.1519C357.924 67.4336 355.515 67.1029 354.233 65.4132C353.694 64.702 353.419 63.8249 353.456 62.933ZM290.323 192.98C290.323 202.995 357.783 198.195 366.839 191.16C366.839 122.959 330.244 87.1208 263.233 87.1208C196.221 87.1208 158.676 123.517 158.676 178.111C158.676 273.196 286.996 275.015 286.996 326.88C286.996 341.438 279.867 350.082 264.183 350.082C243.747 350.082 235.668 339.645 236.618 304.159C236.618 296.461 158.676 294.061 156.3 304.159C150.249 390.155 203.825 414.959 265.134 414.959C324.541 414.959 371.117 383.294 371.117 325.97C371.117 224.061 240.896 226.791 240.896 176.291C240.896 155.818 256.104 153.089 265.134 153.089C274.639 153.089 291.748 154.764 290.323 192.98Z" fill="white"/>
</svg>
