<svg width="512" height="512" viewBox="0 0 512 512" fill="none" xmlns="http://www.w3.org/2000/svg">
<g clip-path="url(#clip0_540_817)">
<path d="M490.471 307.047C518.494 279.024 518.493 233.426 490.47 205.402C476.896 191.827 458.846 184.351 439.648 184.351C435.089 184.351 430.601 184.767 426.224 185.586C445.3 172.537 457.662 150.595 457.662 126.197C457.662 86.5655 425.42 54.323 385.788 54.323C361.341 54.323 339.361 66.7345 326.322 85.875C330.637 63.1208 323.87 38.8017 306.583 21.5154C293.009 7.94015 274.959 0.463867 255.761 0.463867C236.563 0.463867 218.513 7.94015 204.939 21.5154C187.652 38.8017 180.886 63.1217 185.2 85.8759C172.161 66.7354 150.18 54.323 125.733 54.323C86.1016 54.323 53.8592 86.5655 53.8592 126.197C53.8592 150.596 66.2202 172.537 85.2967 185.585C80.9194 184.767 76.4331 184.351 71.8738 184.351C52.6756 184.351 34.6267 191.827 21.0515 205.403C7.47628 218.978 0 237.028 0 256.225C0 275.423 7.47628 293.472 21.0515 307.048C34.6267 320.622 52.6765 328.099 71.8738 328.099C76.4322 328.099 80.9185 327.683 85.2967 326.864C66.2202 339.913 53.8592 361.855 53.8592 386.253C53.8592 425.884 86.1016 458.126 125.733 458.126C150.18 458.126 172.162 445.715 185.2 426.574C180.886 449.329 187.652 473.649 204.939 490.936C218.514 504.51 236.564 511.986 255.761 511.986C274.959 511.986 293.009 504.51 306.583 490.935C323.87 473.648 330.636 449.327 326.322 426.573C339.36 445.714 361.341 458.126 385.788 458.126C425.42 458.126 457.662 425.884 457.662 386.253C457.662 361.855 445.3 339.913 426.225 326.864C430.602 327.683 435.089 328.099 439.648 328.099C458.846 328.099 476.896 320.623 490.471 307.047Z" fill="black"/>
<path d="M468.784 227.076C452.686 210.979 426.585 210.979 410.487 227.076H326.119L385.777 167.419C408.543 167.419 426.998 148.964 426.998 126.197C426.998 103.431 408.543 84.9747 385.777 84.9747C363.01 84.9747 344.554 103.431 344.554 126.197L284.897 185.855V101.487C300.995 85.3884 300.995 59.2882 284.896 43.1899C268.798 27.0916 242.698 27.0916 226.6 43.1899C210.501 59.2882 210.501 85.3884 226.6 101.487V185.855L166.943 126.197C166.943 103.431 148.487 84.9747 125.72 84.9747C102.954 84.9747 84.498 103.431 84.498 126.197C84.498 148.964 102.954 167.419 125.72 167.419L185.377 227.076H101.01C84.9109 210.978 58.8106 210.979 42.7124 227.077C26.6141 243.175 26.6141 269.276 42.7124 285.374C58.8106 301.472 84.9118 301.472 101.01 285.374H185.377L125.72 345.031C102.954 345.031 84.498 363.486 84.498 386.253C84.498 409.019 102.954 427.476 125.72 427.476C148.487 427.476 166.943 409.019 166.943 386.253L226.6 326.596V410.964C210.501 427.062 210.501 453.163 226.6 469.261C242.698 485.36 268.799 485.36 284.897 469.261C300.995 453.163 300.995 427.062 284.897 410.964V326.596L344.554 386.253C344.554 409.019 363.01 427.476 385.777 427.476C408.543 427.476 426.998 409.019 426.998 386.253C426.998 363.486 408.543 345.031 385.777 345.031L326.119 285.374H410.487C426.585 301.472 452.686 301.472 468.784 285.374C484.882 269.276 484.882 243.175 468.784 227.076Z" fill="#FFB13B"/>
</g>
<defs>
<clipPath id="clip0_540_817">
<rect width="512" height="512" fill="white"/>
</clipPath>
</defs>
</svg>
