<svg width="510" height="508" viewBox="0 0 510 508" fill="none" xmlns="http://www.w3.org/2000/svg">
<mask id="mask0_540_697" style="mask-type:alpha" maskUnits="userSpaceOnUse" x="0" y="0" width="511" height="508">
<path d="M361.655 505.831C369.688 508.961 378.848 508.76 386.956 504.859L491.958 454.334C502.991 449.025 510.008 437.857 510.008 425.607V83.0151C510.008 70.7646 502.991 59.598 491.958 54.2887L386.956 3.76213C376.316 -1.35775 363.863 -0.103696 354.525 6.68546C353.19 7.65531 351.919 8.73816 350.728 9.9315L149.713 193.32L62.1556 126.857C54.0048 120.67 42.6042 121.177 35.0341 128.063L6.95156 153.608C-2.30805 162.031 -2.31867 176.599 6.92863 185.035L82.8615 254.31L6.92863 323.585C-2.31867 332.022 -2.30805 346.589 6.95156 355.012L35.0341 380.557C42.6042 387.444 54.0048 387.95 62.1556 381.764L149.713 315.3L350.728 498.689C353.908 501.871 357.641 504.267 361.655 505.831ZM382.584 138.533L230.059 254.31L382.584 370.088V138.533Z" fill="white"/>
</mask>
<g mask="url(#mask0_540_697)">
<path d="M492.27 54.3671L387.186 3.77095C375.024 -2.08554 360.486 0.384859 350.94 9.93077L6.93283 323.585C-2.32008 332.022 -2.30944 346.589 6.95578 355.012L35.0554 380.556C42.6302 387.443 54.0378 387.949 62.1934 381.764L476.457 67.4931C490.355 56.9499 510.317 66.8623 510.317 84.307V83.087C510.317 70.8418 503.302 59.6792 492.27 54.3671Z" fill="#0065A9"/>
<path d="M492.27 454.253L387.186 504.849C375.024 510.704 360.486 508.234 350.94 498.689L6.93283 185.035C-2.32008 176.598 -2.30944 162.031 6.95578 153.608L35.0554 128.063C42.6302 121.177 54.0378 120.669 62.1934 126.857L476.457 441.126C490.355 451.669 510.317 441.758 510.317 424.312V425.533C510.317 437.777 503.302 448.94 492.27 454.253Z" fill="#007ACC"/>
<path d="M386.856 504.89C374.689 510.741 360.152 508.269 350.605 498.722C362.368 510.484 382.481 502.153 382.481 485.518V23.1669C382.481 6.53186 362.368 -1.79909 350.605 9.96373C360.152 0.416934 374.689 -2.05695 386.856 3.79437L491.921 54.321C502.962 59.6303 509.983 70.7969 509.983 83.0474V425.64C509.983 437.89 502.962 449.056 491.921 454.365L386.856 504.89Z" fill="#1F9CF0"/>
</g>
</svg>
