<svg width="20" height="20" viewBox="0 0 20 20" fill="none" xmlns="http://www.w3.org/2000/svg">
<g clip-path="url(#clip0_551_649)">
<path d="M12.5781 8.73526C12.5118 8.6408 12.5187 8.5132 12.5949 8.42652L19.0298 1.10745C19.1718 0.945933 19.0571 0.692383 18.842 0.692383H17.8656C17.7938 0.692383 17.7254 0.723325 17.6779 0.777311L11.9454 7.29751C11.8385 7.41907 11.646 7.40857 11.553 7.2761L7.00452 0.798714C6.95772 0.732059 6.88137 0.692383 6.79993 0.692383H1.86806C1.66563 0.692383 1.54713 0.920392 1.66346 1.08605L8.54117 10.8803C8.6075 10.9748 8.60054 11.1024 8.52432 11.189L1.75197 18.8916C1.60996 19.0531 1.72465 19.3067 1.93972 19.3067H2.91611C2.988 19.3067 3.0564 19.2758 3.10387 19.2218L9.1735 12.3181C9.28037 12.1965 9.47283 12.207 9.56585 12.3395L14.3837 19.2004C14.4306 19.267 14.5069 19.3067 14.5883 19.3067H19.5202C19.7227 19.3067 19.8412 19.0787 19.7248 18.913L12.5781 8.73526ZM3.90337 2.29735C3.78515 2.13189 3.90343 1.90202 4.10678 1.90202H6.01456C6.09529 1.90202 6.17105 1.941 6.21798 2.00669L17.4708 17.7567C17.589 17.9221 17.4708 18.152 17.2674 18.152H15.3596C15.2789 18.152 15.2031 18.113 15.1562 18.0473L3.90337 2.29735Z" fill="#FF0081"/>
<path fill-rule="evenodd" clip-rule="evenodd" d="M15.3596 17.902H17.2674L6.01456 2.15202H4.10678L15.3596 17.902ZM6.21798 2.00669C6.17105 1.941 6.09529 1.90202 6.01456 1.90202H4.10678C3.90343 1.90202 3.78515 2.13189 3.90337 2.29735L15.1562 18.0473C15.2031 18.113 15.2789 18.152 15.3596 18.152H17.2674C17.4708 18.152 17.589 17.9221 17.4708 17.7567L6.21798 2.00669ZM19.2175 1.27252L12.7827 8.59159L19.9294 18.7694C20.1621 19.1007 19.9251 19.5567 19.5202 19.5567H14.5883C14.4254 19.5567 14.2728 19.4774 14.1792 19.344L9.36125 12.4831L3.29162 19.3868C3.19669 19.4948 3.05988 19.5567 2.91611 19.5567H1.93972C1.50958 19.5567 1.2802 19.0496 1.56422 18.7266L8.33657 11.024L1.45887 1.22972C1.22621 0.898402 1.46321 0.442383 1.86806 0.442383H6.79993C6.96282 0.442383 7.11551 0.521735 7.20912 0.655045L11.7576 7.13244L17.4901 0.612239C17.5851 0.504268 17.7219 0.442383 17.8656 0.442383H18.842C19.2722 0.442383 19.5015 0.949483 19.2175 1.27252ZM12.5949 8.42652C12.5187 8.5132 12.5118 8.6408 12.5781 8.73526L19.7248 18.913C19.8412 19.0787 19.7227 19.3067 19.5202 19.3067H14.5883C14.5069 19.3067 14.4306 19.267 14.3837 19.2004L9.56585 12.3395C9.47283 12.207 9.28037 12.1965 9.1735 12.3181L3.10387 19.2218C3.0564 19.2758 2.988 19.3067 2.91611 19.3067H1.93972C1.72465 19.3067 1.60996 19.0531 1.75197 18.8916L8.52432 11.189C8.60054 11.1024 8.6075 10.9748 8.54117 10.8803L1.66346 1.08605C1.54713 0.920392 1.66563 0.692383 1.86806 0.692383H6.79993C6.88137 0.692383 6.95772 0.732059 7.00452 0.798714L11.553 7.2761C11.646 7.40857 11.8385 7.41907 11.9454 7.29751L17.6779 0.777311C17.7254 0.723325 17.7938 0.692383 17.8656 0.692383H18.842C19.0571 0.692383 19.1718 0.945933 19.0298 1.10745L12.5949 8.42652Z" fill="#FF0081"/>
</g>
<defs>
<clipPath id="clip0_551_649">
<rect width="20" height="20" fill="white"/>
</clipPath>
</defs>
</svg>
