<svg width="20" height="14" viewBox="0 0 20 14" fill="none" xmlns="http://www.w3.org/2000/svg">
<path fill-rule="evenodd" clip-rule="evenodd" d="M0 0H5C7.20914 0 9 1.79086 9 4C9 4.97964 8.64783 5.87702 8.06319 6.57246C9.22386 7.27263 10 8.54567 10 10C10 12.2091 8.20914 14 6 14H0V8V6V0ZM2 12V8H5H6C7.10457 8 8 8.89543 8 10C8 11.1046 7.10457 12 6 12H2ZM19 1H12V3H19V1ZM15.6378 12C16.6783 12 17.3177 11.7872 17.659 11.467C17.8389 11.2983 17.9139 11.1106 17.9139 11H19.9139C19.9139 12.6272 18.4506 14 15.6378 14C12.8546 14 11 12.1958 11 9C11 6.03389 12.5805 4 15.5 4C18.4195 4 20 6.03389 20 9V10H13.0886C13.3601 11.3771 14.2475 12 15.6378 12ZM17.9146 8C17.6663 6.69023 16.8733 6 15.5 6C14.1267 6 13.3337 6.69023 13.0854 8H17.9146ZM2 6V2H5C6.10457 2 7 2.89543 7 4C7 5.10457 6.10457 6 5 6H2Z" fill="#FF0081"/>
</svg>
