<svg width="17" height="18" viewBox="0 0 17 18" fill="none" xmlns="http://www.w3.org/2000/svg">
<path fill-rule="evenodd" clip-rule="evenodd" d="M2.63978 0C1.82197 0 1.08655 0.497902 0.782827 1.25722L0.143047 2.85667C0.0485503 3.09291 0 3.34501 0 3.59945V13.4286C0 14.5331 0.89543 15.4286 2 15.4286H3.85714V16.1817C3.85714 17.1859 4.67121 18 5.67542 18C6.15765 18 6.62014 17.8084 6.96113 17.4674L9 15.4286H11.3859C11.9163 15.4286 12.425 15.2179 12.8001 14.8428L16.1285 11.5144C16.5036 11.1393 16.7143 10.6306 16.7143 10.1001V2C16.7143 0.895433 15.8189 0 14.7143 0H2.63978ZM14.7857 10.2857L12.2143 12.8571H8.35714L5.78571 15.4286V12.8571H2.57143V1.92857H14.7857V10.2857ZM12.857 4.45976H10.9284V9.64279H12.857V4.45976ZM6.42839 4.45976H8.35696V9.64279H6.42839V4.45976Z" fill="#FF0081"/>
</svg>
