<svg width="28" height="24" viewBox="0 0 28 24" fill="none" xmlns="http://www.w3.org/2000/svg">
<path fill-rule="evenodd" clip-rule="evenodd" d="M12.834 6.66198L14.5664 0.561367L19.5851 1.55897C20.1195 0.605458 21.0837 0 22.1995 0C23.8831 0 25.3013 1.38489 25.3013 3.08519C25.3013 4.78087 23.932 6.16651 22.2438 6.16651C20.7016 6.16651 19.4161 5.00119 19.2138 3.50011L15.9504 2.85146L14.8784 6.70068C17.4332 6.90125 19.8302 7.66884 21.7118 8.90224C22.2837 8.47928 22.9777 8.24953 23.6923 8.24959C25.5388 8.24959 27.0383 9.76626 27.0385 11.6263C27.0406 12.2187 26.8862 12.8011 26.5909 13.3147C26.3231 13.7805 25.9479 14.1747 25.4977 14.4651C25.5175 14.6659 25.5276 14.8677 25.528 15.0696C25.528 17.3716 24.2353 19.5023 21.9452 21.0844C19.6816 22.6469 16.6848 23.5 13.5193 23.5C10.3536 23.5 7.36371 22.6469 5.09651 21.088C2.80774 19.506 1.51135 17.3764 1.50498 15.0774C1.50474 14.874 1.51537 14.6705 1.53682 14.4683C1.08733 14.1769 0.71306 13.7821 0.445957 13.3159C0.151309 12.8017 -0.00250393 12.2188 3.08291e-05 11.6262C0.000328733 9.76639 1.49787 8.24979 3.34582 8.24959C4.06175 8.24737 4.75735 8.47715 5.32961 8.90179C7.36674 7.57325 9.98876 6.78501 12.7575 6.66416L12.7614 6.66402L12.834 6.66198ZM1.97734 11.626C1.9779 11.8132 2.01545 11.9985 2.08783 12.1711C2.11058 12.2254 2.13663 12.2781 2.16579 12.3289C2.52475 11.593 3.0225 10.9035 3.65083 10.2678C3.62003 10.2608 3.58898 10.2549 3.55774 10.25C3.49068 10.2396 3.42273 10.2343 3.35445 10.2341C2.98764 10.2366 2.63676 10.3843 2.37864 10.645C2.3488 10.6751 2.32048 10.7065 2.29373 10.739C2.08889 10.9876 1.97612 11.3012 1.97734 11.626ZM6.22317 10.6846L6.21029 10.6937L6.19208 10.7064C5.91592 10.8965 5.65148 11.103 5.40022 11.3249C4.59659 12.0385 4.04453 12.82 3.74721 13.6439L3.7463 13.6464C3.5767 14.1011 3.48936 14.5823 3.48837 15.0676C3.48847 16.6602 4.43335 18.2212 6.21326 19.4504C8.13873 20.7774 10.7341 21.515 13.522 21.515C16.3097 21.515 18.9042 20.7763 20.8314 19.4504C22.6133 18.2229 23.5563 16.6618 23.5568 15.0699C23.5569 14.9024 23.5465 14.7349 23.5257 14.5686C23.4836 14.2534 23.408 13.9436 23.3001 13.6444C23.0029 12.8196 22.451 12.0389 21.6471 11.3248C21.3957 11.1039 21.1314 10.8982 20.8555 10.7088L20.8489 10.7041L20.8296 10.6899L20.8205 10.6832C18.8946 9.36405 16.3042 8.62851 13.5226 8.62851C10.7398 8.62851 8.14918 9.36299 6.22317 10.6846ZM24.8798 12.3254C24.5214 11.5891 24.0239 10.8991 23.3956 10.2626C23.4923 10.2413 23.5915 10.2305 23.6913 10.2308C24.0582 10.2331 24.4092 10.3809 24.6674 10.6417C24.9257 10.9026 25.0699 11.2553 25.0684 11.6224C25.068 11.8095 25.0305 11.9952 24.958 12.1677C24.9352 12.222 24.9091 12.2746 24.8798 12.3254ZM22.8531 2.17428C22.676 2.05595 22.4678 1.99279 22.2548 1.99279C21.9692 1.99279 21.6953 2.10625 21.4933 2.30821C21.2914 2.51017 21.1779 2.78409 21.1779 3.06971C21.1779 3.28271 21.2411 3.49092 21.3594 3.66802C21.4777 3.84512 21.6459 3.98315 21.8427 4.06466C22.0395 4.14617 22.256 4.16749 22.4649 4.12594C22.6738 4.08439 22.8657 3.98182 23.0163 3.83121C23.1669 3.6806 23.2695 3.48871 23.3111 3.27981C23.3526 3.07091 23.3313 2.85437 23.2498 2.65759C23.1683 2.46081 23.0302 2.29262 22.8531 2.17428ZM8.9983 11.9015C10.0139 11.4808 11.1782 11.9631 11.5989 12.9786C12.0195 13.9942 11.5373 15.1585 10.5217 15.5792C9.50609 15.9999 8.34178 15.5176 7.92111 14.502C7.50044 13.4864 7.98272 12.3221 8.9983 11.9015ZM16.1729 12.0854C16.5002 11.8667 16.8851 11.7499 17.2787 11.7499C17.8066 11.7499 18.3129 11.9596 18.6861 12.3329C19.0594 12.7062 19.2691 13.2124 19.2691 13.7403C19.2691 14.134 19.1524 14.5188 18.9337 14.8461C18.715 15.1734 18.4041 15.4286 18.0404 15.5792C17.6767 15.7298 17.2765 15.7693 16.8904 15.6925C16.5043 15.6157 16.1497 15.4261 15.8713 15.1477C15.5929 14.8694 15.4034 14.5147 15.3266 14.1286C15.2498 13.7425 15.2892 13.3423 15.4398 12.9786C15.5905 12.6149 15.8456 12.3041 16.1729 12.0854ZM17.2364 17.6227L17.2359 17.6232C17.2028 17.6566 15.807 19.0642 13.5238 19.0752C11.2243 19.0642 9.88556 17.7071 9.80439 17.6248L9.80236 17.6227C9.75949 17.5802 9.70156 17.5564 9.64119 17.5564C9.58082 17.5564 9.52289 17.5802 9.48002 17.6227L8.72257 18.3675C8.70109 18.3888 8.68404 18.4142 8.67241 18.4421C8.66078 18.4701 8.65479 18.5 8.65479 18.5303C8.65479 18.5606 8.66078 18.5905 8.67241 18.6185C8.68404 18.6464 8.70109 18.6718 8.72257 18.6931C8.91055 18.8811 10.6411 20.5856 13.5205 20.5978C16.3922 20.5856 18.1305 18.8811 18.3184 18.6931C18.3399 18.6717 18.357 18.6463 18.3686 18.6183C18.3803 18.5904 18.3863 18.5603 18.3863 18.53C18.3863 18.4997 18.3803 18.4697 18.3686 18.4417C18.357 18.4137 18.3399 18.3883 18.3184 18.3669L17.5604 17.6222C17.5177 17.5799 17.46 17.5562 17.3998 17.5562C17.3397 17.5562 17.282 17.5799 17.2392 17.6222L17.2364 17.6227Z" fill="#FF0081"/>
</svg>
