<svg width="222" height="253" viewBox="0 0 222 253" fill="none" xmlns="http://www.w3.org/2000/svg">
<path fill-rule="evenodd" clip-rule="evenodd" d="M218 3H4C3.44771 3 3 3.44772 3 3.99999V249C3 249.552 3.44772 250 4 250H218C218.552 250 219 249.552 219 249V4C219 3.44771 218.552 3 218 3ZM4 0C1.79086 0 0 1.79085 0 3.99999V249C0 251.209 1.79086 253 4 253H218C220.209 253 222 251.209 222 249V4C222 1.79086 220.209 0 218 0H4Z" fill="url(#paint0_linear)"/>
<path d="M2.19953 81.296C2.19953 88.08 5.07953 92.688 10.1675 94.352L10.3915 92.464C6.19953 91.056 3.79953 87.12 3.79953 81.424C3.79953 74.032 8.05553 69.168 14.3915 69.168C20.7915 69.168 24.9195 73.936 24.9195 81.328C24.9195 87.248 22.2955 91.344 17.8795 92.368L18.0395 94.352C23.3195 93.2 26.5195 88.4 26.5195 81.456C26.5195 72.944 21.6235 67.216 14.3915 67.216C7.03153 67.216 2.19953 72.72 2.19953 81.296Z" fill="#01F0E3"/>
<path d="M2.19953 111.958C2.19953 120.054 6.83953 126.262 14.3595 126.262C21.9115 126.262 26.5195 120.054 26.5195 111.958C26.5195 103.83 21.9115 97.6223 14.3595 97.6223C6.83953 97.6223 2.19953 103.83 2.19953 111.958ZM3.79953 111.958C3.79953 104.95 7.83153 99.6063 14.3595 99.6063C20.9195 99.6063 24.9195 104.95 24.9195 111.958C24.9195 118.934 20.9195 124.31 14.3595 124.31C7.83153 124.31 3.79953 118.934 3.79953 111.958Z" fill="#01F0E3"/>
<path d="M2.99953 131.596L2.99953 144.012C2.99953 151.66 7.41553 157.484 14.6795 157.484C21.9115 157.484 25.7195 151.916 25.7195 144.076L25.7195 131.596L2.99953 131.596ZM4.59953 133.484L24.1195 133.484L24.1195 143.916C24.1195 150.7 21.0155 155.532 14.6795 155.532C8.34353 155.532 4.59953 150.924 4.59953 144.14L4.59953 133.484Z" fill="#01F0E3"/>
<path d="M4.59953 164.672L13.8475 164.672L13.8475 183.52L15.4475 183.52L15.4475 164.672L24.1195 164.672L24.1195 184.063L25.7195 184.063L25.7195 162.784L2.99953 162.783L2.99953 184.287L4.59953 184.287L4.59953 164.672Z" fill="#01F0E3"/>
<path fill-rule="evenodd" clip-rule="evenodd" d="M149.42 62.5439C137.153 57.3121 121.313 59.9715 111.227 69.9355ZM111.227 69.9355C101.436 79.6056 101.016 93.9952 104.464 106.199C104.868 107.633 104.867 109.149 104.461 110.582C104.054 112.014 103.259 113.307 102.16 114.319C102.159 114.32 102.158 114.321 102.157 114.322L51.8922 160.002C50.2594 161.445 48.9393 163.204 48.0132 165.174C47.0855 167.146 46.5729 169.287 46.5072 171.464C46.4415 173.642 46.8241 175.81 47.6313 177.834C48.4385 179.859 49.653 181.697 51.1999 183.236C52.7468 184.776 54.5933 185.983 56.6257 186.786C58.658 187.588 60.8336 187.968 63.0187 187.903C65.2037 187.838 67.3525 187.328 69.333 186.406C71.309 185.486 73.076 184.174 74.5256 182.55L120.947 132.411C120.947 132.411 120.948 132.41 120.948 132.41C121.952 131.334 123.232 130.55 124.651 130.142C126.071 129.734 127.575 129.718 129.003 130.096C141.169 133.338 155.406 132.836 165.061 123.352C170.233 118.283 173.328 111.325 174.531 104.422C175.73 97.5349 175.075 90.5205 172.525 85.3056L172.521 85.2975L172.517 85.2896C172.388 85.0345 172.201 84.8141 171.971 84.6461C171.742 84.4781 171.476 84.3672 171.195 84.3219C170.915 84.2765 170.628 84.298 170.357 84.3847C170.087 84.4713 169.84 84.6208 169.638 84.8215L151.393 102.992C151.392 102.993 151.391 102.994 151.39 102.994C149.857 104.509 147.783 105.36 145.619 105.36C143.456 105.36 141.381 104.509 139.848 102.994C139.847 102.993 139.846 102.993 139.846 102.992L131.833 95.0188C131.833 95.0184 131.832 95.018 131.832 95.0176C130.308 93.4924 129.454 91.4306 129.454 89.283C129.454 87.1355 130.308 85.0738 131.832 83.5487C131.832 83.5482 131.833 83.5477 131.833 83.5472L149.975 65.4856C150.182 65.2825 150.338 65.0318 150.427 64.7546C150.519 64.4708 150.539 64.1685 150.485 63.8749C150.431 63.5813 150.305 63.3063 150.119 63.0741C149.933 62.8423 149.693 62.6605 149.42 62.5443M146.562 64.6496C135.653 60.7987 122.085 63.4256 113.335 72.0696C104.669 80.6289 104.038 93.6586 107.351 105.384C107.906 107.352 107.905 109.434 107.347 111.401C106.788 113.369 105.695 115.143 104.189 116.53L104.182 116.536L53.8938 162.237L53.8855 162.244C52.5554 163.418 51.481 164.849 50.7279 166.45C49.975 168.051 49.5592 169.789 49.5059 171.555C49.4526 173.321 49.7629 175.08 50.418 176.723C51.0731 178.366 52.0592 179.859 53.316 181.11C54.5729 182.36 56.074 183.343 57.7273 183.995C59.3806 184.648 61.1508 184.957 62.9291 184.904C64.7073 184.851 66.4557 184.437 68.0665 183.687C69.6773 182.936 71.1164 181.867 72.2955 180.543L72.305 180.532L118.75 130.369L118.754 130.364C120.129 128.89 121.882 127.817 123.822 127.259C125.762 126.701 127.819 126.679 129.771 127.196L129.773 127.196C141.474 130.315 154.397 129.621 162.958 121.212L162.959 121.211C167.592 116.67 170.456 110.331 171.575 103.908C172.572 98.1842 172.158 92.5392 170.506 88.1904L153.506 105.122L153.502 105.125C151.406 107.198 148.572 108.36 145.619 108.36C142.667 108.36 139.833 107.198 137.736 105.125L137.733 105.122L129.714 97.1425L129.711 97.1396C127.626 95.0533 126.454 92.2288 126.454 89.283C126.454 86.3372 127.626 83.5127 129.711 81.4263L129.714 81.4238L146.562 64.6496ZM148.244 65.3042C148.244 65.304 148.244 65.3039 148.243 65.3038Z" fill="url(#paint1_linear)"/>
<path fill-rule="evenodd" clip-rule="evenodd" d="M62.5504 168.626C60.7051 168.626 59.2217 170.112 59.2217 171.931C59.2217 173.749 60.7051 175.236 62.5504 175.236C64.3958 175.236 65.8792 173.749 65.8792 171.931C65.8792 170.112 64.3958 168.626 62.5504 168.626ZM56.2217 171.931C56.2217 168.442 59.0621 165.626 62.5504 165.626C66.0388 165.626 68.8792 168.442 68.8792 171.931C68.8792 175.42 66.0388 178.236 62.5504 178.236C59.0621 178.236 56.2217 175.42 56.2217 171.931Z" fill="url(#paint2_linear)"/>
<defs>
<linearGradient id="paint0_linear" x1="0" y1="0" x2="232.932" y2="10.5012" gradientUnits="userSpaceOnUse">
<stop stop-color="#01F0E3"/>
<stop offset="1" stop-color="#FF2AFC"/>
</linearGradient>
<linearGradient id="paint1_linear" x1="48" y1="61.4205" x2="179.714" y2="68.2214" gradientUnits="userSpaceOnUse">
<stop stop-color="#01F0E3"/>
<stop offset="1" stop-color="#FF2AFC"/>
</linearGradient>
<linearGradient id="paint2_linear" x1="57.7217" y1="167.126" x2="67.8484" y2="167.648" gradientUnits="userSpaceOnUse">
<stop stop-color="#01F0E3"/>
<stop offset="1" stop-color="#FF2AFC"/>
</linearGradient>
</defs>
</svg>
