<svg width="222" height="253" viewBox="0 0 222 253" fill="none" xmlns="http://www.w3.org/2000/svg">
<path fill-rule="evenodd" clip-rule="evenodd" d="M218 3H4C3.44771 3 3 3.44772 3 3.99999V249C3 249.552 3.44772 250 4 250H218C218.552 250 219 249.552 219 249V4C219 3.44771 218.552 3 218 3ZM4 0C1.79086 0 0 1.79085 0 3.99999V249C0 251.209 1.79086 253 4 253H218C220.209 253 222 251.209 222 249V4C222 1.79086 220.209 0 218 0H4Z" fill="url(#paint0_linear)"/>
<path d="M2.19953 40.671C2.19953 47.455 5.07953 52.063 10.1675 53.727L10.3915 51.839C6.19953 50.431 3.79953 46.495 3.79953 40.799C3.79953 33.407 8.05553 28.543 14.3915 28.543C20.7915 28.543 24.9195 33.311 24.9195 40.703C24.9195 46.623 22.2955 50.719 17.8795 51.743L18.0395 53.727C23.3195 52.575 26.5195 47.775 26.5195 40.831C26.5195 32.319 21.6235 26.591 14.3915 26.591C7.03153 26.591 2.19953 32.095 2.19953 40.671Z" fill="#F3174C"/>
<path d="M2.19953 71.3333C2.19953 79.4293 6.83953 85.6373 14.3595 85.6373C21.9115 85.6373 26.5195 79.4293 26.5195 71.3333C26.5195 63.2053 21.9115 56.9973 14.3595 56.9973C6.83953 56.9973 2.19953 63.2053 2.19953 71.3333ZM3.79953 71.3333C3.79953 64.3253 7.83153 58.9813 14.3595 58.9813C20.9195 58.9813 24.9195 64.3253 24.9195 71.3333C24.9195 78.3093 20.9195 83.6853 14.3595 83.6853C7.83153 83.6853 3.79953 78.3093 3.79953 71.3333Z" fill="#F3174C"/>
<path d="M2.99953 90.971L2.99953 92.731L21.5915 92.731C22.3595 92.731 23.1595 92.731 23.8955 92.699L23.8955 92.763C23.2555 93.211 22.6795 93.659 21.8795 94.395L2.99953 112.571L2.99953 114.619L25.7195 114.619L25.7195 112.859L7.44753 112.859C6.61553 112.859 5.81553 112.859 5.01553 112.891L5.01553 112.827C5.71953 112.411 6.26353 111.963 7.09553 111.163L25.7195 93.275L25.7195 90.971L2.99953 90.971Z" fill="#F3174C"/>
<path d="M2.19953 134.015C2.19953 140.799 5.07952 145.407 10.1675 147.071L10.3915 145.183C6.19953 143.775 3.79953 139.839 3.79953 134.143C3.79953 126.751 8.05553 121.887 14.3915 121.887C20.7915 121.887 24.9195 126.655 24.9195 134.047C24.9195 139.967 22.2955 144.063 17.8795 145.087L18.0395 147.071C23.3195 145.919 26.5195 141.119 26.5195 134.175C26.5195 125.663 21.6235 119.935 14.3915 119.935C7.03153 119.935 2.19953 125.439 2.19953 134.015Z" fill="#F3174C"/>
<path d="M4.59953 154.671L13.8475 154.671L13.8475 173.52L15.4475 173.52L15.4475 154.671L24.1195 154.671L24.1195 174.064L25.7195 174.064L25.7195 152.784L2.99953 152.783L2.99952 174.288L4.59952 174.288L4.59953 154.671Z" fill="#F3174C"/>
<path d="M25.7195 195.72L25.7195 181.096L2.99952 181.096L2.99952 182.984L12.2795 182.984L12.2795 195.4C12.2795 200.328 14.9355 203.464 19.1275 203.464C23.2235 203.464 25.7195 200.52 25.7195 195.72ZM13.9115 195.624L13.9115 182.984L24.1195 182.984L24.1195 195.464C24.1195 199.304 22.2955 201.512 19.1595 201.512C15.9275 201.512 13.9115 199.24 13.9115 195.624Z" fill="#F3174C"/>
<path d="M25.7195 228.311L25.7195 204.695L24.1195 204.695L24.1195 215.543L2.99952 215.543L2.99952 217.431L24.1195 217.431L24.1195 228.311L25.7195 228.311Z" fill="#F3174C"/>
<path fill-rule="evenodd" clip-rule="evenodd" d="M94.2396 59.6707C99.7011 57.4285 105.554 56.2826 111.461 56.2987C136.509 56.2998 156.418 76.1863 156.418 101.045C156.418 114.45 151.7 125.979 142.673 134.566C142.186 135.029 141.683 135.504 141.168 135.989C138.369 138.626 135.237 141.576 132.641 144.775C129.552 148.58 127.446 152.477 127.446 156.303V163.511H124.446V156.303C124.446 151.421 127.098 146.844 130.312 142.884C133.047 139.515 136.349 136.405 139.144 133.773C139.649 133.297 140.139 132.836 140.605 132.393L140.605 132.392C148.986 124.419 153.418 113.701 153.418 101.045C153.418 77.8526 134.861 59.2987 111.459 59.2987L111.455 59.2987C105.94 59.2834 100.477 60.353 95.379 62.4459C90.2813 64.5388 85.6502 67.6136 81.7516 71.493C77.853 75.3725 74.7639 79.9802 72.6615 85.0509C70.5591 90.1216 69.4848 95.5556 69.5002 101.04L69.5002 101.045C69.5002 113.244 74.1337 124.709 82.3063 132.386L81.2793 133.479L82.3063 132.386C82.7176 132.772 83.1472 133.172 83.5907 133.585C86.4129 136.214 89.7965 139.366 92.5935 142.809C95.8144 146.774 98.4729 151.378 98.4729 156.303V163.511H95.4729V156.303C95.4729 152.43 93.3554 148.505 90.2649 144.701C87.6108 141.433 84.3979 138.439 81.5663 135.8C81.1175 135.382 80.6782 134.972 80.2524 134.572C71.41 126.267 66.5007 113.977 66.5002 101.047C66.484 95.1651 67.6361 89.3385 69.8902 83.9019C72.1446 78.4646 75.4566 73.5249 79.6355 69.3665C83.8143 65.2082 88.7775 61.9132 94.2396 59.6707Z" fill="url(#paint1_linear)"/>
<path fill-rule="evenodd" clip-rule="evenodd" d="M121.117 193.842H101.802V190.842H121.117V193.842Z" fill="url(#paint2_linear)"/>
<path fill-rule="evenodd" clip-rule="evenodd" d="M125.945 179.426H96.9727V176.426H125.945V179.426Z" fill="url(#paint3_linear)"/>
<path fill-rule="evenodd" clip-rule="evenodd" d="M112.959 125.07V163.511H109.959V125.07H112.959Z" fill="url(#paint4_linear)"/>
<path fill-rule="evenodd" clip-rule="evenodd" d="M104.566 121.345C106.777 122.528 109.364 123.57 111.459 123.57C113.554 123.57 116.142 122.528 118.352 121.345C119.426 120.77 120.353 120.194 121.012 119.762C121.341 119.546 121.601 119.367 121.777 119.244C121.865 119.182 121.932 119.134 121.976 119.103L122.023 119.068L122.034 119.06L122.036 119.059C122.035 119.059 122.035 119.059 122.928 120.265C123.82 121.471 123.82 121.471 123.819 121.471L123.812 121.477L123.794 121.49L123.731 121.535C123.677 121.574 123.6 121.63 123.501 121.699C123.302 121.839 123.016 122.035 122.659 122.27C121.945 122.738 120.939 123.363 119.767 123.99C117.487 125.21 114.341 126.57 111.459 126.57C108.577 126.57 105.431 125.21 103.151 123.99C101.98 123.363 100.974 122.738 100.26 122.27C99.9024 122.035 99.6164 121.839 99.4179 121.699C99.3186 121.63 99.241 121.574 99.1871 121.535L99.1243 121.49L99.1067 121.477L99.1014 121.473L99.0996 121.472C99.0994 121.471 99.0985 121.471 99.9909 120.265C100.883 119.059 100.883 119.059 100.883 119.059L100.885 119.06L100.895 119.068L100.943 119.103C100.987 119.134 101.053 119.182 101.141 119.244C101.317 119.367 101.577 119.546 101.906 119.762C102.565 120.194 103.493 120.77 104.566 121.345ZM100.883 119.059C100.883 119.059 100.883 119.059 100.883 119.059Z" fill="url(#paint5_linear)"/>
<defs>
<linearGradient id="paint0_linear" x1="0" y1="0" x2="232.932" y2="10.5012" gradientUnits="userSpaceOnUse">
<stop stop-color="#F3174C"/>
<stop offset="1" stop-color="#3E0BDC"/>
</linearGradient>
<linearGradient id="paint1_linear" x1="68" y1="57.7986" x2="159.221" y2="61.6521" gradientUnits="userSpaceOnUse">
<stop stop-color="#F3174C"/>
<stop offset="1" stop-color="#3E0BDC"/>
</linearGradient>
<linearGradient id="paint2_linear" x1="101.802" y1="192.342" x2="112.033" y2="202.495" gradientUnits="userSpaceOnUse">
<stop stop-color="#F3174C"/>
<stop offset="1" stop-color="#3E0BDC"/>
</linearGradient>
<linearGradient id="paint3_linear" x1="96.9727" y1="177.926" x2="106.445" y2="192.026" gradientUnits="userSpaceOnUse">
<stop stop-color="#F3174C"/>
<stop offset="1" stop-color="#3E0BDC"/>
</linearGradient>
<linearGradient id="paint4_linear" x1="111.459" y1="125.07" x2="112.51" y2="125.072" gradientUnits="userSpaceOnUse">
<stop stop-color="#F3174C"/>
<stop offset="1" stop-color="#3E0BDC"/>
</linearGradient>
<linearGradient id="paint5_linear" x1="99.9912" y1="120.265" x2="122.738" y2="125.844" gradientUnits="userSpaceOnUse">
<stop stop-color="#F3174C"/>
<stop offset="1" stop-color="#3E0BDC"/>
</linearGradient>
</defs>
</svg>
