<svg width="222" height="253" viewBox="0 0 222 253" fill="none" xmlns="http://www.w3.org/2000/svg">
<path fill-rule="evenodd" clip-rule="evenodd" d="M218 3H4C3.44771 3 3 3.44772 3 3.99999V249C3 249.552 3.44772 250 4 250H218C218.552 250 219 249.552 219 249V4C219 3.44771 218.552 3 218 3ZM4 0C1.79086 0 0 1.79085 0 3.99999V249C0 251.209 1.79086 253 4 253H218C220.209 253 222 251.209 222 249V4C222 1.79086 220.209 0 218 0H4Z" fill="url(#paint0_linear)"/>
<path d="M2.99953 47.5179L2.99953 59.9339C2.99953 67.5819 7.41553 73.4059 14.6795 73.4059C21.9115 73.4059 25.7195 67.8379 25.7195 59.9979L25.7195 47.5179L2.99953 47.5179ZM4.59953 49.4059L24.1195 49.4059L24.1195 59.8379C24.1195 66.6219 21.0155 71.4539 14.6795 71.4539C8.34353 71.4539 4.59953 66.8459 4.59953 60.0619L4.59953 49.4059Z" fill="#01F061"/>
<path d="M4.59953 80.5934L13.8475 80.5934L13.8475 99.4414L15.4475 99.4414L15.4475 80.5934L24.1195 80.5934L24.1195 99.9854L25.7195 99.9854L25.7195 78.7054L2.99953 78.7054L2.99953 100.209L4.59953 100.209L4.59953 80.5934Z" fill="#01F061"/>
<path d="M25.7195 121.642L25.7195 107.018L2.99953 107.018L2.99953 108.906L12.2795 108.906L12.2795 121.322C12.2795 126.25 14.9355 129.386 19.1275 129.386C23.2235 129.386 25.7195 126.442 25.7195 121.642ZM13.9115 121.546L13.9115 108.906L24.1195 108.906L24.1195 121.386C24.1195 125.226 22.2955 127.434 19.1595 127.434C15.9275 127.434 13.9115 125.162 13.9115 121.546Z" fill="#01F061"/>
<path d="M2.99953 134.518L2.99953 154.742L4.66353 154.742L4.66353 136.406L25.7195 136.406L25.7195 134.518L2.99953 134.518Z" fill="#01F061"/>
<path d="M2.19953 170.068C2.19953 178.164 6.83952 184.372 14.3595 184.372C21.9115 184.372 26.5195 178.164 26.5195 170.068C26.5195 161.94 21.9115 155.732 14.3595 155.732C6.83953 155.732 2.19953 161.94 2.19953 170.068ZM3.79952 170.068C3.79952 163.06 7.83153 157.716 14.3595 157.716C20.9195 157.716 24.9195 163.06 24.9195 170.068C24.9195 177.044 20.9195 182.42 14.3595 182.42C7.83153 182.42 3.79952 177.044 3.79952 170.068Z" fill="#01F061"/>
<path d="M2.99952 195.485L2.99952 197.405L11.5435 197.405L25.7195 209.469L25.7195 207.069L14.9675 197.949C14.0075 197.085 13.4635 196.637 13.0795 196.509L13.0795 196.445C13.4635 196.285 14.0075 195.837 14.9675 194.973L25.7195 185.949L25.7195 183.549L11.5435 195.485L2.99952 195.485Z" fill="#01F061"/>
<path fill-rule="evenodd" clip-rule="evenodd" d="M155.894 60.8507C162.167 59.7427 167.846 59.5676 172.237 60.635C172.757 60.7584 173.233 61.0265 173.607 61.4093C173.979 61.7894 174.236 62.267 174.348 62.7873C175.397 67.3467 175.219 73.0867 174.103 79.3704C172.983 85.6812 170.898 92.6404 168.048 99.6783C162.353 113.738 153.541 128.253 143.046 138.639C140.169 141.52 137.1 144.202 133.861 146.667C132.557 147.66 131.814 149.251 131.851 150.932C131.966 156.173 131.277 161.393 129.241 166.041L129.24 166.043C125.728 174.037 119.367 179.148 113.015 182.396C106.669 185.642 100.239 187.079 96.3953 187.694C95.7583 187.796 95.1061 187.751 94.489 187.563C93.8719 187.374 93.306 187.047 92.8352 186.606C92.3644 186.164 92.0013 185.621 91.7746 185.016C91.5479 184.412 91.4639 183.763 91.5291 183.121L91.5305 183.108L93.6103 164.251C93.8316 162.245 92.257 160.357 90.0594 160.108C88.4489 159.946 86.9439 159.231 85.8033 158.084C85.8024 158.084 85.8015 158.083 85.8006 158.082L76.3395 148.667C76.3385 148.666 76.3375 148.665 76.3366 148.664C75.1854 147.531 74.4649 146.033 74.3003 144.427C74.0499 142.222 72.1584 140.641 70.147 140.861L51.1559 142.935L51.1451 142.936C50.5023 143.002 49.8529 142.919 49.247 142.695C48.6411 142.47 48.0946 142.11 47.6502 141.64C47.2058 141.171 46.8755 140.606 46.6853 139.988C46.4952 139.37 46.4506 138.716 46.555 138.078L46.5555 138.076C47.1881 134.254 48.6404 127.863 51.9073 121.551C55.1772 115.233 60.3132 108.905 68.3427 105.392L68.3467 105.39C73.0253 103.359 78.3084 102.675 83.6151 102.812C85.2914 102.856 86.8808 102.123 87.8784 100.829C90.3577 97.6136 93.053 94.5676 95.9464 91.7118C106.407 81.3111 121.213 72.5446 135.446 66.877C142.571 64.0397 149.591 61.9638 155.894 60.8507ZM75.7918 144.267L77.2841 144.116C77.3765 145.028 77.7857 145.882 78.4431 146.528L78.4494 146.534L87.9289 155.967C88.5793 156.622 89.4402 157.032 90.3634 157.124L90.2147 158.616L90.3802 157.125C94.0321 157.531 97.0164 160.734 96.5922 164.58L94.5138 183.424C94.5136 183.426 94.5134 183.428 94.5133 183.429C94.4957 183.61 94.5197 183.792 94.5836 183.963C94.6481 184.135 94.7518 184.29 94.8872 184.417C95.0225 184.544 95.186 184.639 95.3651 184.694C95.5443 184.748 95.7338 184.761 95.919 184.732L95.9204 184.731C99.5913 184.145 105.685 182.776 111.649 179.725C117.609 176.677 123.346 172.002 126.494 164.836C128.301 160.708 128.961 155.954 128.851 150.999C128.794 148.401 129.942 145.88 132.044 144.28C135.177 141.896 138.145 139.302 140.927 136.516L140.933 136.51C151.074 126.474 159.686 112.331 165.267 98.5521C168.055 91.6699 170.072 84.9136 171.149 78.846C172.223 72.7973 172.345 67.5304 171.44 63.5289C167.634 62.6246 162.457 62.738 156.415 63.8049C150.351 64.8759 143.53 66.8869 136.556 69.6641C122.591 75.2251 108.161 83.7968 98.0598 93.841L98.0558 93.845C95.2578 96.6064 92.6514 99.5518 90.2541 102.661C88.6457 104.747 86.1272 105.878 83.5375 105.811C78.5168 105.682 73.7013 106.337 69.5435 108.141C62.3362 111.295 57.637 117.007 54.5716 122.93C51.5034 128.859 50.1203 134.911 49.5154 138.564C49.486 138.745 49.4988 138.93 49.5527 139.105C49.6068 139.281 49.7009 139.443 49.8285 139.577C49.9562 139.712 50.1138 139.817 50.2895 139.882C50.464 139.946 50.6513 139.97 50.8369 139.952C50.8382 139.952 50.8396 139.952 50.8409 139.952L69.8212 137.878C73.6713 137.458 76.8737 140.447 77.2825 144.1L75.7918 144.267Z" fill="url(#paint1_linear)"/>
<path fill-rule="evenodd" clip-rule="evenodd" d="M132.756 90.7285C130.502 90.7285 128.299 91.3936 126.427 92.639C124.554 93.8842 123.096 95.6533 122.235 97.7218C121.374 99.7902 121.149 102.066 121.588 104.261C122.027 106.456 123.11 108.473 124.703 110.057L124.704 110.059C125.76 111.112 127.014 111.947 128.396 112.518C129.778 113.088 131.26 113.382 132.756 113.382C134.252 113.382 135.734 113.088 137.116 112.518C138.497 111.947 139.752 111.112 140.808 110.059L140.809 110.057C142.402 108.473 143.485 106.456 143.924 104.261C144.363 102.066 144.138 99.7902 143.277 97.7218C142.416 95.6534 140.958 93.8842 139.085 92.639C137.212 91.3936 135.01 90.7285 132.756 90.7285ZM124.766 90.1408C127.131 88.5677 129.912 87.7285 132.756 87.7285C135.6 87.7285 138.381 88.5677 140.746 90.1408C143.112 91.714 144.957 93.9507 146.047 96.5691C147.137 99.1875 147.422 102.069 146.866 104.849C146.31 107.629 144.939 110.181 142.926 112.183C141.591 113.515 140.005 114.571 138.26 115.291C136.515 116.011 134.645 116.382 132.756 116.382C130.867 116.382 128.997 116.011 127.252 115.291C125.507 114.571 123.921 113.515 122.586 112.184C120.574 110.181 119.202 107.629 118.646 104.849C118.09 102.069 118.375 99.1875 119.465 96.5691C120.555 93.9507 122.4 91.714 124.766 90.1408Z" fill="url(#paint2_linear)"/>
<path fill-rule="evenodd" clip-rule="evenodd" d="M57.5893 155.456C59.9713 153.089 63.0785 151.583 66.4172 151.175L66.7809 154.153C64.103 154.48 61.6128 155.688 59.7052 157.583C58.3439 158.943 57.2188 161.685 56.3682 165.139C55.5378 168.509 55.0361 172.26 54.7377 175.344C54.4978 177.822 56.4973 179.824 58.9774 179.587C62.079 179.29 65.8567 178.791 69.2523 177.963C72.7328 177.115 75.4961 175.992 76.8612 174.632L76.8637 174.63C78.7747 172.736 79.9876 170.258 80.3084 167.597L83.2868 167.955C82.885 171.29 81.3662 174.391 78.977 176.759C76.9734 178.754 73.4721 180.023 69.9628 180.878C66.3682 181.754 62.4304 182.271 59.2627 182.573C54.9064 182.989 51.33 179.412 51.7516 175.055C52.0565 171.904 52.5755 167.992 53.4552 164.421C54.3144 160.933 55.5882 157.454 57.5868 155.459L57.5893 155.456L57.5893 155.456Z" fill="url(#paint3_linear)"/>
<defs>
<linearGradient id="paint0_linear" x1="0" y1="0" x2="232.932" y2="10.5012" gradientUnits="userSpaceOnUse">
<stop stop-color="#01F061"/>
<stop offset="1" stop-color="#6494A9"/>
</linearGradient>
<linearGradient id="paint1_linear" x1="48" y1="61.4206" x2="179.644" y2="68.223" gradientUnits="userSpaceOnUse">
<stop stop-color="#01F061"/>
<stop offset="1" stop-color="#6494A9"/>
</linearGradient>
<linearGradient id="paint2_linear" x1="48" y1="61.4206" x2="179.644" y2="68.223" gradientUnits="userSpaceOnUse">
<stop stop-color="#01F061"/>
<stop offset="1" stop-color="#6494A9"/>
</linearGradient>
<linearGradient id="paint3_linear" x1="52.8252" y1="152.664" x2="83.2054" y2="154.233" gradientUnits="userSpaceOnUse">
<stop stop-color="#01F061"/>
<stop offset="1" stop-color="#6494A9"/>
</linearGradient>
</defs>
</svg>
