<svg width="222" height="253" viewBox="0 0 222 253" fill="none" xmlns="http://www.w3.org/2000/svg">
<path fill-rule="evenodd" clip-rule="evenodd" d="M218 3H4C3.44771 3 3 3.44772 3 3.99999V249C3 249.552 3.44772 250 4 250H218C218.552 250 219 249.552 219 249V4C219 3.44771 218.552 3 218 3ZM4 0C1.79086 0 0 1.79085 0 3.99999V249C0 251.209 1.79086 253 4 253H218C220.209 253 222 251.209 222 249V4C222 1.79086 220.209 0 218 0H4Z" fill="url(#paint0_linear)"/>
<path d="M2.99953 51.2366L2.99953 63.6526C2.99953 71.3006 7.41553 77.1246 14.6795 77.1246C21.9115 77.1246 25.7195 71.5566 25.7195 63.7166L25.7195 51.2366L2.99953 51.2366ZM4.59953 53.1246L24.1195 53.1246L24.1195 63.5566C24.1195 70.3406 21.0155 75.1726 14.6795 75.1726C8.34353 75.1726 4.59953 70.5646 4.59953 63.7806L4.59953 53.1246Z" fill="#FFD400"/>
<path d="M4.59953 84.3121L13.8475 84.3121L13.8475 103.16L15.4475 103.16L15.4475 84.3121L24.1195 84.3121L24.1195 103.704L25.7195 103.704L25.7195 82.4241L2.99953 82.4241L2.99953 103.928L4.59953 103.928L4.59953 84.3121Z" fill="#FFD400"/>
<path d="M2.19953 120.39C2.19953 127.75 4.40753 131.622 8.95153 131.622C12.8875 131.622 14.6795 129.318 15.2235 123.654L15.8635 116.678C16.2795 112.294 17.4955 110.47 20.2475 110.47C23.3515 110.47 24.9195 113.638 24.9195 119.238C24.9195 125.446 22.9675 128.518 18.9355 129.286L19.2875 131.27C24.0875 130.374 26.5195 126.47 26.5195 119.27C26.5195 112.422 24.3115 108.486 20.1515 108.486C16.5675 108.486 14.7115 110.854 14.2635 115.846L13.5915 123.014C13.1435 127.91 11.8635 129.67 8.79153 129.67C5.30353 129.67 3.79953 126.534 3.79953 120.454C3.79953 113.862 6.10353 110.118 10.3915 109.382L10.1675 107.366C4.88753 108.294 2.19953 112.614 2.19953 120.39Z" fill="#FFD400"/>
<path d="M2.99953 139.656L25.7195 139.656L25.7195 137.768L2.99953 137.768L2.99953 139.656Z" fill="#FFD400"/>
<path d="M2.19953 158.71C2.19953 164.47 4.37553 168.502 8.05553 170.39L2.99953 170.55L2.99953 172.054L14.6475 172.054L14.6475 158.998L13.0155 158.998L13.0155 170.326L11.8955 170.326C8.47152 170.326 3.79952 167.062 3.79953 158.998C3.79953 151.382 8.31153 146.902 14.3595 146.902C20.6635 146.902 24.9195 151.702 24.9195 159.062C24.9195 165.622 21.9115 169.078 18.8395 170.006L19.1595 171.926C22.8075 170.87 26.5195 166.838 26.5195 159.222C26.5195 150.55 21.5595 144.982 14.3915 144.982C7.28753 144.982 2.19953 150.294 2.19953 158.71Z" fill="#FFD400"/>
<path d="M2.99953 179.112L2.99953 180.872L21.5915 180.872C22.3595 180.872 23.1595 180.872 23.8955 180.84L23.8955 180.904C23.2555 181.352 22.6795 181.8 21.8795 182.536L2.99952 200.712L2.99952 202.76L25.7195 202.76L25.7195 201L7.44752 201C6.61552 201 5.81553 201 5.01552 201.032L5.01552 200.968C5.71953 200.552 6.26352 200.104 7.09552 199.304L25.7195 181.416L25.7195 179.112L2.99953 179.112Z" fill="#FFD400"/>
<path fill-rule="evenodd" clip-rule="evenodd" d="M151.7 65.2721C154.273 62.7113 157.762 61.274 161.398 61.274C165.034 61.274 168.523 62.7113 171.097 65.2721C173.67 67.8332 175.117 71.3084 175.117 74.9335C175.117 78.5541 173.674 82.025 171.106 84.5852L113.267 144.242C111.112 146.465 107.913 146.928 105.015 146.518C102.095 146.105 99.1301 144.768 97.0967 142.907C95.1953 141.166 93.7333 138.616 93.155 136.011C92.578 133.413 92.838 130.501 94.7886 128.339L151.671 65.3005L151.7 65.2721ZM168.98 67.3986C166.971 65.3988 164.243 64.274 161.398 64.274C158.566 64.274 155.85 65.3886 153.843 67.3712L97.0159 130.349C95.9374 131.544 95.6335 133.333 96.0837 135.361C96.5325 137.382 97.6887 139.381 99.1224 140.694C100.667 142.108 103.054 143.211 105.436 143.548C107.84 143.888 109.893 143.413 111.114 142.154L168.971 82.4779L168.98 82.4684C170.99 80.4687 172.117 77.7582 172.117 74.9335C172.117 72.1088 170.99 69.3983 168.98 67.3986Z" fill="url(#paint1_linear)"/>
<path fill-rule="evenodd" clip-rule="evenodd" d="M57.3649 165.81C57.3649 155.879 65.3005 147.834 75.162 147.834C85.0235 147.834 92.9591 155.879 92.9591 165.81C92.9591 178.759 82.5788 189.275 69.7296 189.275C65.1338 189.275 60.4754 188.012 56.3367 185.798C53.2817 184.163 52.9551 180.935 53.4129 178.157C53.878 175.333 55.2202 172.321 56.3655 170.094C56.9841 168.891 57.3649 167.467 57.3649 165.81ZM75.162 150.834C66.988 150.834 60.3649 157.505 60.3649 165.81C60.3649 167.943 59.8707 169.837 59.0335 171.465C57.9214 173.629 56.7593 176.3 56.373 178.644C55.9792 181.034 56.4538 182.458 57.7519 183.152C61.4969 185.156 65.6727 186.275 69.7296 186.275C80.8915 186.275 89.9591 177.133 89.9591 165.81C89.9591 157.505 83.3361 150.834 75.162 150.834Z" fill="url(#paint2_linear)"/>
<defs>
<linearGradient id="paint0_linear" x1="0" y1="0" x2="232.932" y2="10.5012" gradientUnits="userSpaceOnUse">
<stop stop-color="#FFD400"/>
<stop offset="1" stop-color="#FF2E97"/>
</linearGradient>
<linearGradient id="paint1_linear" x1="89.0449" y1="62.7741" x2="177.751" y2="67.1067" gradientUnits="userSpaceOnUse">
<stop stop-color="#FFD400"/>
<stop offset="1" stop-color="#FF2E97"/>
</linearGradient>
<linearGradient id="paint2_linear" x1="48" y1="149.334" x2="93.5382" y2="151.98" gradientUnits="userSpaceOnUse">
<stop stop-color="#FFD400"/>
<stop offset="1" stop-color="#FF2E97"/>
</linearGradient>
</defs>
</svg>
