<svg width="1440" height="407" viewBox="0 0 1440 407" fill="none" xmlns="http://www.w3.org/2000/svg">
<path d="M602.716 183.942C602.716 183.942 577.487 167.477 557.303 157.385L551.992 124.985L571.644 107.989L578.549 76.1204L557.303 104.271V93.1169L567.926 76.1204L544.025 93.1169L538.713 171.195L534.464 176.772L545.087 183.942L549.336 180.224L602.716 224.84V183.942Z" fill="#3A406A"/>
<path d="M661.279 383.523C661.279 384.698 660.327 385.648 659.154 385.648H631.535C630.36 385.648 629.41 384.698 629.41 383.523V379.453C629.41 378.278 630.36 377.328 631.535 377.328H659.154C660.327 377.328 661.279 378.278 661.279 379.453V383.523Z" fill="#FFD400"/>
<path d="M812.701 383.523C812.701 384.698 811.749 385.648 810.577 385.648H782.957C781.782 385.648 780.833 384.698 780.833 383.523V379.453C780.833 378.278 781.782 377.328 782.957 377.328H810.577C811.749 377.328 812.701 378.278 812.701 379.453V383.523Z" fill="#FFD400"/>
<path d="M765.977 316.759H673.405C636.225 339.067 638.439 367.218 638.439 367.218H800.943C800.943 367.218 803.157 339.067 765.977 316.759Z" fill="#3A406A"/>
<path d="M800.943 393.262C800.943 401.475 794.285 408.134 786.071 408.134H653.286C645.072 408.134 638.414 401.475 638.414 393.262V367.236C638.414 359.022 645.072 352.364 653.286 352.364H786.071C794.285 352.364 800.943 359.022 800.943 367.236V393.262Z" fill="#474E81"/>
<path d="M838.128 188.58L885.93 146.335L902.219 103.378L890.889 74.807L899.387 46.4801V69.6719L907.886 81.8882L912.135 56.3934L906.469 40.1064L924.173 54.9784L901.512 168.288L905.052 177.494L892.304 183.867L888.765 178.911L838.128 245.48V188.58Z" fill="#3A406A"/>
<path d="M840.02 303.993C840.02 312.207 833.362 318.865 825.148 318.865H614.816C606.603 318.865 599.944 312.207 599.944 303.993V98.9728C599.944 90.7592 606.603 84.1008 614.816 84.1008H825.148C833.362 84.1008 840.02 90.7592 840.02 98.9728V303.993Z" fill="#4F6A93"/>
<path d="M818.169 285.223C818.169 291.932 812.73 297.371 806.019 297.371H634.194C627.485 297.371 622.044 291.932 622.044 285.223V117.735C622.044 111.025 627.485 105.586 634.194 105.586H806.019C812.73 105.586 818.169 111.025 818.169 117.735V285.223Z" fill="#2E2746"/>
<path d="M711.209 159.394C711.209 182.35 692.6 200.954 669.646 200.954C646.688 200.954 628.081 182.35 628.081 159.394C628.081 136.438 646.688 117.831 669.646 117.831C692.6 117.831 711.209 136.438 711.209 159.394Z" fill="#F2F3F7"/>
<path d="M811.936 159.394C811.936 182.35 793.327 200.954 770.373 200.954C747.415 200.954 728.808 182.35 728.808 159.394C728.808 136.438 747.415 117.831 770.373 117.831C793.327 117.831 811.936 136.438 811.936 159.394Z" fill="#F2F3F7"/>
<path d="M696.527 160.006C696.527 176.962 684.672 190.71 670.047 190.71C655.423 190.71 643.568 176.962 643.568 160.006C643.568 143.048 655.423 129.3 670.047 129.3C684.672 129.3 696.527 143.048 696.527 160.006Z" fill="white"/>
<path d="M797.203 160.006C797.203 176.962 785.348 190.71 770.722 190.71C756.099 190.71 744.244 176.962 744.244 160.006C744.244 143.048 756.099 129.3 770.722 129.3C785.348 129.3 797.203 143.048 797.203 160.006Z" fill="white"/>
<path d="M622.044 222.575L633.795 213.014L666.726 248.07L688.502 214.608L696.217 230.542L706.561 217.264L716.653 236.385L725.682 216.201L746.397 250.725L762.331 220.45L780.921 258.161L801.636 230.542L818.169 246.476V258.161L801.104 244.352L780.39 274.096L762.331 243.555L748.521 269.315L726.214 235.322L718.246 254.443L704.968 233.198L696.217 246.476L686.909 231.604L667.257 266.129L630.608 230.011L622.163 238.509L622.044 222.575Z" fill="#FFD400"/>
<path d="M809.807 145.137C809.782 145.071 809.752 145.007 809.726 144.942H809.731L809.726 144.937C803.841 129.128 788.621 117.864 770.764 117.864C752.907 117.864 737.689 129.128 731.806 144.933L731.797 144.942H731.804C731.778 145.007 731.748 145.071 731.723 145.137H809.807Z" fill="#4A0AFF"/>
<path d="M708.313 145.137C708.288 145.071 708.258 145.007 708.232 144.942H708.237L708.232 144.937C702.347 129.128 687.127 117.864 669.27 117.864C651.413 117.864 636.195 129.128 630.312 144.933L630.303 144.942H630.31C630.284 145.007 630.254 145.071 630.229 145.137H708.313Z" fill="#4A0AFF"/>
<path d="M677.702 161.418C677.702 167.431 673.599 172.307 668.541 172.307C663.48 172.307 659.375 167.431 659.375 161.418C659.375 155.406 663.48 150.53 668.541 150.53C673.599 150.53 677.702 155.406 677.702 161.418Z" fill="#09081A"/>
<path d="M779.247 161.418C779.247 167.431 775.144 172.307 770.086 172.307C765.025 172.307 760.92 167.431 760.92 161.418C760.92 155.406 765.025 150.53 770.086 150.53C775.144 150.53 779.247 155.406 779.247 161.418Z" fill="#09081A"/>
<path d="M5.47125 384.178C5.47125 384.178 -16.0676 376.616 -47.405 389.895C-78.7423 403.173 -103.175 401.049 -121.234 395.206C-139.292 389.364 -188.157 396.8 -194 401.58V390.426C-194 389.364 -166.912 382.671 -156.289 382.034C-145.666 381.397 -129.201 381.928 -105.831 388.301C-82.4603 394.675 -55.3721 382.99 -46.8738 379.803C-38.3755 376.616 -17.1108 367.581 2.53296 377.674C22.1746 387.77 5.47125 384.178 5.47125 384.178Z" fill="#FB003D"/>
<path d="M907.445 58.5849C907.17 57.8838 900.733 41.2378 900.51 26.3446C900.3 12.1419 887.37 1.77189 887.238 1.66778L888.553 0C889.12 0.448283 902.409 11.1115 902.634 26.3149C902.851 40.815 909.357 57.6437 909.425 57.8116L907.445 58.5849Z" fill="#00F646"/>
<path d="M910.737 58.78C910.199 58.0917 897.63 41.8175 903.554 30.7124C909.42 19.7135 916.822 18.8573 917.134 18.8254L917.344 20.9394C917.285 20.9458 910.718 21.7935 905.43 31.7109C900.15 41.6093 912.286 57.3141 912.409 57.4713L910.737 58.78Z" fill="#FF0082"/>
<path d="M913.301 63.0485C913.188 62.8955 902.001 47.5732 894.469 42.7801C889.107 39.3702 888.397 33.6233 887.828 29.0045C887.539 26.6823 887.267 24.4876 886.419 23.4275L888.078 22.0996C889.302 23.6314 889.595 26.0003 889.935 28.7453C890.479 33.1367 891.093 38.1167 895.61 40.987C903.479 45.9967 914.552 61.1555 915.02 61.7993L913.301 63.0485Z" fill="#00A9FF"/>
<path d="M913.365 64.3875C913.261 64.2346 902.753 48.9951 889.751 43.5222C876.158 37.8007 871.078 30.3477 870.868 30.0333L872.633 28.8521C872.684 28.9243 877.624 36.1117 890.575 41.5633C904.164 47.2848 914.678 62.5434 915.12 63.1914L913.365 64.3875Z" fill="#FF963A"/>
<path d="M562.739 91.5311C561.997 91.5311 561.551 91.4589 561.475 91.444L561.84 89.3535C562.146 89.4002 569.336 90.4689 577.118 80.9742C585.635 70.5766 591.629 70.0029 591.879 69.9817L592.043 72.0999C592.001 72.1041 586.608 72.7415 578.762 82.3212C572 90.5708 565.431 91.5311 562.739 91.5311Z" fill="#FF963A"/>
<path d="M563.666 91.1688L562.293 89.5457C562.355 89.4947 568.55 84.1514 571.818 74.0618C575.281 63.3731 584.338 55.576 584.723 55.2488L586.099 56.8656C586.01 56.9421 577.112 64.6117 573.838 74.7183C570.373 85.4155 563.938 90.9394 563.666 91.1688Z" fill="#FF0082"/>
<path d="M563.366 92.1016L562.293 90.2681C562.644 90.062 570.843 85.1287 568.761 76.7133C568.378 75.1688 567.998 73.8324 567.652 72.6171C565.899 66.4708 564.934 63.0821 569.177 51.9749L571.161 52.7312C567.174 63.1798 567.964 65.9545 569.695 72.035C570.048 73.2736 570.435 74.6312 570.824 76.2034C573.288 86.174 563.466 92.0442 563.366 92.1016Z" fill="#00A9FF"/>
<path d="M562.401 93.1111L561.354 91.2627C561.411 91.2309 567.077 87.9505 567.91 82.7496C568.388 79.7561 567.175 76.633 564.305 73.4674C553.321 61.3425 558.641 53.1374 558.872 52.7932L560.633 53.983C560.446 54.2677 556.078 61.2235 565.881 72.0418C569.208 75.713 570.596 79.4331 570.005 83.098C569.002 89.3103 562.671 92.9603 562.401 93.1111Z" fill="#00F646"/>
<path d="M1430.3 352.292C1403.39 345.918 1339.39 363.711 1339.39 363.711C1277.78 376.458 1261.31 357.337 1224.13 335.029C1186.95 312.722 1205.01 318.033 1148.71 285.102C1092.41 252.171 1078.6 232.519 1064.79 215.523C1050.98 198.526 1043.54 185.779 1009.55 149.13C975.557 112.481 908.102 50.3376 908.102 50.3376L901.152 57.2871C901.152 57.2871 968.607 119.431 1002.6 156.079C1036.59 192.728 1044.03 205.476 1057.84 222.472C1071.65 239.469 1085.46 259.121 1141.76 292.052C1198.06 324.982 1180 319.671 1217.18 341.979C1254.36 364.287 1270.83 383.408 1332.44 370.661C1332.44 370.661 1396.44 352.867 1423.35 359.241C1450.26 365.615 1471.51 388.987 1475.05 389.695L1482 382.745C1478.46 382.038 1457.21 358.665 1430.3 352.292Z" fill="#FB003D"/>
<path d="M3.91636 376.19C3.91636 376.19 -3.16482 360.61 9.22778 352.112C21.6204 343.614 27.2866 344.319 29.766 345.029C32.2432 345.738 38.9717 350.695 38.6169 363.442C38.2642 376.19 19.2239 381.949 15.6418 382.255C12.0598 382.563 8.16549 380.794 3.91636 376.19ZM564.846 85.124C564.846 85.124 551.7 85.124 538.421 88.842C525.142 92.56 521.424 106.37 519.3 114.868C517.175 123.366 506.553 192.415 489.025 228.532C471.497 264.65 460.343 266.243 447.596 272.086C434.848 277.928 363.675 275.804 343.492 277.397C323.309 278.991 257.447 295.987 236.202 308.735C214.956 321.482 149.094 361.849 132.098 369.816C115.101 377.783 81.6394 393.186 56.6757 399.56C31.7121 405.933 11.5287 386.281 11.5287 386.281C20.0269 391.062 54.02 377.252 44.4595 353.882C34.8989 330.511 14.1844 337.416 4.62384 342.728C-4.9367 348.039 -12.9038 364.504 4.62384 389.999C22.1515 415.494 58.2691 418.681 128.911 382.563C199.553 346.446 224.516 323.075 285.067 302.892C345.617 282.709 394.482 286.427 415.727 286.427C436.973 286.427 470.435 293.331 494.336 241.811C518.238 190.29 526.736 133.989 530.719 115.93C534.703 97.8714 566.572 96.278 566.572 96.278L564.846 85.124Z" fill="#FB003D"/>
<path d="M554.872 157.35L549.561 124.952L569.214 107.956L576.119 76.0863L554.873 104.237" fill="#3A406A"/>
</svg>
