<svg width="132" height="127" viewBox="0 0 132 127" fill="none" xmlns="http://www.w3.org/2000/svg">
<path d="M44.9095 116.501C62.5851 116.501 76.9136 102.288 76.9136 84.7555C76.9136 67.2234 62.5851 53.0112 44.9095 53.0112C27.2338 53.0112 12.9035 67.2234 12.9035 84.7555C12.9035 102.288 27.2338 116.501 44.9095 116.501Z" fill="url(#paint0_radial)"/>
<path d="M44.9095 116.501C62.5851 116.501 76.9136 102.288 76.9136 84.7555C76.9136 67.2234 62.5851 53.0112 44.9095 53.0112C27.2338 53.0112 12.9035 67.2234 12.9035 84.7555C12.9035 102.288 27.2338 116.501 44.9095 116.501Z" fill="#F3174C" fill-opacity="0.7"/>
<path d="M36.9697 83.0001C44.179 83.0001 50.0231 77.2031 50.0231 70.0524C50.0231 62.9016 44.179 57.105 36.9697 57.105C29.7605 57.105 23.9157 62.9016 23.9157 70.0524C23.9157 77.2031 29.7605 83.0001 36.9697 83.0001Z" fill="#FF0081"/>
<path d="M36.9697 83.0001C44.179 83.0001 50.0231 77.2031 50.0231 70.0524C50.0231 62.9016 44.179 57.105 36.9697 57.105C29.7605 57.105 23.9157 62.9016 23.9157 70.0524C23.9157 77.2031 29.7605 83.0001 36.9697 83.0001Z" fill="#FF0081"/>
<path d="M53.7293 120.906C58.5245 120.906 62.4117 117.05 62.4117 112.294C62.4117 107.537 58.5245 103.682 53.7293 103.682C48.934 103.682 45.0464 107.537 45.0464 112.294C45.0464 117.05 48.934 120.906 53.7293 120.906Z" fill="#FF0081"/>
<path d="M53.7293 120.906C58.5245 120.906 62.4117 117.05 62.4117 112.294C62.4117 107.537 58.5245 103.682 53.7293 103.682C48.934 103.682 45.0464 107.537 45.0464 112.294C45.0464 117.05 48.934 120.906 53.7293 120.906Z" fill="#FF0081"/>
<g filter="url(#filter0_d)">
<path fill-rule="evenodd" clip-rule="evenodd" d="M66.4668 20.793C92.9712 30.0681 112 55.309 112 84.9592C112 122.468 81.549 152.919 44.0401 152.919C41.4208 152.919 38.8369 152.771 36.3025 152.483C101.123 114.85 83.7542 80.1046 71.5992 77.9883C52.5669 74.6745 32.4727 92.0784 23.7268 77.5996C14.7812 62.7903 54.5208 30.2402 66.4668 20.793Z" fill="url(#paint1_linear)"/>
</g>
<path fill-rule="evenodd" clip-rule="evenodd" d="M35.8932 152.445C2.17944 148.449 -24 119.737 -24 84.96C-24 47.4517 6.45173 17 43.96 17C51.517 17 58.7908 18.2364 65.5833 20.5176C50.6639 28.8427 -6.50244 60.8268 -0.82177 86.3769C3.79278 107.131 21.8974 110.709 50.5259 103.367C56.0901 101.939 84.0103 99.2447 35.8932 152.445Z" fill="#F2F3F7"/>
<path fill-rule="evenodd" clip-rule="evenodd" d="M35.8932 152.445C2.17944 148.449 -24 119.737 -24 84.96C-24 47.4517 6.45173 17 43.96 17C51.517 17 58.7908 18.2364 65.5833 20.5176C50.6639 28.8427 -6.50244 60.8268 -0.82177 86.3769C3.79278 107.131 21.8974 110.709 50.5259 103.367C56.0901 101.939 84.0103 99.2447 35.8932 152.445Z" fill="#F2F3F7"/>
<path fill-rule="evenodd" clip-rule="evenodd" d="M35.8932 152.445C2.17944 148.449 -24 119.737 -24 84.96C-24 47.4517 6.45173 17 43.96 17C51.517 17 58.7908 18.2364 65.5833 20.5176C50.6639 28.8427 -6.50244 60.8268 -0.82177 86.3769C3.79278 107.131 21.8974 110.709 50.5259 103.367C56.0901 101.939 84.0103 99.2447 35.8932 152.445Z" fill="url(#paint2_linear)"/>
<defs>
<filter id="filter0_d" x="2.42716" y="0.792969" width="129.573" height="172.126" filterUnits="userSpaceOnUse" color-interpolation-filters="sRGB">
<feFlood flood-opacity="0" result="BackgroundImageFix"/>
<feColorMatrix in="SourceAlpha" type="matrix" values="0 0 0 0 0 0 0 0 0 0 0 0 0 0 0 0 0 0 127 0"/>
<feOffset/>
<feGaussianBlur stdDeviation="10"/>
<feColorMatrix type="matrix" values="0 0 0 0 0 0 0 0 0 0 0 0 0 0 0 0 0 0 0.1 0"/>
<feBlend mode="normal" in2="BackgroundImageFix" result="effect1_dropShadow"/>
<feBlend mode="normal" in="SourceGraphic" in2="effect1_dropShadow" result="shape"/>
</filter>
<radialGradient id="paint0_radial" cx="0" cy="0" r="1" gradientUnits="userSpaceOnUse" gradientTransform="translate(43.6849 84.756) scale(30.7813 31.7447)">
<stop stop-color="#FF2AFC"/>
<stop offset="1" stop-color="#C21325"/>
</radialGradient>
<linearGradient id="paint1_linear" x1="22.4272" y1="86.8562" x2="112" y2="86.8562" gradientUnits="userSpaceOnUse">
<stop stop-color="#35CEF9"/>
<stop offset="1" stop-color="#4028FB"/>
</linearGradient>
<linearGradient id="paint2_linear" x1="-24" y1="85" x2="66" y2="85" gradientUnits="userSpaceOnUse">
<stop stop-color="#DBDEE7"/>
<stop offset="1" stop-color="white"/>
</linearGradient>
</defs>
</svg>
