<svg width="256" height="256" viewBox="0 0 256 256" fill="none" xmlns="http://www.w3.org/2000/svg">
<path d="M129.662 187.419C162.936 187.419 189.909 160.645 189.909 127.618C189.909 94.5919 162.936 67.8193 129.662 67.8193C96.3881 67.8193 69.4119 94.5919 69.4119 127.618C69.4119 160.645 96.3881 187.419 129.662 187.419Z" fill="#F3174C"/>
<path fill-rule="evenodd" clip-rule="evenodd" d="M170.297 7.13965C220.184 24.6094 256 72.1507 256 127.997C256 198.644 198.685 256 128.086 256C123.156 256 118.292 255.721 113.522 255.177C235.527 184.296 202.836 118.853 179.958 114.867C144.135 108.626 106.314 141.406 89.8521 114.135C73.0148 86.2417 147.813 24.9334 170.297 7.13965Z" fill="url(#paint0_linear)"/>
<path fill-rule="evenodd" clip-rule="evenodd" d="M112.731 255.112C49.2749 247.585 0 193.507 0 128.003C0 57.3561 57.3162 0 127.914 0C142.138 0 155.829 2.32872 168.614 6.62549C140.532 22.3059 32.9339 82.5481 43.6261 130.672C52.3116 169.763 86.3881 176.502 140.273 162.673C150.746 159.984 203.297 154.909 112.731 255.112Z" fill="#F2F3F7"/>
<defs>
<linearGradient id="paint0_linear" x1="87.406" y1="131.57" x2="256" y2="131.57" gradientUnits="userSpaceOnUse">
<stop stop-color="#35CEF9"/>
<stop offset="1" stop-color="#4028FB"/>
</linearGradient>
</defs>
</svg>
