<svg width="256" height="256" viewBox="0 0 256 256" fill="none" xmlns="http://www.w3.org/2000/svg">
<path d="M129.662 187.418C162.936 187.418 189.909 160.644 189.909 127.617C189.909 94.5909 162.936 67.8184 129.662 67.8184C96.3884 67.8184 69.4121 94.5909 69.4121 127.617C69.4121 160.644 96.3884 187.418 129.662 187.418Z" fill="#F3174C"/>
<path fill-rule="evenodd" clip-rule="evenodd" d="M170.298 7.14062C220.184 24.6104 256 72.1516 256 127.998C256 198.645 198.685 256.001 128.086 256.001C123.156 256.001 118.849 255.948 114.079 255.404C236.084 184.523 202.836 118.854 179.958 114.868C144.135 108.627 106.314 141.407 89.8524 114.136C73.015 86.2426 147.813 24.9344 170.298 7.14062Z" fill="#305AF5"/>
<path fill-rule="evenodd" clip-rule="evenodd" d="M112.731 255.112C49.2749 247.585 0 193.507 0 128.003C0 57.3561 57.3162 0 127.914 0C142.138 0 155.829 2.32872 168.614 6.62549C144.858 19.6372 39.9027 69.3086 47.9517 128.003C54.5975 164.891 86.3881 176.502 140.273 162.673C150.746 159.984 203.297 154.909 112.731 255.112Z" fill="#F2F3F7"/>
<path fill-rule="evenodd" clip-rule="evenodd" d="M112.731 255.112C49.2749 247.585 0 193.507 0 128.003C0 57.3561 57.3162 0 127.914 0C142.138 0 155.829 2.32872 168.614 6.62549C144.858 19.6372 39.9027 69.3086 47.9517 128.003C54.5975 164.891 86.3881 176.502 140.273 162.673C150.746 159.984 203.297 154.909 112.731 255.112Z" fill="#322F4C"/>
</svg>
