<svg width="146" height="17" viewBox="0 0 146 17" fill="none" xmlns="http://www.w3.org/2000/svg">
<path d="M8.27301 12.1739C10.3993 12.1739 12.123 10.4641 12.123 8.35507C12.123 6.24604 10.3993 4.53638 8.27301 4.53638C6.14672 4.53638 4.42285 6.24604 4.42285 8.35507C4.42285 10.4641 6.14672 12.1739 8.27301 12.1739Z" fill="#FF216D"/>
<path fill-rule="evenodd" clip-rule="evenodd" d="M10.8781 0.658447C14.066 1.77405 16.3547 4.80998 16.3547 8.37624C16.3547 12.8877 12.6921 16.5504 8.18062 16.5504C7.86558 16.5504 7.59034 16.547 7.28551 16.5123C15.082 11.9859 12.9574 7.79235 11.4954 7.5378C9.20622 7.13922 6.78932 9.23253 5.73737 7.49105C4.66141 5.70981 9.44122 1.79474 10.8781 0.658447Z" fill="#1B2BFA"/>
<path fill-rule="evenodd" clip-rule="evenodd" d="M7.20387 16.4894C3.14882 16.0087 0 12.5554 0 8.37238C0 3.86094 3.66269 0.198242 8.17412 0.198242C9.08306 0.198242 9.95795 0.346951 10.7749 0.621338C9.25688 1.45225 2.5499 4.62421 3.06426 8.37238C3.48895 10.728 5.52047 11.4695 8.96386 10.5863C9.63312 10.4146 12.9913 10.0905 7.20387 16.4894Z" fill="#D0D1D4"/>
<path d="M136.631 3.24683H139.665V9.83716C139.665 10.7952 140.26 11.3904 141.218 11.3904C142.176 11.3904 142.771 10.7952 142.771 9.83716V3.24683H145.805V9.95329C145.805 12.3339 144.063 13.8001 141.218 13.8001C138.373 13.8001 136.631 12.3339 136.631 9.95329V3.24683Z" fill="#D0D1D4"/>
<path d="M133.23 13.5533L132.577 11.4484H129.035L128.382 13.5533H125.348L129.006 3.24683H132.606L136.264 13.5533H133.23ZM129.659 9.41619H131.952L131.27 7.1807C131.096 6.61457 130.936 6.13554 130.82 5.35166H130.791C130.675 6.13554 130.515 6.61457 130.341 7.1807L129.659 9.41619Z" fill="#D0D1D4"/>
<path d="M119.992 11.3759H124.477V13.5533H116.958V3.24683H124.376V5.42425H119.992V7.22425H124.129V9.35812H119.992V11.3759Z" fill="#D0D1D4"/>
<path d="M107.451 11.5065L111.951 5.55489H107.669V3.24683H115.493V5.2936L111.037 11.2743H115.725V13.5533H107.451V11.5065Z" fill="#D0D1D4"/>
<path d="M103.758 13.5533L103.104 11.4484H99.5621L98.9089 13.5533H95.875L99.5331 3.24683H103.133L106.791 13.5533H103.758ZM100.186 9.41619H102.48L101.798 7.1807C101.623 6.61457 101.464 6.13554 101.348 5.35166H101.319C101.202 6.13554 101.043 6.61457 100.869 7.1807L100.186 9.41619Z" fill="#D0D1D4"/>
<path d="M92.0462 13.5533L90.3623 9.77909H89.2155V13.5533H86.1816V3.24683H91.1026C93.672 3.24683 95.0655 4.3936 95.0655 6.49844C95.0655 7.81941 94.3687 8.83554 93.2074 9.32909L95.2978 13.5533H92.0462ZM89.2155 5.27908V7.81941H90.4204C91.3784 7.81941 91.901 7.35489 91.901 6.49844C91.901 5.68554 91.4074 5.27908 90.4204 5.27908H89.2155Z" fill="#D0D1D4"/>
<path d="M82.8382 8.15329C84.2317 8.35651 85.0156 9.25651 85.0156 10.621C85.0156 12.4065 83.6656 13.5533 81.4591 13.5533H76.1172V3.24683H81.343C83.4914 3.24683 84.7688 4.19037 84.7688 5.84521C84.7688 6.99199 84.0575 7.84845 82.8382 8.15329ZM80.3269 5.27908H79.1511V7.35489H80.3269C81.0527 7.35489 81.5462 6.99199 81.5462 6.29521C81.5462 5.62747 81.0527 5.27908 80.3269 5.27908ZM80.4575 11.521C81.2994 11.521 81.793 11.071 81.793 10.3597C81.793 9.64845 81.2704 9.24199 80.4575 9.24199H79.1511V11.521H80.4575Z" fill="#D0D1D4"/>
<path d="M61.417 13.5533V3.24683H64.6976L67.4267 8.22587C67.6299 8.6178 67.9202 9.21296 68.0509 9.56135H68.0799V8.26941V3.24683H70.8815V13.5533H67.746L64.8428 8.48716C64.6251 8.05167 64.3783 7.58715 64.2476 7.25328H64.2186V8.6178V13.5533H61.417Z" fill="#D0D1D4"/>
<path d="M59.6735 13.5533H56.6396V3.24683H59.6735V13.5533Z" fill="#D0D1D4"/>
<path d="M55.6917 3.24683V5.62747H52.832V13.5533H49.7982V5.62747H46.9385V3.24683H55.6917Z" fill="#D0D1D4"/>
<path d="M42.0086 13.8C40.0054 13.8 38.2635 13.1178 37.2764 11.9129L39.3231 10.0404C40.0344 10.9839 41.007 11.4775 42.1248 11.4775C43.0393 11.4775 43.6054 11.1581 43.6054 10.621C43.6054 10.0984 43.3151 9.88068 42.357 9.67745L41.0506 9.38713C39.0619 8.95165 38.0602 7.86294 38.0602 6.14999C38.0602 4.19032 39.686 3 42.3135 3C44.0409 3 45.5506 3.5371 46.5812 4.55323L44.8538 6.48387C44.1425 5.7 43.0683 5.22097 42.0812 5.22097C41.2828 5.22097 40.7893 5.49677 40.7893 5.94677C40.7893 6.42581 41.1231 6.65807 42.1828 6.89032L43.6635 7.22419C45.6231 7.65971 46.4796 8.61778 46.4796 10.3452C46.4796 12.4936 44.7812 13.8 42.0086 13.8Z" fill="#D0D1D4"/>
<path d="M27.7881 3.24683H30.822V9.83716C30.822 10.7952 31.4171 11.3904 32.3752 11.3904C33.3333 11.3904 33.9284 10.7952 33.9284 9.83716V3.24683H36.9623V9.95329C36.9623 12.3339 35.2203 13.8001 32.3752 13.8001C29.53 13.8001 27.7881 12.3339 27.7881 9.95329V3.24683Z" fill="#D0D1D4"/>
<path d="M26.3419 10.3452C26.3419 12.5517 25.079 13.7275 22.7129 13.7275C22.1032 13.7275 21.421 13.6694 21 13.5823V11.1872C21.2613 11.2162 21.5661 11.2597 21.8565 11.2597C22.8435 11.2597 23.3081 10.7517 23.3081 9.66296V3.24683H26.3419V10.3452Z" fill="#D0D1D4"/>
</svg>
