<svg width="407" height="46" viewBox="0 0 407 46" fill="none" xmlns="http://www.w3.org/2000/svg">
<path d="M23.0527 33.4201C28.88 33.4201 33.6039 28.7343 33.6039 22.9543C33.6039 17.1743 28.88 12.4888 23.0527 12.4888C17.2254 12.4888 12.501 17.1743 12.501 22.9543C12.501 28.7343 17.2254 33.4201 23.0527 33.4201Z" fill="#F3174C"/>
<path fill-rule="evenodd" clip-rule="evenodd" d="M30.1693 1.86932C38.9061 4.92673 45.1786 13.247 45.1786 23.0206C45.1786 35.3847 35.1409 45.4226 22.7767 45.4226C21.9133 45.4226 21.0615 45.3737 20.2261 45.2786C41.5931 32.8737 35.8678 21.4204 31.8611 20.7228C25.5874 19.6305 18.9637 25.3674 16.0807 20.5947C13.132 15.713 26.2315 4.98343 30.1693 1.86932Z" fill="url(#paint0_linear)"/>
<path fill-rule="evenodd" clip-rule="evenodd" d="M20.0876 45.2671C8.97436 43.9497 0.344727 34.4855 0.344727 23.0216C0.344727 10.6576 10.3826 0.619629 22.7466 0.619629C25.2377 0.619629 27.6354 1.02718 29.8744 1.77916C24.9565 4.5234 6.11252 15.0664 7.98506 23.4887C9.50617 30.33 15.4741 31.5095 24.911 29.0891C26.7452 28.6186 35.9486 27.7303 20.0876 45.2671Z" fill="#F2F3F7"/>
<path d="M49.4004 45.1291H69.7177C74.1516 45.1291 77.9119 44.1074 81.1111 42.0642C84.3102 40.0777 86.6674 37.4101 88.1828 34.1182C89.6982 30.8263 90.4278 27.1371 90.4278 22.9938C90.4278 18.9073 89.6982 15.2181 88.1828 11.9262C86.6674 8.6343 84.3102 5.96671 81.1111 3.92346C77.9119 1.88021 74.1516 0.858582 69.7177 0.858582H49.4004V45.1291ZM60.6254 34.175V11.8694H68.8758C72.1311 11.8694 74.6567 12.8911 76.4527 14.8776C78.1926 16.8641 79.0906 19.5884 79.0906 22.9938C79.0906 26.3992 78.1926 29.1236 76.4527 31.1101C74.6567 33.1533 72.1311 34.175 68.8758 34.175H60.6254Z" fill="#F2F3F7"/>
<path d="M96.4131 45.1291H116.73C121.164 45.1291 124.925 44.1074 128.124 42.0642C131.323 40.0777 133.68 37.4101 135.196 34.1182C136.711 30.8263 137.441 27.1371 137.441 22.9938C137.441 18.9073 136.711 15.2181 135.196 11.9262C133.68 8.6343 131.323 5.96671 128.124 3.92346C124.925 1.88021 121.164 0.858582 116.73 0.858582H96.4131V45.1291ZM107.638 34.175V11.8694H115.888C119.144 11.8694 121.669 12.8911 123.465 14.8776C125.205 16.8641 126.103 19.5884 126.103 22.9938C126.103 26.3992 125.205 29.1236 123.465 31.1101C121.669 33.1533 119.144 34.175 115.888 34.175H107.638Z" fill="#F2F3F7"/>
<path d="M167.237 45.9732C172.401 45.9732 176.61 44.8381 179.809 42.511C183.008 40.2407 184.636 37.0056 184.636 32.8056C184.636 31.5002 184.411 30.1948 184.018 29.0029C183.569 27.811 183.064 26.7326 182.503 25.8812C181.886 25.0299 181.1 24.1217 180.034 23.2704C178.967 22.419 178.069 21.7379 177.283 21.2271C176.498 20.7163 175.431 20.2055 174.14 19.5812L171.11 18.3325L168.247 17.3109C165.441 16.346 163.533 15.5514 162.523 14.9271C161.512 14.3595 161.007 13.6784 161.007 12.8271C161.007 11.9757 161.456 11.2947 162.354 10.6703C163.252 10.1028 164.599 9.81897 166.339 9.81897C168.472 9.81897 170.156 10.273 171.334 11.2379C172.513 12.2028 173.074 13.3379 173.074 14.5298V17.0839H184.018V14.3028C184.018 9.98924 182.335 6.52706 178.967 3.91624C175.6 1.30541 171.334 0 166.115 0C161.063 0 156.966 1.24866 153.767 3.74597C150.568 6.24328 148.996 9.59194 148.996 13.7352C148.996 15.4947 149.333 17.0839 150.063 18.5596C150.792 20.0352 151.634 21.2271 152.588 22.192C153.543 23.1569 154.89 24.1217 156.517 24.9731C158.145 25.8812 159.548 26.5623 160.727 27.0164C161.905 27.4704 163.364 27.9812 165.104 28.6056C167.854 29.5704 169.819 30.365 170.941 31.0461C172.008 31.7272 172.569 32.5218 172.569 33.4299C172.569 34.1677 172.12 34.8488 171.278 35.3596C170.38 35.8705 168.977 36.1542 167.013 36.1542C164.655 36.1542 162.859 35.7002 161.568 34.8488C160.278 33.9975 159.604 33.0894 159.604 32.1245V29.5704H148.604L148.66 31.8407V32.3515C148.66 36.6083 150.4 39.9002 153.879 42.3408C157.359 44.7813 161.793 45.9732 167.237 45.9732Z" fill="#F2F3F7"/>
<path d="M213.352 45.9732C219.75 45.9732 225.251 43.7029 229.797 39.2191C233.613 35.4732 235.746 31.1029 236.363 26.0515H224.914C224.409 28.1515 223.398 29.911 221.827 31.5002C219.526 33.8272 216.72 35.0191 213.352 35.0191C210.041 35.0191 207.234 33.8272 204.933 31.5002C202.632 29.1731 201.453 26.3353 201.453 22.9866C201.453 19.6379 202.632 16.8001 204.933 14.473C207.234 12.146 210.041 10.9541 213.352 10.9541C216.72 10.9541 219.526 12.0893 221.827 14.4163C222.949 15.5514 223.847 16.9136 224.409 18.3893H236.139C235.353 14.019 233.22 10.1028 229.797 6.75409C225.251 2.27028 219.75 0 213.352 0C207.01 0 201.566 2.27028 197.02 6.75409C192.417 11.2379 190.116 16.6866 190.116 22.9866C190.116 29.2866 192.417 34.7353 197.02 39.2191C201.566 43.7029 207.01 45.9732 213.352 45.9732Z" fill="#F2F3F7"/>
<path d="M242.623 45.1291H276.242V34.175H253.848V28.4993H269.619V18.2262H253.848V11.8694H276.242V0.858582H242.623V45.1291Z" fill="#F2F3F7"/>
<path d="M283.355 45.1291H294.58V20.4398L314.112 45.1291H323.597V0.858582H312.428V25.6046L292.897 0.858582H283.355V45.1291Z" fill="#F2F3F7"/>
<path d="M331.247 45.1291H364.866V34.175H342.472V28.4993H358.243V18.2262H342.472V11.8694H364.866V0.858582H331.247V45.1291Z" fill="#F2F3F7"/>
<path d="M388.946 45.9732C394.11 45.9732 398.319 44.8381 401.518 42.511C404.717 40.2407 406.345 37.0056 406.345 32.8056C406.345 31.5002 406.12 30.1948 405.727 29.0029C405.278 27.811 404.773 26.7326 404.212 25.8812C403.595 25.0299 402.809 24.1217 401.743 23.2704C400.676 22.419 399.778 21.7379 398.992 21.2271C398.207 20.7163 397.14 20.2055 395.849 19.5812L392.819 18.3325L389.956 17.3109C387.15 16.346 385.242 15.5514 384.232 14.9271C383.221 14.3595 382.716 13.6784 382.716 12.8271C382.716 11.9757 383.165 11.2947 384.063 10.6703C384.961 10.1028 386.308 9.81897 388.048 9.81897C390.181 9.81897 391.865 10.273 393.043 11.2379C394.222 12.2028 394.783 13.3379 394.783 14.5298V17.0839H405.727V14.3028C405.727 9.98924 404.044 6.52706 400.676 3.91624C397.309 1.30541 393.043 0 387.824 0C382.772 0 378.675 1.24866 375.476 3.74597C372.277 6.24328 370.705 9.59194 370.705 13.7352C370.705 15.4947 371.042 17.0839 371.772 18.5596C372.501 20.0352 373.343 21.2271 374.297 22.192C375.252 23.1569 376.599 24.1217 378.226 24.9731C379.854 25.8812 381.257 26.5623 382.436 27.0164C383.614 27.4704 385.073 27.9812 386.813 28.6056C389.563 29.5704 391.528 30.365 392.65 31.0461C393.717 31.7272 394.278 32.5218 394.278 33.4299C394.278 34.1677 393.829 34.8488 392.987 35.3596C392.089 35.8705 390.686 36.1542 388.722 36.1542C386.364 36.1542 384.568 35.7002 383.277 34.8488C381.987 33.9975 381.313 33.0894 381.313 32.1245V29.5704H370.312L370.369 31.8407V32.3515C370.369 36.6083 372.109 39.9002 375.588 42.3408C379.068 44.7813 383.502 45.9732 388.946 45.9732Z" fill="#F2F3F7"/>
<defs>
<linearGradient id="paint0_linear" x1="15.6523" y1="23.646" x2="45.1786" y2="23.646" gradientUnits="userSpaceOnUse">
<stop stop-color="#35CEF9"/>
<stop offset="1" stop-color="#4028FB"/>
</linearGradient>
</defs>
</svg>
