<svg width="19" height="19" viewBox="0 0 19 19" fill="none" xmlns="http://www.w3.org/2000/svg">
<path fill-rule="evenodd" clip-rule="evenodd" d="M8.16683 15.5C4.11674 15.5 0.833496 12.2168 0.833496 8.16668C0.833496 4.11659 4.11674 0.833344 8.16683 0.833344C12.2169 0.833344 15.5002 4.11659 15.5002 8.16668C15.5002 9.86133 14.9253 11.4217 13.96 12.6635L18.8983 17.6018L17.602 18.8982L12.6637 13.9599C11.4219 14.9252 9.86148 15.5 8.16683 15.5ZM13.6668 8.16668C13.6668 11.2042 11.2044 13.6667 8.16683 13.6667C5.12926 13.6667 2.66683 11.2042 2.66683 8.16668C2.66683 5.12911 5.12926 2.66668 8.16683 2.66668C11.2044 2.66668 13.6668 5.12911 13.6668 8.16668Z" fill="#546A90"/>
</svg>
