<svg width="51" height="50" viewBox="0 0 51 50" fill="none" xmlns="http://www.w3.org/2000/svg">
<path fill-rule="evenodd" clip-rule="evenodd" d="M49.9991 1.5012C49.9991 0.67338 49.3269 0.0012207 48.4991 0.0012207H1.49997C0.672157 0.0012207 0 0.67338 0 1.5012V48.5004C0 49.3282 0.672157 50.0003 1.49997 50.0003H48.4991C49.3269 50.0003 49.9991 49.3282 49.9991 48.5004V1.5012Z" fill="#144E8C"/>
<path fill-rule="evenodd" clip-rule="evenodd" d="M49.9991 1.5012C49.9991 0.67338 49.3269 0.0012207 48.4991 0.0012207H1.49997C0.672157 0.0012207 0 0.67338 0 1.5012V48.5004C0 49.3282 0.672157 50.0003 1.49997 50.0003H48.4991C49.3269 50.0003 49.9991 49.3282 49.9991 48.5004V1.5012Z" fill="#1B72BE"/>
<path fill-rule="evenodd" clip-rule="evenodd" d="M49.9991 1.5012C49.9991 0.67338 49.3269 0.0012207 48.4991 0.0012207H20.4996L0 35.5076V48.5004C0 49.3282 0.672157 50.0003 1.49997 50.0003H48.4991C49.3269 50.0003 49.9991 49.3282 49.9991 48.5004V1.5012Z" fill="#0568AA"/>
<path fill-rule="evenodd" clip-rule="evenodd" d="M23.1171 50.0003H19.6301L10.6234 31.8928L28.175 0.0012207H30.9994L12.6248 31.8271L23.117 50.0003H23.1171ZM32.5629 50.0003H23.8671L13.6205 32.2527H50.0025L49.9991 35.5664L32.5629 50.0003ZM23.9199 0.0012207H20.9996L0 36.3736V41.4318L23.9199 0.0012207ZM28.9925 31.5986H19.1029C17.9485 31.5986 16.8751 30.9947 16.2978 29.9952C16.0143 29.504 15.865 28.9468 15.865 28.3796C15.865 27.8125 16.0143 27.2553 16.2978 26.7641L21.2496 18.1875L28.9925 31.5986ZM49.9991 31.5986H29.7425L21.6245 17.5379L31.7494 0.0012207L35.4179 0.00353062L30.0895 18.1302L32.5629 23.211L49.9991 30.0677V31.5986V31.5986Z" fill="#074F7F"/>
<path fill-rule="evenodd" clip-rule="evenodd" d="M49.9989 49.9989H24.617L14.7457 32.9012H49.9989V49.9989ZM22.367 49.9989H0V37.6716L21.7495 0H30.2493L11.8747 31.826L22.367 49.9989ZM27.8695 30.9515H19.2757C18.3163 30.9515 17.4299 30.4481 16.9502 29.6171C16.7145 29.2089 16.5904 28.7459 16.5904 28.2745C16.5904 27.8032 16.7145 27.3402 16.9502 26.9321C18.8592 23.6255 21.2495 19.4854 21.2495 19.4854L27.8695 30.9515V30.9515ZM49.9989 30.9515H30.1205L22.3745 17.5367L32.4993 0H49.9989V30.9515Z" fill="url(#paint0_radial)"/>
<defs>
<radialGradient id="paint0_radial" cx="0" cy="0" r="1" gradientUnits="userSpaceOnUse" gradientTransform="translate(38.2159 -9.39677) scale(59.3956)">
<stop stop-color="#6BE1FB"/>
<stop offset="1" stop-color="#38BDFA"/>
</radialGradient>
</defs>
</svg>
