<svg width="50" height="50" viewBox="0 0 50 50" fill="none" xmlns="http://www.w3.org/2000/svg">
<path fill-rule="evenodd" clip-rule="evenodd" d="M50.001 1.50024C50.001 0.672414 49.3289 0.000244141 48.501 0.000244141H1.50098C0.673147 0.000244141 0.000976562 0.672414 0.000976562 1.50024V48.5001C0.000976562 49.328 0.673147 50.0001 1.50098 50.0001H48.501C49.3289 50.0001 50.001 49.328 50.001 48.5001V1.50024Z" fill="#7E4DD2"/>
<path fill-rule="evenodd" clip-rule="evenodd" d="M50.001 1.50024C50.001 0.672414 49.3289 0.000244141 48.501 0.000244141H20.501L0.000976562 35.5072V48.5001C0.000976562 49.328 0.673147 50.0001 1.50098 50.0001H48.501C49.3289 50.0001 50.001 49.328 50.001 48.5001V1.50024Z" fill="#7140C2"/>
<path fill-rule="evenodd" clip-rule="evenodd" d="M1.3825 49.9999H0.00750123L0 37.672L10.875 18.836H19.375L1.3825 49.9999V49.9999ZM50.0005 32.9V49.9999L32.6175 49.9999L22.745 32.9H50.0005ZM30.3675 49.9999H3.6175L17 26.8467L30.3675 49.9999V49.9999ZM50.0005 30.95H30.631L48.5 0H50L50.0005 30.95ZM27.1485 18.8008C27.889 18.8039 28.5975 19.2391 28.9805 19.8841C28.9845 19.8906 28.992 19.9038 28.992 19.9038L31.2395 23.7969C31.2395 23.7969 31.2525 23.8187 31.2585 23.8292C31.626 24.4718 31.64 25.2816 31.273 25.936C30.5195 27.2542 29.7545 28.5661 28.9955 29.8811C28.6225 30.5207 27.9165 30.9379 27.1665 30.9473C25.735 30.9533 22.865 30.95 22.861 30.95C22.1205 30.9469 21.4005 30.5518 21.0175 29.9069C21.009 29.8929 20.9925 29.8644 20.9925 29.8644C20.9925 29.8644 18.7445 25.9708 18.7395 25.9617C18.372 25.3191 18.3725 24.4888 18.7395 23.8344L18.756 23.8056C18.756 23.8056 20.2605 21.1948 21.014 19.8893C21.387 19.2498 22.094 18.8098 22.844 18.8004C22.8565 18.8003 22.8815 18.7998 22.8815 18.7998L27.123 18.8008H27.1485V18.8008ZM21.75 0H46.25L33 22.9496L20.75 1.73205L21.75 0V0ZM27.25 16.8875H12L19.625 3.68059L27.25 16.8875Z" fill="url(#paint0_radial)"/>
<defs>
<radialGradient id="paint0_radial" cx="0" cy="0" r="1" gradientUnits="userSpaceOnUse" gradientTransform="translate(38.217 -9.39703) scale(59.3971 59.3969)">
<stop stop-color="#F9A6FF"/>
<stop offset="1" stop-color="#EA73FF"/>
</radialGradient>
</defs>
</svg>
