<svg width="51" height="50" viewBox="0 0 51 50" fill="none" xmlns="http://www.w3.org/2000/svg">
<path d="M23.7618 0.0219081C23.6657 0.0262795 23.3028 0.0568792 22.9531 0.0831075C18.5817 0.40659 14.1491 2.024 10.5165 4.62061C9.31439 5.4774 8.3658 6.28174 7.30792 7.33961C1.22732 13.4246 -1.27749 22.1324 0.624068 30.591C1.40217 34.0619 3.0633 37.5547 5.26648 40.3611C8.72425 44.7718 13.4628 47.8799 18.7784 49.2263C20.9423 49.7771 22.7389 50 25.0077 50C27.2458 50 28.8938 49.7989 31.0271 49.2787C34.0914 48.5268 36.7842 47.2897 39.477 45.4057C42.0561 43.5959 44.456 41.0605 46.1783 38.3284C48.399 34.7963 49.6623 30.897 49.9727 26.6174C50.0382 25.7169 49.9989 23.4875 49.9027 22.5695C49.7104 20.7467 49.2208 18.3424 48.9367 17.8397C48.823 17.643 48.5039 17.3894 48.2678 17.3064C48.1848 17.2802 48.0012 17.2583 47.8526 17.2583C47.1968 17.2583 46.6461 17.8047 46.6461 18.4473C46.6461 18.6003 46.716 18.9675 46.8165 19.3653C47.6821 22.7313 47.752 26.4295 47.0132 29.8042C46.069 34.1275 43.962 37.9393 40.784 41.0649C39.3021 42.5206 37.8727 43.5959 36.0236 44.6538C31.709 47.1236 26.3453 48.0591 21.3139 47.2198C17.4933 46.5859 14.1754 45.1172 11.0236 42.6648C9.5417 41.5108 7.73632 39.6092 6.61724 38.018C4.68509 35.2728 3.46984 32.3789 2.84036 29.0173C2.52125 27.3037 2.41197 25.0306 2.56059 23.1815C2.78791 20.3751 3.4917 17.7697 4.68509 15.2999C5.23588 14.1502 5.57685 13.5514 6.23693 12.5591C7.58332 10.522 9.36685 8.61606 11.3383 7.10356C13.6508 5.3244 16.396 3.97364 19.1719 3.24799C20.6713 2.85457 21.869 2.65786 23.3903 2.54857C28.8938 2.15515 34.2444 3.73759 38.6027 7.05547C38.9262 7.30027 39.2671 7.56693 39.3589 7.64998L39.5251 7.79424L39.4595 7.97784C39.1229 8.92206 39.3721 10.098 40.0802 10.9198C40.443 11.3394 41.0988 11.7329 41.6539 11.864C42.0342 11.9558 42.6943 11.9558 43.079 11.864C44.0538 11.6323 44.9631 10.7974 45.2516 9.87065C45.5751 8.83463 45.3871 7.81172 44.7226 6.98116C43.9882 6.06317 42.7249 5.65226 41.5578 5.95825L41.3042 6.02383L40.9458 5.72657C39.4901 4.50695 37.7284 3.37914 35.8749 2.483C32.8674 1.02733 29.8468 0.244849 26.4065 0.0350222C25.7464 -0.00432027 24.1859 -0.013063 23.7618 0.0219081V0.0219081Z" fill="#9C67FD"/>
<path d="M21.1736 14.4038C20.7102 15.6015 19.7048 18.2244 18.931 20.2308C18.1573 22.2373 16.5705 26.3595 15.4033 29.3889C14.2405 32.4183 13.2745 34.91 13.2657 34.9275C13.2526 34.9493 14.481 34.9624 15.9891 34.9624H18.7387L18.9004 34.5122C18.9922 34.2674 19.3157 33.4018 19.6174 32.5888L20.1682 31.1156H24.2947C27.582 31.1156 28.4213 31.1025 28.4082 31.0588C28.3645 30.9407 27.6913 29.0173 27.3329 27.9901L26.9482 26.8972L24.2161 26.8754L21.4883 26.8535L23.2631 21.9619C24.3297 19.0243 25.051 17.1009 25.0641 17.1446C25.0816 17.184 25.7898 19.1992 26.6422 21.6209C27.4946 24.0427 28.9022 28.0294 29.7677 30.4818L31.3371 34.9406L34.0735 34.9537C35.5773 34.9581 36.81 34.9537 36.81 34.9449C36.81 34.9362 36.4559 34.0051 36.0188 32.8816C35.5817 31.7538 34.6462 29.3277 33.938 27.4874C33.2299 25.647 32.4343 23.5837 32.1676 22.8974C31.9053 22.2111 31.4463 21.0221 31.1491 20.2527C30.8518 19.4833 30.0781 17.4681 29.4224 15.772C28.7667 14.0759 28.194 12.5853 28.1459 12.4585L28.0629 12.2312H22.0085L21.1736 14.4038Z" fill="#9C67FD"/>
</svg>
