<svg width="54" height="33" viewBox="0 0 54 33" fill="none" xmlns="http://www.w3.org/2000/svg">
<path d="M15.2174 11.7278C15.2174 12.3923 15.2892 12.9311 15.4149 13.3262C15.5586 13.7213 15.7382 14.1524 15.9897 14.6193C16.0795 14.763 16.1154 14.9067 16.1154 15.0324C16.1154 15.212 16.0076 15.3916 15.7741 15.5712L14.6427 16.3255C14.481 16.4333 14.3194 16.4871 14.1757 16.4871C13.9961 16.4871 13.8165 16.3973 13.6369 16.2357C13.3855 15.9663 13.17 15.6789 12.9904 15.3916C12.8108 15.0863 12.6312 14.745 12.4336 14.332C11.0327 15.9843 9.27268 16.8104 7.15342 16.8104C5.64479 16.8104 4.44148 16.3794 3.56145 15.5173C2.68142 14.6552 2.23242 13.5058 2.23242 12.069C2.23242 10.5424 2.77122 9.3032 3.86677 8.36929C4.96232 7.43537 6.41706 6.96842 8.26693 6.96842C8.87756 6.96842 9.50616 7.0223 10.1707 7.1121C10.8352 7.2019 11.5177 7.34558 12.2361 7.50721V6.19615C12.2361 4.8312 11.9487 3.87933 11.3919 3.32257C10.8172 2.76582 9.84739 2.49642 8.46449 2.49642C7.83589 2.49642 7.18934 2.56826 6.52482 2.7299C5.86031 2.89153 5.21376 3.08909 4.58516 3.34053C4.2978 3.46625 4.08229 3.53809 3.95657 3.57401C3.83085 3.60993 3.74105 3.62789 3.66921 3.62789C3.41777 3.62789 3.29205 3.44829 3.29205 3.07113V2.1911C3.29205 1.90374 3.32797 1.68823 3.41777 1.56251C3.50757 1.43679 3.66921 1.31107 3.92065 1.18535C4.54924 0.862072 5.30356 0.592675 6.18359 0.377157C7.06362 0.143679 7.99753 0.0359197 8.98532 0.0359197C11.1225 0.0359197 12.685 0.520835 13.6908 1.49067C14.6786 2.4605 15.1815 3.93321 15.1815 5.90879V11.7278H15.2174ZM7.92569 14.4577C8.51837 14.4577 9.129 14.3499 9.77556 14.1344C10.4221 13.9189 10.9968 13.5238 11.4817 12.985C11.7691 12.6437 11.9846 12.2666 12.0924 11.8355C12.2001 11.4045 12.272 10.8837 12.272 10.273V9.51872C11.7511 9.393 11.1944 9.28524 10.6197 9.2134C10.045 9.14156 9.4882 9.10564 8.93144 9.10564C7.72813 9.10564 6.8481 9.33912 6.25543 9.82403C5.66275 10.3089 5.37539 10.9914 5.37539 11.8894C5.37539 12.7335 5.59091 13.3621 6.03991 13.7932C6.47094 14.2422 7.09954 14.4577 7.92569 14.4577V14.4577ZM22.3474 16.3973C22.0242 16.3973 21.8086 16.3435 21.665 16.2177C21.5213 16.11 21.3956 15.8585 21.2878 15.5173L17.0673 1.63435C16.9595 1.27515 16.9056 1.04167 16.9056 0.915952C16.9056 0.628594 17.0493 0.466956 17.3366 0.466956H19.0967C19.438 0.466956 19.6714 0.520835 19.7971 0.646554C19.9408 0.754313 20.0486 1.00575 20.1563 1.34699L23.1736 13.2364L25.9753 1.34699C26.0651 0.987791 26.1729 0.754313 26.3166 0.646554C26.4602 0.538795 26.7117 0.466956 27.035 0.466956H28.4718C28.813 0.466956 29.0465 0.520835 29.1901 0.646554C29.3338 0.754313 29.4595 1.00575 29.5314 1.34699L32.369 13.3801L35.4761 1.34699C35.5838 0.987791 35.7096 0.754313 35.8353 0.646554C35.979 0.538795 36.2124 0.466956 36.5357 0.466956H38.206C38.4933 0.466956 38.655 0.610635 38.655 0.915952C38.655 1.00575 38.637 1.09555 38.6191 1.20331C38.6011 1.31107 38.5652 1.45475 38.4933 1.65231L34.165 15.5353C34.0573 15.8945 33.9315 16.1279 33.7879 16.2357C33.6442 16.3435 33.4107 16.4153 33.1054 16.4153H31.5608C31.2196 16.4153 30.9861 16.3614 30.8425 16.2357C30.6988 16.11 30.5731 15.8765 30.5012 15.5173L27.7174 3.93321L24.9516 15.4993C24.8618 15.8585 24.7541 16.092 24.6104 16.2177C24.4667 16.3435 24.2153 16.3973 23.892 16.3973H22.3474V16.3973ZM45.4258 16.8823C44.4919 16.8823 43.558 16.7745 42.66 16.559C41.762 16.3435 41.0616 16.11 40.5946 15.8406C40.3073 15.6789 40.1097 15.4993 40.0379 15.3377C39.9661 15.1761 39.9301 14.9965 39.9301 14.8348V13.9189C39.9301 13.5417 40.0738 13.3621 40.3432 13.3621C40.451 13.3621 40.5587 13.3801 40.6665 13.416C40.7742 13.4519 40.9359 13.5238 41.1155 13.5956C41.7261 13.865 42.3906 14.0805 43.0911 14.2242C43.8095 14.3679 44.5099 14.4397 45.2283 14.4397C46.3598 14.4397 47.2398 14.2422 47.8504 13.847C48.4611 13.4519 48.7843 12.8772 48.7843 12.1409C48.7843 11.638 48.6227 11.2249 48.2994 10.8837C47.9761 10.5424 47.3655 10.2371 46.4855 9.94975L43.8813 9.14156C42.5702 8.72848 41.6004 8.11785 41.0077 7.30966C40.415 6.51942 40.1097 5.63939 40.1097 4.70548C40.1097 3.95117 40.2714 3.28665 40.5946 2.71194C40.9179 2.13722 41.349 1.63435 41.8878 1.23923C42.4265 0.826153 43.0372 0.520835 43.7556 0.305317C44.474 0.0897992 45.2283 0 46.0185 0C46.4136 0 46.8267 0.0179598 47.2218 0.0718394C47.6349 0.125719 48.0121 0.197558 48.3892 0.269398C48.7484 0.359197 49.0897 0.448996 49.4129 0.556755C49.7362 0.664514 49.9876 0.772273 50.1672 0.880032C50.4187 1.02371 50.5983 1.16739 50.706 1.32903C50.8138 1.47271 50.8677 1.67027 50.8677 1.9217V2.76582C50.8677 3.14297 50.724 3.34053 50.4546 3.34053C50.3109 3.34053 50.0774 3.26869 49.7721 3.12501C48.7484 2.65806 47.599 2.42458 46.3238 2.42458C45.3001 2.42458 44.4919 2.58622 43.9352 2.92745C43.3784 3.26869 43.0911 3.78953 43.0911 4.52588C43.0911 5.02876 43.2707 5.45979 43.6299 5.80103C43.9891 6.14227 44.6536 6.4835 45.6054 6.78882L48.1557 7.59701C49.4488 8.01009 50.3828 8.5848 50.9395 9.32116C51.4963 10.0575 51.7657 10.9016 51.7657 11.8355C51.7657 12.6078 51.604 13.3082 51.2987 13.9189C50.9754 14.5295 50.5444 15.0683 49.9876 15.4993C49.4309 15.9483 48.7664 16.2716 47.9941 16.5051C47.1859 16.7565 46.3418 16.8823 45.4258 16.8823V16.8823Z" fill="#FFFFFE"/>
<path d="M48.8206 25.6106C42.9118 29.9748 34.327 32.2917 26.9455 32.2917C16.6006 32.2917 7.27949 28.4662 0.239228 22.1084C-0.317527 21.6056 0.185349 20.9231 0.849863 21.3182C8.46484 25.7363 17.8578 28.4123 27.5741 28.4123C34.1295 28.4123 41.3314 27.0474 47.9585 24.2457C48.9463 23.7967 49.7904 24.8922 48.8206 25.6106Z" fill="#EC912D"/>
<path d="M51.2808 22.8092C50.5264 21.8394 46.2879 22.3423 44.3662 22.5758C43.7915 22.6476 43.7017 22.1447 44.2225 21.7676C47.599 19.3969 53.1486 20.0793 53.7951 20.8696C54.4417 21.6778 53.6155 27.2274 50.4546 29.8854C49.9697 30.2985 49.5027 30.083 49.7183 29.5442C50.4366 27.7662 52.0351 23.7611 51.2808 22.8092V22.8092Z" fill="#EC912D"/>
</svg>
