<svg width="44" height="50" viewBox="0 0 44 50" fill="none" xmlns="http://www.w3.org/2000/svg">
<path d="M40.678 10.2119L24.9153 0.847458C23.983 0.29661 22.9237 0 21.8644 0C20.8051 0 19.7458 0.29661 18.8136 0.847458L3.05085 10.2119C1.18644 11.3136 0 13.3898 0 15.6356V34.3644C0 36.6102 1.14407 38.6441 3.05085 39.7881L18.8136 49.1525C19.7458 49.7034 20.8051 50 21.8644 50C22.9237 50 23.983 49.7034 24.9153 49.1525L40.678 39.7881C42.5424 38.6864 43.7288 36.6102 43.7288 34.3644V15.5932C43.7288 13.3898 42.5847 11.3136 40.678 10.2119ZM19.3644 48.1356L3.60169 38.7712C2.07627 37.839 1.1017 36.1441 1.1017 34.322V15.5932C1.1017 13.7712 2.07627 12.0339 3.60169 11.1441L19.3644 1.77966C20.1271 1.31356 20.9746 1.10169 21.8644 1.10169C22.7542 1.10169 23.6017 1.35593 24.3644 1.77966L40.1271 11.1441C41.4407 11.9068 42.2881 13.2627 42.5424 14.7458C42.0339 13.6441 40.8475 13.3051 39.4492 14.1102L24.5763 23.3475C22.7119 24.4492 21.3559 25.6356 21.3559 27.8814V46.2712C21.3559 47.6271 21.9068 48.4746 22.7119 48.7288C22.4576 48.7712 22.161 48.8136 21.8644 48.8136C21.0169 48.8559 20.1271 48.6017 19.3644 48.1356Z" fill="white"/>
<path d="M36.5682 36.1441L32.6275 38.4746C32.5428 38.5169 32.458 38.6017 32.458 38.7288V39.7458C32.458 39.8729 32.5428 39.9153 32.6275 39.8729L36.6106 37.4576C36.6953 37.4152 36.7377 37.2881 36.7377 37.161V36.2712C36.7377 36.1441 36.6529 36.1017 36.5682 36.1441Z" fill="#4DA925"/>
<path d="M28.1779 27.4998C28.305 27.4151 28.3897 27.4998 28.4321 27.6693V29.0252C28.983 28.8134 29.4914 28.7286 29.9575 28.8557C30.0423 28.8981 30.0847 29.0252 30.0423 29.1523L29.7457 30.3388C29.7033 30.4235 29.6609 30.5083 29.6186 30.593C29.5762 30.6354 29.5762 30.6354 29.5338 30.6354C29.4914 30.6354 29.4491 30.6778 29.4067 30.6354C29.1948 30.593 28.7287 30.4659 27.966 30.8896C27.1609 31.3134 26.8643 31.9913 26.9067 32.4998C26.9067 33.1354 27.2457 33.3049 28.305 33.3049C29.7457 33.3473 30.3813 33.9829 30.4236 35.4235C30.4236 36.8642 29.6609 38.432 28.4745 39.3642L28.5169 40.7201C28.5169 40.8896 28.4321 41.0591 28.305 41.1439L27.4999 41.61C27.3728 41.6947 27.288 41.61 27.2457 41.4405V40.1269C26.5677 40.4235 25.8897 40.4659 25.4236 40.2964C25.3389 40.254 25.2965 40.1269 25.3389 39.9998L25.6355 38.771C25.6779 38.6862 25.7202 38.5591 25.7626 38.5167C25.805 38.4744 25.805 38.4744 25.8474 38.4744C25.8897 38.432 25.9321 38.432 25.9745 38.4744C26.4406 38.6439 27.0762 38.5591 27.627 38.2625C28.3897 37.8812 28.8558 37.1184 28.8558 36.3557C28.8558 35.6778 28.4745 35.3812 27.5847 35.3812C26.4406 35.3812 25.3813 35.1693 25.3389 33.4744C25.3389 32.0761 26.0592 30.6354 27.2033 29.7456V28.3896C27.2033 28.2201 27.288 28.0506 27.4152 27.9659L28.1779 27.4998Z" fill="#2A3238"/>
</svg>
