<svg width="50" height="48" viewBox="0 0 50 48" fill="none" xmlns="http://www.w3.org/2000/svg">
<path d="M49.922 34.3117C49.9445 34.0939 49.9605 33.8741 49.973 33.6531C49.9882 33.3915 34.2331 18.4431 34.2331 18.4431H33.8564C33.8564 18.4431 49.8257 35.2874 49.922 34.3115V34.3117Z" fill="url(#paint0_linear)"/>
<path d="M16.3086 29.1263C16.2877 29.1722 16.267 29.2181 16.2455 29.2639C16.2232 29.3119 16.2002 29.3598 16.1773 29.4073C15.6752 30.4545 23.2083 37.8188 23.8142 36.9241C23.8417 36.8847 23.8695 36.8429 23.897 36.8034C23.9277 36.7565 23.958 36.7116 23.9883 36.6647C24.4728 35.9291 16.5237 28.648 16.3086 29.1263V29.1263Z" fill="url(#paint1_linear)"/>
<path d="M26.9531 39.4822C26.9318 39.5291 26.7802 39.7854 26.6417 39.9208C26.6182 39.9677 33.9956 47.2841 33.9956 47.2841H34.6599C34.6603 47.2841 27.7346 39.7915 26.9531 39.4822V39.4822Z" fill="url(#paint2_linear)"/>
<path d="M49.984 33.5207C49.639 41.1691 43.3115 47.2846 35.5809 47.2846H34.5356L26.8155 39.679C27.4505 38.7834 28.0409 37.8555 28.5665 36.888H35.5809C37.7992 36.888 39.6045 35.0837 39.6045 32.8643C39.6045 30.6458 37.7992 28.8405 35.5809 28.8405H31.4299C31.7462 27.1687 31.9191 25.4447 31.9191 23.681C31.9191 21.8904 31.7431 20.142 31.4155 18.4434H33.9938L49.9385 34.1543C49.9574 33.9437 49.9725 33.7333 49.984 33.5207V33.5207ZM4.19413 0.000488281H0V10.397H4.19413C11.5194 10.397 17.4797 16.3558 17.4797 23.681C17.4797 25.6739 17.0352 27.5657 16.2453 29.2641L23.8968 36.8036C26.4092 33.0446 27.8778 28.5316 27.8778 23.681C27.8778 10.6237 17.2531 0.000488281 4.19413 0.000488281Z" fill="url(#paint3_linear)"/>
<path d="M35.5813 0H18.5977C22.7459 2.53266 26.1808 6.12386 28.5212 10.3965H35.5813C37.7996 10.3965 39.6049 12.2008 39.6049 14.4203C39.6049 16.6392 37.7996 18.4435 35.5813 18.4435H33.9948L49.9395 34.1542C49.977 33.7281 50.0004 33.2993 50.0004 32.8638C50.0004 29.3589 48.7428 26.1438 46.6546 23.6415C48.7428 21.1403 50.0004 17.9246 50.0004 14.4203C50.0004 6.46929 43.5327 0 35.5813 0Z" fill="url(#paint4_linear)"/>
<path d="M34.5356 47.2842H18.7186C21.9024 45.3179 24.6549 42.7221 26.8155 39.6786L34.5356 47.2842V47.2842ZM23.8968 36.8032L16.2459 29.2637C14.1321 33.8064 9.52594 36.9658 4.19413 36.9658H0V47.3613H4.19413C12.4019 47.3613 19.6464 43.1631 23.8968 36.8032V36.8032Z" fill="url(#paint5_linear)"/>
<defs>
<linearGradient id="paint0_linear" x1="20.5382" y1="3.67614" x2="50.1664" y2="35.6964" gradientUnits="userSpaceOnUse">
<stop stop-color="#F9A03C"/>
<stop offset="1" stop-color="#F7974E"/>
</linearGradient>
<linearGradient id="paint1_linear" x1="-4.18831" y1="9.44617" x2="23.959" y2="36.7615" gradientUnits="userSpaceOnUse">
<stop stop-color="#F9A03C"/>
<stop offset="1" stop-color="#F7974E"/>
</linearGradient>
<linearGradient id="paint2_linear" x1="8.74777" y1="19.0436" x2="33.394" y2="48.084" gradientUnits="userSpaceOnUse">
<stop stop-color="#F9A03C"/>
<stop offset="1" stop-color="#F7974E"/>
</linearGradient>
<linearGradient id="paint3_linear" x1="5.66769" y1="-0.861028" x2="38.7648" y2="45.3226" gradientUnits="userSpaceOnUse">
<stop stop-color="#F26D58"/>
<stop offset="1" stop-color="#F9A03C"/>
</linearGradient>
<linearGradient id="paint4_linear" x1="23.5731" y1="1.31767" x2="57.9223" y2="22.0697" gradientUnits="userSpaceOnUse">
<stop stop-color="#B84E51"/>
<stop offset="1" stop-color="#F68E48"/>
</linearGradient>
<linearGradient id="paint5_linear" x1="16.2262" y1="33.5105" x2="16.6912" y2="55.9634" gradientUnits="userSpaceOnUse">
<stop stop-color="#F9A03C"/>
<stop offset="1" stop-color="#F7974E"/>
</linearGradient>
</defs>
</svg>
