<svg width="47" height="50" viewBox="0 0 47 50" fill="none" xmlns="http://www.w3.org/2000/svg">
<path d="M16.2736 10.7471C9.73958 9.55699 4.57325 10.8029 2.51429 14.3687C0.977922 17.0298 1.41652 20.5584 3.57872 24.3301C3.66715 24.4844 3.81324 24.5972 3.98484 24.6437C4.15644 24.6902 4.33949 24.6667 4.49374 24.5783C4.64799 24.4898 4.76079 24.3437 4.80733 24.1721C4.85386 24.0005 4.83033 23.8175 4.74189 23.6632C2.79386 20.266 2.41426 17.2209 3.6749 15.0388C5.38504 12.0764 9.99286 10.9651 16.0332 12.0655C16.1204 12.0827 16.2101 12.0825 16.2972 12.0648C16.3843 12.047 16.467 12.0121 16.5405 11.9621C16.614 11.9121 16.6768 11.848 16.7252 11.7735C16.7737 11.699 16.8068 11.6155 16.8227 11.5281C16.8387 11.4406 16.837 11.3509 16.8179 11.2641C16.7988 11.1773 16.7626 11.0952 16.7114 11.0225C16.6603 10.9498 16.5951 10.888 16.5199 10.8407C16.4446 10.7935 16.3607 10.7616 16.273 10.7471H16.2736ZM6.97655 28.9142C9.61839 31.8177 13.0508 34.5409 16.9655 36.8012C26.4434 42.2734 36.5337 43.7361 41.5064 40.3453C41.6517 40.2446 41.7514 40.0905 41.7837 39.9166C41.816 39.7427 41.7782 39.5632 41.6786 39.417C41.579 39.2709 41.4257 39.17 41.252 39.1365C41.0784 39.1029 40.8985 39.1394 40.7516 39.2379C36.3009 42.2728 26.7159 40.8833 17.6356 35.6406C13.8376 33.4476 10.5142 30.8109 7.96788 28.0126C7.90914 27.9459 7.8377 27.8915 7.75772 27.8527C7.67775 27.8138 7.59085 27.7913 7.50208 27.7863C7.4133 27.7814 7.32444 27.7942 7.24065 27.824C7.15687 27.8537 7.07985 27.8998 7.01407 27.9597C6.94829 28.0195 6.89508 28.0918 6.85753 28.1724C6.81998 28.253 6.79884 28.3402 6.79535 28.4291C6.79186 28.5179 6.80608 28.6066 6.83719 28.6899C6.8683 28.7731 6.91567 28.8494 6.97655 28.9142Z" fill="#4FD1E8"/>
<path d="M39.9206 28.0989C44.1989 23.0448 45.6929 17.9612 43.6384 14.4024C42.1264 11.7836 38.9299 10.4012 34.6825 10.346C34.5945 10.3448 34.5071 10.361 34.4254 10.3936C34.3436 10.4262 34.2691 10.4745 34.206 10.5359C34.143 10.5973 34.0926 10.6705 34.0579 10.7514C34.0231 10.8322 34.0046 10.9191 34.0034 11.0071C34.0023 11.0951 34.0184 11.1825 34.051 11.2642C34.0836 11.346 34.132 11.4205 34.1933 11.4836C34.2547 11.5466 34.3279 11.597 34.4088 11.6317C34.4896 11.6665 34.5765 11.685 34.6645 11.6862C38.4849 11.7355 41.239 12.9269 42.4778 15.0725C44.1841 18.0285 42.8523 22.5619 38.8979 27.2332C38.8391 27.3001 38.7942 27.378 38.7658 27.4625C38.7375 27.5469 38.7262 27.6362 38.7328 27.725C38.7393 27.8138 38.7635 27.9004 38.8039 27.9798C38.8443 28.0592 38.9001 28.1297 38.9681 28.1872C39.0361 28.2448 39.1149 28.2882 39.1998 28.3149C39.2848 28.3417 39.3742 28.3512 39.4629 28.343C39.5516 28.3348 39.6378 28.3089 39.7164 28.267C39.7949 28.2251 39.8644 28.1679 39.9206 28.0989V28.0989ZM28.9256 10.9699C25.0571 11.799 20.9398 13.4194 16.986 15.7021C7.201 21.3513 0.818273 29.6808 1.70508 35.7211C1.71571 35.81 1.74404 35.8958 1.7884 35.9736C1.83276 36.0513 1.89225 36.1194 1.96336 36.1738C2.03447 36.2282 2.11575 36.2678 2.20241 36.2902C2.28908 36.3127 2.37936 36.3175 2.46792 36.3045C2.55649 36.2915 2.64155 36.2608 2.71808 36.2144C2.79461 36.1679 2.86106 36.1066 2.9135 36.0341C2.96594 35.9615 3.00331 35.8792 3.0234 35.792C3.0435 35.7047 3.04591 35.6143 3.03049 35.5262C2.24371 30.1636 8.29364 22.2676 17.6555 16.8627C21.4913 14.648 25.4784 13.0795 29.2065 12.2799C29.3766 12.2392 29.5242 12.1336 29.6175 11.9856C29.7108 11.8375 29.7425 11.6589 29.7058 11.4878C29.6691 11.3167 29.567 11.1667 29.4212 11.0699C29.2754 10.9732 29.0975 10.9373 28.9256 10.9699Z" fill="#4FD1E8"/>
<path d="M13.0739 39.9087C15.3117 46.1542 18.9705 50.0002 23.0859 50.0002C26.0868 50.0002 28.8633 47.9547 31.0287 44.353C31.0773 44.2776 31.1102 44.1931 31.1256 44.1047C31.1409 44.0163 31.1384 43.9258 31.118 43.8384C31.0977 43.751 31.0601 43.6686 31.0073 43.596C30.9545 43.5235 30.8877 43.4622 30.8108 43.416C30.734 43.3697 30.6486 43.3394 30.5598 43.3268C30.4709 43.3141 30.3805 43.3195 30.2938 43.3424C30.207 43.3654 30.1258 43.4056 30.0549 43.4605C29.984 43.5155 29.9248 43.5841 29.8809 43.6624C27.9348 46.8993 25.5444 48.6607 23.0859 48.6607C19.6682 48.6607 16.4037 45.2302 14.3358 39.4566C14.3075 39.372 14.2626 39.2939 14.2037 39.2269C14.1449 39.1599 14.0732 39.1053 13.9929 39.0664C13.9127 39.0274 13.8255 39.0049 13.7364 39.0001C13.6474 38.9953 13.5582 39.0083 13.4743 39.0384C13.3903 39.0685 13.3132 39.1151 13.2474 39.1753C13.1817 39.2356 13.1287 39.3084 13.0914 39.3895C13.0542 39.4706 13.0335 39.5582 13.0306 39.6474C13.0277 39.7365 13.0426 39.8254 13.0745 39.9087H13.0739ZM33.5071 38.6865C34.6651 34.9867 35.2864 30.7174 35.2864 26.2686C35.2864 15.169 31.4019 5.60009 25.8682 3.14293C25.7063 3.0738 25.5236 3.07117 25.3598 3.13561C25.196 3.20005 25.0641 3.32638 24.9926 3.48728C24.9212 3.64819 24.916 3.83075 24.978 3.99549C25.0401 4.16023 25.1646 4.29392 25.3244 4.36766C30.2599 6.55936 33.9469 15.6403 33.9469 26.2686C33.9469 30.584 33.3442 34.7186 32.2285 38.2864C32.1996 38.371 32.1881 38.4605 32.1944 38.5497C32.2007 38.6389 32.2248 38.7259 32.2653 38.8056C32.3057 38.8853 32.3617 38.9561 32.43 39.0139C32.4982 39.0716 32.5774 39.1151 32.6627 39.1418C32.748 39.1685 32.8378 39.1779 32.9268 39.1693C33.0157 39.1608 33.1021 39.1345 33.1808 39.0921C33.2595 39.0497 33.3289 38.9919 33.3849 38.9223C33.441 38.8526 33.4825 38.7725 33.5071 38.6865V38.6865ZM46.1257 38.0305C46.1257 37.1801 45.7878 36.3644 45.1864 35.763C44.585 35.1616 43.7694 34.8238 42.9189 34.8238C42.0684 34.8238 41.2528 35.1616 40.6514 35.763C40.05 36.3644 39.7122 37.1801 39.7122 38.0305C39.7122 38.881 40.05 39.6967 40.6514 40.298C41.2528 40.8994 42.0684 41.2373 42.9189 41.2373C43.7694 41.2373 44.585 40.8994 45.1864 40.298C45.7878 39.6967 46.1257 38.881 46.1257 38.0305ZM44.7855 38.0305C44.7855 38.5256 44.5889 39.0004 44.2388 39.3504C43.8887 39.7005 43.414 39.8971 42.9189 39.8971C42.4239 39.8971 41.9491 39.7005 41.599 39.3504C41.249 39.0004 41.0523 38.5256 41.0523 38.0305C41.0523 37.5355 41.249 37.0607 41.599 36.7107C41.9491 36.3606 42.4239 36.1639 42.9189 36.1639C43.414 36.1639 43.8887 36.3606 44.2388 36.7107C44.5889 37.0607 44.7855 37.5355 44.7855 38.0305ZM3.20675 41.2373C4.05723 41.2373 4.87288 40.8994 5.47427 40.298C6.07565 39.6967 6.4135 38.881 6.4135 38.0305C6.4135 37.1801 6.07565 36.3644 5.47427 35.763C4.87288 35.1616 4.05723 34.8238 3.20675 34.8238C2.35627 34.8238 1.54062 35.1616 0.939236 35.763C0.337853 36.3644 0 37.1801 0 38.0305C0 38.881 0.337853 39.6967 0.939236 40.298C1.54062 40.8994 2.35627 41.2373 3.20675 41.2373V41.2373ZM3.20675 39.8971C2.71161 39.8971 2.23676 39.7004 1.88664 39.3503C1.53653 39.0002 1.33983 38.5254 1.33983 38.0302C1.33983 37.5351 1.53653 37.0602 1.88664 36.7101C2.23676 36.36 2.71161 36.1633 3.20675 36.1633C3.70189 36.1633 4.17675 36.36 4.52686 36.7101C4.87698 37.0602 5.07367 37.5351 5.07367 38.0302C5.07367 38.5254 4.87698 39.0002 4.52686 39.3503C4.17675 39.7004 3.70189 39.8971 3.20675 39.8971Z" fill="#4FD1E8"/>
<path d="M23.0857 6.4135C23.5068 6.4135 23.9238 6.33056 24.3128 6.1694C24.7019 6.00825 25.0554 5.77204 25.3532 5.47427C25.6509 5.17649 25.8872 4.82298 26.0483 4.43392C26.2095 4.04486 26.2924 3.62787 26.2924 3.20675C26.2924 2.78563 26.2095 2.36864 26.0483 1.97958C25.8872 1.59052 25.6509 1.23701 25.3532 0.939236C25.0554 0.641461 24.7019 0.405254 24.3128 0.244099C23.9238 0.0829451 23.5068 -6.27512e-09 23.0857 0C22.2352 1.26732e-08 21.4195 0.337853 20.8181 0.939236C20.2168 1.54062 19.8789 2.35627 19.8789 3.20675C19.8789 4.05723 20.2168 4.87288 20.8181 5.47427C21.4195 6.07565 22.2352 6.4135 23.0857 6.4135V6.4135ZM23.0857 5.07335C22.8405 5.07335 22.5978 5.02507 22.3713 4.93126C22.1449 4.83746 21.9391 4.69996 21.7658 4.52663C21.5924 4.3533 21.455 4.14753 21.3611 3.92107C21.2673 3.6946 21.2191 3.45188 21.2191 3.20675C21.2191 2.96163 21.2673 2.7189 21.3611 2.49244C21.455 2.26597 21.5924 2.0602 21.7658 1.88687C21.9391 1.71354 22.1449 1.57605 22.3713 1.48224C22.5978 1.38843 22.8405 1.34015 23.0857 1.34015C23.5808 1.34015 24.0557 1.53685 24.4058 1.88696C24.7559 2.23708 24.9526 2.71193 24.9526 3.20707C24.9526 3.70221 24.7559 4.17707 24.4058 4.52718C24.0557 4.8773 23.5808 5.07399 23.0857 5.07399V5.07335ZM23.5756 28.5369C23.2777 28.6013 22.97 28.6063 22.6702 28.5517C22.3704 28.4972 22.0842 28.3841 21.8281 28.219C21.3109 27.8855 20.9473 27.3601 20.8173 26.7585C20.6874 26.1569 20.8018 25.5283 21.1353 25.0111C21.4688 24.4938 21.9942 24.1302 22.5958 24.0003C23.1932 23.8808 23.8137 24.0011 24.3232 24.3352C24.8327 24.6693 25.1904 25.1903 25.3191 25.7859C25.4477 26.3814 25.337 27.0037 25.0108 27.5183C24.6845 28.0329 24.169 28.3985 23.5756 28.5363V28.5369Z" fill="#4FD1E8"/>
</svg>
