<svg width="50" height="44" viewBox="0 0 50 44" fill="none" xmlns="http://www.w3.org/2000/svg">
<path d="M15.2275 15.7356L24.7139 10.2586C24.8306 10.1912 24.9629 10.1558 25.0977 10.1558C25.2324 10.1558 25.3648 10.1912 25.4815 10.2586L34.9678 15.7356C35.0845 15.803 35.1813 15.8999 35.2487 16.0165C35.3161 16.1332 35.3515 16.2655 35.3516 16.4002V27.3542C35.3516 27.6282 35.2051 27.8815 34.9678 28.0188L25.4815 33.4958C25.3648 33.5632 25.2324 33.5986 25.0977 33.5986C24.9629 33.5986 24.8306 33.5632 24.7139 33.4958L15.2275 28.0188C15.1109 27.9514 15.014 27.8546 14.9466 27.7379C14.8793 27.6212 14.8438 27.4889 14.8438 27.3542V16.4C14.8439 16.1258 14.9902 15.8727 15.2275 15.7354" fill="#B6B6F2"/>
<path d="M49.6908 20.9799L38.3443 1.24024C37.9322 0.526564 37.1709 0 36.3467 0H13.6534C12.8292 0 12.0675 0.526564 11.6554 1.24024L0.309083 20.9364C-0.103028 21.6502 -0.103028 22.5512 0.309083 23.2651L11.6554 42.8431C12.0675 43.5567 12.8292 43.9216 13.6534 43.9216H36.3465C37.1707 43.9216 37.9322 43.5677 38.3441 42.8538L49.6906 23.244C50.1031 22.5305 50.1031 21.6936 49.6906 20.9799H49.6908ZM40.2953 30.4721C40.2953 30.7622 40.1207 31.0307 39.8691 31.176L25.4162 39.5145C25.2917 39.5858 25.1508 39.6233 25.0074 39.6233C24.864 39.6233 24.723 39.5858 24.5986 39.5145L10.1345 31.176C9.88313 31.0307 9.70715 30.7624 9.70715 30.4719V13.7946C9.70715 13.5041 9.88059 13.236 10.1321 13.0907L24.5843 4.75196C24.7087 4.68055 24.8496 4.64296 24.993 4.64296C25.1364 4.64296 25.2773 4.68055 25.4017 4.75196L39.8666 13.0907C40.1183 13.236 40.2953 13.5041 40.2953 13.7946V30.4719V30.4721Z" fill="#5F40F5"/>
</svg>
