<svg width="50" height="50" viewBox="0 0 50 50" fill="none" xmlns="http://www.w3.org/2000/svg">
<path d="M0 10C0 4.47715 4.47715 0 10 0H40C45.5228 0 50 4.47715 50 10V40C50 45.5228 45.5228 50 40 50H10C4.47715 50 0 45.5228 0 40V10Z" fill="url(#paint0_linear)"/>
<path d="M18.7921 43.4C22.1823 43.4 24.9337 40.6486 24.9337 37.2584V31.1167H18.7921C15.4019 31.1167 12.6504 33.8682 12.6504 37.2584C12.6504 40.6486 15.4019 43.4 18.7921 43.4Z" fill="#0ACF83"/>
<path d="M12.6504 24.9749C12.6504 21.5847 15.4019 18.8333 18.7921 18.8333H24.9337V31.1166H18.7921C15.4019 31.1166 12.6504 28.3651 12.6504 24.9749Z" fill="#A259FF"/>
<path d="M12.6504 12.6922C12.6504 9.30201 15.4019 6.55054 18.7921 6.55054H24.9337V18.8339H18.7921C15.4019 18.8339 12.6504 16.0824 12.6504 12.6922Z" fill="#F24E1E"/>
<path d="M24.9336 6.55005H31.0753C34.4655 6.55005 37.2169 9.30152 37.2169 12.6917C37.2169 16.0819 34.4655 18.8334 31.0753 18.8334H24.9336V6.55005Z" fill="#FF7262"/>
<path d="M37.2169 24.9749C37.2169 28.3651 34.4655 31.1166 31.0753 31.1166C27.6851 31.1166 24.9336 28.3651 24.9336 24.9749C24.9336 21.5847 27.6851 18.8333 31.0753 18.8333C34.4655 18.8333 37.2169 21.5847 37.2169 24.9749Z" fill="#1ABCFE"/>
<defs>
<linearGradient id="paint0_linear" x1="50" y1="0" x2="0" y2="50" gradientUnits="userSpaceOnUse">
<stop stop-color="#2B2C33"/>
<stop offset="1" stop-color="#30333C"/>
</linearGradient>
</defs>
</svg>
