<svg width="54" height="48" viewBox="0 0 54 48" fill="none" xmlns="http://www.w3.org/2000/svg">
<path d="M42.3777 42.1385C42.3777 45.0706 35.5855 47.4331 27.2113 47.4331C18.8371 47.4331 12.0449 45.0495 12.0449 42.1385C12.0449 39.2065 18.8371 36.844 27.2113 36.844C35.5855 36.844 42.3777 39.2065 42.3777 42.1385Z" fill="#9EDCF2"/>
<path d="M42.3777 42.1385C42.3777 45.0706 35.5855 47.4331 27.2113 47.4331C18.8371 47.4331 12.0449 45.0495 12.0449 42.1385C12.0449 39.2065 18.8371 36.844 27.2113 36.844C35.5855 36.844 42.3777 39.2065 42.3777 42.1385Z" fill="#7DBCE7"/>
<path d="M9.8935 26.5503L9.45053 28.069C9.45053 28.069 9.34506 28.6175 9.85131 28.7229C10.3997 28.7019 10.3576 28.1956 10.3154 28.0479L9.8935 26.5503Z" fill="#9EDCF2"/>
<path d="M53.9578 20.1589L54 19.9691C49.5492 19.0832 44.993 19.0621 42.2297 19.1886C42.6727 17.5644 42.8203 15.666 42.8203 13.5777C42.8203 10.5613 41.6813 8.15661 39.8672 6.34254C40.1836 5.30895 40.6055 3.00973 39.4453 0.0777019C39.4453 0.0777019 37.3781 -0.576204 32.6742 2.56676C30.8391 2.1027 28.8773 1.87067 26.9156 1.87067C24.7641 1.87067 22.5914 2.14489 20.5453 2.69333C15.6938 -0.618392 13.5633 0.0566082 13.5633 0.0566082C12.1711 3.53708 13.0359 6.13161 13.2891 6.76442C11.6437 8.53629 10.6523 10.7933 10.6523 13.5566C10.6523 15.6449 10.8844 17.5222 11.475 19.1464C8.69063 19.041 4.30312 19.0832 0 19.948L0.0421875 20.1379C4.34531 19.273 8.775 19.2519 11.5383 19.3574C11.6648 19.6949 11.8125 20.0324 11.9602 20.3488C9.21797 20.4332 4.55625 20.7918 0.084375 22.0574L0.147656 22.2472C4.66172 20.9816 9.36562 20.6441 12.0867 20.5597C13.732 23.5972 16.9383 25.58 22.6758 26.1918C21.8531 26.7402 21.0305 27.6683 20.693 29.2504C19.575 29.7777 16.0734 31.0855 13.9641 27.4574C13.9641 27.4574 12.7828 25.3058 10.5258 25.1371C10.5258 25.1371 8.33203 25.0949 10.3781 26.5082C10.3781 26.5082 11.8336 27.2043 12.8461 29.7988C12.8461 29.7988 14.175 34.2285 20.5242 32.7941V37.3293C20.5242 37.3293 20.3977 38.9535 18.9 39.4808C18.9 39.4808 18.0141 40.0925 18.9633 40.43C18.9633 40.43 23.0766 40.7675 23.0766 37.3925V32.4144C23.0766 32.4144 22.9078 30.4316 23.8781 29.7566V37.941C23.8781 37.941 23.8148 39.9027 22.8023 40.641C22.8023 40.641 22.1273 41.8433 23.6039 41.5269C23.6039 41.5269 26.4305 41.1261 26.557 37.8144L26.6203 29.5246H27.2953L27.3586 37.8144C27.4852 41.105 30.3117 41.5269 30.3117 41.5269C31.7883 41.8644 31.1133 40.641 31.1133 40.641C30.1008 39.9027 30.0375 37.941 30.0375 37.941V29.8199C31.0078 30.5793 30.8391 32.4144 30.8391 32.4144V37.3925C30.8391 40.7675 34.9523 40.43 34.9523 40.43C35.9016 40.0925 35.0156 39.4808 35.0156 39.4808C33.5391 38.9324 33.3914 37.3293 33.3914 37.3293V30.7902C33.3914 28.2379 32.3156 26.8879 31.2609 26.1918C37.3781 25.58 40.3102 23.6183 41.6602 20.5386C44.3391 20.6019 49.1695 20.9394 53.768 22.2472L53.8312 22.0574C49.2539 20.7707 44.4656 20.4332 41.7445 20.3488C41.8711 20.0324 41.9766 19.716 42.082 19.3785C44.9086 19.273 49.4859 19.273 53.9578 20.1589V20.1589Z" fill="#24292E"/>
<path d="M36.8301 13.4298C38.1379 14.6322 38.9184 16.0665 38.9184 17.6064C38.9184 24.8626 33.5184 25.0525 26.8527 25.0525C20.1871 25.0525 14.7871 24.04 14.7871 17.6064C14.7871 16.0665 15.5465 14.6322 16.8543 13.4509C19.027 11.4681 22.6973 12.5228 26.8527 12.5228C31.0082 12.5228 34.6574 11.447 36.8301 13.4298V13.4298Z" fill="#F5CCB3"/>
<path d="M22.8445 17.9859C22.8445 19.9898 21.7266 21.5929 20.3344 21.5929C18.9422 21.5929 17.8242 19.9687 17.8242 17.9859C17.8242 15.982 18.9422 14.3789 20.3344 14.3789C21.7266 14.3578 22.8445 15.982 22.8445 17.9859V17.9859Z" fill="white"/>
<path d="M22.0428 18.0285C22.0428 19.3574 21.2834 20.4332 20.3764 20.4332C19.4482 20.4332 18.71 19.3574 18.71 18.0285C18.71 16.6996 19.4693 15.6238 20.3764 15.6238C21.2834 15.6238 22.0428 16.6996 22.0428 18.0285Z" fill="#AF5C51"/>
<path d="M36.324 17.9859C36.324 19.9898 35.2061 21.5929 33.8139 21.5929C32.4217 21.5929 31.3037 19.9687 31.3037 17.9859C31.3037 15.982 32.4217 14.3789 33.8139 14.3789C35.185 14.3578 36.324 15.982 36.324 17.9859V17.9859Z" fill="white"/>
<path d="M35.5007 18.0285C35.5007 19.3574 34.7413 20.4332 33.8343 20.4332C32.9062 20.4332 32.1679 19.3574 32.1679 18.0285C32.1679 16.6996 32.9273 15.6238 33.8343 15.6238C34.7624 15.6238 35.5007 16.6996 35.5007 18.0285ZM27.5273 21.1925C27.5273 21.53 27.2531 21.8253 26.8945 21.8253C26.557 21.8253 26.2617 21.5511 26.2617 21.1925C26.2617 20.8339 26.5359 20.5597 26.8945 20.5597C27.232 20.5597 27.5273 20.8339 27.5273 21.1925ZM25.439 22.7746C25.3968 22.6691 25.4601 22.5636 25.5656 22.5214C25.671 22.4792 25.7765 22.5425 25.8187 22.648C25.9874 23.1121 26.4093 23.4074 26.8945 23.4074C27.3796 23.4074 27.8015 23.091 27.9702 22.648C28.0124 22.5425 28.1179 22.4792 28.2234 22.5214C28.3288 22.5636 28.3921 22.6691 28.3499 22.7746C28.139 23.3863 27.5484 23.8082 26.8945 23.8082C26.2406 23.8082 25.6499 23.3863 25.439 22.7746V22.7746Z" fill="#AF5C51"/>
<path d="M11.4963 25.6432C11.4963 25.812 11.3064 25.9385 11.0533 25.9385C10.8213 25.9385 10.6104 25.812 10.6104 25.6432C10.6104 25.4745 10.8002 25.3479 11.0533 25.3479C11.3064 25.3479 11.4963 25.4745 11.4963 25.6432ZM12.7197 26.3182C12.7197 26.487 12.5299 26.6135 12.2768 26.6135C12.0447 26.6135 11.8338 26.487 11.8338 26.3182C11.8338 26.1495 12.0236 26.0229 12.2768 26.0229C12.5299 26.0229 12.7197 26.1495 12.7197 26.3182ZM13.458 27.2042C13.458 27.3729 13.2682 27.4995 13.015 27.4995C12.783 27.4995 12.5721 27.3729 12.5721 27.2042C12.5721 27.0354 12.7619 26.9088 13.015 26.9088C13.2682 26.8877 13.458 27.0354 13.458 27.2042ZM14.133 28.2167C14.133 28.3854 13.9432 28.512 13.69 28.512C13.458 28.512 13.2471 28.3854 13.2471 28.2167C13.2471 28.0479 13.4369 27.9213 13.69 27.9213C13.9432 27.9002 14.133 28.0479 14.133 28.2167ZM14.8713 29.1448C14.8713 29.3135 14.6814 29.4401 14.4283 29.4401C14.1963 29.4401 13.9854 29.3135 13.9854 29.1448C13.9854 28.976 14.1752 28.8495 14.4283 28.8495C14.6814 28.8495 14.8713 28.976 14.8713 29.1448ZM15.8838 29.9674C15.8838 30.1362 15.6939 30.2627 15.4408 30.2627C15.2088 30.2627 14.9979 30.1362 14.9979 29.9674C14.9979 29.7987 15.1877 29.6721 15.4408 29.6721C15.6939 29.651 15.8838 29.7987 15.8838 29.9674ZM17.2971 30.4948C17.2971 30.6635 17.1072 30.7901 16.8541 30.7901C16.6221 30.7901 16.4111 30.6635 16.4111 30.4948C16.4111 30.326 16.601 30.1995 16.8541 30.1995C17.1072 30.1995 17.2971 30.326 17.2971 30.4948ZM18.7104 30.4948C18.7104 30.6635 18.5205 30.7901 18.2674 30.7901C18.0354 30.7901 17.8244 30.6635 17.8244 30.4948C17.8244 30.326 18.0143 30.1995 18.2674 30.1995C18.5205 30.1995 18.7104 30.326 18.7104 30.4948ZM20.1447 30.2627C20.1447 30.4315 19.9549 30.5581 19.7018 30.5581C19.4697 30.5581 19.2588 30.4315 19.2588 30.2627C19.2588 30.094 19.4486 29.9674 19.7018 29.9674C19.9338 29.9674 20.1447 30.094 20.1447 30.2627Z" fill="#C4E5D9"/>
</svg>
