<svg width="50" height="50" viewBox="0 0 50 50" fill="none" xmlns="http://www.w3.org/2000/svg">
<path d="M0 0H50V50H0V0Z" fill="#F7DF1E"/>
<path d="M13.1467 41.7835L16.9729 39.4679C17.7111 40.7767 18.3826 41.8841 19.9934 41.8841C21.5373 41.8841 22.5109 41.2802 22.5109 38.931V22.9548H27.2096V38.9974C27.2096 43.864 24.3568 46.0792 20.1947 46.0792C16.4359 46.0792 14.2541 44.1325 13.1465 41.7831L13.1467 41.7835ZM29.7617 41.28L33.5875 39.0649C34.5947 40.7097 35.9037 41.9179 38.2193 41.9179C40.1664 41.9179 41.4078 40.9444 41.4078 39.6019C41.4078 37.9909 40.1324 37.4202 37.9844 36.4808L36.81 35.9769C33.4199 34.5341 31.1713 32.7216 31.1713 28.8954C31.1713 25.3712 33.8563 22.686 38.0518 22.686C41.0389 22.686 43.1869 23.7267 44.7307 26.4452L41.0721 28.7948C40.2664 27.3517 39.3941 26.7812 38.0516 26.7812C36.6754 26.7812 35.8027 27.6538 35.8027 28.7948C35.8027 30.2044 36.6754 30.7753 38.6891 31.6479L39.8637 32.1513C43.8578 33.8632 46.1064 35.6083 46.1064 39.5349C46.1064 43.7642 42.7838 46.0798 38.3199 46.0798C33.9568 46.0798 31.1375 43.9989 29.7615 41.2802" fill="black"/>
</svg>
