<svg width="46" height="50" viewBox="0 0 46 50" fill="none" xmlns="http://www.w3.org/2000/svg">
<path d="M38.0185 24.7759C37.9616 24.81 35.9379 24.4689 33.3912 24.2984C31.322 24.162 28.9003 24.162 26.9448 24.2984C25.3531 24.4007 23.2612 23.6049 23.0111 24.5599C22.0788 28.1298 20.055 31.2336 17.497 33.6439C15.5642 35.463 13.3586 36.8387 10.971 37.6914C8.1287 36.2361 6.78713 32.9845 7.99227 30.1422C8.94729 27.8797 10.0728 25.4012 8.00364 24.8327C6.5029 24.4234 5.67295 25.856 5.10448 27.3908C4.00167 30.3355 1.89835 33.3824 1.29578 36.9978C0.659105 40.8065 1.29578 44.854 4.59287 47.1506C12.2785 52.4714 20.6121 43.8535 29.4006 41.682C32.584 40.8975 36.0857 41.0226 38.8939 39.3968C40.9972 38.1802 42.3956 36.1565 42.7822 33.8827C43.4189 30.2218 41.5202 26.595 38.0185 24.7759Z" fill="#C21325"/>
<path fill-rule="evenodd" clip-rule="evenodd" d="M11.1283 36.4453C13.1869 35.6368 15.0918 34.4074 16.7766 32.8216C19.1836 30.5538 21.0932 27.6368 21.9706 24.2769C22.1645 23.5366 22.7015 23.0893 23.5888 22.9786C24.4063 22.8765 25.7942 23.2421 26.9251 23.1694C28.9273 23.0297 31.4067 23.0294 33.5265 23.1691C35.3472 23.2911 37.1481 23.5196 37.8199 23.6099L38.0379 23.4792L38.602 23.7722C42.5612 25.829 44.6816 29.9434 43.9625 34.0784C43.5205 36.678 41.9271 38.9954 39.5229 40.3858C36.6234 42.0645 33.0189 41.981 29.7327 42.7909C25.3953 43.8625 21.1763 46.5394 17.0873 48.2774C12.567 50.1987 8.1982 50.9934 4.00238 48.0887C0.331136 45.5314 -0.475171 41.0566 0.233702 36.8161C0.849006 33.1245 2.97312 30.004 4.09777 27.0011C4.43748 26.0836 4.87588 25.208 5.4332 24.6117C6.19028 23.8015 7.14348 23.4087 8.3642 23.7416C9.07182 23.936 9.54444 24.287 9.86107 24.7135C10.1788 25.1417 10.3467 25.6645 10.3644 26.2673C10.3992 27.4472 9.74067 29.0695 9.09842 30.5912C8.18456 32.7464 9.11491 35.1786 11.1283 36.4453ZM24.0629 25.2461C23.0331 28.8621 20.9508 32.0129 18.3356 34.477C16.2857 36.4062 13.9449 37.8629 11.4127 38.7672L10.9498 38.9326L10.5123 38.7085C7.12768 36.9756 5.56986 33.0881 7.00421 29.7052C7.44226 28.6675 7.93603 27.5861 8.06644 26.6931C8.10225 26.4475 8.15205 26.2262 8.03517 26.0689C7.98117 25.996 7.88259 25.9674 7.7639 25.9348C7.38189 25.8306 7.13598 26.0786 6.92132 26.3775C6.63868 26.7715 6.42062 27.2762 6.22859 27.7947C5.14897 30.6773 3.06646 33.6507 2.47651 37.1905C1.91203 40.5672 2.37897 44.1867 5.29939 46.221C8.79225 48.6391 12.4325 47.7852 16.1978 46.1847C20.3941 44.4011 24.7361 41.6833 29.1879 40.5832C32.2678 39.8243 35.6667 39.991 38.384 38.4178C40.1861 37.3755 41.3895 35.6454 41.7215 33.6931C42.2628 30.5805 40.6706 27.5096 37.7525 25.8968C37.1471 25.8257 35.4322 25.5758 33.3758 25.438C31.356 25.3048 28.9921 25.3045 27.0772 25.4381C26.3747 25.4833 25.5834 25.3786 24.8696 25.2937C24.6165 25.2636 24.283 25.2508 24.0629 25.2461Z" fill="white"/>
<path d="M30.1093 10.3554L36.2828 22.9525L43.6842 1.12354H16.5117L23.9017 22.907L30.1093 10.3554Z" fill="#C21325"/>
<path fill-rule="evenodd" clip-rule="evenodd" d="M30.1284 12.9428L23.7295 25.8814L14.9492 0H45.294L36.4984 25.9408L30.1284 12.9428ZM36.1148 19.991L42.122 2.27385H18.1217L24.1215 19.9594L30.1377 7.79476L36.1148 19.991Z" fill="white"/>
<path d="M22.6276 29.281C25.1957 29.281 27.2776 27.1991 27.2776 24.631C27.2776 22.0628 25.1957 19.981 22.6276 19.981C20.0594 19.981 17.9775 22.0628 17.9775 24.631C17.9775 27.1991 20.0594 29.281 22.6276 29.281Z" fill="#C21325"/>
<path fill-rule="evenodd" clip-rule="evenodd" d="M22.5926 18.8569C19.3988 18.8569 16.8057 21.45 16.8057 24.6439C16.8057 27.8377 19.3988 30.4308 22.5926 30.4308C25.7865 30.4308 28.3796 27.8377 28.3796 24.6439C28.3796 21.45 25.7865 18.8569 22.5926 18.8569ZM22.5926 21.1308C24.5315 21.1308 26.1057 22.705 26.1057 24.6439C26.1057 26.5828 24.5315 28.157 22.5926 28.157C20.6537 28.157 19.0795 26.5828 19.0795 24.6439C19.0795 22.705 20.6537 21.1308 22.5926 21.1308Z" fill="white"/>
<path d="M37.7721 29.281C40.3402 29.281 42.4221 27.1991 42.4221 24.631C42.4221 22.0628 40.3402 19.981 37.7721 19.981C35.204 19.981 33.1221 22.0628 33.1221 24.631C33.1221 27.1991 35.204 29.281 37.7721 29.281Z" fill="#C21325"/>
<path fill-rule="evenodd" clip-rule="evenodd" d="M37.7362 18.8569C34.5423 18.8569 31.9492 21.45 31.9492 24.6439C31.9492 27.8377 34.5423 30.4308 37.7362 30.4308C40.93 30.4308 43.5231 27.8377 43.5231 24.6439C43.5231 21.45 40.93 18.8569 37.7362 18.8569ZM37.7362 21.1308C39.6751 21.1308 41.2493 22.705 41.2493 24.6439C41.2493 26.5828 39.6751 28.157 37.7362 28.157C35.7973 28.157 34.2231 26.5828 34.2231 24.6439C34.2231 22.705 35.7973 21.1308 37.7362 21.1308Z" fill="white"/>
<path fill-rule="evenodd" clip-rule="evenodd" d="M37.7362 18.8569C34.5423 18.8569 31.9492 21.45 31.9492 24.6439C31.9492 27.8377 34.5423 30.4308 37.7362 30.4308C40.93 30.4308 43.5231 27.8377 43.5231 24.6439C43.5231 21.45 40.93 18.8569 37.7362 18.8569ZM37.7362 21.1308C39.6751 21.1308 41.2493 22.705 41.2493 24.6439C41.2493 26.5828 39.6751 28.157 37.7362 28.157C35.7973 28.157 34.2231 26.5828 34.2231 24.6439C34.2231 22.705 35.7973 21.1308 37.7362 21.1308Z" fill="white"/>
<path d="M7.38538 29.3293C9.95351 29.3293 12.0354 27.2475 12.0354 24.6793C12.0354 22.1112 9.95351 20.0293 7.38538 20.0293C4.81724 20.0293 2.73535 22.1112 2.73535 24.6793C2.73535 27.2475 4.81724 29.3293 7.38538 29.3293Z" fill="#C21325"/>
<path fill-rule="evenodd" clip-rule="evenodd" d="M7.35043 18.8569C4.15658 18.8569 1.56348 21.45 1.56348 24.6439C1.56348 27.8377 4.15658 30.4308 7.35043 30.4308C10.5443 30.4308 13.1374 27.8377 13.1374 24.6439C13.1374 21.45 10.5443 18.8569 7.35043 18.8569ZM7.35043 21.1308C9.28934 21.1308 10.8635 22.705 10.8635 24.6439C10.8635 26.5828 9.28934 28.157 7.35043 28.157C5.41151 28.157 3.83733 26.5828 3.83733 24.6439C3.83733 22.705 5.41151 21.1308 7.35043 21.1308Z" fill="white"/>
</svg>
