<svg width="47" height="48" viewBox="0 0 47 48" fill="none" xmlns="http://www.w3.org/2000/svg">
<path d="M23.1103 25.2674C22.934 25.5179 22.7854 25.7241 22.6424 25.9326C20.3615 29.2896 18.0813 32.6463 15.8019 36.0026C13.6814 39.1246 11.5586 42.2448 9.43368 45.3631C9.39842 45.4121 9.35325 45.4531 9.30111 45.4835C9.24896 45.5138 9.19101 45.5329 9.13102 45.5394C6.13095 45.5135 3.13163 45.481 0.133041 45.4418C0.0997804 45.4418 0.0654116 45.4319 0 45.4219C0.0242191 45.3592 0.0523611 45.2981 0.084259 45.239C2.17669 41.995 4.26912 38.7517 6.36156 35.5093C8.21747 32.6356 10.0745 29.7626 11.9326 26.8904C13.9918 23.6989 16.0499 20.5052 18.1068 17.3093C18.4106 16.8381 18.7266 16.3758 19.0148 15.8958C19.0887 15.7672 19.1109 15.6154 19.0769 15.4711C18.5226 13.7039 17.9572 11.9411 17.3928 10.1783C17.1511 9.42333 16.8984 8.67276 16.6722 7.91332C16.599 7.66941 16.4782 7.59513 16.2287 7.59624C14.344 7.604 12.4703 7.60178 10.5911 7.60178C10.2341 7.60178 10.233 7.60178 10.233 7.24922C10.233 4.93875 10.233 2.62828 10.2264 0.31781C10.2264 0.060598 10.3106 0.00294705 10.5523 0.00294705C14.3359 0.00959907 18.1201 0.00959907 21.9051 0.00294705C21.993 -0.00829324 22.082 0.0128506 22.1555 0.0624288C22.2289 0.112007 22.2818 0.186629 22.3043 0.272354C24.2999 5.29168 26.2955 10.3092 28.2911 15.3248C30.6193 21.1741 32.9475 27.0242 35.2757 32.8751C35.9986 34.6911 36.727 36.5059 37.4421 38.3264C37.5274 38.5481 37.6161 38.5903 37.8401 38.5215C39.8235 37.9084 41.8113 37.312 43.7936 36.6977C44.0431 36.6201 44.134 36.6722 44.2116 36.9195C44.8879 39.0448 45.5775 41.1657 46.2626 43.2888C46.2859 43.362 46.3037 43.4363 46.3314 43.5383C46.1895 43.5904 46.0564 43.6491 45.9201 43.6868C41.4115 45.1155 36.9055 46.545 32.402 47.9752C32.1869 48.0428 32.1226 47.9696 32.0506 47.7889C30.6751 44.3032 29.2963 40.8191 27.9141 37.3363C26.5623 33.9261 25.2097 30.5158 23.8564 27.1055C23.6535 26.5933 23.4539 26.0789 23.2511 25.5667C23.2189 25.4791 23.1746 25.4026 23.1103 25.2674V25.2674Z" fill="url(#paint0_linear)"/>
<defs>
<linearGradient id="paint0_linear" x1="46.32" y1="24" x2="-9.07979e-07" y2="24" gradientUnits="userSpaceOnUse">
<stop stop-color="#F7981D"/>
<stop offset="1" stop-color="#F1633E"/>
</linearGradient>
</defs>
</svg>
