<svg width="50" height="50" viewBox="0 0 50 50" fill="none" xmlns="http://www.w3.org/2000/svg">
<path d="M25 50C38.8071 50 50 38.8071 50 25C50 11.1929 38.8071 0 25 0C11.1929 0 0 11.1929 0 25C0 38.8071 11.1929 50 25 50Z" fill="#F1F3F4"/>
<path d="M4.19229 30.2921C7.80054 30.2921 7.80054 27.9554 11.4088 27.9554C15.017 27.9554 15.017 30.2921 18.6253 30.2921C22.2335 30.2921 22.2335 27.9554 25.8418 27.9554C29.45 27.9554 29.45 30.2921 33.0583 30.2921C36.6665 30.2921 36.6665 27.9554 40.2748 27.9554C43.694 27.9554 43.8658 30.0516 46.9243 30.2749C49.6734 18.1787 42.0961 6.15124 29.9999 3.41928C17.9036 0.687321 5.89332 8.24746 3.14418 20.3265C2.40535 23.5739 2.40535 26.9588 3.127 30.2062C3.48782 30.2578 3.84865 30.2921 4.20947 30.2921H4.19229Z" fill="#304FFE"/>
<path d="M22.835 5.66992H28.6769V11.0823H22.835V5.66992Z" fill="#FFD54F"/>
<path d="M22.835 5.66992H24.8968V11.0823H22.835V5.66992Z" fill="#FFF176"/>
<path d="M24.8453 8.72866C25.6044 8.72866 26.2198 7.95939 26.2198 7.01045C26.2198 6.06151 25.6044 5.29224 24.8453 5.29224C24.0861 5.29224 23.4707 6.06151 23.4707 7.01045C23.4707 7.95939 24.0861 8.72866 24.8453 8.72866Z" fill="#FFF176"/>
<path d="M22.6973 5.05189C22.6973 3.38522 24.0547 2.02783 25.7213 2.02783C27.388 2.02783 28.7454 3.38522 28.7454 5.05189" fill="#F4511E"/>
<path d="M25.7383 2.02783C27.3878 2.02783 28.728 3.36804 28.728 5.0347V5.05189H25.7383V2.02783Z" fill="#E64A19"/>
<path d="M22.4909 4.94873H28.917C29.1404 4.94873 29.3122 5.12055 29.3122 5.34392C29.3122 5.56729 29.1404 5.73911 28.917 5.73911H22.4909C22.2675 5.73911 22.0957 5.56729 22.0957 5.34392C22.0957 5.12055 22.2847 4.94873 22.4909 4.94873V4.94873Z" fill="#F4511E"/>
<path d="M21.9932 27.7492L22.8351 11.031H28.677L29.433 26.9245L21.9932 27.7492Z" fill="#C5CAE9"/>
<path d="M22.6111 15.1892L22.3877 19.8284L28.9856 16.7528L28.7623 12.3198L22.6111 15.1892Z" fill="#FF7043"/>
<path d="M22.1478 24.3986L21.9072 29.0378L29.433 25.5326L29.2096 21.0996L22.1478 24.3986Z" fill="#FF7043"/>
<path d="M21.9414 8.57397H29.4844V11.0482H21.9414V8.57397Z" fill="#E64A19"/>
<path d="M21.9414 8.57397H26.8899V11.0482H21.9414V8.57397Z" fill="#F4511E"/>
<path opacity="0.5" d="M25.6527 8.57397C25.6527 9.46745 24.8108 10.1891 23.7971 10.1891C22.7833 10.1891 21.9414 9.46745 21.9414 8.57397" fill="#FFE082"/>
<path d="M35.2236 7.88702C35.4298 7.88702 35.6188 7.93856 35.7906 8.00729C35.8446 7.47299 36.0771 6.97249 36.4506 6.58658C36.824 6.20067 37.3166 5.95189 37.8489 5.88039C38.3811 5.8089 38.9219 5.91887 39.3839 6.19254C39.846 6.46622 40.2023 6.88763 40.3954 7.38873C40.8192 7.38873 41.2257 7.55709 41.5253 7.85676C41.825 8.15643 41.9934 8.56287 41.9934 8.98667C41.9934 9.41047 41.825 9.81691 41.5253 10.1166C41.2257 10.4163 40.8192 10.5846 40.3954 10.5846H35.2236C34.4676 10.5846 33.8662 9.98324 33.8662 9.22722C33.8662 8.47121 34.4676 7.88702 35.2236 7.88702V7.88702Z" fill="#2979FF"/>
<path d="M19.8449 20.8078C20.0167 20.8078 20.1714 20.8422 20.326 20.9109C20.4291 19.7941 21.4085 18.9865 22.5081 19.0724C23.2813 19.1412 23.9514 19.6566 24.2263 20.3783C24.9823 20.3439 25.6181 20.9109 25.6525 21.6669C25.6868 22.4229 25.1198 23.0587 24.3638 23.093H19.8621C19.2263 23.0759 18.7281 22.526 18.7624 21.9075C18.7624 21.3061 19.2435 20.825 19.8449 20.8078V20.8078Z" fill="#448AFF"/>
<path d="M31.0823 5.4811C31.2152 5.4811 31.3229 5.3734 31.3229 5.24055C31.3229 5.1077 31.2152 5 31.0823 5C30.9495 5 30.8418 5.1077 30.8418 5.24055C30.8418 5.3734 30.9495 5.4811 31.0823 5.4811Z" fill="#FDD835"/>
<path d="M33.2303 19.3474C33.4676 19.3474 33.6599 19.1551 33.6599 18.9178C33.6599 18.6806 33.4676 18.4883 33.2303 18.4883C32.9931 18.4883 32.8008 18.6806 32.8008 18.9178C32.8008 19.1551 32.9931 19.3474 33.2303 19.3474Z" fill="#FFF9C4"/>
<path d="M7.62877 15.4812C7.86601 15.4812 8.05833 15.2889 8.05833 15.0516C8.05833 14.8144 7.86601 14.6221 7.62877 14.6221C7.39154 14.6221 7.19922 14.8144 7.19922 15.0516C7.19922 15.2889 7.39154 15.4812 7.62877 15.4812Z" fill="#FFF9C4"/>
<path d="M14.5184 22.8354C14.7557 22.8354 14.948 22.6431 14.948 22.4059C14.948 22.1686 14.7557 21.9763 14.5184 21.9763C14.2812 21.9763 14.0889 22.1686 14.0889 22.4059C14.0889 22.6431 14.2812 22.8354 14.5184 22.8354Z" fill="#FFF9C4"/>
<path d="M31.409 12.5945C31.6463 12.5945 31.8386 12.4021 31.8386 12.1649C31.8386 11.9277 31.6463 11.7354 31.409 11.7354C31.1718 11.7354 30.9795 11.9277 30.9795 12.1649C30.9795 12.4021 31.1718 12.5945 31.409 12.5945Z" fill="#FFF9C4"/>
<path d="M40.3094 23.4712C40.5467 23.4712 40.739 23.2788 40.739 23.0416C40.739 22.8044 40.5467 22.6121 40.3094 22.6121C40.0722 22.6121 39.8799 22.8044 39.8799 23.0416C39.8799 23.2788 40.0722 23.4712 40.3094 23.4712Z" fill="#FFF9C4"/>
<path d="M6.71809 24.8629C6.85094 24.8629 6.95864 24.7552 6.95864 24.6224C6.95864 24.4895 6.85094 24.3818 6.71809 24.3818C6.58524 24.3818 6.47754 24.4895 6.47754 24.6224C6.47754 24.7552 6.58524 24.8629 6.71809 24.8629Z" fill="#FDD835"/>
<path d="M8.96907 19.9486C9.10192 19.9486 9.20962 19.8409 9.20962 19.7081C9.20962 19.5752 9.10192 19.4675 8.96907 19.4675C8.83621 19.4675 8.72852 19.5752 8.72852 19.7081C8.72852 19.8409 8.83621 19.9486 8.96907 19.9486Z" fill="#FDD835"/>
<path d="M10.4808 18.6771C10.6136 18.6771 10.7213 18.5694 10.7213 18.4366C10.7213 18.3037 10.6136 18.196 10.4808 18.196C10.3479 18.196 10.2402 18.3037 10.2402 18.4366C10.2402 18.5694 10.3479 18.6771 10.4808 18.6771Z" fill="#FDD835"/>
<path d="M16.8558 12.9899C16.9886 12.9899 17.0963 12.8822 17.0963 12.7493C17.0963 12.6165 16.9886 12.5088 16.8558 12.5088C16.7229 12.5088 16.6152 12.6165 16.6152 12.7493C16.6152 12.8822 16.7229 12.9899 16.8558 12.9899Z" fill="#FDD835"/>
<path d="M37.0101 13.6771C37.1429 13.6771 37.2506 13.5694 37.2506 13.4366C37.2506 13.3037 37.1429 13.196 37.0101 13.196C36.8772 13.196 36.7695 13.3037 36.7695 13.4366C36.7695 13.5694 36.8772 13.6771 37.0101 13.6771Z" fill="#FDD835"/>
<path d="M46.5804 23.8488C46.7132 23.8488 46.8209 23.7411 46.8209 23.6082C46.8209 23.4754 46.7132 23.3677 46.5804 23.3677C46.4475 23.3677 46.3398 23.4754 46.3398 23.6082C46.3398 23.7411 46.4475 23.8488 46.5804 23.8488Z" fill="#FDD835"/>
<path d="M12.8177 12.2509C12.9506 12.2509 13.0582 12.1432 13.0582 12.0103C13.0582 11.8775 12.9506 11.7698 12.8177 11.7698C12.6848 11.7698 12.5771 11.8775 12.5771 12.0103C12.5771 12.1432 12.6848 12.2509 12.8177 12.2509Z" fill="#FDD835"/>
<path d="M34.3294 23.9518C34.4623 23.9518 34.57 23.8441 34.57 23.7113C34.57 23.5784 34.4623 23.4707 34.3294 23.4707C34.1966 23.4707 34.0889 23.5784 34.0889 23.7113C34.0889 23.8441 34.1966 23.9518 34.3294 23.9518Z" fill="#FDD835"/>
<path d="M41.7005 17.8524C41.8334 17.8524 41.9411 17.7447 41.9411 17.6119C41.9411 17.479 41.8334 17.3713 41.7005 17.3713C41.5677 17.3713 41.46 17.479 41.46 17.6119C41.46 17.7447 41.5677 17.8524 41.7005 17.8524Z" fill="#FDD835"/>
<path opacity="0.5" d="M22.9376 5.58451C22.9376 5.58451 11.5115 3.98657 11.4771 3.98657C7.00978 6.90753 4.94792 10.0003 3.91699 11.5467L22.9204 8.7632L22.9376 5.58451Z" fill="#FFE082"/>
<path opacity="0.5" d="M28.8997 11.031H25.9443V26.1685L29.501 27.7492L28.8997 11.031Z" fill="#304FFE"/>
<path d="M18.6771 30.3437C22.2854 30.3437 22.2854 28.0069 25.8936 28.0069C29.5019 28.0069 29.5019 30.3437 33.1101 30.3437C36.1685 30.3437 36.6325 28.6598 38.9177 28.1443C35.8077 26.4433 31.1685 25.3608 25.9795 25.3608C20.7905 25.3608 16.0826 26.4605 12.9727 28.1787C15.172 28.7114 15.6531 30.3437 18.6771 30.3437V30.3437Z" fill="#00C853"/>
<path d="M18.6943 30.3094C22.3026 30.3094 22.3026 27.9726 25.9108 27.9726H25.9796L25.9452 25.3953C20.7906 25.3953 16.1514 26.4606 13.0586 28.1444C15.2064 28.6942 15.7046 30.3094 18.6943 30.3094V30.3094Z" fill="#64DD17"/>
</svg>
