<svg width="50" height="44" viewBox="0 0 50 44" fill="none" xmlns="http://www.w3.org/2000/svg">
<path d="M44.7803 10.4395C47.6631 10.4395 50 8.10251 50 5.21973C50 2.33695 47.6631 0 44.7803 0C41.8975 0 39.5605 2.33695 39.5605 5.21973C39.5605 8.10251 41.8975 10.4395 44.7803 10.4395Z" fill="#F0684E"/>
<path d="M5.20179 0.0358887H29.2915C32.1614 0.0358887 34.4933 2.35876 34.4933 5.22871V5.23768C34.4933 8.10764 32.1704 10.4395 29.3004 10.4395C29.3004 10.4395 29.3004 10.4395 29.2915 10.4395H5.20179C2.32287 10.4395 0 8.10764 0 5.23768C0 2.36773 2.33184 0.0358887 5.20179 0.0358887Z" fill="#F0684E"/>
<path d="M5.21973 26.9685C8.10251 26.9685 10.4395 24.6316 10.4395 21.7488C10.4395 18.866 8.10251 16.5291 5.21973 16.5291C2.33695 16.5291 0 18.866 0 21.7488C0 24.6316 2.33695 26.9685 5.21973 26.9685Z" fill="#ED4B59"/>
<path d="M20.691 16.5559H44.7897C47.6597 16.5559 49.9915 18.8877 49.9915 21.7577V21.7667C49.9915 24.6366 47.6597 26.9685 44.7897 26.9685H20.691C17.8211 26.9685 15.4893 24.6366 15.4893 21.7667V21.7577C15.4893 18.8877 17.8211 16.5559 20.691 16.5559Z" fill="#F0684E"/>
<path d="M44.7803 43.4436C47.6631 43.4436 50 41.1067 50 38.2239C50 35.3411 47.6631 33.0042 44.7803 33.0042C41.8975 33.0042 39.5605 35.3411 39.5605 38.2239C39.5605 41.1067 41.8975 43.4436 44.7803 43.4436Z" fill="#F0684E"/>
<path d="M5.20179 33.0042H29.3004C32.1704 33.0042 34.5022 35.336 34.5022 38.2059V38.2149C34.5022 41.0849 32.1704 43.4167 29.3004 43.4167H5.20179C2.33184 43.4167 0 41.0849 0 38.2149V38.2059C0 35.336 2.33184 33.0042 5.20179 33.0042Z" fill="#F0684E"/>
</svg>
