<svg width="25" height="55" viewBox="0 0 25 55" fill="none" xmlns="http://www.w3.org/2000/svg">
<path fill-rule="evenodd" clip-rule="evenodd" d="M13.5662 54.9998L12.1021 54.4994C12.1021 54.4994 12.2809 47.0354 9.602 46.4998C7.8167 44.4281 9.88839 -41.3574 16.3167 46.2138C16.3167 46.2138 14.1022 47.3207 13.7094 49.2139C13.2806 51.0712 13.5662 54.9998 13.5662 54.9998V54.9998Z" fill="white"/>
<path fill-rule="evenodd" clip-rule="evenodd" d="M13.5662 54.9998L12.1021 54.4994C12.1021 54.4994 12.2809 47.0354 9.602 46.4998C7.8167 44.4281 9.88839 -41.3574 16.3167 46.2138C16.3167 46.2138 14.1022 47.3207 13.7094 49.2139C13.2806 51.0712 13.5662 54.9998 13.5662 54.9998V54.9998Z" fill="#A6A385"/>
<path fill-rule="evenodd" clip-rule="evenodd" d="M14.3526 47.7854C14.3526 47.7854 27.1744 39.3566 24.1739 21.8206C21.2814 9.07124 14.4598 4.89265 13.7098 3.28538C12.8886 2.14252 12.1025 0.142822 12.1025 0.142822L12.6386 35.6065C12.6386 35.6425 11.5313 46.4638 14.353 47.7858" fill="white"/>
<path fill-rule="evenodd" clip-rule="evenodd" d="M14.3526 47.7854C14.3526 47.7854 27.1744 39.3566 24.1739 21.8206C21.2814 9.07124 14.4598 4.89265 13.7098 3.28538C12.8886 2.14252 12.1025 0.142822 12.1025 0.142822L12.6386 35.6065C12.6386 35.6425 11.5313 46.4638 14.353 47.7858" fill="#499D4A"/>
<path fill-rule="evenodd" clip-rule="evenodd" d="M11.3523 48.2498C11.3523 48.2498 -0.683837 40.0355 0.0305912 25.5716C0.709027 11.1073 9.20902 4.00018 10.8519 2.71452C11.9235 1.57166 11.9591 1.14285 12.0307 0C12.7808 1.60727 12.638 24.0359 12.7448 26.6784C13.066 36.8569 12.1735 46.3217 11.3523 48.2498Z" fill="white"/>
<path fill-rule="evenodd" clip-rule="evenodd" d="M11.3523 48.2498C11.3523 48.2498 -0.683837 40.0355 0.0305912 25.5716C0.709027 11.1073 9.20902 4.00018 10.8519 2.71452C11.9235 1.57166 11.9591 1.14285 12.0307 0C12.7808 1.60727 12.638 24.0359 12.7448 26.6784C13.066 36.8569 12.1735 46.3217 11.3523 48.2498Z" fill="#58AA50"/>
</svg>
