<svg width="50" height="58" viewBox="0 0 50 58" fill="none" xmlns="http://www.w3.org/2000/svg">
<path d="M0.00187614 28.7288V15.036C-0.0254592 14.544 0.247894 14.0817 0.692242 13.8687L24.3107 0.227917C24.7357 -0.0373903 25.2127 -0.0912327 25.6376 0.174193L49.3619 13.867C49.7759 14.1052 50.0224 14.5571 49.9984 15.0341V42.3767C50.0224 42.8537 49.7759 43.3057 49.3619 43.544L25.7433 57.1721C25.3028 57.4377 24.7495 57.4377 24.3089 57.1721L0.6384 43.5314C0.213459 43.266 0.0108694 42.9468 0.0108694 42.4161V28.7233L0.00187614 28.7288Z" fill="#009438"/>
<path d="M16.6282 23.6128V39.57C16.6282 41.3738 15.1938 42.9659 13.2843 42.9139C12.1189 42.8601 11.2152 42.3832 10.5949 41.3756C10.2757 40.8987 10.1699 40.368 10.1699 39.7834V17.6171C10.1699 16.1291 11.0718 15.0711 12.239 14.5925C13.4063 14.1137 14.5734 14.2213 15.7424 14.5925C16.8576 14.9116 17.7147 15.6001 18.4318 16.45L32.5407 33.3808C32.5944 33.4346 32.6482 33.5601 32.7521 33.6462V17.5096C32.7521 15.8117 33.9176 14.4849 35.5671 14.3253C37.6362 14.06 39.0168 15.5445 39.2284 17.0864V39.6777C39.2284 40.9328 38.6438 41.8542 37.5825 42.4388C36.7863 42.8638 35.9365 42.9696 35.0365 42.9157C33.7348 42.8291 32.4998 42.3052 31.5329 41.4294C31.0023 40.9524 30.6311 40.368 30.1524 39.8372L16.7052 23.7544C16.7052 23.7006 16.6515 23.6469 16.5976 23.5752L16.6282 23.6128Z" fill="#FEFEFE"/>
</svg>
