<svg width="48" height="52" viewBox="0 0 48 52" fill="none" xmlns="http://www.w3.org/2000/svg">
<path d="M21.4648 0.554767C22.7542 -0.183255 24.4336 -0.186588 25.7218 0.554767C32.2029 4.21691 38.686 7.87331 45.1659 11.5377C46.3847 12.2242 47.2 13.5806 47.1876 14.985V37.0178C47.1967 38.4804 46.3009 39.8692 45.015 40.5401C38.5552 44.1821 32.0988 47.8285 25.6401 51.4705C24.3241 52.2229 22.611 52.165 21.3361 51.3508C19.3995 50.2281 17.4595 49.111 15.5227 47.9894C15.1269 47.7535 14.6808 47.5657 14.4013 47.182C14.6484 46.849 15.0901 46.8075 15.449 46.6621C16.2574 46.4051 16.9998 45.9924 17.7425 45.592C17.9303 45.4635 18.1596 45.5128 18.3396 45.6278C19.9956 46.5773 21.6371 47.5544 23.2987 48.4949C23.6531 48.6995 24.0121 48.4278 24.315 48.2589C30.6541 44.6762 37.0009 41.107 43.3388 37.5232C43.5736 37.4103 43.7034 37.161 43.6844 36.9038C43.6888 29.6356 43.6855 22.3661 43.6866 15.098C43.7134 14.8061 43.5445 14.5377 43.2806 14.4183C36.8433 10.793 30.4092 7.16214 23.973 3.53593C23.8615 3.45927 23.7294 3.41813 23.594 3.41793C23.4587 3.41773 23.3265 3.45848 23.2148 3.53482C16.7785 7.16214 10.3456 10.7963 3.90936 14.4214C3.64637 14.5411 3.46988 14.805 3.50118 15.098C3.50229 22.3661 3.50118 29.6356 3.50118 36.9049C3.49002 37.0304 3.51758 37.1563 3.58017 37.2657C3.64275 37.375 3.73734 37.4626 3.8512 37.5166C5.56875 38.4905 7.28851 39.4577 9.00717 40.4283C9.97539 40.9494 11.1642 41.2591 12.2309 40.8598C13.1723 40.5222 13.8322 39.5616 13.8142 38.562C13.8231 31.3363 13.8098 24.1094 13.8209 16.8848C13.7974 16.564 14.1016 16.299 14.4135 16.3292C15.2388 16.3236 16.0651 16.318 16.8904 16.3314C17.2349 16.3236 17.4719 16.669 17.4293 16.9922C17.426 24.2637 17.4382 31.5354 17.4238 38.8069C17.426 40.7448 16.6298 42.8535 14.8373 43.8017C12.6289 44.9457 9.89946 44.7031 7.71781 43.6061C5.82914 42.6635 4.02677 41.551 2.17163 40.5411C0.882451 39.8738 -0.00891539 38.4794 0.000159402 37.018V14.985C-0.0133602 13.5515 0.834299 12.1705 2.09107 11.494C8.54972 7.84905 15.0073 4.20135 21.4648 0.554767Z" fill="#8CC84B"/>
<path d="M27.099 15.8169C29.9159 15.6356 32.9315 15.7095 35.4663 17.0972C37.4289 18.1606 38.5169 20.3925 38.5516 22.5728C38.4967 22.8669 38.1893 23.0292 37.9085 23.009C37.0913 23.0079 36.2738 23.0201 35.4565 23.0034C35.1098 23.0168 34.9083 22.6971 34.8648 22.3906C34.6299 21.3474 34.061 20.3141 33.0791 19.811C31.5717 19.0563 29.824 19.0942 28.1804 19.11C26.9805 19.1737 25.6902 19.2776 24.6736 19.9832C23.8932 20.5177 23.6561 21.5967 23.9347 22.4656C24.1973 23.0895 24.9175 23.2909 25.5068 23.4764C28.9015 24.3643 32.4989 24.2759 35.8287 25.4444C37.2074 25.9207 38.556 26.8467 39.0279 28.2901C39.6452 30.2247 39.3746 32.5372 37.9982 34.0902C36.882 35.3683 35.2563 36.0639 33.6349 36.4417C31.4778 36.9227 29.2393 36.9349 27.0488 36.7214C24.989 36.4865 22.8455 35.9454 21.2554 34.5419C19.8956 33.3613 19.2315 31.5217 19.2974 29.7462C19.3132 29.4463 19.6117 29.2373 19.899 29.2619C20.722 29.2552 21.545 29.253 22.3681 29.263C22.6968 29.2395 22.9405 29.5236 22.9574 29.8334C23.1092 30.8274 23.4828 31.8706 24.3495 32.4599C26.0222 33.5391 28.1211 33.4652 30.0364 33.4954C31.6232 33.425 33.4045 33.4037 34.6994 32.3549C35.3826 31.7567 35.585 30.7559 35.4004 29.8949C35.2004 29.168 34.4399 28.8293 33.7869 28.6078C30.4357 27.5477 26.7982 27.9323 23.4794 26.7335C22.1321 26.2574 20.8292 25.3571 20.3116 23.973C19.5893 22.0139 19.9203 19.5908 21.4409 18.0901C22.9236 16.5974 25.064 16.0225 27.099 15.8167V15.8169Z" fill="#8CC84B"/>
</svg>
