<svg width="50" height="50" viewBox="0 0 50 50" fill="none" xmlns="http://www.w3.org/2000/svg">
<path d="M9.3168 20.8775C9.38479 20.9289 9.50286 20.9623 9.38479 21.0636C9.30017 21.1816 9.19873 21.2829 9.13143 21.4183C9.06413 21.537 9.01345 21.5703 8.91211 21.4863C9.03892 21.2781 9.17372 21.0748 9.3162 20.877L9.3168 20.8775ZM43.245 38.5918C43.245 38.6418 43.2617 38.6752 43.2617 38.7265C43.2956 38.6592 43.2956 38.6251 43.3129 38.5919L43.245 38.5918ZM43.245 38.7432V38.7265V38.7432ZM39.8018 45.3351L36.8641 29.0417C36.8141 29.0255 36.7467 28.9922 36.628 28.9582C36.6621 29.0255 36.6794 29.0762 36.696 29.1269C36.7794 29.1103 36.8141 29.1103 36.8474 29.0935C36.8474 29.0769 36.8474 29.0602 36.8648 29.0423L39.8025 45.3371L39.8018 45.3351ZM36.7634 25.3739C36.7467 25.4239 36.7467 25.4753 36.7467 25.526C36.7467 25.4746 36.7467 25.4233 36.7647 25.3733L36.7634 25.3739ZM36.78 25.7113C36.7634 25.7113 36.7634 25.7113 36.7467 25.6934V25.71C36.7647 25.7268 36.7647 25.7268 36.7813 25.71L36.78 25.7113ZM36.7467 25.846V25.7274C36.6973 25.7441 36.6467 25.7441 36.5786 25.7614C36.6634 25.7935 36.748 25.8114 36.748 25.8447L36.7467 25.846Z" fill="#DD3735"/>
<path d="M49.8953 21.7394C49.862 21.0801 49.8454 20.4208 49.7774 19.762C49.6593 18.866 49.5413 17.9532 49.3386 17.0744C49.1866 16.3477 48.9345 15.6543 48.6805 14.9616C48.3598 14.1501 48.0392 13.3221 47.6337 12.5448C46.9755 11.2939 46.1148 10.1778 45.3213 9.01173C44.7967 8.26767 44.1218 7.6596 43.6151 6.89882C43.3285 6.45939 42.9065 6.08806 42.4844 5.75077C41.8089 5.20871 41.1002 4.71802 40.3914 4.24524C39.8513 3.87321 39.3112 3.5185 38.7366 3.19715C38.2811 2.9425 37.7917 2.73991 37.3189 2.5198C36.7789 2.26644 36.2555 1.96181 35.648 1.84384C35.4954 1.81167 35.3607 1.7604 35.2086 1.70904C34.8206 1.57444 34.4492 1.42232 34.0606 1.30366C33.4704 1.11769 32.8964 0.898278 32.2883 0.745666C31.6994 0.593648 31.0914 0.492897 30.4833 0.407684C29.8085 0.308219 29.1171 0.272986 28.441 0.206874C28.0023 0.155509 27.5636 0.105529 27.1416 0.0888031C26.5001 0.0554503 25.842 0.0554503 25.2006 0.0388234C24.8798 0.0215036 24.5424 -0.012542 24.2218 0.00477772C23.7323 0.0215036 23.243 0.0720772 22.7529 0.139476C22.2808 0.190841 21.808 0.274174 21.3526 0.342859C20.7964 0.410158 20.2397 0.444204 19.6823 0.512097C19.159 0.580188 18.6189 0.681534 18.0961 0.766153C17.9101 0.800198 17.724 0.867498 17.538 0.900851C17.1339 0.985569 16.7119 1.01961 16.3066 1.15491C15.5817 1.37561 14.855 1.62957 14.1462 1.89896C13.4875 2.16964 12.8461 2.45695 12.222 2.79503C11.5805 3.14905 10.9725 3.57116 10.365 3.97772C9.79028 4.36648 9.21695 4.77186 8.65876 5.21128C8.12006 5.63458 7.61334 6.10736 7.12324 6.58073C6.85384 6.85013 6.63383 7.17208 6.38047 7.47611C5.95906 7.9668 5.53705 8.43958 5.13167 8.9469C4.79557 9.37029 4.49025 9.80893 4.16948 10.249C3.59675 11.0252 3.10734 11.8538 2.65188 12.6826C2.46582 13.0206 2.29717 13.3586 2.12843 13.6961C1.87507 14.2028 1.60508 14.6935 1.36903 15.2175C1.1997 15.5728 1.065 15.9616 0.963652 16.3502C0.728203 17.179 0.491566 18.0244 0.27215 18.8518C0.0694596 19.5959 0.0187871 20.3733 0.00275398 21.134C-0.0145657 21.81 0.0528327 22.4694 0.120132 23.1455C0.137452 23.3147 0.0367996 23.5175 0.238203 23.6522C0.170904 23.8383 0.221477 23.9408 0.321536 23.9729C0.204751 24.159 0.372901 24.2782 0.306196 24.4476C0.288876 24.4809 0.357462 24.5483 0.389528 24.599C0.389528 24.6502 0.373495 24.7176 0.389528 24.7682C0.407541 24.9203 0.47484 25.0724 0.47484 25.2417C0.47484 25.3597 0.575591 25.4951 0.609538 25.6137C0.626264 25.6637 0.609538 25.7483 0.575591 25.7824C0.474246 25.9004 0.490873 26.0018 0.642891 26.0698C0.728203 26.2891 0.694256 26.3904 0.67753 26.4931C0.710883 26.6445 0.660211 26.6952 0.67753 26.7291C0.812228 26.9998 0.863594 27.3038 0.879627 27.608C0.879627 27.6759 0.913574 27.7438 0.947619 27.8279C0.964246 27.8279 0.947619 28.1485 0.947619 28.1485C1.03095 28.0986 1.09964 28.0819 1.18366 28.0479C1.23493 28.2673 1.28501 28.4713 1.35231 28.6572C1.43703 28.7919 1.43703 28.8586 1.40367 28.8754C1.47097 29.1794 1.50432 29.4667 1.6217 29.7541C1.6217 29.4335 1.58964 29.1127 1.53837 28.808C1.77441 28.8927 1.9771 28.9767 2.1124 28.9767C2.12972 28.9253 2.14644 28.8586 2.16376 28.8247C2.06242 28.7239 1.9777 28.5719 1.87635 28.4706C1.9104 28.6053 1.87635 28.6566 1.87635 28.7079C1.80905 28.6733 1.72433 28.6393 1.64031 28.6053C1.70761 28.5219 1.77501 28.4366 1.87635 28.3359C1.87635 28.1833 1.79302 28.0473 1.55569 28.0646C1.65704 28.0313 1.75838 27.9812 1.87635 27.9465C2.06242 27.8459 1.85973 27.6598 1.85973 27.4232C1.87635 27.1365 1.70771 26.8492 1.65704 26.5443C1.57232 26.0717 1.58974 25.3616 1.53896 24.8883C1.43762 24.8036 1.3529 25.0229 1.33627 25.0403C1.38764 25.4457 1.43762 25.8511 1.47097 26.257C1.37032 25.919 1.30233 25.547 1.2183 25.1409C1.20098 25.2597 1.18426 25.3103 1.18426 25.3783C1.10092 25.4617 1.16763 25.5643 1.2183 25.6823C1.10023 25.631 0.964939 25.649 0.964939 25.649V26.1223C0.796888 25.9531 0.746809 25.8183 0.661497 25.699C0.628144 25.5643 0.610231 25.4296 0.578165 25.2949C0.610231 25.2096 0.578165 25.159 0.578165 25.1089C0.560152 24.9896 0.543525 24.8549 0.526799 24.7022C0.543525 24.6856 0.510172 24.4328 0.510172 24.4328C0.644771 24.4488 0.730182 24.4649 0.814208 24.4649C0.645464 24.2468 0.762843 24.1109 0.831528 23.9755C0.865474 23.9075 0.983545 23.8921 1.01759 23.8229C1.15219 23.5695 1.3722 23.3674 1.3722 23.0455C1.3722 22.8934 1.42357 22.7248 1.4395 22.5721C1.47354 22.2847 1.5069 21.9974 1.52293 21.7101C1.55757 21.3379 1.52293 20.9659 1.60824 20.6112C1.74423 20.0211 1.91297 19.4291 2.09834 18.8371C2.23294 18.4138 2.38565 18.0097 2.5537 17.5863C2.80706 16.9269 3.0438 16.2675 3.36446 15.6428C3.81992 14.7293 4.34327 13.8507 4.85 12.9552C5.17066 12.3972 5.50815 11.8731 5.86345 11.3324C6.20025 10.8083 6.53694 10.2677 6.92639 9.77696C7.46706 9.08417 8.05781 8.44146 8.71586 7.86684C9.39133 7.25867 10.0328 6.63328 10.7582 6.07529C11.7013 5.34656 12.7062 4.70141 13.7613 4.14716C14.6228 3.6917 15.517 3.33511 16.4118 2.99713C16.9858 2.77771 17.6099 2.67637 18.2013 2.49041C18.8761 2.2703 19.5515 2.16964 20.2603 2.15232C20.7157 2.135 21.155 2.08433 21.6104 2.03356C22.0158 2.00159 22.4206 1.96695 22.8599 1.91628C22.8087 1.98358 22.7919 2.01763 22.7753 2.05088C22.5905 2.32166 22.3879 2.59225 22.2019 2.86243C22.0499 3.08234 21.8812 3.31908 21.7291 3.5384C21.4584 3.89439 21.1711 4.2491 20.9184 4.62113C20.5304 5.17922 20.1756 5.75394 19.7703 6.31133C19.3661 6.85201 18.9268 7.35942 18.5047 7.88278C17.948 8.61021 17.4245 9.35357 16.8677 10.0803C16.361 10.7731 15.8223 11.4337 15.3322 12.1265C14.8935 12.7339 14.5048 13.3773 14.0827 14.0014C13.4586 14.9314 12.8339 15.8435 12.2098 16.7735C11.7198 17.4815 11.2246 18.1858 10.7243 18.8864C10.6902 18.9377 10.6395 18.9531 10.5896 18.9872C10.4549 19.2065 10.4549 19.3252 10.4035 19.4265C10.2688 19.6799 10.1341 19.9332 9.98149 20.1706C9.89677 20.3053 9.7788 20.4233 9.67745 20.5586C9.66073 20.3559 9.94685 20.2546 9.81205 20.0006C9.72872 20.1366 9.64341 20.2546 9.55938 20.39L9.35669 20.7941C9.42399 20.8454 9.54276 20.8794 9.42399 20.9801C9.37272 21.0654 9.32274 21.1661 9.27207 21.2514C9.35669 21.2001 9.40667 21.1501 9.45804 21.0821C9.45804 21.2681 9.35669 21.4195 9.27197 21.5715C9.20467 21.7061 9.03603 21.8088 8.91796 21.9095C8.93468 21.9268 9.05266 21.9775 9.06998 21.9942C9.22199 21.9428 9.27267 21.8595 9.28999 21.9095C9.34125 21.8422 9.39133 21.7915 9.40806 21.7408C9.47476 21.5715 9.57611 21.4368 9.74475 21.3687C9.81274 21.3348 9.86282 21.2841 9.9135 21.2341C10.4202 20.7094 10.9436 20.2026 11.399 19.6447C12.1084 18.7819 12.7499 17.8871 13.4259 17.0084C13.712 16.6363 14.05 16.2643 14.3534 15.9089C14.4035 16.2977 14.3701 16.669 14.3534 17.025C14.3021 17.6498 14.2688 18.2758 14.2188 18.9173C14.2014 19.1707 14.2188 19.424 14.2014 19.678C14.2014 19.7453 14.1501 19.796 14.1501 19.8641C14.1501 20.0327 14.2014 20.2187 14.2014 20.388C14.1501 21.0135 14.0821 21.6215 14.0314 22.2469C14.0141 22.3816 14.0814 22.5175 14.1148 22.6362C14.0314 23.5483 14.2174 24.5124 14.0648 25.4758C14.1828 25.2898 14.2168 25.1717 14.2168 25.0537C14.2328 24.9524 14.2168 24.8511 14.2168 24.7331V24.5636C14.2328 24.259 14.3001 23.9383 14.2668 23.6336C14.2328 23.2956 14.2328 22.9749 14.3008 22.6535C14.3348 22.5188 14.2841 22.3495 14.3688 22.1802V22.4335C14.3521 23.3957 14.3861 24.3597 14.2514 25.3231C14.2341 25.4078 14.3027 25.5605 14.1167 25.5432C13.964 25.8472 14.1501 26.0672 13.982 26.2359C13.9474 26.2699 14.0141 26.4219 14.0314 26.5233C13.9634 26.7265 13.9634 26.7265 14.0648 26.7433C14.0814 27.1153 14.1161 27.4527 14.1321 27.808C14.4015 27.1667 14.2668 26.5059 14.3861 25.8465C14.4028 26.1172 14.4201 26.3879 14.4028 26.674C14.4028 27.1146 14.3861 27.5367 14.3694 27.976C14.3694 28.0607 14.3521 28.1454 14.3355 28.2301C14.2841 28.4674 14.2682 28.7035 14.1835 28.9229C14.1162 29.0921 14.1501 29.3462 14.1501 29.5482V30.1915C14.2174 30.4789 14.1328 30.6309 14.1835 30.7996C14.1321 30.9696 14.1162 31.0203 14.1321 31.0709L14.1835 31.3243C14.5214 31.2903 14.3695 31.5443 14.5041 31.679C14.4028 31.815 14.4368 31.8651 14.4368 31.9336C14.4368 32.0857 14.4208 32.221 14.4035 32.3731C14.4035 32.7617 14.3867 33.1505 14.3867 33.5225C14.3867 33.5738 14.4035 33.6232 14.4035 33.6739C14.4035 33.7086 14.3867 34.1485 14.3867 34.1485C14.4208 34.1986 14.3867 34.2492 14.3355 34.2999C14.3194 34.2999 14.2688 32.1531 14.2688 32.1531H14.0154C13.982 33.1665 14.0667 34.0792 13.8807 35.0266C13.678 35.0427 13.6113 35.0766 13.3906 35.0766C12.8673 35.0766 12.3438 35.0766 11.8204 35.0933C11.1957 35.0933 10.5889 35.11 9.96348 35.11C9.66073 35.11 9.33997 35.1446 9.03603 35.1446C8.63065 35.1446 8.20854 35.0933 7.80445 35.0933C7.17906 35.0933 6.57158 35.1446 5.94688 35.1613C5.49142 35.178 5.03606 35.178 4.5806 35.1953C4.27598 35.2113 3.97125 35.2274 3.6685 35.262C3.5339 35.2787 3.41514 35.3293 3.24649 35.3801C3.19513 35.3801 3.07775 35.3633 2.9771 35.3801C2.80706 35.414 2.65643 35.5147 2.4864 35.5493C2.23304 35.6008 2.16574 35.6674 2.19899 35.9214V36.0901C2.18237 36.1234 2.57112 36.0388 2.57112 36.0388C2.53648 36.0388 2.51966 36.1402 2.46839 36.2249C2.60437 36.1734 2.6884 36.1402 2.77312 36.1068C3.02648 36.2255 3.2458 36.1581 3.44789 36.2094C4.10604 36.3775 4.78072 36.4468 5.4556 36.5128C5.89492 36.5468 6.31703 36.5641 6.75576 36.5801C7.37987 36.6141 8.00457 36.6482 8.62867 36.6482C9.15212 36.6482 9.65885 36.5968 10.1809 36.5968C10.9058 36.5968 11.6331 36.6302 12.3585 36.6482C12.5106 36.6482 12.6792 36.6302 12.848 36.6302H14.0795C15.1776 36.5968 16.2745 36.5789 17.372 36.5468C17.9974 36.5288 18.6388 36.4955 19.2629 36.4781L21.1872 36.4269C21.9299 36.4101 22.6727 36.4101 23.3987 36.3948C23.9555 36.3948 24.4956 36.3755 25.0536 36.3595C25.6771 36.3428 26.3184 36.2922 26.9432 36.2588C27.2813 36.2415 27.6193 36.2075 27.9567 36.1741C28.3621 36.1407 28.7841 36.0908 29.1883 36.0734C29.7963 36.0388 30.421 36.0221 31.0291 35.9881C31.7886 35.9381 32.5481 35.8708 33.3242 35.8534C34.0336 35.8201 34.7591 35.8367 35.4685 35.8201C36.0932 35.8028 36.718 35.7687 37.3594 35.7521L38.4241 35.7007C38.4241 35.7007 39.1323 35.6841 39.4871 35.6495C40.0945 35.6161 40.7018 35.5487 41.3099 35.5321C41.6974 35.5148 42.086 35.5321 42.4741 35.5148C43.0982 35.498 43.7396 35.4634 44.3644 35.4634C44.5998 35.4634 44.8531 35.498 45.1572 35.5148C45.0226 35.6334 44.9378 35.7008 44.8365 35.7854C44.9038 35.8021 44.9711 35.8367 45.0392 35.8701C44.9378 35.9374 44.8531 35.9535 44.7698 35.9535C44.7351 36.0388 44.7011 36.0728 44.6672 36.2421H44.9712C44.8531 36.2421 44.7518 36.3941 44.6337 36.4955C44.4991 36.4608 44.3803 36.4955 44.313 36.6815C44.4311 36.7482 44.4144 36.7989 44.3978 36.8676C44.1951 36.9342 44.0431 37.0022 44.1284 37.2216C44.0597 37.2549 43.9757 37.2889 43.891 37.3396C43.8076 37.4743 43.655 37.5083 43.6883 37.6943C43.7563 37.7103 43.8229 37.7456 43.8744 37.761C43.7897 37.795 43.7057 37.8457 43.621 37.8791C43.3176 38.0651 43.4529 38.1497 43.5203 38.2344C43.4689 38.2684 43.4189 38.3017 43.3683 38.3191C43.4016 38.4711 43.4516 38.5051 43.4689 38.5051C43.3827 38.5704 43.2982 38.6379 43.2156 38.7077C43.1643 38.8597 43.0969 38.9271 43.0295 39.0284C42.9621 39.1296 42.9283 39.2658 42.8435 39.3665C42.4895 39.7558 42.2362 40.2132 41.7807 40.5165C41.6115 40.6353 41.46 40.7873 41.308 40.9399C41.004 41.2266 40.734 41.548 40.4132 41.8187C39.9918 42.1734 39.5537 42.4941 39.0969 42.8154C38.5409 43.2041 37.9841 43.5929 37.4267 43.9649C37.1227 44.1669 36.7854 44.3189 36.4646 44.505C36.144 44.691 35.8398 44.8603 35.5192 45.0457C35.3165 45.1804 35.1304 45.3663 34.9111 45.4691C34.3543 45.7064 33.763 45.9085 33.1895 46.1284C32.6314 46.3657 32.2273 46.5678 31.8053 46.7198C31.4172 46.8544 31.0118 46.9572 30.6071 47.0405C30.4724 47.0751 30.3197 47.0405 30.1677 47.0578C29.8804 47.1092 29.5937 47.1772 29.3062 47.2105C28.5635 47.3119 27.8207 47.3798 27.0786 47.4812C26.6392 47.5325 26.2172 47.6158 25.7785 47.6673C25.475 47.6839 25.1544 47.6504 24.8503 47.6504C24.6309 47.6504 24.3949 47.7018 24.1749 47.6679C23.8208 47.6165 23.4661 47.5332 23.1114 47.4652C23.028 47.4484 22.9087 47.4138 22.842 47.4484C22.7073 47.5164 22.588 47.4151 22.4527 47.4484C22.3692 47.4658 22.2846 47.3972 22.1999 47.3972C22.1319 47.3811 22.0473 47.4151 21.9626 47.3972C21.7765 47.3471 21.6086 47.2798 21.4046 47.2964C21.2038 47.3132 21.0005 47.2118 20.7824 47.1617C20.4777 47.0937 20.1923 47.027 19.887 46.9584C19.7696 46.9244 19.6689 46.8737 19.5502 46.8064C19.1108 46.8064 18.8235 46.7897 18.5535 46.6877C18.3174 46.6043 18.098 46.4857 17.8446 46.5197C17.7779 46.5363 17.7273 46.503 17.6586 46.503C17.6073 46.435 17.5579 46.2997 17.5079 46.2997C17.1705 46.317 16.9679 46.0303 16.6806 45.945C16.5291 45.8936 16.4111 45.725 16.259 45.6743C15.887 45.5223 15.5843 45.2015 15.1623 45.1509C15.0276 45.1335 14.8929 45.0662 14.7402 45.0162C14.7915 45.0829 14.8236 45.1335 14.8749 45.1842C14.3854 44.9469 13.9301 44.6775 13.474 44.4235C13.4073 44.4068 13.3567 44.3401 13.306 44.3055L12.8505 44.0014C12.5972 44.0528 12.4958 43.9502 12.4272 43.9168C11.9718 43.5961 11.449 43.3928 11.0097 43.038C10.8236 42.8853 10.6056 42.784 10.4709 42.598C10.2336 42.3106 9.94685 42.1079 9.62609 41.9393C9.37342 41.8046 9.13737 41.6519 8.90133 41.4999C8.78257 41.4152 8.664 41.3138 8.664 41.1278C8.664 41.0092 8.61392 40.8905 8.46191 40.9586C8.39461 40.8572 8.32721 40.7392 8.24259 40.7052C8.0399 40.6218 7.9051 40.4678 7.75308 40.3331C7.60107 40.1984 7.48369 40.0124 7.29772 39.9451C6.95964 39.8104 6.75695 39.523 6.55495 39.2863C6.08158 38.7283 5.65947 38.119 5.22084 37.5288C5.18679 37.4775 5.1194 37.4435 5.06872 37.3928C5.13612 37.5789 5.22074 37.7309 5.30477 37.8995C5.13672 37.8322 5.01874 37.7135 4.9174 37.5955C4.90008 37.6128 6.08158 39.5564 6.08158 39.5564C6.18421 39.7084 6.26764 39.861 6.36889 40.013C6.11553 40.0298 5.94688 39.8944 5.86217 39.7424C5.71074 39.473 5.5415 39.3036 5.20402 39.3383C5.17076 39.219 5.13672 39.0836 5.12068 38.9662C5.0521 38.9662 5.00202 38.9662 4.88335 38.9489C5.12068 39.321 5.32278 39.6417 5.5421 40.0137C5.45678 39.9624 5.4075 39.929 5.37217 39.9124C5.67551 40.233 5.89492 40.6391 6.28298 40.8424C6.3677 41.2305 6.80644 41.4164 6.90778 41.7886C6.82435 41.7712 6.75507 41.7545 6.67045 41.7372C6.53575 41.5686 6.38374 41.3998 6.23231 41.2138C6.26567 41.3318 6.31574 41.4332 6.38374 41.5179C6.58643 41.7712 6.77239 42.0246 7.00843 42.2446C7.09315 42.3305 7.21112 42.3646 7.21112 42.5166C7.34582 42.5839 7.39719 42.5999 7.44717 42.5999C7.48181 42.7025 7.43113 42.8546 7.63323 42.8206C7.76783 43.074 7.90263 43.074 8.08859 42.9899C8.3086 43.2099 8.42727 43.2272 8.57869 43.0925C8.57869 43.1759 8.59532 43.2605 8.59532 43.3285C8.66262 43.2946 8.64668 43.2439 8.64668 43.1593C8.73001 43.2266 8.78128 43.2605 8.81473 43.2939C8.98338 43.5312 9.1354 43.7506 9.37144 43.9366C9.6921 44.2073 9.97951 44.4947 10.2823 44.7481C10.8737 45.2387 11.533 45.6447 12.1905 46.0162C13.0013 46.4728 13.778 46.9629 14.6049 47.4016C15.6003 47.9263 16.6638 48.2817 17.7606 48.535C18.166 48.6197 18.5541 48.7037 18.9601 48.8044C19.3129 48.9071 19.6683 49.0591 20.023 49.1431C20.563 49.2618 21.1198 49.3631 21.6599 49.4638C21.7772 49.4811 21.8972 49.4984 22.0319 49.5151C22.1826 49.5491 22.368 49.4811 22.402 49.5325C22.4866 49.6671 22.554 49.5992 22.6554 49.5824C22.7733 49.5485 22.9087 49.5485 23.0433 49.5485C23.5161 49.5651 23.9716 49.6665 24.4443 49.6331C24.5469 49.6331 24.6983 49.5478 24.7829 49.7165C24.9343 49.6492 25.019 49.6492 25.0864 49.6331C25.1043 49.7845 25.0864 49.7845 25.0543 49.8012C25.0197 49.8179 24.969 49.8352 24.9016 49.8859C25.5091 50.0038 26.0831 50.0205 26.5885 49.8859C27.4674 49.9532 28.2268 49.8518 28.9529 49.5985C29.0202 49.6832 29.0709 49.8012 29.1722 49.6325C29.2056 49.5811 29.2902 49.5638 29.3583 49.5472C29.5096 49.5132 29.6956 49.4459 29.8304 49.4958C29.983 49.5472 30.0337 49.4125 30.1511 49.4125C30.3543 49.4125 30.5397 49.3952 30.7258 49.3611C30.8271 49.3445 30.9285 49.2938 31.0464 49.2598C30.9118 49.1912 30.777 49.1745 30.6744 49.1745C30.8641 49.0807 31.0557 48.9908 31.2491 48.9051C31.2152 48.9552 31.1811 49.0225 31.1145 49.0225H31.3499C31.2986 49.0225 31.2312 49.1745 31.1472 49.2758C31.754 49.1238 32.3108 48.9885 32.8514 48.8525C32.6654 48.4984 33.0535 48.6171 33.1889 48.4138C33.0202 48.4651 32.8514 48.5151 32.6822 48.5485C33.2562 48.2618 33.847 48.0084 34.4204 47.7551C34.337 47.8564 34.2343 47.9071 34.0836 47.9924C34.185 48.0084 34.2524 48.0084 34.303 48.0245C34.5724 48.1098 34.5057 47.8564 34.5897 47.7038C34.9104 47.7038 35.0451 47.6537 35.1971 47.6023C35.3659 47.5511 35.5346 47.501 35.7039 47.4337C35.9732 47.3156 36.2266 47.1643 36.4966 47.0296C36.5481 47.0116 36.6314 47.0296 36.6994 47.0296C36.8855 46.9103 36.9521 46.8089 37.0027 46.8256C37.2401 46.8596 37.4068 46.7743 37.4748 46.5562C37.5929 46.4709 37.6775 46.4035 37.7615 46.3523C38.1323 46.1496 38.4864 45.9469 38.8584 45.7442C38.993 45.7442 39.0611 45.7442 39.0945 45.7269C39.3152 45.6242 39.5178 45.5075 39.7199 45.3888C39.6685 45.3722 39.5511 45.3055 39.5511 45.3055C39.7192 45.2708 39.7692 45.2541 39.8718 45.2201C40.276 44.7455 40.834 44.4248 41.2554 44.0528C41.4414 44.0361 41.4414 43.9854 41.4414 43.952C41.5081 43.8674 41.576 43.766 41.6595 43.6981C42.0316 43.36 42.4356 43.0726 42.7737 42.718C43.2631 42.2266 43.7358 41.7193 44.1745 41.1952C44.5786 40.7219 44.9852 40.2491 45.3226 39.725C45.7954 38.9983 46.2001 38.2543 46.6221 37.4929C46.9262 36.9528 47.1962 36.4121 47.501 35.8714C47.533 35.8201 47.6016 35.7527 47.6524 35.7527C48.1076 35.7014 48.5644 35.6694 49.0031 35.6181C49.1045 35.6013 49.2225 35.5347 49.3238 35.4833C49.2725 35.3987 49.2392 35.2972 49.1892 35.2126C49.1212 35.11 49.0199 35.0265 48.9519 34.924C48.8852 34.8406 48.8345 34.7379 48.7838 34.6373C48.7324 34.5539 48.6825 34.4859 48.6318 34.4C48.5292 34.2139 48.4284 34.0278 48.3431 33.8265C48.3265 33.7752 48.2918 33.6918 48.3097 33.6405C48.6138 32.9817 48.7318 32.2717 49.0186 31.6123C49.3053 30.9363 49.3906 30.1755 49.5253 29.4488C49.6433 28.756 49.7114 28.0632 49.7947 27.3705C49.846 26.8805 49.9133 26.4072 49.9294 25.9171C50.032 25.1397 49.9974 24.4123 49.9806 23.6849C49.964 23.0436 49.9294 22.3841 49.8973 21.7414L49.8953 21.7394ZM7.54544 42.5462C7.42737 42.4115 7.32603 42.2588 7.20796 42.1241L7.25942 42.0728C7.44351 42.2761 7.62947 42.4788 7.81484 42.6988C7.71349 42.6475 7.59542 42.6142 7.54544 42.5462V42.5462ZM7.81484 42.6988C7.86611 42.6815 7.91747 42.6815 7.96745 42.6648C8.01882 42.7495 8.05217 42.8509 8.10215 42.9521C7.86611 42.9348 7.74813 42.8335 7.81543 42.6988H7.81484ZM25.3706 49.6794V49.6282C25.6913 49.5947 25.9947 49.5608 26.3155 49.5274V49.5768C25.9947 49.6282 25.6913 49.6602 25.3706 49.6781V49.6794ZM29.6233 49.24C29.3878 49.2914 29.1344 49.3253 28.8985 49.3594C28.8138 49.376 28.7124 49.4607 28.6791 49.308C28.6451 49.3253 28.6111 49.3253 28.5777 49.3426C28.6612 49.5954 28.8644 49.3927 29.0332 49.4941C28.6611 49.5453 28.3083 49.5787 27.953 49.6288V49.5954C28.0557 49.5787 28.173 49.5614 28.2737 49.544V49.4941C28.1056 49.4767 27.937 49.46 27.767 49.46C27.7176 49.46 27.6496 49.528 27.5989 49.5447C27.5316 49.5614 27.4642 49.5787 27.3796 49.5787C27.0929 49.5954 26.8061 49.5954 26.5354 49.612C26.5182 49.612 26.4841 49.5954 26.4675 49.5954V49.544C27.5983 49.3927 28.7124 49.2407 29.8434 49.0887C29.8606 49.122 29.8606 49.156 29.8773 49.1893C29.776 49.1893 29.7086 49.2247 29.6239 49.2407L29.6233 49.24ZM29.8773 49.0719C30.266 49.0207 30.6214 48.9873 30.9921 48.9374C30.216 49.1567 29.9626 49.19 29.8779 49.0719H29.8773ZM15.175 14.9449C15.7138 14.2008 16.2719 13.4568 16.812 12.6967C16.9806 12.4754 17.1153 12.2387 17.2841 12.0193C17.3353 11.9513 17.4027 11.918 17.4868 11.8501L17.47 11.8179C17.5373 11.7326 17.6047 11.664 17.6388 11.5972C17.7247 11.4626 17.7754 11.3099 17.8427 11.1579C17.8595 11.1258 17.9101 11.0919 17.9101 11.0919C18.1474 11.2098 18.1474 10.9572 18.2307 10.8719C18.3828 10.7025 18.5349 10.5172 18.6696 10.3478C18.7709 10.2131 18.8722 10.0945 18.9569 9.94244C18.9736 9.89107 18.9229 9.80774 18.9056 9.73906H18.8555C18.9069 9.7057 18.9569 9.65572 19.0075 9.62108C19.0243 9.62108 19.0243 9.62108 19.0409 9.60436C19.1422 9.45175 19.2436 9.29973 19.3449 9.16434C19.547 8.89494 19.7663 8.62426 20.0024 8.38822C19.969 8.47165 19.9351 8.55696 19.901 8.62426C19.9184 8.62426 19.9184 8.64158 19.9351 8.64158C20.1378 8.3709 20.3571 8.11753 20.5598 7.84626C20.5425 7.83022 20.5258 7.8129 20.5085 7.8129C20.4251 7.89752 20.3571 7.98214 20.2725 8.06686C20.2557 8.04954 20.2391 8.03291 20.2211 8.03291C20.3911 7.8129 20.5598 7.59349 20.7278 7.34013C20.7619 7.39149 20.7958 7.4582 20.8625 7.59349C20.9312 7.42484 20.9985 7.30677 21.0486 7.18811C20.9985 7.23947 20.9312 7.28945 20.8805 7.34082L20.8292 7.28945L21.1332 6.83409C21.4539 6.37735 21.7746 5.90397 22.0954 5.44733C22.2141 5.27858 22.3648 5.14329 22.4674 4.97395C22.7881 4.33253 23.2948 3.82452 23.6823 3.23308C23.7669 3.1151 23.885 3.01376 23.9863 2.91241C24.0696 2.80978 24.1383 2.84442 24.2056 2.92904C24.6611 3.50376 25.1166 4.0952 25.5719 4.66992C25.9106 5.09321 26.248 5.49731 26.5687 5.93733C26.9567 6.47869 27.3281 7.01946 27.7168 7.56014C28.1556 8.18563 28.5944 8.81092 29.0164 9.45244C29.6578 10.3998 30.2653 11.3465 30.9067 12.2926C31.3794 12.9854 31.8521 13.662 32.3075 14.3548H31.4455C30.6527 14.3388 29.8419 14.2714 29.0491 14.3047C27.969 14.3561 26.8721 14.4741 25.7919 14.5588C24.4244 14.6775 23.0402 14.6934 21.674 14.6934C21.1833 14.6934 20.6939 14.7621 20.2051 14.7961C19.6137 14.8295 19.0396 14.8634 18.4489 14.8795C17.7561 14.9141 17.0827 14.9308 16.3899 14.9481C16.0012 14.9648 15.5964 14.9481 15.1744 14.9481L15.175 14.9449ZM34.5352 22.719V22.8717C34.5185 22.8717 34.5019 22.889 34.4679 22.889C34.4005 22.6517 34.3331 22.3976 34.2485 22.161C34.0798 21.6703 33.8938 21.1796 33.5898 20.7407C33.2511 20.2681 32.9483 19.7788 32.6097 19.288C32.5262 19.1693 32.407 19.068 32.3056 18.9673C31.9509 18.578 31.5962 18.1719 31.1407 17.8852C30.4698 17.4643 29.7637 17.102 29.0305 16.8024C28.8278 16.7191 28.6425 16.6164 28.4404 16.4984H28.8445L31.7309 16.4471C32.3556 16.4311 32.9637 16.4311 33.5878 16.3971C33.7392 16.3971 33.8238 16.4484 33.9084 16.5831C34.0599 16.8365 34.2119 17.0898 34.3805 17.3438C34.3979 17.3772 34.432 17.4272 34.432 17.4785C34.432 17.8506 34.432 18.2393 34.4486 18.6113C34.4647 19 34.4999 19.372 34.5153 19.7607C34.5153 20.1494 34.4813 20.5548 34.4986 20.9603C34.5159 21.5356 34.5326 22.1276 34.5326 22.7177L34.5352 22.719ZM16.3726 17.0592C17.166 17.0251 17.9248 16.9744 18.7023 16.9404C19.3084 16.9065 19.9338 16.8891 20.5406 16.8558C20.7939 16.8397 21.0306 16.8237 21.2834 16.8558C21.014 16.9918 20.7433 17.1272 20.5072 17.2958C20.2032 17.4985 19.9171 17.7686 19.6124 17.9886C19.3077 18.2079 19.0377 18.4786 18.7851 18.766C18.4643 19.154 18.1096 19.492 17.7716 19.8641C17.5342 20.1347 17.2649 20.3881 17.0628 20.6755C16.7761 21.0475 16.5227 21.4516 16.2526 21.875C16.3373 20.2688 16.4387 18.6807 16.3707 17.0579L16.3726 17.0592ZM27.3955 33.3191C26.8548 33.4538 26.2986 33.6065 25.7407 33.6738C25.2686 33.7418 24.7785 33.7252 24.2891 33.7252C23.849 33.7252 23.427 33.7085 22.9883 33.6738C22.4988 33.6238 22.0095 33.5732 21.5367 33.3532C21.1306 33.1671 20.7093 32.9985 20.3051 32.7951C19.8985 32.5924 19.4938 32.3563 19.189 31.9843C18.971 31.713 18.6663 31.4936 18.3963 31.2569C18.4476 31.4597 18.5649 31.629 18.751 31.747C18.6663 31.8483 18.5483 31.7983 18.3789 31.527C18.3289 31.561 18.2782 31.5783 18.2443 31.595C18.2956 31.4763 18.3456 31.3576 18.3963 31.257C18.329 31.1223 18.2443 30.9696 18.1769 30.8336C18.0414 30.6121 17.9121 30.3868 17.7889 30.1582C17.7549 30.1069 17.7549 30.0569 17.7215 30.0062C17.6368 29.9049 17.5522 29.8028 17.4842 29.7015C17.3495 29.4995 17.2314 29.2801 17.0628 29.0768C17.0628 29.128 17.0801 29.1781 17.0801 29.246C17.0628 29.246 17.0461 29.2628 17.0461 29.2628L16.6908 28.4007C16.674 28.4007 16.674 28.4007 16.6574 28.4173L16.9607 29.5334C16.9441 29.5334 16.9274 29.5495 16.9095 29.5495C16.86 29.4827 16.8094 29.4149 16.7748 29.3314C16.7414 29.1954 16.6401 29.1954 16.5566 29.2461C16.5054 29.2801 16.4713 29.3981 16.4887 29.4488C16.6074 29.7361 16.742 30.0235 16.8774 30.3108C16.9108 30.4122 16.9447 30.4969 16.9954 30.5982C17.0127 30.6322 17.0634 30.6655 17.0634 30.7162C17.1314 30.8509 17.1821 30.9856 17.2661 31.105C17.4181 31.3077 17.5867 31.5103 17.7388 31.713C17.8896 31.9157 18.0243 32.1363 18.1596 32.3384C18.1763 32.3724 18.2269 32.3724 18.243 32.3897C18.3283 32.6431 18.615 32.8284 18.8177 32.7272C18.869 33.1158 19.2904 33.2511 19.4591 33.6232C19.2564 33.5385 19.105 33.4711 18.9697 33.4031C18.9524 33.4199 18.9524 33.4365 18.9351 33.4704C19.1378 33.5719 19.3405 33.6732 19.5252 33.7912C19.6952 33.8938 19.8638 33.9946 20.0158 34.1119C20.2185 34.2979 20.4553 34.4006 20.7407 34.4673C20.7253 34.416 20.7086 34.3987 20.7086 34.3987C21.1556 34.607 21.5999 34.8207 22.0416 35.04C20.2859 35.0746 18.4123 35.1087 16.4707 35.1427C16.4707 34.8221 16.454 34.5172 16.454 34.196C16.454 34.0613 16.4874 33.9426 16.4701 33.8072C16.4188 33.0311 16.4188 32.2524 16.318 31.4917C16.2174 30.681 16.2174 29.8862 16.2347 29.0735C16.2507 28.6355 16.2174 28.1794 16.2001 27.7394C16.2001 27.148 16.2001 26.572 16.218 25.9819C16.218 25.8972 16.252 25.8299 16.286 25.7446H16.3373C16.3534 25.7792 16.3373 25.8299 16.3694 25.8472C16.4207 25.8985 16.5054 25.9819 16.5393 25.9652C16.6401 25.8972 16.7921 25.8306 16.826 25.7278C16.9095 25.5258 16.9441 25.3058 16.9441 25.1031C16.9441 24.9517 17.0121 24.8504 17.0787 24.7484C17.1134 24.6972 17.1302 24.6471 17.1641 24.5797C17.0968 24.5284 17.0294 24.4951 16.9447 24.4277C17.0127 24.2417 16.9961 24.0217 17.2494 23.9209C17.2828 23.9036 17.2828 23.8184 17.3007 23.7683C17.3167 23.6318 17.3328 23.4797 17.3508 23.345C17.3841 23.3963 17.402 23.4123 17.4341 23.4457C17.4521 23.4123 17.4688 23.3944 17.4688 23.3944C17.4688 23.3277 17.4521 23.1923 17.4688 23.1923C17.6714 23.1584 17.5868 22.939 17.6882 22.8376C17.7042 22.8197 17.6709 22.769 17.6709 22.735C17.6709 22.7016 17.6709 22.6517 17.6875 22.6517C17.9229 22.6003 17.8896 22.3469 18.0416 22.2283C18.0929 22.1943 18.1089 22.1449 18.1762 22.0596C18.311 22.2957 18.0749 22.4143 18.0582 22.583C18.3443 22.4143 18.429 22.0089 18.2603 21.8902C18.3302 21.8366 18.3928 21.7741 18.4464 21.7042C18.6323 21.5015 18.8337 21.3156 19.0031 21.1129C19.1217 20.9614 19.1891 20.7754 19.3071 20.6235C19.3751 20.5387 19.5098 20.4714 19.6112 20.4201C19.9152 20.252 20.2013 20.0661 20.3873 19.7788C20.4212 19.7447 20.4719 19.7114 20.522 19.6773C20.5732 19.6434 20.6746 19.6434 20.6913 19.5927C20.7086 19.5593 20.658 19.4746 20.624 19.4239C20.6907 19.39 20.7586 19.3226 20.8934 19.2547C20.842 19.356 20.826 19.4239 20.7921 19.4919L20.8754 19.5754C21.0281 19.4573 21.2642 19.3226 21.4162 19.2213C21.4162 19.2052 21.3314 19.1379 21.3314 19.1379C21.2308 19.1892 21.0788 19.2725 20.9274 19.3406C20.9594 19.2892 20.9594 19.2559 20.9786 19.2393C21.2141 19.0873 21.4501 18.9352 21.7035 18.8159C22.2936 18.5465 22.885 18.2758 23.4757 18.0224C23.5771 17.9712 23.7131 18.0058 23.8304 18.0058C23.8805 18.0058 23.9139 18.0058 23.9651 17.9891C24.2345 17.9045 24.5052 17.8198 24.7753 17.7518C24.8927 17.7184 25.0274 17.7018 25.1473 17.7018C25.6521 17.7178 26.1588 17.7178 26.6649 17.7518C26.8843 17.7685 27.0869 17.8191 27.2896 17.8865C27.5424 17.9718 27.8124 18.0898 28.0491 18.2071C28.3358 18.3611 28.6058 18.5292 28.8765 18.7152C29.3659 19.0359 29.8214 19.3912 30.3108 19.6786C30.7835 19.966 31.1549 20.3547 31.4588 20.7947C31.831 21.3181 32.2524 21.7915 32.421 22.4335L32.6738 23.5496C32.7251 23.7523 32.843 23.955 32.7925 24.191C32.7071 24.6143 32.6397 25.0537 32.5724 25.4764C32.5391 25.6464 32.5051 25.8164 32.5224 25.9832C32.5544 26.5091 32.3524 26.9646 32.1503 27.4379C32.0823 27.5899 31.9811 27.7426 31.897 27.9113C31.9137 27.9279 32.015 27.9793 32.0317 27.9793L32.1837 27.6753C32.201 27.6753 32.201 27.6753 32.2177 27.6926C32.133 27.9286 32.0657 28.1826 31.9804 28.4193C31.779 28.9434 31.5763 29.484 31.323 29.9908C31.1883 30.2782 30.9508 30.5148 30.7829 30.7862C30.6148 31.0222 30.4794 31.2756 30.3108 31.4956C30.1588 31.6817 30.0073 31.8676 29.8041 32.0023C29.3486 32.3403 28.8759 32.6783 28.3865 32.9491C28.0831 33.1351 27.7284 33.2364 27.391 33.3211L27.3955 33.3191ZM18.3982 32.4212L18.3816 32.4385C18.3462 32.4218 18.2956 32.4051 18.2622 32.3712L17.8568 31.7617C17.8235 31.7117 17.8056 31.6611 17.8235 31.5937C18.0095 31.8811 18.1956 32.1518 18.3975 32.4211L18.3982 32.4212ZM28.8984 34.7367C29.6572 34.416 30.282 33.9605 30.8547 33.4359C30.94 33.3512 31.024 33.2672 31.1254 33.1986C31.8348 32.7598 32.3569 32.1511 32.8303 31.475C33.3703 30.6976 33.725 29.8188 34.1644 28.9909C34.1978 28.9228 34.2312 28.8561 34.2651 28.8048C34.2312 30.7316 34.4512 32.6244 34.7039 34.5347C32.7969 34.602 30.8553 34.6693 28.8977 34.7374L28.8984 34.7367ZM46.0134 34.2299C45.9968 34.264 45.9622 34.2979 45.9461 34.3326C45.9288 34.2979 45.9288 34.2473 45.9121 34.1787C45.8108 34.4499 45.5914 34.3147 45.4394 34.3147C44.5286 34.332 43.5998 34.332 42.6877 34.332C41.8102 34.332 40.9161 34.332 40.0386 34.3473C39.7512 34.3473 39.4472 34.4146 39.1598 34.432C38.4684 34.4654 37.7763 34.4833 37.0842 34.4993C37.0329 34.4993 36.9828 34.416 36.8981 34.3479C36.8815 34.382 36.8469 34.4326 36.7969 34.5C36.7789 34.4667 36.7455 34.4333 36.7116 34.3826C36.6948 34.4339 36.6775 34.484 36.6602 34.5172H36.6115C36.5775 34.2813 36.5102 34.062 36.5102 33.8246C36.5102 33.3178 36.5614 32.8111 36.5775 32.3031C36.5948 32.067 36.5775 31.8477 36.5775 31.6271C36.6455 31.6784 36.6962 31.7123 36.7635 31.7617C36.7969 31.6957 36.8308 31.6449 36.8649 31.595C36.8649 31.595 36.8308 31.577 36.7969 31.5437C36.8289 31.5264 36.8636 31.4923 36.8636 31.4757C36.8802 31.4243 36.9148 31.3744 36.9148 31.341C36.9148 31.2222 36.8802 31.121 36.8636 31.0203C36.8802 31.0203 36.8969 31.0203 36.9148 31.0023L37.0156 31.5091H37.0669C36.9989 31.3917 37.2183 31.2896 37.0329 31.1549C37.0162 31.1376 37.0495 31.0363 37.0495 30.9857C36.9983 30.885 36.9662 30.7836 36.9149 30.6482C36.9316 30.6316 36.9822 30.6143 37.0329 30.597C36.9656 30.5636 36.9148 30.5302 36.8642 30.5135C37.0329 30.3609 37.0329 30.2762 36.8809 30.1075C36.9155 30.0915 36.9489 30.0915 36.9489 30.0755C36.9489 29.9228 36.9489 29.7707 36.9155 29.62C36.8815 29.4494 36.9668 29.248 36.7129 29.1454C36.7295 29.1967 36.7468 29.2301 36.7801 29.2801C36.7801 29.2801 36.7289 29.2974 36.6788 29.3314C36.4595 29.128 36.5955 28.8568 36.5442 28.5533C36.6622 28.5874 36.7468 28.6213 36.8308 28.656C36.7969 28.5367 36.7129 28.4013 36.6622 28.2493H36.5935V27.1333C36.5935 27.1506 36.7116 27.1506 36.7796 27.1679C36.7796 27.1506 36.7956 27.134 36.7956 27.1167C36.7442 27.0494 36.6768 26.982 36.6095 26.8973L36.6436 26.8633C36.5089 26.6953 36.5763 26.4592 36.5763 26.4079V25.2245C36.7455 25.3937 36.4928 25.6131 36.7455 25.7145V25.5458H36.7282C36.7116 25.2925 36.7116 25.0391 36.6948 24.785H36.6615C36.6442 24.8197 36.6442 24.8364 36.6268 24.8704H36.5935L36.6948 20.8307C36.8636 21.05 37.049 21.254 37.1669 21.4721C37.5557 22.1827 38.0617 22.7915 38.5345 23.4336C38.9399 23.9916 39.3106 24.5997 39.6825 25.1745C40.138 25.8672 40.5767 26.5599 41.0328 27.2527C41.3703 27.7773 41.7256 28.3013 42.0783 28.8088C42.399 29.2641 42.7377 29.7041 43.0751 30.1442C43.3612 30.5329 43.6652 30.9216 43.952 31.3103C44.29 31.7837 44.6274 32.2565 44.9655 32.7131C45.1334 32.9492 45.3195 33.1858 45.5041 33.4225C45.6068 33.5571 45.7582 33.6599 45.8595 33.7432C45.8435 33.7432 45.8262 33.7432 45.7928 33.7266C45.8441 33.7939 45.8762 33.8445 45.9108 33.8786C46.0969 33.9799 46.1135 34.0813 46.0122 34.2339L46.0134 34.2299ZM46.8743 30.0055V29.8868C46.8743 29.9202 46.8909 29.9703 46.8743 30.0049V30.0055ZM47.4483 22.5522C47.431 22.5522 47.3303 22.4496 47.3137 22.4329C47.2963 22.4842 47.3137 22.5343 47.2797 22.6022C47.2623 22.5522 47.145 22.5689 47.145 22.5188C47.1276 22.7549 47.2456 22.9915 47.2283 23.2282C47.2797 23.1942 47.4817 23.177 47.5323 23.1269C47.5497 23.1435 47.5837 23.1603 47.6003 23.1603C47.2623 23.4142 47.347 23.667 47.499 23.9556C47.5323 24.0223 47.6337 24.1577 47.5323 24.2931C47.499 24.327 47.5497 24.4277 47.5664 24.513H47.6158V24.5451L47.4637 24.5964C47.4304 24.5451 47.2283 24.445 47.2283 24.3591V25.2224C47.397 25.2738 47.397 25.5098 47.4643 25.6285C47.4997 25.5771 47.5157 25.5432 47.533 25.4938L47.5503 25.5091C47.533 25.6105 47.5163 25.7118 47.4824 25.8138C47.449 25.9653 47.4151 26.1006 47.3989 26.2526C47.3989 26.2692 47.431 26.3038 47.431 26.3199C47.2463 26.7433 47.3477 27.2154 47.2803 27.6541C47.229 27.9747 47.2803 28.3147 47.2463 28.6521C47.2117 28.9395 47.1437 29.2435 47.077 29.5309C47.0597 29.5822 47.0256 29.5982 46.9423 29.6322C46.9756 29.4295 46.9589 29.2942 46.925 29.1081C46.9069 29.1081 46.6876 28.9902 46.6703 28.9902C46.6703 29.2275 46.805 29.5482 46.8564 29.8176C46.805 29.8009 46.603 29.683 46.5869 29.683C46.5522 29.8856 46.5522 30.1562 46.5356 30.3757C46.5183 30.5449 46.3669 30.6963 46.3495 30.8824C46.3495 30.985 46.4676 31.0516 46.4509 31.2211H46.5856C46.5856 30.8836 46.7383 30.5796 46.7383 30.2242H46.7883C46.8056 30.2583 46.8563 30.2922 46.8396 30.3089C46.8056 30.495 46.737 30.6976 46.7549 30.8837C46.7549 30.985 46.8384 31.0864 46.8063 31.2043C46.7717 31.307 46.7549 31.4077 46.7376 31.5596C46.7203 31.475 46.7037 31.4417 46.7037 31.391C46.6869 31.391 46.5349 31.3737 46.5176 31.3737C46.501 31.475 46.6364 31.5764 46.6189 31.6611C46.6023 31.6777 46.5856 31.6777 46.5516 31.695L45.9948 30.883C45.5548 30.2417 45.1161 29.5982 44.6774 28.9395C44.5636 28.7782 44.4618 28.6089 44.3727 28.4328C43.85 27.5361 43.2758 26.674 42.6344 25.8459C42.1457 25.2211 41.7557 24.5439 41.3003 23.8863C40.8795 23.261 40.4575 22.6522 40.0355 22.0263C39.8833 21.8242 39.698 21.6382 39.5627 21.4182C39.1245 20.7254 38.7353 20.0154 38.2979 19.3226C37.9257 18.7473 37.5216 18.1892 37.133 17.6318C36.9983 17.4457 36.8636 17.2425 36.7276 17.0398C36.7109 17.0077 36.6942 16.9738 36.6942 16.923C36.6602 16.5511 36.6263 16.179 36.6095 15.8243C36.6095 15.4862 36.6436 15.1483 36.6436 14.7929V14.4888C36.6436 14.4042 36.6596 14.3368 36.6596 14.2515C36.6756 14.2355 36.693 14.2015 36.7096 14.1848C36.2202 14.1848 35.7135 14.1669 35.224 14.1848C34.9034 14.2008 34.7346 14.0655 34.5153 13.8288C33.8739 13.1021 33.4011 12.274 32.8444 11.4966C32.321 10.7525 31.7809 10.0252 31.2408 9.29844C30.8014 8.707 30.3621 8.13228 29.924 7.54094C29.4339 6.86487 28.9618 6.18881 28.4551 5.51275C27.847 4.70199 27.2223 3.88994 26.5982 3.07908C26.3095 2.70715 25.9889 2.35244 25.6681 1.96309C25.8881 1.99773 26.0915 2.03109 26.2936 2.04841L27.1043 2.09967C27.7117 2.14916 28.3191 2.1831 28.9259 2.26644C29.4326 2.33512 29.9394 2.43647 30.4628 2.52049C31.5776 2.70656 32.6744 3.01118 33.7379 3.36589C34.3626 3.56858 34.9694 3.83927 35.5788 4.09263C36.945 4.65062 38.2452 5.32678 39.528 6.0361C39.9321 6.25611 40.1694 6.61082 40.4722 6.93217C40.9116 7.38892 41.351 7.84497 41.7724 8.31775C42.2611 8.87574 42.7166 9.45046 43.1899 10.0252C43.6113 10.5319 44.0495 11.0386 44.4728 11.5466C44.6075 11.6987 44.7101 11.8846 44.8269 12.0534C45.0963 12.4593 45.4009 12.8487 45.637 13.2875C45.805 13.6095 45.9064 13.9815 46.0244 14.3362C46.1925 14.8603 46.3618 15.367 46.5312 15.891C46.6485 16.2797 46.7492 16.6863 46.8339 17.0905C46.9019 17.3617 46.8852 17.6485 46.9685 17.9179C47.0712 18.2745 46.9685 18.662 47.0712 19.018C47.0873 19.0519 47.1033 19.1026 47.1212 19.1366C47.1885 19.2033 47.2393 19.2712 47.1379 19.3727C47.1219 19.3893 47.1219 19.456 47.1379 19.5073C47.1726 19.474 47.1892 19.44 47.2233 19.3893C47.2233 19.4234 47.2393 19.4407 47.2393 19.4566C47.2393 19.5234 47.222 19.5914 47.2393 19.6587C47.2393 19.6921 47.2726 19.7421 47.2893 19.7768C47.3233 19.7421 47.3566 19.7254 47.424 19.6741C47.576 20.2495 47.5933 20.8242 47.5933 21.4156C47.5933 21.9736 47.6941 22.5317 47.4587 23.0724C47.5087 22.8863 47.3906 22.7164 47.4413 22.5477L47.4483 22.5522Z" fill="#DD3A0A"/>
<path d="M36.663 29.1256C36.679 29.1256 36.6963 29.1429 36.6963 29.1429L36.679 29.1237C36.679 29.1076 36.679 29.1076 36.6624 29.1237L36.663 29.1256ZM39.3294 45.8258C39.1433 45.9604 38.9573 46.0792 38.7213 46.1297C38.7033 46.1131 38.7033 46.0958 38.6867 46.0785C38.8728 45.9604 39.0747 45.8424 39.2607 45.7238C39.278 45.7558 39.3121 45.7905 39.3287 45.8244L39.3294 45.8258ZM7.68023 22.9216C7.8663 22.6863 8.05226 22.4495 8.25366 22.2129C8.2697 22.2295 8.4044 22.2642 8.42172 22.2802C8.23565 22.5175 7.98229 22.8383 7.79692 23.0916C7.76228 23.0576 7.71161 22.9396 7.67825 22.9223L7.68023 22.9216ZM2.88554 31.2056C2.75094 30.9183 2.61614 30.6136 2.48145 30.3268C2.49817 30.3095 2.61614 30.2588 2.63287 30.2588C2.81893 30.5282 2.90226 30.849 3.03825 31.1377C3.03825 31.1377 2.90355 31.205 2.88623 31.205L2.88554 31.2056ZM7.19073 23.0916C7.08948 23.2443 6.98814 23.4136 6.88679 23.5662C6.87007 23.5483 6.6841 23.633 6.66738 23.6163C6.76872 23.4643 7.02149 23.193 7.12283 23.0416C7.14015 23.0583 7.15678 23.0756 7.19083 23.0928L7.19073 23.0916ZM37.5238 46.5197C37.5398 46.5197 37.5398 46.503 37.5572 46.503C37.6751 46.5197 37.8098 46.5363 37.9451 46.5363C37.7245 46.6883 37.5892 46.671 37.5218 46.5197H37.5238ZM7.22289 23.8018C7.24081 23.7505 7.27416 23.7004 7.30821 23.6497C7.34156 23.6497 7.39154 23.6324 7.39154 23.6324C7.46022 23.5144 7.46022 23.4297 7.52752 23.3284C7.5109 23.3118 7.49358 23.3118 7.47626 23.2944C7.3755 23.3637 7.27416 23.4483 7.17281 23.5156C7.20686 23.549 7.20686 23.567 7.20686 23.6003C7.07216 23.583 7.0208 23.6516 6.9535 23.8364C6.93677 23.8877 6.85215 23.9044 6.76743 23.9711C6.75081 24.0057 6.73408 24.0903 6.70013 24.1744L6.71745 24.1924C6.68341 24.2263 6.63274 24.2437 6.63274 24.2437C6.53139 24.3444 6.41342 24.4297 6.31207 24.5304C6.29535 24.5817 6.27872 24.6317 6.27872 24.6824C6.39739 24.5644 6.59938 24.3444 6.7514 24.209L6.76872 24.2263C6.83602 24.125 6.88679 24.0236 6.95478 23.9223C6.97082 23.939 6.97082 23.9557 6.98814 23.9737C6.93677 24.1083 6.88679 24.2597 6.83612 24.3951C6.80079 24.4117 6.75011 24.4463 6.75011 24.429C6.68282 24.4804 6.63214 24.5471 6.56405 24.5978L6.26071 24.8005C6.09206 24.9525 5.92332 25.0872 5.73736 25.2399C5.61928 25.4258 5.50131 25.5945 5.36523 25.8145C5.56861 25.7632 5.61928 25.8485 5.60266 26.0179C5.8387 26.0512 5.85602 25.8659 5.92332 25.7305C5.94005 25.6958 5.95737 25.6278 5.99062 25.6112C6.14274 25.4765 6.31138 25.3584 6.48012 25.2232C6.51407 25.1891 6.51407 25.1205 6.51407 25.0704C6.51407 25.0538 6.42876 25.0538 6.37809 25.0365C6.5301 24.8672 6.75021 24.581 6.90154 24.3951C6.98616 24.3437 7.07018 24.2757 7.07018 24.225C7.05356 24.0391 7.17153 23.989 7.30751 23.921C7.23952 23.8697 7.2222 23.8204 7.2222 23.8036L7.22289 23.8018Z" fill="#DD3735"/>
<path d="M7.56103 23.6158C7.49373 23.7337 7.42633 23.8351 7.35894 23.9537L7.25759 23.9025C7.19029 24.2904 6.95355 24.6285 6.71751 24.6959C6.78481 24.7299 6.85221 24.7639 6.90358 24.7472C6.95356 24.7299 6.98691 24.6445 7.02095 24.5946L7.47631 23.9351L7.62902 23.6812L7.56172 23.6139L7.56103 23.6158ZM1.94083 31.0357C2.02555 31.0357 2.11017 31.0524 2.21023 31.0524C2.21023 30.9851 2.29554 31.0011 2.29554 30.9344H2.3469C2.3469 31.019 2.36353 31.0864 2.36353 31.1717H2.00952C1.9922 31.1544 1.9248 31.0524 1.94152 31.0357H1.94083ZM1.80613 30.2583C1.75487 30.207 1.67144 30.157 1.67144 30.1063C1.65412 30.0396 1.70479 29.9556 1.75487 29.8708C1.78951 29.9889 1.80613 30.0903 1.83949 30.2089C1.82217 30.225 1.80554 30.2423 1.80554 30.2589L1.80613 30.2583ZM2.22824 29.1762C2.29554 29.3468 2.36284 29.5329 2.43093 29.7022C2.4142 29.7022 2.31286 29.7535 2.29623 29.7695C2.22883 29.6003 2.14421 29.4142 2.07682 29.2455C2.09354 29.2288 2.19489 29.1775 2.22883 29.1775L2.22824 29.1762ZM39.8028 45.3363C39.8863 45.3029 39.9876 45.285 40.1235 45.2529C39.9709 45.3703 39.8529 45.4549 39.7516 45.5563C39.7342 45.5397 39.7175 45.5223 39.7002 45.5223C39.7342 45.4549 39.7682 45.4043 39.8028 45.3363ZM19.0553 9.62102C19.156 9.55313 19.2414 9.50246 19.342 9.43506L19.3754 9.46841C19.2727 9.60311 19.1893 9.73781 19.0707 9.90784C19.054 9.79046 19.054 9.72177 19.0367 9.63844C19.0201 9.63844 19.0367 9.63844 19.054 9.62172L19.0553 9.62102ZM24.0007 18.1732C24.1527 18.1052 24.3048 18.0386 24.4901 17.9532C24.4735 18.0545 24.4735 18.1225 24.4735 18.1905C24.4221 18.1732 24.3547 18.1559 24.3042 18.1559C24.2028 18.1732 24.0167 18.3086 23.932 18.3252C23.9161 18.3252 24.0001 18.1906 24.0001 18.1732H24.0007ZM36.6624 32.5065C36.6958 32.6752 37.0165 32.7599 36.6958 32.9285C36.7471 32.9639 36.7965 32.9799 36.8472 33.0145C36.8472 33.0318 36.8305 33.0658 36.8138 33.0825C36.7798 33.0986 36.7125 33.1325 36.6791 33.1146C36.6618 33.1146 36.6278 33.0479 36.6278 33.0138C36.6278 32.8618 36.6451 32.7098 36.6618 32.5071L36.6624 32.5065Z" fill="#DD3735"/>
</svg>
