<svg width="49" height="50" viewBox="0 0 49 50" fill="none" xmlns="http://www.w3.org/2000/svg">
<path d="M46.1907 30.7375C40.2297 31.9671 39.8198 29.9489 39.8198 29.9489C46.1136 20.61 48.7447 8.75552 46.4743 5.85419C40.28 -2.06006 29.5577 1.6829 29.3787 1.77991L29.3211 1.79033C28.1434 1.5458 26.8255 1.40028 25.3441 1.37603C22.647 1.33193 20.6009 2.08317 19.0483 3.26054C19.0483 3.26054 -0.0793618 -4.61945 0.810378 13.1709C0.999591 16.9556 6.23501 41.808 12.4794 34.3014C14.7618 31.5564 16.9672 29.2356 16.9672 29.2356C18.0624 29.9632 19.3737 30.3344 20.7483 30.2011L20.8551 30.1105C20.8218 30.4512 20.837 30.7846 20.8978 31.1792C19.2891 32.9765 19.7619 33.292 16.5461 33.9541C13.292 34.6247 15.2036 35.8185 16.4517 36.1308C17.9648 36.509 21.4652 37.045 23.8304 33.734L23.7362 34.1118C24.3663 34.6167 24.8089 37.3956 24.7347 39.9149C24.6606 42.434 24.6111 44.1635 25.1076 45.5145C25.6044 46.8654 26.0993 49.9051 30.3269 48.9993C33.8592 48.2422 35.6898 46.2806 35.9446 43.0082C36.1252 40.6819 36.5343 41.0259 36.5599 38.946L36.888 37.9614C37.2663 34.8079 36.9482 33.7905 39.1243 34.2637L39.6535 34.3102C41.255 34.383 43.3515 34.0525 44.582 33.4806C47.2314 32.2512 48.8028 30.1981 46.1903 30.7375H46.1907" fill="#336791"/>
<path d="M20.1687 14.8636C19.6316 14.7889 19.1451 14.858 18.899 15.0444C18.7607 15.1493 18.7178 15.2707 18.7061 15.3543C18.6753 15.5758 18.8304 15.8207 18.9258 15.947C19.1956 16.3046 19.5897 16.5503 19.9797 16.6044C20.0362 16.6124 20.0926 16.616 20.1485 16.616C20.7989 16.616 21.3904 16.1095 21.4425 15.7357C21.5077 15.2675 20.828 14.9554 20.1687 14.8638V14.8636ZM37.9643 14.8785C37.913 14.5115 37.26 14.4068 36.6403 14.493C36.0213 14.5792 35.4212 14.8586 35.4713 15.2264C35.5114 15.5124 36.0279 16.0007 36.6392 16.0007C36.691 16.0007 36.7431 15.9973 36.7956 15.9899C37.2037 15.9334 37.5031 15.6742 37.6454 15.5249C37.8619 15.2972 37.9874 15.0434 37.9643 14.8785" fill="white"/>
<path d="M48.1748 30.5983C47.9475 29.911 47.2159 29.6899 46.0005 29.9409C42.3916 30.6857 41.0992 30.1698 40.6749 29.8573C43.48 25.584 45.7876 20.4183 47.0325 15.5988C47.6222 13.3158 47.9479 11.1956 47.9746 9.46742C48.004 7.57068 47.6809 6.17684 47.0147 5.32539C44.3284 1.8929 40.3858 0.0516881 35.6134 0.00117801C32.3325 -0.0357024 29.5604 0.803928 29.0231 1.04004C27.8914 0.75863 26.6577 0.585853 25.3146 0.563805C22.8516 0.523918 20.7226 1.1136 18.9599 2.31562C18.1942 2.0306 16.2155 1.35132 13.7956 0.961472C9.61212 0.288003 6.28767 0.798316 3.9153 2.47898C1.08453 4.48455 -0.222322 8.06957 0.0308298 13.1342C0.116016 14.8381 1.08693 20.08 2.61907 25.0999C4.63587 31.7071 6.82825 35.4475 9.13488 36.2169C9.40487 36.3069 9.71615 36.3699 10.0595 36.3699C10.9009 36.3699 11.9326 35.9907 13.0059 34.7002C14.3151 33.1297 15.6693 31.5973 17.067 30.105C17.9738 30.5917 18.9699 30.8635 19.9888 30.8907C19.9908 30.9174 19.9934 30.944 19.9958 30.9705C19.8204 31.1796 19.6487 31.3918 19.4806 31.6069C18.7747 32.503 18.6278 32.6897 16.3554 33.1575C15.709 33.291 13.9923 33.6447 13.967 34.8482C13.9398 36.163 15.9964 36.7152 16.2308 36.7738C17.0473 36.9782 17.8341 37.079 18.5843 37.079C20.4089 37.079 22.0146 36.4793 23.2978 35.319C23.2583 40.0064 23.4537 44.6253 24.0165 46.0325C24.4775 47.1847 25.6036 50.0002 29.1606 50C29.6825 50 30.2569 49.9393 30.8889 49.8038C34.6012 49.008 36.2133 47.3673 36.8369 43.75C37.1706 41.8168 37.7433 37.2005 38.0127 34.7243C38.5811 34.9017 39.3129 34.9829 40.104 34.9827C41.754 34.9827 43.658 34.6321 44.852 34.0779C46.1933 33.4549 48.6138 31.9264 48.1748 30.5983V30.5983ZM39.3343 13.8658C39.3221 14.5968 39.2215 15.2605 39.1149 15.9532C39 16.6982 38.8814 17.4685 38.8515 18.4035C38.822 19.3135 38.9357 20.2596 39.0455 21.1745C39.2676 23.0226 39.4955 24.9251 38.6134 26.8024C38.4668 26.5428 38.3363 26.2744 38.2225 25.9989C38.1129 25.7331 37.8748 25.3062 37.545 24.7153C36.2624 22.4151 33.2589 17.0285 34.7964 14.8305C35.2544 14.1763 36.4168 13.5036 39.3343 13.8658V13.8658ZM35.7978 1.48141C40.074 1.57581 43.4565 3.1755 45.8514 6.23577C47.6882 8.58309 45.6655 19.2638 39.8102 28.4781C39.7513 28.4032 39.6921 28.3286 39.6326 28.2542L39.5584 28.1616C41.0715 25.6627 40.7757 23.1903 40.5123 20.9984C40.4041 20.0988 40.3018 19.2491 40.3279 18.451C40.3548 17.6052 40.4666 16.8796 40.5748 16.1781C40.7077 15.3136 40.843 14.419 40.8057 13.3645C40.8336 13.2539 40.8448 13.1232 40.8302 12.9681C40.735 11.9568 39.5805 8.93045 37.2273 6.19128C35.9401 4.69301 34.063 3.01635 31.5001 1.88549C32.6025 1.65699 34.1099 1.44392 35.7978 1.48141V1.48141ZM11.87 33.7558C10.6875 35.1777 9.87089 34.9051 9.6023 34.8157C7.85249 34.232 5.82206 30.5336 4.03196 24.6688C2.48298 19.5941 1.5778 14.4912 1.50605 13.0603C1.27995 8.53479 2.37695 5.38091 4.76676 3.68601C8.65604 0.927999 15.0504 2.5788 17.6198 3.41602C17.5829 3.4525 17.5444 3.48658 17.5079 3.52366C13.2915 7.78174 13.3916 15.0568 13.402 15.5016C13.4016 15.6732 13.416 15.9161 13.4357 16.2502C13.5082 17.4739 13.6433 19.7512 13.2825 22.3303C12.9474 24.7269 13.6862 27.0726 15.3091 28.7661C15.4757 28.9396 15.6508 29.1047 15.8337 29.2608C15.1113 30.0345 13.5413 31.7454 11.87 33.7558V33.7558ZM16.3757 27.7441C15.0676 26.3791 14.4735 24.4806 14.7455 22.5347C15.1263 19.8104 14.9858 17.4376 14.9103 16.1628C14.8997 15.9844 14.8902 15.8281 14.8848 15.7048C15.5008 15.1586 18.3552 13.6293 20.3908 14.0957C21.3197 14.3084 21.8857 14.941 22.121 16.0289C23.3389 21.6618 22.2822 24.0095 21.4331 25.8962C21.2581 26.2849 21.0928 26.6523 20.9517 27.0323L20.8422 27.3262C20.5652 28.069 20.3074 28.7597 20.1477 29.4155C18.7571 29.4115 17.4043 28.8174 16.3757 27.7439V27.7441ZM16.5891 35.3406C16.1831 35.2392 15.8179 35.063 15.6036 34.9169C15.7826 34.8327 16.1011 34.7181 16.6535 34.6042C19.3267 34.054 19.7396 33.6656 20.6412 32.5209C20.8478 32.2583 21.0821 31.9609 21.4066 31.5985L21.407 31.5981C21.8903 31.0569 22.1114 31.1487 22.5123 31.3151C22.8372 31.4493 23.1537 31.8566 23.2819 32.3048C23.3427 32.5165 23.4108 32.9182 23.1877 33.2308C21.3044 35.8678 18.56 35.8339 16.5891 35.3406V35.3406ZM30.5794 48.3594C27.3091 49.0601 26.1512 47.3915 25.3881 45.484C24.8957 44.2525 24.6535 38.6992 24.8253 32.5664C24.8275 32.4848 24.8159 32.406 24.7934 32.3319C24.7733 32.1854 24.7428 32.0406 24.702 31.8985C24.4467 31.0062 23.8243 30.2598 23.0777 29.9503C22.781 29.8274 22.2367 29.6019 21.5824 29.7693C21.7219 29.1944 21.9639 28.5452 22.2262 27.8423L22.3363 27.5466C22.4601 27.2133 22.6157 26.868 22.78 26.5024C23.6686 24.5285 24.8854 21.8248 23.5647 15.7168C23.0701 13.4291 21.4181 12.3118 18.9138 12.5714C17.4125 12.7267 16.0389 13.3324 15.3538 13.6798C15.2065 13.7544 15.0718 13.8265 14.946 13.8967C15.1372 11.5916 15.8595 7.28386 18.5618 4.55831C20.2633 2.84257 22.5293 1.99513 25.2901 2.04083C30.73 2.12982 34.2184 4.92151 36.1871 7.24798C37.8836 9.25255 38.8022 11.272 39.1688 12.3611C36.4118 12.0807 34.5367 12.6249 33.5862 13.9839C31.5183 16.9399 34.7175 22.6772 36.255 25.4346C36.537 25.9399 36.7804 26.3767 36.8569 26.5623C37.3576 27.7757 38.0058 28.5859 38.4791 29.1772C38.6242 29.3584 38.7649 29.5342 38.8719 29.6877C38.0369 29.9284 36.537 30.4846 36.6737 33.2649C36.5635 34.6599 35.7796 41.1914 35.3813 43.499C34.8556 46.5477 33.7337 47.6831 30.5794 48.3596V48.3594ZM44.23 32.7382C43.3762 33.1344 41.9472 33.4317 40.5899 33.4956C39.0906 33.5658 38.3273 33.3276 38.1478 33.1811C38.0636 31.4485 38.7084 31.2676 39.3909 31.0759C39.4981 31.0459 39.6027 31.0164 39.7037 30.9811C39.7665 31.0322 39.8352 31.083 39.9106 31.1327C41.1156 31.928 43.2649 32.0138 46.2993 31.3874L46.3326 31.3808C45.9233 31.7634 45.223 32.277 44.23 32.7382Z" fill="white"/>
</svg>
