<svg width="54" height="21" viewBox="0 0 54 21" fill="none" xmlns="http://www.w3.org/2000/svg">
<path d="M34.8783 20.289L43.0751 0H37.6411L32.0344 13.1112L28.0469 0H23.8699L19.5891 13.1112L16.57 7.13665L13.8379 15.5377L16.6117 20.2892H21.9596L25.8282 8.53137L29.5167 20.2892L34.8783 20.289Z" fill="#FB8C00"/>
<path d="M5.1454 13.3243H8.48391C9.49535 13.3243 10.3958 13.2115 11.1856 12.9856L12.0492 10.3239L14.4623 2.88545C14.2769 2.59196 14.0661 2.31527 13.8324 2.05857C12.5938 0.686424 10.7808 0.000244141 8.39405 0.000244141H0V20.2893H5.1454V13.3243ZM9.56454 4.66787C10.0486 5.15513 10.2906 5.80735 10.2906 6.62453C10.2906 7.44781 10.0775 8.10067 9.65208 8.58329C9.18548 9.11949 8.32634 9.3876 7.07463 9.3876H5.1454V3.93697H7.08898C8.25546 3.93697 9.08065 4.1806 9.56475 4.66787H9.56454ZM39.7455 16.6554L41.3054 12.7187H45.8085L43.6714 6.74708L46.3444 0.000244141L54 20.2893H48.354L47.046 16.6554H39.7455Z" fill="#B1AFAF"/>
</svg>
