<svg width="50" height="50" viewBox="0 0 50 50" fill="none" xmlns="http://www.w3.org/2000/svg">
<path d="M0 17C0 7.61116 7.61116 0 17 0H33C42.3888 0 50 7.61116 50 17V33C50 42.3888 42.3888 50 33 50H17C7.61116 50 0 42.3888 0 33V17Z" fill="#282C34"/>
<path d="M24.9645 28.4978C26.9118 28.4978 28.4904 26.9191 28.4904 24.9718C28.4904 23.0244 26.9118 21.4458 24.9645 21.4458C23.0171 21.4458 21.4385 23.0244 21.4385 24.9718C21.4385 26.9191 23.0171 28.4978 24.9645 28.4978Z" fill="#00D8FF"/>
<path fill-rule="evenodd" clip-rule="evenodd" d="M24.9646 18.6471C20.2554 18.6471 15.8471 19.3327 12.6286 20.454C12.6285 20.454 12.6285 20.454 12.6285 20.454C10.7259 21.1171 9.25664 21.9325 8.28022 22.7677C7.28478 23.6192 6.91025 24.3914 6.91025 24.9711C6.91025 25.5751 7.31817 26.4052 8.38384 27.3177C9.4257 28.2099 10.9857 29.0794 12.9885 29.7639C16.1475 30.8434 20.4067 31.3662 24.9646 31.3662C29.3993 31.3662 33.5719 30.8105 36.7036 29.773L36.7037 29.773C38.781 29.085 40.4029 28.219 41.4874 27.3262C42.5972 26.4125 43.0179 25.5821 43.0179 24.9711C43.0179 24.3954 42.629 23.6168 41.5934 22.7527C40.5812 21.9081 39.0682 21.0864 37.1361 20.4213C37.136 20.4213 37.136 20.4212 37.136 20.4212C33.9279 19.3173 29.6265 18.6471 24.9646 18.6471ZM12.0736 18.8613C15.5108 17.6638 20.1144 16.9604 24.9646 16.9604C29.7691 16.9604 34.2627 17.6488 37.6849 18.8264L37.6849 18.8265C39.7471 19.5363 41.4595 20.4443 42.674 21.4577C43.8652 22.4516 44.7045 23.6591 44.7045 24.9711C44.7045 26.3269 43.8235 27.5876 42.5595 28.6283C41.2701 29.6898 39.4458 30.6416 37.2339 31.3741C33.88 32.4852 29.5162 33.0528 24.9646 33.0528C20.3079 33.0528 15.8443 32.5222 12.443 31.3599L12.443 31.3599C10.2964 30.6262 8.532 29.6651 7.28681 28.5988C6.06543 27.5529 5.22363 26.2967 5.22363 24.9711C5.22363 23.6783 6.02191 22.48 7.18389 21.4861C8.36487 20.4759 10.0376 19.5708 12.0735 18.8613L12.0736 18.8613Z" fill="#00D8FF"/>
<path fill-rule="evenodd" clip-rule="evenodd" d="M18.6949 9.54453C17.3482 9.04189 16.419 9.09394 15.8901 9.40021L15.8897 9.4004C15.3918 9.68844 14.9128 10.4147 14.6838 11.744C14.46 13.0432 14.5068 14.7644 14.8991 16.7699C14.8991 16.7699 14.8991 16.77 14.8992 16.77C15.5509 20.0998 17.1256 24.1579 19.4611 28.1932C21.8204 32.2687 24.6221 35.7403 27.205 37.9637C28.7327 39.2781 30.1746 40.1408 31.3866 40.5672C32.6221 41.0018 33.4781 40.939 33.98 40.6485L33.9802 40.6485C34.5026 40.3462 35.0168 39.5775 35.2728 38.198C35.5231 36.8493 35.4941 35.0635 35.083 32.9871L35.083 32.9869C34.4355 29.7137 32.7531 25.7656 30.4694 21.8207L30.4694 21.8207C28.2474 17.9817 25.6775 14.6497 23.2098 12.4588L23.2098 12.4588C21.5732 11.0056 20.011 10.0357 18.6949 9.54453ZM18.7313 28.6157L18.0014 29.0381C15.5945 24.8795 13.9392 20.6459 13.2439 17.0939L13.2439 17.0938C12.8252 14.9534 12.7532 13.0164 13.0217 11.4577C13.285 9.92905 13.9094 8.59765 15.0449 7.94063C15.045 7.94057 15.0451 7.94051 15.0452 7.94044C16.2187 7.26114 17.7508 7.39187 19.2847 7.96439C20.8494 8.54839 22.5871 9.65034 24.3297 11.1976C26.9726 13.5441 29.6486 17.0357 31.9291 20.9758C34.262 25.0057 36.0403 29.1348 36.7375 32.6595C36.7375 32.6596 36.7375 32.6596 36.7375 32.6597C37.1782 34.8852 37.2302 36.8939 36.9311 38.5057C36.6377 40.0868 35.972 41.4447 34.8247 42.1084C33.7059 42.7558 32.2693 42.6656 30.8269 42.1582C29.3609 41.6425 27.7395 40.6485 26.1048 39.2421L26.1048 39.242L26.1047 39.242C23.3462 36.8674 20.4313 33.2357 18.0014 29.0381L18.7313 28.6157Z" fill="#00D8FF"/>
<path fill-rule="evenodd" clip-rule="evenodd" d="M31.2875 9.54453C32.6342 9.04189 33.5635 9.09394 34.0924 9.40021L34.0927 9.4004C34.5906 9.68844 35.0696 10.4147 35.2986 11.744C35.5224 13.0432 35.4756 14.7644 35.0833 16.7699C35.0833 16.7699 35.0833 16.77 35.0833 16.77C34.4315 20.0998 32.8568 24.1579 30.5213 28.1932C28.1621 32.2687 25.3603 35.7403 22.7774 37.9637C21.2497 39.2781 19.8078 40.1408 18.5958 40.5672C17.3603 41.0018 16.5044 40.939 16.0024 40.6485L16.0023 40.6485C15.4798 40.3462 14.9656 39.5775 14.7096 38.198C14.4594 36.8493 14.4883 35.0635 14.8994 32.9871L14.8994 32.9869C15.5469 29.7137 17.2293 25.7656 19.513 21.8207L19.5131 21.8207C21.735 17.9817 24.3049 14.6497 26.7726 12.4588L26.7726 12.4588C28.4092 11.0056 29.9714 10.0357 31.2875 9.54453ZM31.2511 28.6157L31.981 29.0381C34.3879 24.8795 36.0432 20.6459 36.7385 17.0939L36.7385 17.0938C37.1572 14.9534 37.2292 13.0164 36.9607 11.4577C36.6974 9.92905 36.073 8.59765 34.9375 7.94063C34.9374 7.94057 34.9373 7.94051 34.9372 7.94044C33.7638 7.26114 32.2316 7.39187 30.6977 7.96439C29.1331 8.54839 27.3953 9.65034 25.6528 11.1976C23.0098 13.5441 20.3338 17.0357 18.0533 20.9758C15.7204 25.0057 13.9421 29.1348 13.2449 32.6595C13.2449 32.6596 13.2449 32.6596 13.2449 32.6597C12.8043 34.8852 12.7522 36.8939 13.0513 38.5057C13.3447 40.0868 14.0104 41.4447 15.1577 42.1084C16.2765 42.7558 17.7131 42.6656 19.1555 42.1582C20.6215 41.6425 22.2429 40.6485 23.8776 39.2421L23.8777 39.242L23.8778 39.242C26.6362 36.8674 29.5511 33.2357 31.981 29.0381L31.2511 28.6157Z" fill="#00D8FF"/>
</svg>
