<svg width="54" height="49" viewBox="0 0 54 49" fill="none" xmlns="http://www.w3.org/2000/svg">
<path d="M54 24.0501C54 20.4729 49.5202 17.0828 42.6519 14.9804C44.2369 7.98002 43.5324 2.41052 40.4285 0.627395C39.713 0.209131 38.8765 0.0110068 37.9629 0.0110068V2.46555C38.4692 2.46555 38.8765 2.56461 39.2177 2.75173C40.7146 3.61027 41.364 6.87933 40.8577 11.084C40.7367 12.1186 40.5385 13.2083 40.2964 14.32C38.139 13.7917 35.7835 13.3844 33.307 13.1203C31.821 11.084 30.2801 9.23481 28.7281 7.6168C32.3163 4.2817 35.6845 2.45455 37.9739 2.45455V0C34.947 0 30.9845 2.15736 26.978 5.89972C22.9715 2.17937 19.009 0.0440279 15.9821 0.0440279V2.49857C18.2605 2.49857 21.6396 4.31472 25.2279 7.6278C23.6869 9.24582 22.1459 11.084 20.682 13.1203C18.1945 13.3844 15.839 13.7917 13.6816 14.331C13.4285 13.2303 13.2413 12.1627 13.1093 11.139C12.5919 6.93437 13.2303 3.66531 14.7163 2.79576C15.0465 2.59764 15.4757 2.50958 15.9821 2.50958V0.0550346C15.0575 0.0550346 14.221 0.253159 13.4945 0.671423C10.4015 2.45455 9.70811 8.01304 11.3041 14.9914C4.45781 17.1048 0 20.4839 0 24.0501C0 27.6274 4.47982 31.0175 11.3481 33.1199C9.76315 40.1203 10.4676 45.6898 13.5715 47.4729C14.287 47.8911 15.1235 48.0893 16.0481 48.0893C19.075 48.0893 23.0375 45.9319 27.044 42.1896C31.0506 45.9099 35.013 48.0452 38.0399 48.0452C38.9645 48.0452 39.8011 47.8471 40.5275 47.4289C43.6205 45.6457 44.3139 40.0872 42.7179 33.1088C49.5422 31.0065 54 27.6164 54 24.0501V24.0501ZM39.669 16.7085C39.2617 18.1284 38.7554 19.5923 38.183 21.0563C37.7318 20.1757 37.2585 19.2951 36.7411 18.4146C36.2348 17.534 35.6955 16.6755 35.1561 15.839C36.7191 16.0701 38.2271 16.3563 39.669 16.7085ZM34.6278 28.4309C33.7693 29.9168 32.8887 31.3257 31.9751 32.6355C30.3351 32.7786 28.6731 32.8557 27 32.8557C25.338 32.8557 23.6759 32.7786 22.0469 32.6466C21.1333 31.3367 20.2417 29.9388 19.3832 28.4639C18.5467 27.022 17.7872 25.5581 17.0938 24.0832C17.7762 22.6082 18.5467 21.1333 19.3722 19.6914C20.2307 18.2055 21.1113 16.7966 22.0249 15.4867C23.6649 15.3437 25.3269 15.2666 27 15.2666C28.662 15.2666 30.3241 15.3437 31.9531 15.4757C32.8667 16.7856 33.7583 18.1834 34.6168 19.6584C35.4533 21.1003 36.2128 22.5642 36.9062 24.0391C36.2128 25.5141 35.4533 26.989 34.6278 28.4309ZM38.183 27C38.7774 28.4749 39.2837 29.9499 39.702 31.3808C38.2601 31.733 36.7411 32.0302 35.1671 32.2613C35.7065 31.4138 36.2458 30.5442 36.7521 29.6527C37.2585 28.7721 37.7318 27.8806 38.183 27ZM27.022 38.7444C25.9984 37.6877 24.9747 36.51 23.9621 35.2222C24.9527 35.2662 25.9653 35.2992 26.989 35.2992C28.0236 35.2992 29.0473 35.2772 30.0489 35.2222C29.0583 36.51 28.0347 37.6877 27.022 38.7444ZM18.8329 32.2613C17.2699 32.0302 15.7619 31.744 14.32 31.3918C14.7273 29.9719 15.2336 28.5079 15.806 27.044C16.2572 27.9246 16.7305 28.8051 17.2479 29.6857C17.7652 30.5662 18.2935 31.4248 18.8329 32.2613ZM26.967 9.35589C27.9906 10.4126 29.0143 11.5903 30.0269 12.8781C29.0363 12.8341 28.0236 12.8011 27 12.8011C25.9653 12.8011 24.9417 12.8231 23.9401 12.8781C24.9307 11.5903 25.9543 10.4126 26.967 9.35589ZM18.8219 15.839C18.2825 16.6865 17.7432 17.5561 17.2369 18.4476C16.7305 19.3282 16.2572 20.2087 15.806 21.0893C15.2116 19.6143 14.7053 18.1394 14.287 16.7085C15.7289 16.3673 17.2479 16.0701 18.8219 15.839V15.839ZM8.86058 29.6196C4.96413 27.9576 2.44354 25.7782 2.44354 24.0501C2.44354 22.3221 4.96413 20.1317 8.86058 18.4806C9.80718 18.0734 10.8418 17.7102 11.9095 17.3689C12.5369 19.5263 13.3624 21.7717 14.3861 24.0722C13.3734 26.3616 12.5589 28.596 11.9425 30.7424C10.8528 30.4011 9.81818 30.0269 8.86058 29.6196ZM14.7823 45.3486C13.2854 44.49 12.636 41.221 13.1423 37.0163C13.2634 35.9817 13.4615 34.892 13.7036 33.7803C15.861 34.3086 18.2165 34.7159 20.693 34.98C22.179 37.0163 23.7199 38.8655 25.2719 40.4835C21.6837 43.8186 18.3155 45.6457 16.0261 45.6457C15.5308 45.6347 15.1125 45.5357 14.7823 45.3486V45.3486ZM40.8907 36.9613C41.4081 41.1659 40.7697 44.435 39.2837 45.3045C38.9535 45.5026 38.5243 45.5907 38.0179 45.5907C35.7395 45.5907 32.3604 43.7746 28.7721 40.4615C30.3131 38.8435 31.8541 37.0053 33.318 34.969C35.8055 34.7049 38.161 34.2976 40.3184 33.7583C40.5715 34.87 40.7697 35.9376 40.8907 36.9613V36.9613ZM45.1284 29.6196C44.1818 30.0269 43.1472 30.3901 42.0795 30.7313C41.4521 28.574 40.6266 26.3286 39.6029 24.0281C40.6156 21.7387 41.4301 19.5043 42.0465 17.3579C43.1362 17.6991 44.1708 18.0734 45.1394 18.4806C49.0359 20.1427 51.5565 22.3221 51.5565 24.0501C51.5455 25.7782 49.0249 27.9686 45.1284 29.6196V29.6196Z" fill="#61DAFB"/>
<path d="M26.9891 29.0804C29.7672 29.0804 32.0193 26.8283 32.0193 24.0502C32.0193 21.2721 29.7672 19.02 26.9891 19.02C24.2111 19.02 21.959 21.2721 21.959 24.0502C21.959 26.8283 24.2111 29.0804 26.9891 29.0804Z" fill="#61DAFB"/>
</svg>
