<svg width="50" height="43" viewBox="0 0 50 43" fill="none" xmlns="http://www.w3.org/2000/svg">
<path d="M48.0409 32.8828C45.3725 34.2736 31.5499 39.957 28.6072 41.4911C25.6644 43.0255 24.0296 43.0107 21.7048 41.8993C19.3802 40.788 4.6705 34.8462 2.0207 33.5796C0.696482 32.9468 0 32.4125 0 31.9078V26.8539C0 26.8539 19.1503 22.6849 22.2419 21.5758C25.3333 20.4666 26.406 20.4265 29.0368 21.3902C31.6681 22.3543 47.3997 25.1926 49.9999 26.1449L49.9987 31.1273C49.9991 31.6269 49.3991 32.175 48.0409 32.8828" fill="#912626"/>
<path d="M48.0399 27.8586C45.3717 29.2489 31.5495 34.9325 28.6067 36.4664C25.6641 38.001 24.0294 37.986 21.7048 36.8746C19.38 35.7641 4.67084 29.8213 2.02124 28.5555C-0.628362 27.2889 -0.683831 26.4172 1.9189 25.3981C4.52162 24.3786 19.1501 18.6393 22.2421 17.5302C25.3335 16.4214 26.4059 16.3809 29.0368 17.345C31.6678 18.3087 45.4076 23.7776 48.0074 24.7297C50.6082 25.6831 50.708 26.468 48.0399 27.8586" fill="#C6302B"/>
<path d="M48.0409 24.7049C45.3725 26.0959 31.5499 31.7791 28.6072 33.3139C25.6644 34.8477 24.0296 34.8328 21.7048 33.7215C19.38 32.6107 4.6705 26.6684 2.0207 25.4018C0.696482 24.769 0 24.2354 0 23.7305V18.676C0 18.676 19.1503 14.5073 22.2419 13.3981C25.3333 12.2889 26.406 12.2487 29.0368 13.2126C31.6683 14.1764 47.3999 17.0141 49.9999 17.9666L49.9987 22.9496C49.9991 23.4491 49.3991 23.9971 48.0409 24.7049Z" fill="#912626"/>
<path d="M48.0399 19.6808C45.3717 21.0714 31.5495 26.7546 28.6067 28.2892C25.6641 29.8232 24.0294 29.8081 21.7048 28.6968C19.38 27.5863 4.67084 21.6437 2.02124 20.3777C-0.628362 19.1115 -0.683831 18.2396 1.9189 17.2201C4.52162 16.2011 19.1503 10.4615 22.2421 9.35252C25.3335 8.24354 26.4059 8.2033 29.0368 9.16717C31.6678 10.1308 45.4076 15.5994 48.0074 16.5519C50.6082 17.505 50.708 18.2902 48.0399 19.6808" fill="#C6302B"/>
<path d="M48.0409 16.2243C45.3725 17.6149 31.5499 23.2985 28.6072 24.8333C25.6644 26.3672 24.0296 26.3522 21.7048 25.2409C19.38 24.1301 4.6705 18.1876 2.0207 16.9216C0.696482 16.2882 0 15.7544 0 15.2501V10.1954C0 10.1954 19.1503 6.02685 22.2419 4.91787C25.3333 3.8085 26.406 3.76866 29.0368 4.73233C31.6683 5.69619 47.3999 8.53388 49.9999 9.48642L49.9987 14.4692C49.9991 14.9682 49.3991 15.5163 48.0409 16.2243Z" fill="#912626"/>
<path d="M48.0398 11.2004C45.3716 12.591 31.5494 18.2746 28.6066 19.8085C25.664 21.3425 24.0293 21.3275 21.7047 20.2167C19.3801 19.1054 4.67074 13.1632 2.02134 11.897C-0.62846 10.631 -0.683733 9.75895 1.9188 8.73962C4.52153 7.72048 19.1502 1.98163 22.242 0.872259C25.3334 -0.236918 26.4058 -0.276761 29.0367 0.687103C31.6677 1.65097 45.4076 7.11951 48.0073 8.07204C50.6081 9.02439 50.7079 9.80974 48.0398 11.2004" fill="#C6302B"/>
<path d="M31.1095 6.28368L26.8107 6.72997L25.8484 9.04559L24.2941 6.46161L19.3302 6.01552L23.0341 4.67978L21.9228 2.62939L25.3906 3.98564L28.6597 2.91533L27.7761 5.03544L31.1095 6.28368V6.28368ZM25.5918 17.5176L17.5689 14.1901L29.065 12.4255L25.5918 17.5176V17.5176ZM14.4687 7.57079C17.8623 7.57079 20.6132 8.63719 20.6132 9.95242C20.6132 11.268 17.8623 12.3343 14.4687 12.3343C11.0752 12.3343 8.32422 11.2678 8.32422 9.95242C8.32422 8.63719 11.0752 7.57079 14.4687 7.57079Z" fill="white"/>
<path d="M36.1904 6.91694L42.9943 9.60561L36.1963 12.2917L36.1904 6.91675" fill="#621B1C"/>
<path d="M28.6631 9.89428L36.1904 6.91675L36.1963 12.2915L35.4582 12.5802L28.6631 9.89428Z" fill="#9A2928"/>
</svg>
