<svg width="50" height="48" viewBox="0 0 50 48" fill="none" xmlns="http://www.w3.org/2000/svg">
<path fill-rule="evenodd" clip-rule="evenodd" d="M25.3195 47.6276C30.7929 28.0586 30.6342 27.9699 34.5901 14.0169L35.5409 14.5673C36.0589 14.8637 36.4817 14.6197 36.4817 14.0243V7.3687C37.5326 3.69315 38.3531 0.850715 38.5959 0H42.8809L50.0005 6.59304L45.3241 10.6339L48.8609 14.4584L25.5549 47.6276C25.4422 47.8152 25.2835 47.7726 25.3197 47.6276H25.3195Z" fill="#FEFEFE"/>
<path fill-rule="evenodd" clip-rule="evenodd" d="M24.4455 47.6284H24.6807C19.2087 28.0593 19.3663 27.9706 15.4104 14.0176L14.4596 14.5681C13.943 14.8644 13.5188 14.6204 13.5188 14.025V7.36943C12.4679 3.69504 11.6473 0.851448 11.4045 0.000732422H7.12123L0 6.59377L4.67521 10.6347L1.13846 14.4603L24.4455 47.6284Z" fill="#FEFEFE"/>
<path fill-rule="evenodd" clip-rule="evenodd" d="M24.8931 37.0797C25.8415 37.0797 26.6222 36.2993 26.6222 35.3507C26.6222 34.4023 25.8415 33.6218 24.8931 33.6218C23.9445 33.6218 23.1641 34.4023 23.1641 35.3507C23.1641 36.2993 23.9445 37.0797 24.8931 37.0797Z" fill="#F0F0F0"/>
<path fill-rule="evenodd" clip-rule="evenodd" d="M24.8931 26.8175C25.8415 26.8175 26.6222 26.0371 26.6222 25.0887C26.6222 24.1401 25.8415 23.3596 24.8931 23.3596C23.9445 23.3596 23.1641 24.1401 23.1641 25.0887C23.1641 26.0371 23.9445 26.8175 24.8931 26.8175Z" fill="#F0F0F0"/>
<path fill-rule="evenodd" clip-rule="evenodd" d="M24.8931 16.4573C25.8415 16.4573 26.6222 15.6768 26.6222 14.7283C26.6222 13.7798 25.8415 12.9993 24.8931 12.9993C23.9445 12.9993 23.1641 13.7798 23.1641 14.7283C23.1641 15.6768 23.9445 16.4573 24.8931 16.4573Z" fill="#F0F0F0"/>
<path fill-rule="evenodd" clip-rule="evenodd" d="M35.0357 1.6711C35.4722 1.41971 35.8275 1.62478 35.8275 2.1291V12.8193C35.8275 13.3223 35.4698 13.5287 35.0343 13.276L28.6377 9.58283C28.7504 9.45518 28.8204 9.29509 28.8204 9.11994V5.70827C28.8204 5.56814 28.7754 5.43931 28.7027 5.32671L35.0357 1.6711Z" fill="#DC143C"/>
<path fill-rule="evenodd" clip-rule="evenodd" d="M21.2779 9.12153L21.2793 9.11899C21.2793 9.29413 21.3468 9.45305 21.4593 9.58187L15.0639 13.275C14.6273 13.5278 14.2695 13.3213 14.2695 12.8184V2.12815C14.2695 1.62539 14.6274 1.42013 15.0628 1.67034L21.3956 5.3283C21.323 5.43971 21.2779 5.56854 21.2779 5.7085V9.12153Z" fill="#DC143C"/>
<path fill-rule="evenodd" clip-rule="evenodd" d="M27.9349 5.47613C28.1474 5.47613 28.3176 5.59243 28.3176 5.73885V9.14796C28.3176 9.29066 28.1462 9.40678 27.9349 9.40678H22.18C21.9672 9.40678 21.7959 9.29046 21.7959 9.1468V5.73611C21.7959 5.59225 21.9672 5.47339 22.1786 5.47339H27.9335L27.9349 5.47593V5.47613Z" fill="#DC143C"/>
</svg>
