<svg width="54" height="41" viewBox="0 0 54 41" fill="none" xmlns="http://www.w3.org/2000/svg">
<path d="M46.4858 23.2431C44.5977 23.2537 42.9628 23.7072 41.5916 24.3823C41.0853 23.3803 40.579 22.5047 40.4947 21.8509C40.3998 21.0914 40.2838 20.6272 40.3998 19.7202C40.5157 18.813 41.0431 17.5262 41.0431 17.4207C41.0325 17.3257 40.927 16.8616 39.8407 16.8511C38.7544 16.8405 37.8155 17.0621 37.71 17.3468C37.6045 17.6316 37.3936 18.2856 37.2565 18.9607C37.0666 19.9521 35.0836 23.4646 33.955 25.3104C33.5858 24.5932 33.2694 23.9603 33.206 23.4539C33.1112 22.6946 32.9951 22.2304 33.1112 21.3234C33.2272 20.4161 33.7546 19.1294 33.7546 19.0239C33.7441 18.929 33.6386 18.4649 32.5523 18.4544C31.4657 18.4438 30.5271 18.6653 30.4216 18.9501C30.3161 19.2349 30.2001 19.91 29.968 20.5639C29.7464 21.2179 27.1095 27.0825 26.4239 28.6119C26.0758 29.3924 25.77 30.0147 25.5484 30.4367C25.3269 30.8586 25.5379 30.4683 25.5168 30.5105C25.3269 30.8691 25.2214 31.0695 25.2214 31.0695V31.0802C25.0738 31.3439 24.9155 31.5969 24.8416 31.5969C24.7889 31.5969 24.6834 30.8902 24.8627 29.9199C25.253 27.8841 26.2023 24.7093 26.1918 24.5933C26.1918 24.5405 26.371 23.9814 25.58 23.6967C24.81 23.4119 24.5358 23.8866 24.4724 23.8866C24.4091 23.8866 24.3564 24.0553 24.3564 24.0553C24.3564 24.0553 25.2108 20.4797 22.7215 20.4797C21.1604 20.4797 19.0087 22.1779 17.9433 23.7285C17.2683 24.0976 15.8338 24.8781 14.3149 25.7115C13.7348 26.0279 13.1336 26.3654 12.564 26.6713L12.4481 26.5445C9.43138 23.3274 3.8516 21.0491 4.08365 16.7245C4.16803 15.1529 4.71652 11.0076 14.8003 5.98687C23.0592 1.87322 29.6727 3.00184 30.8223 5.51221C32.4572 9.09847 27.2888 15.7647 18.703 16.7245C15.4332 17.0937 13.7138 15.828 13.2814 15.3533C12.8279 14.8576 12.7646 14.8365 12.5958 14.9314C12.3216 15.0791 12.4903 15.5221 12.5958 15.7858C12.849 16.4503 13.9038 17.6316 15.6969 18.2223C17.2684 18.7392 21.1079 19.0239 25.7489 17.2308C30.949 15.2162 35.0099 9.62586 33.818 4.95318C32.605 0.196125 24.7152 -1.36495 17.258 1.28255C12.8172 2.86472 8.00743 5.3329 4.54775 8.57108C0.434112 12.4105 -0.219851 15.7647 0.0543913 17.157C1.01435 22.125 7.85976 25.3632 10.6022 27.7575C10.4651 27.8312 10.3385 27.9051 10.2225 27.9685C8.85125 28.6434 3.63009 31.3754 2.32217 34.2654C0.845476 37.5352 2.55422 39.8875 3.69338 40.2039C7.21635 41.1849 10.8237 39.4234 12.775 36.5227C14.7157 33.6221 14.4838 29.8565 13.5872 28.1372L13.5555 28.074L14.6313 27.4411C15.3276 27.0297 16.0132 26.65 16.6143 26.3229C16.2769 27.2406 16.0342 28.327 15.9077 29.9092C15.7601 31.7657 16.5195 34.1705 17.5215 35.1198C17.9645 35.531 18.4919 35.5417 18.8189 35.5417C19.9792 35.5417 20.5066 34.5817 21.0867 33.4321C21.8039 32.0293 22.4368 30.4049 22.4368 30.4049C22.4368 30.4049 21.6457 34.8033 23.808 34.8033C24.5991 34.8033 25.3902 33.7802 25.7488 33.2528V33.2634C25.7488 33.2634 25.7699 33.2317 25.8121 33.1579C25.8564 33.0924 25.8986 33.0256 25.9387 32.9576V32.9365C26.2551 32.388 26.9618 31.1328 28.0166 29.0549C29.3772 26.3758 30.6852 23.0216 30.6852 23.0216C30.6852 23.0216 30.8118 23.8443 31.202 25.1944C31.434 25.9961 31.9403 26.8715 32.3305 27.7259C32.0141 28.1689 31.8242 28.4221 31.8242 28.4221L31.8348 28.4327C31.5818 28.7702 31.2969 29.1289 31.0016 29.4875C29.9257 30.7743 28.6389 32.2405 28.4702 32.6625C28.2697 33.1581 28.3119 33.5273 28.7022 33.8227C28.987 34.0337 29.4933 34.0758 30.0312 34.0337C31.0016 33.9703 31.6767 33.7278 32.0142 33.58C32.5416 33.3901 33.1428 33.1054 33.723 32.6834C34.7777 31.903 35.4212 30.7955 35.3579 29.3188C35.3262 28.5066 35.0625 27.705 34.7355 26.9455C34.8305 26.8084 34.9255 26.6712 35.0203 26.5236C36.6869 24.087 37.9737 21.408 37.9737 21.408C37.9737 21.408 38.1003 22.2307 38.4906 23.5808C38.6909 24.2664 39.0918 25.0154 39.4504 25.7538C37.8893 27.03 36.9084 28.5067 36.5709 29.4771C35.9485 31.2703 36.4337 32.0824 37.3514 32.2723C37.7627 32.3567 38.3534 32.1668 38.7963 31.977C39.3448 31.7976 40.0093 31.4916 40.6212 31.0382C41.676 30.2577 42.6886 29.1712 42.6358 27.7051C42.6042 27.03 42.4249 26.3655 42.1823 25.7327C43.5113 25.1842 45.2305 24.8677 47.414 25.1314C52.1078 25.6799 53.036 28.6122 52.8568 29.8358C52.6775 31.0594 51.6965 31.7344 51.3694 31.9453C51.0424 32.1457 50.937 32.2197 50.9686 32.3672C51.0108 32.5888 51.1585 32.5782 51.4433 32.5361C51.8335 32.4727 53.9114 31.5341 53.9958 29.2769C54.1224 26.3759 51.3694 23.2115 46.4858 23.2431V23.2431ZM10.2858 35.4469C8.73523 37.1451 6.55183 37.7885 5.62363 37.24C4.62159 36.6599 5.01175 34.16 6.92101 32.3564C8.08126 31.2594 9.5896 30.2468 10.5811 29.6245C10.8026 29.4874 11.1401 29.2871 11.5409 29.0444C11.6042 29.0023 11.6464 28.9811 11.6464 28.9811C11.7203 28.9389 11.8046 28.8861 11.889 28.8334C12.5957 31.4071 11.9207 33.6643 10.2858 35.4469V35.4469ZM21.6246 27.7364C21.0867 29.0549 19.9475 32.4407 19.2619 32.2509C18.6711 32.0927 18.3126 29.5295 19.1458 26.9981C19.5677 25.7217 20.4643 24.2029 20.9917 23.6121C21.8461 22.6628 22.7742 22.3464 23.0064 22.7367C23.2806 23.2431 21.9622 26.9137 21.6246 27.7364ZM30.9805 32.2087C30.7485 32.3248 30.5375 32.4091 30.4426 32.3459C30.3688 32.3037 30.5374 32.1455 30.5374 32.1455C30.5374 32.1455 31.7082 30.8903 32.1723 30.3102C32.436 29.9728 32.7525 29.5825 33.09 29.1394V29.266C33.0901 30.7847 31.6345 31.7973 30.9805 32.2087ZM38.1951 30.5632C38.0263 30.4367 38.0476 30.0464 38.617 28.8228C38.8386 28.3376 39.3448 27.5255 40.2203 26.7555C40.3258 27.0719 40.3892 27.3777 40.3785 27.6626C40.3681 29.5612 39.0179 30.2679 38.1951 30.5632Z" fill="#E866A8"/>
</svg>
