<svg width="35" height="52" viewBox="0 0 35 52" fill="none" xmlns="http://www.w3.org/2000/svg">
<path fill-rule="evenodd" clip-rule="evenodd" d="M25.0839 19.4194L31.8916 8.00779V1.23995C22.3745 9.48559 11.2006 19.1312 1.624 27.3102V31.109L13.9269 29.1075L13.2024 30.2732C11.163 33.5545 9.08635 37.0194 7.51898 39.665C6.73543 40.9875 6.07946 42.1048 5.61943 42.8914C5.38942 43.2847 5.20841 43.5952 5.08495 43.8074C5.04322 43.8791 5.00807 43.9396 4.97982 43.9882V50.5989L32.616 25.7267L32.4879 18.6705C32.4613 18.6735 32.4341 18.6767 32.4063 18.6798C31.9056 18.7371 31.2068 18.8148 30.449 18.897C28.9366 19.0612 27.178 19.2447 26.2935 19.3185L25.0839 19.4194ZM32.4765 18.0437C32.4829 18.043 32.4893 18.0422 32.4956 18.0415C32.8482 18.0008 33.0712 17.9737 33.0992 17.9676L33.2451 26L4.35582 52V43.8202C4.35582 43.8202 8.29171 37.0267 12.2366 30.6469C12.3819 30.4119 12.5273 30.1774 12.6724 29.9438L1 31.8427V27.0225C10.7603 18.6882 22.2151 8.79907 31.8916 0.414301C31.995 0.324717 32.0981 0.235304 32.2011 0.146067C32.2574 0.0973256 32.3135 0.0486363 32.3697 0L32.5156 0.146067V8.17978L26.2416 18.6966C26.4522 18.6791 26.7135 18.6551 27.01 18.6267C28.6223 18.4718 31.2752 18.1821 32.4765 18.0437ZM33.0992 17.9663V17.9676C33.1031 17.9667 33.1032 17.9663 33.0992 17.9663Z" fill="#FD5750"/>
<path d="M20.398 19.8355C24.3284 19.3983 32.4803 18.3783 32.4803 18.3783C32.4803 18.3783 13.993 35.1361 4.82215 43.5879C4.82215 43.5879 4.82215 43.5879 4.67658 43.5879C8.75251 37.0305 12.6829 30.4731 16.7588 23.7699C16.7588 23.7699 16.7588 23.7699 16.6132 23.6242C11.955 24.3528 7.44239 25.0814 2.78418 25.6643C12.5373 17.2125 31.898 0.891846 31.898 0.891846C31.898 0.891846 24.0373 13.5695 20.2525 19.6898C20.2525 19.6898 20.398 19.6898 20.398 19.8355Z" fill="#FD5750" stroke="#FD5750" stroke-width="1.2709"/>
</svg>
