<svg width="50" height="50" viewBox="0 0 50 50" fill="none" xmlns="http://www.w3.org/2000/svg">
<path fill-rule="evenodd" clip-rule="evenodd" d="M18.9062 23.7062C24.3849 19.2301 29.7443 14.5989 35.3423 10.2542C32.406 14.766 29.3862 19.2182 26.4499 23.73C23.9314 23.742 21.4128 23.742 18.9062 23.7062Z" fill="white"/>
<path fill-rule="evenodd" clip-rule="evenodd" d="M23.5379 26.2014C26.0684 26.2014 28.5869 26.2014 31.1054 26.2372C25.5909 30.6894 20.2555 35.3564 14.6455 39.6893C17.5818 35.1774 20.6016 30.7133 23.5379 26.2014Z" fill="white"/>
<path fill-rule="evenodd" clip-rule="evenodd" d="M18.6685 0.788471C25.1378 -0.870652 32.2876 0.0961746 37.9931 3.61733C45.1786 7.91434 49.8695 16.0429 49.9889 24.4101C50.2515 32.8609 45.847 41.24 38.7689 45.8354C30.8911 51.1351 19.9934 51.338 11.9484 46.301C3.74828 41.4071 -1.03811 31.536 0.191311 22.0587C1.18201 12.0442 8.91663 3.21151 18.6685 0.788471ZM17.6757 4.88296C29.8983 -0.0108605 44.8901 9.0248 46.1553 22.1307C48.1248 33.9236 38.3372 45.9075 26.3891 46.2536C15.0259 47.3875 4.04465 37.7551 3.72238 26.3441C2.87491 17.1056 8.96234 7.93861 17.6757 4.88296Z" fill="white"/>
</svg>
