<svg width="50" height="50" viewBox="0 0 50 50" fill="none" xmlns="http://www.w3.org/2000/svg">
<path d="M25 50V37.5001C25 37.5001 25 31.9445 30.5555 31.9445C36.1111 31.9445 36.1111 37.5001 36.1111 37.5001V50H25ZM12.5 50V33.3334C12.5 33.3334 12.5 27.7778 18.0555 27.7778C23.6111 27.7778 23.6111 33.3334 23.6111 33.3334V50H12.5ZM0 50V37.5001C0 37.5001 0 31.9445 5.55555 31.9445C11.1111 31.9445 11.1111 37.5001 11.1111 37.5001V50H0Z" fill="#FFDC5D"/>
<path d="M22.222 33.3335C22.222 31.0321 22.222 22.2224 18.0553 22.2224C13.8887 22.2224 13.8887 31.0321 13.8887 33.3335C13.8887 35.6349 15.7539 37.5002 18.0553 37.5002C20.3567 37.5002 22.222 35.6349 22.222 33.3335ZM9.722 37.5002C9.722 35.1988 9.722 26.3891 5.55534 26.3891C1.38868 26.3891 1.38867 35.1988 1.38867 37.5002C1.38867 39.8016 3.25395 41.6668 5.55534 41.6668C7.85673 41.6668 9.722 39.8016 9.722 37.5002ZM34.7221 37.5002C34.7221 35.1988 34.722 26.3891 30.5554 26.3891C26.3887 26.3891 26.3887 35.1988 26.3887 37.5002C26.3887 39.8016 28.2554 41.6668 30.5554 41.6668C32.8568 41.6668 34.7221 39.8016 34.7221 37.5002Z" fill="#CD69B7"/>
<path d="M18.0557 22.2224V27.7779H20.8334C20.8334 27.7779 23.6112 27.7779 29.1668 22.2224L26.389 19.4446C26.389 19.4446 23.6112 22.2224 18.0557 22.2224Z" fill="#E246BB"/>
<path d="M26.3887 19.4444L37.4998 8.33325L40.2776 11.111L29.1664 22.2221L26.3887 19.4444Z" fill="#F49EDF"/>
<path d="M37.5002 8.33333C37.5002 8.33333 34.7224 5.55555 37.5002 2.77778L40.278 0H50.0002V6.94444L45.8335 11.1111C43.0557 13.8889 40.278 11.1111 40.278 11.1111L37.5002 8.33333Z" fill="#F4A1E0"/>
</svg>
