<svg width="50" height="50" viewBox="0 0 50 50" fill="none" xmlns="http://www.w3.org/2000/svg">
<path d="M47.9422 29.9678C50.6815 27.2285 50.6813 22.7715 47.9422 20.0322C46.6154 18.7052 44.8511 17.9746 42.9745 17.9746C42.5288 17.9746 42.0903 18.0153 41.6623 18.0952C43.527 16.8198 44.7355 14.675 44.7355 12.2902C44.7355 8.41626 41.5837 5.26468 37.7098 5.26468C35.3203 5.26468 33.1718 6.47773 31.8972 8.34881C32.3188 6.12466 31.6575 3.74744 29.9676 2.05778C28.6412 0.73076 26.8767 0 25.0003 0C23.1235 0 21.3594 0.73076 20.0324 2.05778C18.3427 3.74744 17.6814 6.12466 18.1028 8.34881C16.8284 6.47792 14.6799 5.26468 12.2902 5.26468C8.41645 5.26468 5.26488 8.41606 5.26488 12.2902C5.26488 14.6752 6.47304 16.8198 8.33767 18.0952C7.905 18.0146 7.46581 17.9742 7.0257 17.9746C5.14895 17.9746 3.3848 18.7054 2.05798 20.0324C0.73076 21.3592 0 23.1235 0 24.9999C0 26.8767 0.73076 28.6408 2.05778 29.9678C3.38461 31.2946 5.14895 32.0256 7.02531 32.0256C7.47104 32.0256 7.90953 31.9849 8.33747 31.9048C6.47284 33.1804 5.26468 35.3252 5.26468 37.71C5.26468 41.5837 8.41606 44.7353 12.29 44.7353C14.6797 44.7353 16.8284 43.5221 18.1028 41.6512C17.6812 43.8755 18.3425 46.2528 20.0324 47.9422C21.3592 49.2692 23.1235 50 24.9999 50C26.8767 50 28.641 49.2692 29.9678 47.9422C31.6575 46.2526 32.3188 43.8753 31.8972 41.6512C33.1718 43.5221 35.3203 44.7353 37.7098 44.7353C41.5837 44.7353 44.7353 41.5839 44.7353 37.71C44.7353 35.325 43.5272 33.1804 41.6623 31.9048C42.0903 31.9849 42.529 32.0256 42.9745 32.0256C44.8511 32.0256 46.6154 31.2946 47.9422 29.9678Z" fill="black"/>
<path d="M45.8218 22.1505C44.2483 20.5772 41.6971 20.5772 40.1235 22.1505H31.8768L37.7082 16.3193C39.9335 16.3193 41.7373 14.5153 41.7373 12.29C41.7373 10.0647 39.9335 8.26043 37.7082 8.26043C35.4827 8.26043 33.6788 10.0647 33.6788 12.29L27.8474 18.1214V9.87444C29.421 8.3009 29.421 5.74969 27.8474 4.17615C26.2737 2.60242 23.7225 2.60242 22.1489 4.17615C20.5754 5.74989 20.5754 8.3011 22.1489 9.87444V18.1214L16.3177 12.2898C16.3177 10.0647 14.5137 8.26063 12.2884 8.26063C10.063 8.26063 8.25902 10.0647 8.25902 12.2898C8.25902 14.5153 10.063 16.3193 12.2882 16.3193L18.1198 22.1505H9.87283C8.29909 20.577 5.74788 20.5772 4.17415 22.1505C2.6008 23.7243 2.6008 26.2755 4.17415 27.8492C5.74788 29.4226 8.29909 29.4226 9.87283 27.8492H18.1194L12.2884 33.6803C10.063 33.6803 8.25902 35.4841 8.25902 37.7094C8.25902 39.9349 10.063 41.739 12.2882 41.739C14.5137 41.739 16.3177 39.9349 16.3177 37.7096L22.1489 31.8782V40.1249C20.5754 41.6985 20.5754 44.2499 22.1489 45.8234C23.7227 47.397 26.2739 47.397 27.8476 45.8234C29.421 44.2497 29.421 41.6985 27.8476 40.1248V31.8782L33.6788 37.7096C33.6788 39.9349 35.4827 41.7388 37.708 41.7388C39.9335 41.7388 41.7375 39.9349 41.7375 37.7096C41.7375 35.4841 39.9335 33.6803 37.7082 33.6803L31.8766 27.8488H40.1235C41.6973 29.4226 44.2485 29.4226 45.8218 27.8488C47.3956 26.2753 47.3956 23.7239 45.8218 22.1504" fill="#FFB13B"/>
</svg>
