<svg width="50" height="50" viewBox="0 0 50 50" fill="none" xmlns="http://www.w3.org/2000/svg">
<path d="M0 25V0H50V50H0" fill="#007ACC"/>
<path d="M10.9619 25.0874V27.1249H17.4619V45.6249H22.0744V27.1249H28.5744V25.1249C28.5744 23.9999 28.5744 23.0874 28.5244 23.0624C28.5244 23.0249 24.5619 23.0124 19.7494 23.0124L10.9994 23.0499V25.0999L10.9619 25.0874V25.0874ZM40.1744 22.9999C41.4494 23.2999 42.4244 23.8749 43.2994 24.7874C43.7619 25.2874 44.4494 26.1624 44.4994 26.3874C44.4994 26.4624 42.3369 27.9249 41.0244 28.7374C40.9744 28.7749 40.7744 28.5624 40.5744 28.2374C39.9244 27.3124 39.2619 26.9124 38.2244 26.8374C36.7244 26.7374 35.7244 27.5249 35.7244 28.8374C35.7244 29.2374 35.7994 29.4624 35.9494 29.7874C36.2869 30.4749 36.9119 30.8874 38.8494 31.7374C42.4244 33.2749 43.9744 34.2874 44.9119 35.7374C45.9744 37.3624 46.2119 39.9124 45.4994 41.8249C44.6994 43.9124 42.7494 45.3249 39.9619 45.7874C39.0869 45.9374 37.0869 45.9124 36.1494 45.7499C34.1494 45.3749 32.2369 44.3749 31.0619 43.0874C30.5994 42.5874 29.7119 41.2499 29.7619 41.1624L30.2369 40.8624L32.1119 39.7749L33.5244 38.9499L33.8494 39.3874C34.2619 40.0374 35.1869 40.9124 35.7244 41.2124C37.3494 42.0499 39.5244 41.9374 40.5994 40.9624C41.0619 40.5374 41.2619 40.0874 41.2619 39.4624C41.2619 38.8874 41.1744 38.6249 40.8869 38.1874C40.4869 37.6374 39.6869 37.1874 37.4369 36.1874C34.8494 35.0874 33.7494 34.3874 32.7244 33.3124C32.1369 32.6624 31.5994 31.6499 31.3494 30.8124C31.1619 30.0874 31.0994 28.3124 31.2744 27.5999C31.8119 25.0999 33.6994 23.3499 36.3994 22.8499C37.2744 22.6749 39.3369 22.7499 40.1994 22.9749L40.1744 22.9999V22.9999Z" fill="white"/>
</svg>
