<svg width="50" height="50" viewBox="0 0 50 50" fill="none" xmlns="http://www.w3.org/2000/svg">
<path d="M0.475709 17.2493C0.475709 17.2493 -0.742106 16.3715 0.719272 15.1993L4.12408 12.1548C4.12408 12.1548 5.09833 11.1298 6.1284 12.0229L37.548 35.8108V47.2177C37.548 47.2177 37.5328 49.0089 35.2342 48.811L0.475709 17.2493Z" fill="#2489CA"/>
<path d="M8.57379 24.6018L0.475323 31.9645C0.475323 31.9645 -0.35685 32.5836 0.475323 33.6897L4.23533 37.1098C4.23533 37.1098 5.12839 38.0688 6.44769 36.9778L15.0333 30.4676L8.57379 24.6018Z" fill="#1070B3"/>
<path d="M22.7917 24.6627L37.644 13.3218L37.5475 1.97587C37.5475 1.97587 36.9133 -0.500356 34.7973 0.788497L15.0332 18.7766L22.7917 24.6627Z" fill="#0877B9"/>
<path d="M35.2342 48.8262C36.0969 49.7091 37.1421 49.4198 37.1421 49.4198L48.7165 43.7164C50.1981 42.7066 49.9901 41.4533 49.9901 41.4533V7.3951C49.9901 5.8982 48.4577 5.38063 48.4577 5.38063L38.4259 0.544892C36.2339 -0.809927 34.7979 0.788454 34.7979 0.788454C34.7979 0.788454 36.6449 -0.540993 37.5481 1.97582V47.0096C37.5481 47.3191 37.4821 47.6236 37.3502 47.8976C37.0863 48.4304 36.5129 48.9276 35.1378 48.7196L35.2342 48.8262Z" fill="#3C99D4"/>
</svg>
