<svg width="45" height="50" viewBox="0 0 45 50" fill="none" xmlns="http://www.w3.org/2000/svg">
<path d="M22.0958 0L44.1917 12.5V37.5L22.0958 50L0 37.5V12.5L22.0958 0Z" fill="white"/>
<path d="M40.2461 36.6377L22.8253 46.4919V38.8169L33.6794 32.846L40.2461 36.6377ZM41.4378 35.5585V14.9502L35.0628 18.6294V31.8752L41.4378 35.5585ZM3.87526 36.6377L21.2961 46.4919V38.8169L10.4419 32.846L3.87526 36.6377V36.6377ZM2.68359 35.5585V14.9502L9.05859 18.6294V31.8752L2.68359 35.5585V35.5585ZM3.42943 13.6169L21.2961 3.50854V10.9294L9.85026 17.2252L9.76276 17.2752L3.42943 13.6169V13.6169ZM40.6919 13.6169L22.8253 3.50854V10.9294L34.2711 17.2252L34.3586 17.2752L40.6919 13.6169V13.6169Z" fill="#8ED6FB"/>
<path d="M21.2962 37.0711L10.5879 31.1836V19.5169L21.2962 25.7002V37.0711ZM22.8254 37.0711L33.5337 31.1836V19.5169L22.8254 25.7002V37.0711ZM11.3129 18.1669L22.0629 12.2544L32.8129 18.1669L22.0629 24.3752L11.3129 18.1669" fill="#1C78C0"/>
</svg>
