<svg width="45" height="44" viewBox="0 0 45 44" fill="none" xmlns="http://www.w3.org/2000/svg">
<path d="M22.5001 0C10.0752 0 0 10.0735 0 22.5001C0 32.4414 6.44695 40.8753 15.387 43.8505C16.5114 44.0587 16.9243 43.3624 16.9243 42.7681C16.9243 42.2316 16.9033 40.459 16.8938 38.579C10.6341 39.9401 9.31326 35.9243 9.31326 35.9243C8.28977 33.3235 6.81505 32.6321 6.81505 32.6321C4.77371 31.2356 6.96893 31.2642 6.96893 31.2642C9.22838 31.423 10.4181 33.5829 10.4181 33.5829C12.4249 37.0227 15.6817 36.0282 16.9656 35.4535C17.1675 33.999 17.7507 33.0066 18.3941 32.4447C13.3966 31.8756 8.14295 29.9464 8.14295 21.325C8.14295 18.8686 9.02192 16.8613 10.4613 15.2857C10.2277 14.7189 9.45761 12.4305 10.6793 9.33126C10.6793 9.33126 12.5687 8.72651 16.8684 11.6376C18.663 11.139 20.5879 10.8891 22.5001 10.8806C24.4123 10.8891 26.3385 11.139 28.1367 11.6376C32.4313 8.72651 34.3181 9.33126 34.3181 9.33126C35.5427 12.4305 34.7723 14.7189 34.5387 15.2857C35.9813 16.8613 36.8542 18.8685 36.8542 21.325C36.8542 29.9668 31.5907 31.8698 26.5805 32.4267C27.3874 33.125 28.1065 34.4944 28.1065 36.5934C28.1065 39.6039 28.0804 42.0269 28.0804 42.7681C28.0804 43.3668 28.4854 44.0684 29.6261 43.8475C38.5612 40.869 45 32.438 45 22.5001C45 10.0735 34.9262 0 22.5001 0Z" fill="#FFFFFE"/>
<path d="M8.42685 32.0524C8.37744 32.1641 8.20133 32.1977 8.04128 32.1211C7.87805 32.0477 7.78629 31.8952 7.83923 31.783C7.88776 31.6679 8.06387 31.6358 8.22674 31.7131C8.39033 31.7863 8.4835 31.9402 8.42685 32.0524V32.0524ZM9.53364 33.0399C9.42635 33.1395 9.21653 33.0932 9.07413 32.936C8.92695 32.7791 8.89943 32.5695 9.0083 32.4684C9.11895 32.369 9.32241 32.4154 9.46993 32.5725C9.61711 32.7311 9.64569 32.9395 9.53346 33.0401L9.53364 33.0399ZM10.293 34.3034C10.155 34.3992 9.92945 34.3094 9.79022 34.1093C9.6524 33.9094 9.6524 33.6694 9.79322 33.5732C9.93298 33.477 10.155 33.5635 10.2961 33.762C10.4338 33.9655 10.4338 34.2055 10.2928 34.3036L10.293 34.3034ZM11.5769 35.7668C11.4536 35.9027 11.191 35.8664 10.9986 35.6807C10.8021 35.4993 10.7472 35.2419 10.8709 35.1058C10.9956 34.9696 11.2598 35.0079 11.4536 35.1919C11.6489 35.373 11.7086 35.6324 11.5771 35.7668H11.5769ZM13.2364 36.2609C13.1822 36.4371 12.9292 36.5172 12.6744 36.4423C12.4199 36.3652 12.2533 36.1588 12.3047 35.9807C12.3576 35.8034 12.6117 35.7199 12.8685 35.8C13.1226 35.8768 13.2895 36.0817 13.2366 36.2609H13.2364ZM15.1253 36.4704C15.1316 36.656 14.9154 36.8099 14.6479 36.8133C14.3788 36.8191 14.1612 36.6689 14.1584 36.4865C14.1584 36.2991 14.3696 36.1466 14.6386 36.1422C14.9061 36.1369 15.1253 36.286 15.1253 36.4704V36.4704ZM16.9806 36.3993C17.0127 36.5803 16.8267 36.7663 16.5612 36.8157C16.3 36.8634 16.0582 36.7517 16.0249 36.5722C15.9924 36.3866 16.1819 36.2008 16.4426 36.1526C16.7087 36.1064 16.9467 36.2152 16.9806 36.3993" fill="#FFFFFE"/>
</svg>
