<svg width="42" height="34" viewBox="0 0 42 34" fill="none" xmlns="http://www.w3.org/2000/svg">
<path d="M28.0631 0.00754717V0H30.0325L30.752 0.143396C31.2318 0.236491 31.6673 0.358491 32.0586 0.509434C32.45 0.660377 32.8287 0.836491 33.1948 1.03774C33.5609 1.23898 33.8929 1.44404 34.1908 1.65283C34.4862 1.85913 34.7513 2.078 34.9862 2.30943C35.2184 2.5434 35.5807 2.60377 36.073 2.49057C36.5654 2.37736 37.0956 2.22011 37.6637 2.01887C38.2317 1.81762 38.7935 1.59121 39.349 1.33962C39.9044 1.08804 40.2428 0.928302 40.364 0.860377C40.4826 0.789962 40.5458 0.752226 40.5533 0.74717L40.5609 0.735849L40.5987 0.716981L40.6366 0.698113L40.6745 0.679245L40.7124 0.660377L40.7199 0.649057L40.7313 0.641509L40.7427 0.633962L40.7502 0.622642L40.7881 0.611321L40.826 0.603774L40.8184 0.660377L40.807 0.716981L40.7881 0.773585L40.7692 0.830189L40.7502 0.867925L40.7313 0.90566L40.7124 0.962264C40.6997 1 40.6871 1.0503 40.6745 1.11321C40.6619 1.17611 40.5419 1.42766 40.3147 1.86792C40.0875 2.30819 39.8034 2.75472 39.4626 3.20755C39.1217 3.66038 38.8163 4.00249 38.5461 4.23396C38.2734 4.46792 38.0929 4.63143 38.0045 4.72453C37.9162 4.82011 37.8089 4.90815 37.6826 4.98868L37.4932 5.11321L37.4554 5.13208L37.4175 5.15094L37.41 5.16226L37.3986 5.16981L37.3872 5.17736L37.3796 5.18868L37.3417 5.20755L37.3039 5.22642L37.2963 5.23774L37.2849 5.24528L37.2736 5.25283L37.266 5.26415L37.2585 5.27547L37.2471 5.28302L37.2357 5.29057L37.2281 5.30189H37.4175L38.4779 5.07547C39.1849 4.92453 39.8602 4.74215 40.5041 4.5283L41.5266 4.18868L41.6402 4.15094L41.697 4.13208L41.7349 4.11321L41.7728 4.09434L41.8106 4.07547L41.8485 4.0566L41.9243 4.04528L42 4.03774V4.11321L41.9811 4.12075L41.9621 4.13208L41.9546 4.1434L41.9432 4.15094L41.9318 4.15849L41.9243 4.16981L41.9167 4.18113L41.9053 4.18868L41.894 4.19623L41.8864 4.20755L41.8788 4.21887L41.8674 4.22642L41.8485 4.26415L41.8296 4.30189L41.8182 4.30943C41.8132 4.31698 41.6529 4.53079 41.3372 4.95094C41.0217 5.37359 40.8512 5.5874 40.826 5.59245C40.8007 5.6 40.7654 5.63774 40.7199 5.70566C40.677 5.77608 40.4094 6.0566 39.917 6.54717C39.4247 7.03774 38.9425 7.47419 38.4704 7.8566C37.9957 8.24151 37.7558 8.71445 37.7508 9.27547C37.7432 9.83396 37.7142 10.4654 37.6637 11.1698C37.6132 11.8742 37.5185 12.6352 37.3796 13.4528C37.2408 14.2705 37.0262 15.195 36.7358 16.2264C36.4455 17.2578 36.092 18.2642 35.6754 19.2453C35.2588 20.2264 34.8233 21.1069 34.3688 21.8868C33.9143 22.6667 33.4977 23.3271 33.119 23.8679C32.7403 24.4088 32.3553 24.9182 31.9639 25.3962C31.5726 25.8742 31.0778 26.4126 30.4794 27.0113C29.8785 27.6075 29.5503 27.9346 29.4947 27.9925C29.4367 28.0478 29.1892 28.2541 28.7524 28.6113C28.3181 28.9711 27.851 29.3308 27.3511 29.6906C26.8538 30.0478 26.3968 30.3459 25.9802 30.5849C25.5636 30.8239 25.0612 31.0968 24.4729 31.4038C23.8871 31.7132 23.2534 32 22.5717 32.2642C21.89 32.5283 21.1704 32.7736 20.413 33C19.6555 33.2264 18.9234 33.4025 18.2164 33.5283C17.5095 33.6541 16.7079 33.761 15.8115 33.8491L14.4671 33.9811V34H12.0054V33.9811L11.6835 33.9623C11.4689 33.9497 11.2922 33.9371 11.1533 33.9245C11.0145 33.912 10.4905 33.8428 9.5816 33.717C8.67268 33.5912 7.95944 33.4654 7.44184 33.3396C6.92428 33.2139 6.15419 32.9748 5.13165 32.6226C4.10911 32.2705 3.23426 31.9145 2.50712 31.5547C1.78252 31.1975 1.32806 30.9711 1.14373 30.8755C0.961948 30.7824 0.757439 30.6667 0.530207 30.5283L0.18936 30.3208L0.181823 30.3094L0.170424 30.3019L0.159062 30.2943L0.151488 30.283L0.113616 30.2642L0.0757439 30.2453L0.0682074 30.234L0.0568079 30.2264L0.0454463 30.2189L0.037872 30.2075L0.0303354 30.1962L0.018936 30.1887H0V30.1132L0.037872 30.1208L0.0757439 30.1321L0.246168 30.1509C0.359784 30.1635 0.669084 30.1824 1.17403 30.2075C1.67902 30.2327 2.21551 30.2327 2.78359 30.2075C3.35167 30.1824 3.9324 30.1258 4.5257 30.0377C5.11904 29.9497 5.81967 29.7988 6.62759 29.5849C7.43555 29.3711 8.17784 29.117 8.8545 28.8226C9.52862 28.5258 10.0083 28.3044 10.2936 28.1585C10.5764 28.0151 11.0081 27.7484 11.5888 27.3585L12.4599 26.7736L12.4674 26.7623L12.4788 26.7547L12.4902 26.7472L12.4977 26.7358L12.5053 26.7245L12.5167 26.717L12.5281 26.7094L12.5356 26.6981L12.5735 26.6868L12.6114 26.6792L12.6189 26.6415L12.6303 26.6038L12.6417 26.5962L12.6492 26.5849L12.3463 26.566C12.1443 26.5535 11.9486 26.5409 11.7592 26.5283C11.5699 26.5157 11.2732 26.4591 10.8693 26.3585C10.4653 26.2579 10.0298 26.1069 9.56267 25.9057C9.09559 25.7044 8.64113 25.4654 8.19928 25.1887C7.75746 24.912 7.43805 24.6817 7.24112 24.4981C7.04672 24.3169 6.79423 24.0604 6.48368 23.7283C6.17567 23.3937 5.90802 23.0503 5.68079 22.6981C5.45356 22.3459 5.23644 21.9396 5.02943 21.4792L4.71506 20.7925L4.69612 20.7359L4.67719 20.6792L4.66582 20.6415L4.65825 20.6038L4.71506 20.6113L4.77187 20.6226L5.18846 20.6792C5.46621 20.717 5.90174 20.7295 6.49504 20.717C7.08838 20.7044 7.49865 20.6792 7.72588 20.6415C7.95311 20.6038 8.09199 20.5786 8.14247 20.566L8.21821 20.5472L8.31289 20.5283L8.40757 20.5094L8.41515 20.4981L8.42651 20.4906L8.43791 20.483L8.44545 20.4717L8.3697 20.4528L8.29396 20.434L8.21821 20.4151L8.14247 20.3962L8.06673 20.3774C8.01624 20.3648 7.92789 20.3396 7.80162 20.3019C7.6754 20.2642 7.33455 20.1258 6.77908 19.8868C6.22365 19.6478 5.7818 19.4151 5.45356 19.1887C5.12451 18.9616 4.81076 18.7133 4.51434 18.4453C4.21894 18.1736 3.89452 17.8239 3.54103 17.3962C3.18757 16.9686 2.87198 16.4717 2.59423 15.9057C2.31651 15.3396 2.10822 14.7988 1.96934 14.283C1.83102 13.7703 1.73977 13.2461 1.6967 12.717L1.62849 11.9245L1.66637 11.9321L1.70424 11.9434L1.74211 11.9623L1.77998 11.9811L1.81785 12L1.85573 12.0189L2.44274 12.283C2.83411 12.4591 3.32012 12.6101 3.90081 12.7358C4.48154 12.8616 4.82867 12.9308 4.94229 12.9434L5.11271 12.9623H5.45356L5.44602 12.9509L5.43463 12.9434L5.42326 12.9358L5.41569 12.9245L5.40815 12.9132L5.39675 12.9057L5.38539 12.8981L5.37782 12.8868L5.33995 12.8679L5.30207 12.8491L5.29454 12.8377L5.28314 12.8302L5.27178 12.8226L5.2642 12.8113L5.22633 12.7925L5.18846 12.7736L5.18092 12.7623C5.17335 12.7572 5.06477 12.6767 4.85518 12.5208C4.64814 12.3623 4.43102 12.1572 4.20379 11.9057C3.97656 11.6541 3.74932 11.3899 3.52209 11.1132C3.29444 10.8359 3.09168 10.5391 2.91614 10.2264C2.73943 9.91196 2.55257 9.51192 2.35564 9.02641C2.16124 8.5434 2.01354 8.0566 1.91253 7.56604C1.81157 7.07547 1.75476 6.59121 1.74211 6.11321C1.7295 5.63521 1.74211 5.22642 1.77998 4.88679C1.81785 4.54717 1.8936 4.16351 2.00721 3.73585C2.12083 3.30819 2.28497 2.85536 2.49955 2.37736L2.82146 1.66038L2.8404 1.60377L2.85933 1.54717L2.87073 1.53962L2.87827 1.5283L2.88584 1.51698L2.8972 1.50943L2.9086 1.51698L2.91614 1.5283L2.92371 1.53962L2.93508 1.54717L2.94648 1.55472L2.95401 1.56604L2.96159 1.57736L2.97295 1.58491L2.99188 1.62264L3.01082 1.66038L3.02222 1.66792L3.02976 1.67925L3.54103 2.24528C3.88188 2.62264 4.28586 3.04404 4.75293 3.50943C5.22004 3.97483 5.47882 4.21634 5.52931 4.23396C5.57983 4.25408 5.64292 4.31192 5.71867 4.40755C5.79441 4.50064 6.0469 4.72328 6.4761 5.07547C6.90535 5.42766 7.4671 5.83649 8.16141 6.30189C8.85575 6.76728 9.6258 7.22642 10.4716 7.67925C11.3174 8.13208 12.2264 8.54087 13.1984 8.90566C14.1704 9.27045 14.8521 9.50943 15.2435 9.62264C15.6348 9.73585 16.3039 9.88049 17.2507 10.0566C18.1975 10.2327 18.9108 10.3459 19.3904 10.3962C19.8702 10.4465 20.1984 10.4755 20.3751 10.483L20.6402 10.4906L20.6327 10.434L20.6213 10.3774L20.5455 9.90566C20.4951 9.59121 20.4698 9.15094 20.4698 8.58491C20.4698 8.01887 20.514 7.49687 20.6023 7.01887C20.6907 6.54087 20.8233 6.0566 21 5.56604C21.1767 5.07547 21.3497 4.68174 21.5188 4.38491C21.6906 4.09057 21.9153 3.75472 22.193 3.37736C22.4707 3 22.8305 2.61008 23.2723 2.20755C23.7142 1.80502 24.2191 1.44653 24.7872 1.13208C25.3553 0.817623 25.8792 0.578604 26.3589 0.415094C26.8386 0.251585 27.2426 0.144642 27.5708 0.0943396C27.899 0.0440377 28.0631 0.0150943 28.0631 0.00754717Z" fill="#42C6FF"/>
</svg>
